<svg width="597" height="451" viewBox="0 0 597 451" fill="none" xmlns="http://www.w3.org/2000/svg">
<path fill-rule="evenodd" clip-rule="evenodd" d="M334.083 335.574C330.928 352.243 313.713 365.073 293.278 365.073C288.197 365.073 283.354 364.28 278.909 362.831C274.375 378.014 258.025 389.329 238.835 389.329C217.055 389.329 199.656 374.753 199.224 356.49C196.782 357.381 194.098 357.876 191.291 357.876C190.727 357.876 190.169 357.856 189.618 357.817C186.249 363.373 179.4 367.196 171.592 367.196C160.644 367.196 151.956 359.679 152.186 350.407C152.251 347.808 153.009 345.347 154.307 343.151C136.018 339.912 122.558 326.122 122.968 309.601C123.336 294.776 134.765 282.149 150.441 277.373C149.517 275.471 149.031 273.374 149.085 271.17C149.3 262.532 157.741 255.53 167.939 255.53C176.158 255.53 183.011 260.078 185.248 266.366C188.195 264.75 191.696 263.81 195.432 263.81C199.1 263.81 202.494 264.715 205.329 266.276C212.496 255.751 225.933 248.629 241.158 248.629C249.834 248.629 257.815 250.942 264.306 254.88C268.913 251.559 274.866 249.549 281.324 249.549C282.241 249.549 283.145 249.59 284.036 249.669C287.52 248.442 291.239 247.609 295.111 247.237C298.301 244.681 302.594 243.109 307.282 243.109C311.646 243.109 315.601 244.471 318.597 246.721C321.705 244.471 325.727 243.109 330.091 243.109C339.689 243.109 347.307 249.699 347.105 257.829C347.015 261.446 345.393 264.758 342.774 267.321C364.057 268.302 380.607 283.247 380.153 301.539C379.683 320.466 361.187 335.809 338.841 335.809C337.229 335.809 335.642 335.729 334.083 335.574Z" fill="white"/>
<path fill-rule="evenodd" clip-rule="evenodd" d="M301.313 368.329C310.873 388.195 336.795 398.519 362.449 391.654C368.828 389.947 374.641 387.323 379.735 384.012C390.527 401.548 414.854 410.259 438.944 403.813C466.286 396.496 483.231 372.352 477.638 349.28C481.004 349.579 484.539 349.298 488.064 348.354C488.771 348.165 489.465 347.953 490.143 347.719C496.24 353.562 506.122 356.061 515.924 353.438C529.668 349.76 538.05 337.405 534.645 325.841C533.691 322.601 531.913 319.766 529.545 317.446C551.417 307.235 563.681 285.401 557.616 264.799C552.173 246.311 533.584 234.299 512.301 233.57C512.822 230.872 512.727 228.076 511.918 225.327C508.747 214.556 495.798 208.601 482.996 212.027C472.677 214.789 465.603 222.801 464.907 231.446C460.664 230.407 455.954 230.403 451.263 231.658C446.659 232.89 442.701 235.167 439.667 238.079C427.134 227.274 407.872 222.848 388.76 227.962C377.868 230.877 368.625 236.462 361.801 243.586C354.901 240.965 346.752 240.442 338.645 242.611C337.494 242.919 336.372 243.274 335.281 243.672C330.494 243.303 325.546 243.506 320.56 244.34C315.697 242.204 309.779 241.672 303.894 243.247C298.416 244.713 293.909 247.752 290.904 251.583C286.246 249.803 280.739 249.444 275.261 250.91C263.211 254.134 255.862 264.967 258.847 275.105C260.175 279.615 263.324 283.228 267.472 285.565C241.083 293.948 225.328 318.269 232.043 341.08C238.992 364.682 267.366 377.73 295.418 370.223C297.442 369.681 299.408 369.048 301.313 368.329Z" fill="white"/>
<path d="M166.107 167.658C179.748 174.001 193.499 176.164 208.282 176.164C215.656 176.164 222.095 175.846 223.273 173.785C237.933 148.13 222.657 101.253 206.676 78.9644C203.894 75.0835 197.768 75.6614 193.798 76.8526C175.278 82.4085 183.436 105.835 184.191 119.415C184.211 119.779 182.614 115.598 182.287 114.805C176.368 100.429 167.861 77.0118 154.091 68.138C149.639 65.2689 142.998 60.6486 137.494 62.5463C134.165 63.6943 133.542 64.7351 133.063 67.9C129.555 91.0499 145.133 111.702 158.374 129.051C158.577 129.318 159.549 131.576 159.028 130.925C157.073 128.481 153.686 127.149 151.117 125.423C142.957 119.94 112.326 115.33 115.782 130.449C119.881 148.383 151.924 161.062 166.107 167.658Z" fill="#A5D6A7"/>
<path d="M150.176 288.811C167.839 280.088 181.324 267.826 193.447 252.735C199.495 245.208 204.45 238.375 203.312 235.482C189.147 199.478 128.768 176.627 92.9103 174.661C86.6668 174.319 82.2332 181.046 80.1928 186.076C70.6764 209.536 101.28 220.421 115.761 230.787C116.149 231.065 110.572 229.267 109.494 228.95C89.9651 223.203 59.0842 212.682 38.7335 219.461C32.1536 221.652 21.991 224.642 19.4148 231.817C17.8565 236.156 18.4079 237.646 21.2454 240.731C41.9999 263.297 75.8567 264.331 104.425 265.044C104.864 265.055 107.966 265.915 106.875 265.913C102.776 265.904 98.6391 268.269 94.7697 269.476C82.4818 273.309 52.6549 300.796 70.9229 309.667C92.5908 320.19 131.812 297.88 150.176 288.811Z" fill="#A5D6A7"/>
<path d="M451.534 261.105C432.028 263.853 413.977 261.323 395.458 255.69C386.22 252.88 378.276 250.028 377.586 246.997C368.997 209.272 405.996 156.369 434.509 134.536C439.474 130.735 446.927 133.793 451.447 136.798C472.53 150.815 453.384 177.054 447.264 193.778C447.1 194.227 450.693 189.598 451.405 188.728C464.298 172.975 483.879 146.881 504.511 141.012C511.181 139.114 521.261 135.857 527.432 140.331C531.165 143.038 531.549 144.579 530.944 148.727C526.517 179.064 499.131 198.999 475.933 215.688C475.577 215.944 473.499 218.403 474.4 217.786C477.781 215.469 482.531 215.092 486.407 213.908C498.718 210.149 538.848 216.046 528.757 233.67C516.788 254.574 471.816 258.247 451.534 261.105Z" fill="#A5D6A7"/>
<path fill-rule="evenodd" clip-rule="evenodd" d="M402.791 179.076C400.362 184.88 399.02 191.252 399.02 197.937C399.02 204.623 400.362 210.995 402.791 216.799H151.269C144.641 216.799 139.269 211.426 139.269 204.799V191.076C139.269 184.448 144.641 179.076 151.269 179.076H402.791Z" fill="#2196F3"/>
<path fill-rule="evenodd" clip-rule="evenodd" d="M401.493 182.542C399.888 187.382 399.02 192.558 399.02 197.937C399.02 203.316 399.888 208.492 401.493 213.333H243.669C237.042 213.333 231.669 207.96 231.669 201.333V194.542C231.669 187.914 237.042 182.542 243.669 182.542H401.493Z" fill="white"/>
<path fill-rule="evenodd" clip-rule="evenodd" d="M409.886 122.804C403.584 130.263 399.786 139.905 399.786 150.434C399.786 160.964 403.585 170.607 409.887 178.066C407.908 178.722 405.792 179.077 403.594 179.077H194.771C183.726 179.077 174.771 170.122 174.771 159.077V141.794C174.771 130.748 183.726 121.794 194.771 121.794H403.594C405.792 121.794 407.907 122.149 409.886 122.804Z" fill="#FFC107"/>
<path fill-rule="evenodd" clip-rule="evenodd" d="M406.72 127.057C402.334 133.779 399.785 141.809 399.785 150.434C399.785 159.06 402.335 167.091 406.721 173.813H269.815C261.531 173.813 254.815 167.097 254.815 158.813V142.057C254.815 133.772 261.531 127.057 269.815 127.057H406.72Z" fill="white"/>
<path fill-rule="evenodd" clip-rule="evenodd" d="M190.809 92.8286C192.675 97.2851 193.705 102.178 193.705 107.311C193.705 112.445 192.674 117.338 190.809 121.794H360.949C368.948 121.794 375.432 115.31 375.432 107.311C375.432 99.3128 368.948 92.8286 360.949 92.8286H190.809Z" fill="#4CAF50"/>
<path fill-rule="evenodd" clip-rule="evenodd" d="M191.806 95.4897C193.038 99.2065 193.705 103.181 193.705 107.311C193.705 111.441 193.038 115.416 191.806 119.133H298.966C305.494 119.133 310.787 113.84 310.787 107.311C310.787 100.782 305.494 95.4897 298.966 95.4897H191.806Z" fill="white"/>
<path fill-rule="evenodd" clip-rule="evenodd" d="M463.659 216.799C460.331 224.752 458.492 233.483 458.492 242.643C458.492 251.803 460.331 260.534 463.659 268.487H126.583C113.328 268.487 102.583 257.742 102.583 244.487V240.799C102.583 227.544 113.328 216.799 126.583 216.799H463.659Z" fill="#4CAF50"/>
<path fill-rule="evenodd" clip-rule="evenodd" d="M462.204 220.598C459.799 227.502 458.492 234.92 458.492 242.643C458.492 250.366 459.799 257.785 462.204 264.688H245.189C236.353 264.688 229.189 257.525 229.189 248.688V236.598C229.189 227.762 236.353 220.598 245.189 220.598H462.204Z" fill="white"/>
<path fill-rule="evenodd" clip-rule="evenodd" d="M237.12 288.819C233.69 270.7 214.978 256.754 192.765 256.754C187.242 256.754 181.977 257.616 177.146 259.191C172.218 242.687 154.445 230.388 133.586 230.388C109.911 230.388 90.9982 246.232 90.5284 266.084C87.8735 265.115 84.9566 264.578 81.9047 264.578C81.2921 264.578 80.686 264.599 80.0874 264.642C76.4245 258.601 68.9802 254.445 60.493 254.445C48.5925 254.445 39.148 262.616 39.3983 272.696C39.4684 275.521 40.2925 278.196 41.7044 280.583C21.8232 284.104 7.19268 299.094 7.63848 317.052C8.03854 333.167 20.4614 346.892 37.5008 352.084C36.4964 354.151 35.968 356.431 36.0275 358.826C36.2606 368.216 45.436 375.827 56.5214 375.827C65.4559 375.827 72.9043 370.883 75.3363 364.048C78.5393 365.805 82.3448 366.827 86.4067 366.827C90.3931 366.827 94.0835 365.843 97.1646 364.146C104.955 375.586 119.562 383.328 136.111 383.328C145.542 383.328 154.217 380.813 161.272 376.533C166.28 380.143 172.751 382.327 179.771 382.327C180.767 382.327 181.75 382.283 182.717 382.198C186.505 383.532 190.548 384.437 194.758 384.842C198.225 387.62 202.892 389.329 207.988 389.329C212.731 389.329 217.03 387.848 220.287 385.402C223.665 387.848 228.037 389.329 232.781 389.329C243.214 389.329 251.494 382.165 251.275 373.328C251.177 369.396 249.413 365.796 246.567 363.01C269.702 361.944 287.692 345.699 287.198 325.815C286.687 305.241 266.582 288.563 242.292 288.563C240.54 288.563 238.814 288.65 237.12 288.819Z" fill="white"/>
<ellipse cx="52.5812" cy="44.5492" rx="52.5812" ry="44.5492" transform="matrix(-0.966008 0.258513 -0.282407 -0.959295 596.933 291.042)" fill="white"/>
<path fill-rule="evenodd" clip-rule="evenodd" d="M449.035 78.4712C449.311 78.4712 449.535 78.695 449.535 78.9712V83.6064L454.17 83.6064C454.447 83.6064 454.67 83.8303 454.67 84.1064C454.67 84.3826 454.447 84.6064 454.17 84.6064H449.535V89.2417C449.535 89.5178 449.311 89.7417 449.035 89.7417C448.759 89.7417 448.535 89.5178 448.535 89.2417V84.6064H443.9C443.624 84.6064 443.4 84.3826 443.4 84.1064C443.4 83.8303 443.624 83.6064 443.9 83.6064L448.535 83.6064V78.9712C448.535 78.695 448.759 78.4712 449.035 78.4712Z" fill="#4CAF50"/>
<path fill-rule="evenodd" clip-rule="evenodd" d="M279.694 15.0991C279.97 15.0991 280.194 15.323 280.194 15.5991V20.2344L284.829 20.2344C285.105 20.2344 285.329 20.4582 285.329 20.7344C285.329 21.0105 285.105 21.2344 284.829 21.2344H280.194V25.8696C280.194 26.1458 279.97 26.3696 279.694 26.3696C279.418 26.3696 279.194 26.1458 279.194 25.8696V21.2344H274.559C274.282 21.2344 274.059 21.0105 274.059 20.7344C274.059 20.4582 274.282 20.2344 274.559 20.2344L279.194 20.2344V15.5991C279.194 15.323 279.418 15.0991 279.694 15.0991Z" fill="#4CAF50"/>
<path fill-rule="evenodd" clip-rule="evenodd" d="M495.974 63.4844C496.25 63.4844 496.474 63.7082 496.474 63.9844V68.6196L501.109 68.6196C501.386 68.6196 501.609 68.8435 501.609 69.1196C501.609 69.3958 501.386 69.6196 501.109 69.6196H496.474V74.2549C496.474 74.531 496.25 74.7549 495.974 74.7549C495.698 74.7549 495.474 74.531 495.474 74.2549V69.6196H490.839C490.563 69.6196 490.339 69.3958 490.339 69.1196C490.339 68.8435 490.563 68.6196 490.839 68.6196L495.474 68.6196V63.9844C495.474 63.7082 495.698 63.4844 495.974 63.4844Z" fill="#4CAF50"/>
<path fill-rule="evenodd" clip-rule="evenodd" d="M326.633 0.112305C326.909 0.112305 327.133 0.336162 327.133 0.612305V5.24756L331.768 5.24756C332.044 5.24756 332.268 5.47142 332.268 5.74756C332.268 6.0237 332.044 6.24756 331.768 6.24756H327.133V10.8828C327.133 11.159 326.909 11.3828 326.633 11.3828C326.357 11.3828 326.133 11.159 326.133 10.8828V6.24756H321.498C321.221 6.24756 320.998 6.0237 320.998 5.74756C320.998 5.47142 321.221 5.24756 321.498 5.24756L326.133 5.24756V0.612305C326.133 0.336162 326.357 0.112305 326.633 0.112305Z" fill="#4CAF50"/>
<path fill-rule="evenodd" clip-rule="evenodd" d="M35.8608 109.198C36.137 109.198 36.3608 109.422 36.3608 109.698V114.333L40.9961 114.333C41.2722 114.333 41.4961 114.557 41.4961 114.833C41.4961 115.109 41.2722 115.333 40.9961 115.333H36.3608V119.968C36.3608 120.244 36.137 120.468 35.8608 120.468C35.5847 120.468 35.3608 120.244 35.3608 119.968V115.333H30.7256C30.4494 115.333 30.2256 115.109 30.2256 114.833C30.2256 114.557 30.4494 114.333 30.7256 114.333L35.3608 114.333V109.698C35.3608 109.422 35.5847 109.198 35.8608 109.198Z" fill="#4CAF50"/>
<path fill-rule="evenodd" clip-rule="evenodd" d="M71.2535 130.556C71.4323 130.556 71.5772 130.701 71.5772 130.879V133.88L74.5779 133.88C74.7567 133.88 74.9016 134.025 74.9016 134.204C74.9016 134.383 74.7567 134.527 74.5779 134.527H71.5772V137.528C71.5772 137.707 71.4323 137.852 71.2535 137.852C71.0748 137.852 70.9299 137.707 70.9299 137.528V134.527H67.9292C67.7504 134.527 67.6055 134.383 67.6055 134.204C67.6055 134.025 67.7504 133.88 67.9292 133.88L70.9299 133.88V130.879C70.9299 130.701 71.0748 130.556 71.2535 130.556Z" fill="#4CAF50"/>
<path fill-rule="evenodd" clip-rule="evenodd" d="M49.7097 159.935C49.9859 159.935 50.2097 160.159 50.2097 160.435V165.07L54.845 165.07C55.1211 165.07 55.345 165.294 55.345 165.57C55.345 165.846 55.1211 166.07 54.845 166.07H50.2097V170.706C50.2097 170.982 49.9859 171.206 49.7097 171.206C49.4336 171.206 49.2097 170.982 49.2097 170.706V166.07H44.5745C44.2983 166.07 44.0745 165.846 44.0745 165.57C44.0745 165.294 44.2983 165.07 44.5745 165.07L49.2097 165.07V160.435C49.2097 160.159 49.4336 159.935 49.7097 159.935Z" fill="#4CAF50"/>
<path fill-rule="evenodd" clip-rule="evenodd" d="M490.839 109.198C491.059 109.198 491.238 109.377 491.238 109.598V113.304L494.945 113.304C495.166 113.304 495.345 113.484 495.345 113.704C495.345 113.925 495.166 114.104 494.945 114.104H491.238V117.811C491.238 118.032 491.059 118.211 490.839 118.211C490.618 118.211 490.439 118.032 490.439 117.811V114.104H486.732C486.511 114.104 486.332 113.925 486.332 113.704C486.332 113.484 486.511 113.304 486.732 113.304H490.439V109.598C490.439 109.377 490.618 109.198 490.839 109.198Z" fill="#4CAF50"/>
<path fill-rule="evenodd" clip-rule="evenodd" d="M310.787 33.1426C310.946 33.1426 311.076 33.2717 311.076 33.431V36.1047L313.749 36.1047C313.908 36.1047 314.038 36.2338 314.038 36.3931C314.038 36.5523 313.908 36.6815 313.749 36.6815H311.076V39.3551C311.076 39.5144 310.946 39.6436 310.787 39.6436C310.628 39.6436 310.499 39.5144 310.499 39.3551V36.6815H307.825C307.666 36.6815 307.537 36.5523 307.537 36.3931C307.537 36.2338 307.666 36.1047 307.825 36.1047L310.499 36.1047V33.431C310.499 33.2717 310.628 33.1426 310.787 33.1426Z" fill="#4CAF50"/>
</svg>
