<svg width="1512" height="1013" viewBox="0 0 1512 1013" fill="none" xmlns="http://www.w3.org/2000/svg">
<g clip-path="url(#clip0_752_8761)">
<rect width="1512" height="1013" fill="#0A2D49"/>
<g clip-path="url(#clip1_752_8761)">
<path fill-rule="evenodd" clip-rule="evenodd" d="M1270.55 104.02C1276.51 100.717 1282.98 98.939 1289.62 98.552C1278.24 46.03 1295.48 -5.41371 1336.52 -28.1479C1367.6 -45.3713 1405.42 -42.2759 1438.66 -23.4547C1429.63 -74.0115 1447.07 -122.655 1486.66 -144.585C1520.76 -163.477 1562.95 -157.923 1598.32 -133.985C1594.78 -143.694 1593.57 -153.613 1594.55 -162.783C1583.32 -168.245 1573.05 -177.821 1565.97 -190.603C1550.4 -218.715 1556.16 -251.687 1578.83 -264.25C1601.51 -276.813 1632.52 -264.208 1648.09 -236.097C1655.17 -223.315 1657.84 -209.527 1656.52 -197.111C1667.75 -191.649 1678.02 -182.073 1685.1 -169.291C1696.2 -149.254 1696.46 -126.747 1687.49 -110.922C1695.75 -103.523 1703.11 -94.3979 1708.99 -83.7839C1719.47 -64.871 1723.44 -44.4756 1721.52 -26.0906C1743.2 -12.881 1762.69 7.08804 1776.77 32.4998C1801.47 77.089 1803.12 126.932 1784.97 163.422C1793.98 169.424 1802.06 178.034 1808.01 188.775C1814.07 199.719 1817.09 211.356 1817.3 222.366C1838.72 219.659 1862.71 233.03 1876.04 257.103C1892.59 286.971 1886.47 322.005 1862.38 335.353C1838.28 348.701 1805.34 335.309 1788.79 305.44C1787.95 303.923 1787.17 302.393 1786.44 300.853C1778.69 324.51 1763.74 344.265 1742.27 356.161C1689.47 385.408 1617.28 356.063 1581.02 290.616C1579.31 287.533 1577.72 284.424 1576.23 281.297C1568.05 293.993 1557.13 304.568 1543.64 312.041C1494.06 339.511 1427.36 315.295 1389.4 258.027C1387.05 260.106 1384.45 261.945 1381.63 263.508C1355.77 277.837 1320.4 263.46 1302.64 231.395C1301.23 228.864 1299.98 226.298 1298.88 223.711C1282.16 219.076 1266.1 206.48 1255.88 188.024C1238.12 155.96 1244.68 118.35 1270.55 104.02Z" fill="#0D3C61"/>
<path fill-rule="evenodd" clip-rule="evenodd" d="M242.917 229.139C237.417 228.45 232.316 226.517 227.769 223.588C210.073 263.538 174.096 289.06 136.249 284.322C107.577 280.733 84.2252 260.576 71.414 232.282C53.116 269.814 18.3477 293.401 -18.1599 288.831C-49.6085 284.894 -74.6558 261.026 -86.415 228.352C-88.7385 236.428 -92.7035 243.518 -97.7414 249.071C-92.9849 258.04 -90.8286 269.252 -92.3043 281.04C-95.5499 306.966 -115.135 325.86 -136.049 323.242C-156.962 320.624 -171.285 297.485 -168.04 271.559C-166.564 259.77 -161.71 249.435 -154.888 241.915C-159.645 232.946 -161.801 221.734 -160.325 209.946C-158.012 191.468 -147.398 176.561 -133.918 170.47C-135.799 161.649 -136.261 152.128 -135.035 142.339C-132.852 124.897 -125.686 109.598 -115.612 98.4455C-123.515 79.3824 -126.747 56.9242 -123.814 33.488C-118.666 -7.63454 -95.8602 -41.1587 -66.4492 -56.4224C-69.4941 -64.6859 -70.6677 -74.2083 -69.4277 -84.1136C-68.1643 -94.2063 -64.5703 -103.296 -59.4301 -110.626C-74.7956 -119.116 -84.142 -139.394 -81.3627 -161.596C-77.9143 -189.142 -57.1052 -209.217 -34.8843 -206.436C-12.6634 -203.654 2.55464 -179.068 -0.893758 -151.522C-1.06889 -150.123 -1.2888 -148.744 -1.5514 -147.385C14.8767 -159.207 34.1676 -165.013 53.9702 -162.533C102.66 -156.438 136.006 -102.567 128.45 -42.2083C128.094 -39.3647 127.653 -36.5574 127.132 -33.7899C138.586 -38.2098 150.825 -39.9222 163.266 -38.3647C208.996 -32.6399 241.19 15.2292 238.675 71.0346C241.218 70.7981 243.801 70.832 246.403 71.1576C270.257 74.1439 286.595 100.537 282.893 130.109C282.6 132.443 282.192 134.728 281.676 136.955C290.435 148.012 294.943 163.981 292.813 181.002C289.111 210.573 266.771 232.125 242.917 229.139Z" fill="#0D3C61"/>
<path fill-rule="evenodd" clip-rule="evenodd" d="M522.503 57.3134C522.075 53.7973 520.892 50.5483 519.106 47.6625C543.32 35.9682 558.744 12.695 555.797 -11.5022C553.565 -29.8331 541.288 -44.6066 524.093 -52.5564C546.837 -64.6147 561.088 -87.0955 558.246 -110.436C555.797 -130.543 541.263 -146.37 521.408 -153.606C526.306 -155.167 530.602 -157.77 533.964 -161.047C539.416 -158.081 546.225 -156.802 553.377 -157.853C569.106 -160.166 580.537 -172.88 578.909 -186.251C577.281 -199.622 563.21 -208.586 547.481 -206.274C540.329 -205.222 534.066 -202.02 529.515 -197.584C524.062 -200.549 517.253 -201.829 510.101 -200.778C498.89 -199.129 489.862 -192.196 486.191 -183.508C480.834 -184.633 475.054 -184.842 469.116 -183.969C458.533 -182.413 449.261 -177.685 442.511 -171.132C430.926 -176.022 417.29 -177.889 403.071 -175.798C378.122 -172.13 357.818 -157.221 348.609 -138.247C343.588 -140.123 337.806 -140.788 331.796 -139.905C325.673 -139.004 320.162 -136.62 315.723 -133.262C310.542 -143.026 298.217 -148.829 284.747 -146.848C268.035 -144.391 255.889 -130.882 257.619 -116.675C259.349 -102.469 274.3 -92.9441 291.012 -95.4015C291.861 -95.5263 292.698 -95.6796 293.522 -95.8601C286.377 -85.2317 282.89 -72.8241 284.432 -60.1636C288.222 -29.0344 320.981 -8.16413 357.6 -13.5486C359.326 -13.8023 361.029 -14.1097 362.708 -14.4686C360.047 -7.09294 359.03 0.760927 359.999 8.71461C363.559 37.9517 392.673 58.1391 426.538 56.0241C426.4 57.6549 426.425 59.3091 426.628 60.9722C428.485 76.2234 444.534 86.4485 462.475 83.8104C463.891 83.6023 465.276 83.3202 466.626 82.9698C473.354 88.4801 483.054 91.2232 493.38 89.7048C511.321 87.0668 524.36 72.5646 522.503 57.3134Z" fill="#0D3C61"/>
<path fill-rule="evenodd" clip-rule="evenodd" d="M1014.66 -9.5323C1014.05 -7.29384 1013.59 -4.98921 1013.3 -2.62543C1009.51 28.5038 1036.13 58.104 1072.74 63.4885C1108.44 68.7367 1140.46 49.0426 1145.57 19.2178C1149.36 21.2674 1153.64 22.7243 1158.24 23.4008C1159.16 23.5366 1160.08 23.6384 1160.99 23.7071C1165.17 33.6253 1175.48 41.5409 1188.27 43.4223C1206.21 46.0604 1222.26 35.8353 1224.12 20.5841C1225.98 5.33284 1212.94 -9.16928 1195 -11.8073C1194.07 -11.9431 1193.15 -12.0448 1192.24 -12.1135L1192.23 -12.149C1208.13 -20.3346 1219.36 -34.5591 1221.48 -52.0064C1223.02 -64.6666 1219.54 -77.0738 1212.39 -87.702C1213.21 -87.5217 1214.05 -87.3684 1214.9 -87.2437C1231.61 -84.7863 1246.56 -94.311 1248.29 -108.518C1250.02 -122.724 1237.88 -136.233 1221.16 -138.69C1207.7 -140.671 1195.37 -134.868 1190.19 -125.104C1185.75 -128.462 1180.24 -130.846 1174.12 -131.747C1168.11 -132.63 1162.32 -131.965 1157.3 -130.089C1148.09 -149.064 1127.79 -163.972 1102.84 -167.641C1088.62 -169.731 1074.99 -167.864 1063.4 -162.975C1056.65 -169.528 1047.38 -174.256 1036.8 -175.812C1035.3 -176.033 1033.8 -176.184 1032.33 -176.269C1026.91 -179.121 1021.02 -181.382 1014.76 -182.925C1010.15 -187.881 1003.49 -191.491 995.81 -192.62C988.659 -193.672 981.85 -192.392 976.398 -189.427C971.847 -193.863 965.584 -197.065 958.432 -198.116C942.703 -200.429 928.632 -191.465 927.004 -178.094C926.28 -172.145 928.14 -166.327 931.813 -161.496C896.7 -165.016 865.978 -144.513 862.315 -114.428C858.524 -83.2984 885.137 -53.6982 921.756 -48.3137C948.857 -44.3289 973.842 -54.7233 986.538 -73.0136C988.814 -72.4698 991.138 -72.0209 993.503 -71.6731C1005.39 -69.926 1016.86 -70.943 1027.07 -74.1776C1016.75 -65.8604 1009.78 -54.385 1008.15 -41.018C1006.81 -29.9953 1009.28 -19.1643 1014.66 -9.5323Z" fill="#0D3C61"/>
</g>
<mask id="mask0_752_8761" style="mask-type:alpha" maskUnits="userSpaceOnUse" x="-1" y="535" width="1517" height="1516">
<circle cx="757.5" cy="1293.16" r="757.5" transform="rotate(-60 757.5 1293.16)" fill="#4285F4"/>
</mask>
<g mask="url(#mask0_752_8761)">
<circle cx="757.5" cy="1293.16" r="757.5" transform="rotate(-60 757.5 1293.16)" fill="#4285F4"/>
<circle cx="474.816" cy="1116.78" r="78" transform="rotate(-60 474.816 1116.78)" fill="#A5D6A7"/>
<circle cx="1341.34" cy="736.594" r="78" transform="rotate(-60 1341.34 736.594)" fill="#A5D6A7"/>
<circle cx="1394.83" cy="673.945" r="78" transform="rotate(-60 1394.83 673.945)" fill="#A5D6A7"/>
<circle cx="1314.29" cy="627.445" r="78" transform="rotate(-60 1314.29 627.445)" fill="#A5D6A7"/>
<circle cx="85.1168" cy="1156.03" r="135.505" transform="rotate(-60 85.1168 1156.03)" fill="#A5D6A7"/>
<circle cx="-54.8016" cy="1075.25" r="135.505" transform="rotate(-60 -54.8016 1075.25)" fill="#A5D6A7"/>
<circle cx="183.646" cy="183.646" r="183.646" transform="matrix(-0.5 0.866025 0.866025 0.5 889.777 519.718)" fill="#A5D6A7"/>
<circle cx="183.646" cy="183.646" r="183.646" transform="matrix(-0.5 0.866025 0.866025 0.5 825.007 702.534)" fill="#A5D6A7"/>
<circle cx="183.646" cy="183.646" r="183.646" transform="matrix(-0.5 0.866025 0.866025 0.5 635.381 593.054)" fill="#A5D6A7"/>
<circle cx="365.505" cy="671.503" r="129.787" transform="rotate(-60 365.505 671.503)" fill="#A5D6A7"/>
<circle cx="454.509" cy="567.26" r="129.787" transform="rotate(-60 454.509 567.26)" fill="#A5D6A7"/>
<circle cx="482.779" cy="467.464" r="129.787" transform="rotate(-60 482.779 467.464)" fill="#A5D6A7"/>
<circle cx="288.487" cy="515.645" r="129.787" transform="rotate(-60 288.487 515.645)" fill="#A5D6A7"/>
<path d="M562.845 635.608L599.276 521.691C631.025 470.265 693.169 486.048 720.932 505.862C743.143 521.713 752.169 540.882 752.5 573.989C761.492 643.099 731.411 699.706 733.5 732.989C737.206 792.021 776.044 890.033 627.001 899.99C501.565 908.369 530.907 685.585 562.845 635.608Z" fill="#4D4D4D"/>
<path d="M1041.51 769.155L967.877 612.157C912.655 544.145 826.331 578.469 790.151 612.157C761.207 639.107 755.241 675.718 760.954 723.39C760.954 824.453 778.832 769.241 782.051 817.494C787.762 903.077 797.223 1021.71 1013.58 1025.95C1172.17 1029.05 1052.09 863.031 1041.51 769.155Z" fill="#4D4D4D"/>
</g>
<path d="M424.231 -116.884L634.243 -150.823C684.361 116.498 685.314 270.512 695.648 544.329L573.955 563.995C556.538 367.908 467.918 153.448 424.231 -116.884Z" fill="#99775C"/>
<path d="M430.504 -78.6523L617.224 -108.827C661.792 128.904 662.645 265.869 671.842 509.377L563.647 526.862C548.154 352.48 469.355 161.757 430.504 -78.6523Z" fill="#C89C7B"/>
<path d="M524.5 321.489C589.473 335.351 623.787 332.264 689.5 326.489C689.514 331.416 692.743 335.277 693.596 343.974C694.354 351.707 691.885 354.307 693.292 361.416C695.171 370.9 698.197 377.932 699.034 385.908C700.248 397.467 696.881 411.843 699.24 417.538C699.684 429.605 702.175 442.411 702.098 454.538C702.042 463.324 694.755 471.388 694.591 479.833C694.334 493.009 695.827 500.384 695.736 511.758C695.654 521.892 701.76 565.192 697.632 567.643L570.987 578.744C573.24 559.411 568.15 527.959 560.341 492.609C558.482 484.196 556.469 475.561 554.365 466.817C549.961 459.021 547.297 447.049 545.858 432.514C542.908 424.148 539.772 417.122 537.922 401.241C534.039 390.826 529.779 380.738 530.281 370.366C526.533 363.296 525.04 356.182 525.146 348.006C523.143 338.781 525.746 329.2 524.5 321.489Z" fill="#FFCA28"/>
<path d="M524.499 323.989C584.503 336.749 611.427 334.256 672.119 328.914C672.13 333.456 679.945 335.95 680.73 343.966C681.428 351.095 679.147 353.492 680.445 360.046C682.177 368.789 684.97 375.27 685.741 382.623C686.859 393.279 683.745 406.532 685.923 411.782C686.329 422.905 688.626 434.711 688.551 445.889C688.497 453.989 681.765 461.425 681.611 469.211C681.369 481.357 682.747 488.156 682.659 498.641C682.581 507.984 688.208 547.899 684.395 550.159L567.425 560.429C569.511 542.605 564.819 513.612 557.617 481.027C555.902 473.271 554.046 465.312 552.105 457.251C548.039 450.065 545.583 439.029 544.258 425.631C541.535 417.92 538.641 411.443 536.937 396.803C533.354 387.203 529.422 377.904 529.889 368.343C526.429 361.826 525.052 355.269 525.153 347.731C523.305 339.227 525.648 331.097 524.499 323.989Z" fill="#FFE082"/>
<path fill-rule="evenodd" clip-rule="evenodd" d="M548.588 450.413C548.247 448.878 547.93 447.288 547.636 445.646C553.482 446.732 560.909 448.397 567.435 449.969C598.114 452.082 666.806 454.759 696.143 448.569C698.333 448.107 700.241 447.745 701.89 447.473C702.032 449.843 702.113 452.199 702.098 454.529C698.278 456.656 693.77 458.881 689.799 460.717C666.669 465.834 608.686 471.911 561.792 455.279C556.406 453.368 552.048 451.758 548.588 450.413Z" fill="#FFCA28"/>
<path fill-rule="evenodd" clip-rule="evenodd" d="M699.254 394.702C699.166 397.365 698.979 400.028 698.801 402.574C698.663 404.556 698.529 406.466 698.45 408.25C679.645 407.243 659.838 404.207 641.692 397.771C594.798 381.139 625.915 387.302 647.335 392.462C659.986 393.333 679.101 394.3 699.254 394.702Z" fill="#FFCA28"/>
<path fill-rule="evenodd" clip-rule="evenodd" d="M564.947 514.749C564.149 510.614 563.293 506.391 562.389 502.097C595.689 503.368 638.236 503.587 659.705 499.057C689.042 492.868 667.7 504.576 653.362 511.205C636.49 514.937 601.076 519.18 564.947 514.749Z" fill="#FFCA28"/>
<path d="M541.591 683.84L574.658 568.342C604.955 515.728 667.855 529.645 696.351 548.676C719.147 563.901 727.278 588.275 728.634 621.503C739.802 690.607 708.749 700.828 707.741 704.708C714.223 811.049 727.773 845.22 589.089 856.335C463.173 866.426 511.06 735.006 541.591 683.84Z" fill="#CCCCCC" stroke="#999999"/>
<path d="M541.59 683.841L574.658 568.343C604.954 515.728 667.855 529.646 696.351 548.677C719.147 563.902 723.988 604.713 723.559 623.216C716.169 665.796 712.305 684.2 711.297 688.079C717.779 794.421 631.358 817.098 587.338 815.144C477.467 832.899 511.06 735.007 541.59 683.841Z" fill="#838383"/>
<path fill-rule="evenodd" clip-rule="evenodd" d="M684.647 531.061C687.741 532.348 690.641 533.785 693.304 535.344C727.909 555.6 725.399 593.777 723.984 615.309C723.787 618.296 723.612 620.962 723.56 623.216C716.17 665.796 712.306 684.2 711.297 688.079C715.76 761.292 676.188 794.849 636.733 808.014C614.729 798.581 594.173 775.573 610.277 728.042C618.041 705.127 624.272 679.258 630.375 653.918C643.945 597.572 656.885 543.847 684.647 531.061Z" fill="white"/>
<path d="M684.647 531.061L684.839 530.6L684.637 530.516L684.438 530.607L684.647 531.061ZM693.304 535.344L693.052 535.775L693.304 535.344ZM723.984 615.309L724.483 615.342L723.984 615.309ZM723.56 623.216L724.052 623.302L724.059 623.265L724.06 623.228L723.56 623.216ZM711.297 688.079L710.814 687.953L710.794 688.03L710.798 688.11L711.297 688.079ZM636.733 808.014L636.536 808.474L636.711 808.548L636.891 808.488L636.733 808.014ZM610.277 728.042L609.804 727.881L610.277 728.042ZM630.375 653.918L629.889 653.801L630.375 653.918ZM684.455 531.523C687.53 532.801 690.409 534.228 693.052 535.775L693.557 534.912C690.873 533.341 687.953 531.894 684.839 530.6L684.455 531.523ZM693.052 535.775C727.358 555.857 724.903 593.696 723.485 615.276L724.483 615.342C725.895 593.858 728.46 555.343 693.557 534.912L693.052 535.775ZM723.485 615.276C723.289 618.26 723.112 620.938 723.06 623.205L724.06 623.228C724.112 620.987 724.286 618.332 724.483 615.342L723.485 615.276ZM723.067 623.131C715.676 665.715 711.816 684.098 710.814 687.953L711.781 688.205C712.796 684.302 716.663 665.877 724.052 623.302L723.067 623.131ZM710.798 688.11C713.024 724.616 704.27 751.188 690.083 770.266C675.892 789.351 656.231 800.981 636.575 807.54L636.891 808.488C656.689 801.882 676.543 790.151 690.885 770.863C705.233 751.568 714.034 724.755 711.797 688.049L710.798 688.11ZM609.804 727.881C601.723 751.731 602.816 769.504 608.76 782.523C614.701 795.538 625.454 803.723 636.536 808.474L636.93 807.554C626.008 802.873 615.481 794.837 609.669 782.107C603.86 769.381 602.727 751.883 610.751 728.202L609.804 727.881ZM629.889 653.801C623.784 679.146 617.559 704.992 609.804 727.881L610.751 728.202C618.523 705.262 624.759 679.37 630.861 654.035L629.889 653.801ZM684.438 530.607C670.359 537.091 660.125 553.898 651.722 575.977C643.306 598.086 636.672 625.638 629.889 653.801L630.861 654.035C637.648 625.853 644.268 598.369 652.656 576.333C661.055 554.266 671.172 537.817 684.856 531.515L684.438 530.607Z" fill="#CCCCCC"/>
<path d="M541.023 687.639C549.97 639.489 554.13 610.337 570.018 579.65C593.07 539.177 658.935 528.297 680.697 542.982C698.106 554.73 706.419 562.236 706.113 576.48C704.293 661.254 672.378 666.412 667.004 681.055C654.578 683.063 665.589 745.561 597.84 748.006C514.039 761.548 564.099 683.91 541.023 687.639Z" fill="#CCCCCC" stroke="#CCCCCC"/>
<path fill-rule="evenodd" clip-rule="evenodd" d="M529.527 809.303C549.142 804.742 567.959 788.759 571.909 748.846C574.293 724.77 579.292 698.634 584.188 673.034C593.802 622.774 603.021 574.577 591.273 548.08C585.093 553.323 579.465 559.996 574.658 568.344L541.591 683.842C518.697 722.21 494.081 786.852 529.527 809.303Z" fill="white"/>
<path d="M571.909 748.846L572.407 748.895L572.407 748.895L571.909 748.846ZM529.527 809.303L529.259 809.725L529.436 809.837L529.64 809.79L529.527 809.303ZM584.188 673.034L584.679 673.128L584.188 673.034ZM591.273 548.08L591.73 547.877L591.46 547.266L590.95 547.699L591.273 548.08ZM574.658 568.344L574.225 568.095L574.195 568.148L574.178 568.206L574.658 568.344ZM541.591 683.842L542.02 684.098L542.054 684.042L542.072 683.98L541.591 683.842ZM571.412 748.797C569.443 768.683 563.777 782.558 556.202 792.019C548.631 801.476 539.126 806.558 529.414 808.816L529.64 809.79C539.543 807.487 549.254 802.297 556.983 792.644C564.708 782.995 570.425 768.921 572.407 748.895L571.412 748.797ZM583.697 672.94C578.802 698.535 573.798 724.694 571.412 748.797L572.407 748.895C574.787 724.846 579.782 698.733 584.679 673.128L583.697 672.94ZM590.816 548.282C596.634 561.405 597.28 579.967 595.244 601.599C593.208 623.214 588.505 647.803 583.697 672.94L584.679 673.128C589.485 648.004 594.198 623.365 596.239 601.693C598.278 580.037 597.66 561.251 591.73 547.877L590.816 548.282ZM575.092 568.594C579.871 560.293 585.462 553.665 591.597 548.461L590.95 547.699C584.723 552.981 579.059 559.7 574.225 568.095L575.092 568.594ZM542.072 683.98L575.139 568.482L574.178 568.206L541.11 683.704L542.072 683.98ZM529.794 808.881C512.349 797.831 509.596 776.354 514.172 752.636C518.742 728.951 530.59 703.254 542.02 684.098L541.162 683.586C529.698 702.797 517.791 728.606 513.19 752.447C508.597 776.255 511.259 798.324 529.259 809.725L529.794 808.881Z" fill="#CCCCCC"/>
<path d="M541.002 685.719C549.824 638.927 553.934 610.6 569.53 580.767C592.153 541.417 656.66 530.763 677.95 545.002C694.982 556.394 703.112 563.675 702.795 577.515C700.905 659.878 669.649 664.929 664.367 679.162C652.198 681.128 662.9 741.834 596.559 744.295C514.486 757.558 563.602 682.067 541.002 685.719Z" fill="white" stroke="#CCCCCC"/>
<path fill-rule="evenodd" clip-rule="evenodd" d="M613.256 497.647C572.715 488.598 538.395 511.948 559.149 546.302L571.859 564.821C569.352 580.934 574.96 592.03 584.949 597.605C585.4 607.896 584.533 619.81 582.012 633.16C587.332 632.3 583.88 642.63 579.352 656.179C570.723 682 558.187 719.513 595.004 713.563C619.577 712.649 625.822 689.547 631.931 666.951C637.104 647.819 642.179 629.049 658.197 624.415C659.139 621.879 659.481 616.803 659.937 610.039C660.28 604.938 660.689 598.877 661.468 592.221L662.72 592.019C685.311 588.368 700.672 567.135 697.029 544.593L700.631 535.944C718.572 501.399 677.181 476.872 636.621 493.136L633.361 494.527C627.025 497.229 620.112 498.302 613.256 497.647Z" fill="white"/>
<path d="M559.149 546.302L558.721 546.561L558.729 546.573L558.737 546.585L559.149 546.302ZM613.256 497.647L613.147 498.135L613.177 498.142L613.208 498.145L613.256 497.647ZM571.859 564.821L572.353 564.898L572.384 564.702L572.271 564.538L571.859 564.821ZM584.949 597.605L585.449 597.583L585.437 597.304L585.193 597.168L584.949 597.605ZM582.012 633.16L581.52 633.067L581.388 633.767L582.091 633.653L582.012 633.16ZM579.352 656.179L578.877 656.021L579.352 656.179ZM595.004 713.563L594.986 713.064L594.955 713.065L594.925 713.07L595.004 713.563ZM631.931 666.951L631.449 666.821L631.931 666.951ZM658.197 624.415L658.336 624.896L658.578 624.826L658.666 624.589L658.197 624.415ZM659.937 610.039L659.438 610.005L659.937 610.039ZM661.468 592.221L661.388 591.728L661.015 591.788L660.972 592.163L661.468 592.221ZM662.72 592.019L662.799 592.513L662.72 592.019ZM697.029 544.593L696.567 544.401L696.512 544.532L696.535 544.673L697.029 544.593ZM700.631 535.944L700.187 535.714L700.178 535.733L700.169 535.752L700.631 535.944ZM636.621 493.136L636.435 492.672L636.425 492.676L636.621 493.136ZM633.361 494.527L633.557 494.987L633.361 494.527ZM559.577 546.044C554.433 537.528 552.729 529.741 553.642 523.001C554.555 516.265 558.091 510.517 563.533 506.086C574.433 497.21 592.976 493.633 613.147 498.135L613.365 497.159C592.994 492.612 574.108 496.185 562.901 505.311C557.29 509.88 553.603 515.846 552.651 522.867C551.7 529.884 553.489 537.899 558.721 546.561L559.577 546.044ZM572.271 564.538L559.562 546.019L558.737 546.585L571.447 565.104L572.271 564.538ZM585.193 597.168C575.421 591.715 569.872 580.847 572.353 564.898L571.365 564.744C568.833 581.022 574.499 592.345 584.706 598.041L585.193 597.168ZM582.503 633.252C585.03 619.871 585.902 607.918 585.449 597.583L584.45 597.627C584.899 607.874 584.035 619.749 581.52 633.067L582.503 633.252ZM579.826 656.338C582.085 649.579 584.095 643.568 584.867 639.356C585.249 637.268 585.349 635.521 584.951 634.33C584.746 633.716 584.396 633.212 583.854 632.91C583.318 632.61 582.666 632.547 581.932 632.666L582.091 633.653C582.687 633.557 583.091 633.629 583.367 633.783C583.637 633.933 583.854 634.202 584.003 634.647C584.313 635.574 584.264 637.096 583.883 639.176C583.127 643.301 581.147 649.23 578.877 656.021L579.826 656.338ZM594.925 713.07C585.782 714.547 579.832 713.303 576.125 710.347C572.421 707.394 570.828 702.632 570.635 696.769C570.443 690.909 571.654 684.039 573.464 677C575.272 669.965 577.668 662.796 579.826 656.338L578.877 656.021C576.721 662.473 574.314 669.676 572.495 676.751C570.678 683.821 569.439 690.799 569.636 696.802C569.833 702.801 571.47 707.915 575.501 711.129C579.528 714.34 585.819 715.554 595.084 714.057L594.925 713.07ZM631.449 666.821C628.389 678.139 625.317 689.485 619.966 698.125C614.64 706.726 607.075 712.614 594.986 713.064L595.023 714.063C607.506 713.598 615.35 707.479 620.817 698.651C626.259 689.862 629.365 678.36 632.414 667.082L631.449 666.821ZM658.058 623.935C649.867 626.304 644.504 632.287 640.552 640.018C636.606 647.738 634.031 657.268 631.449 666.821L632.414 667.082C635.004 657.502 637.553 648.081 641.442 640.474C645.325 632.879 650.509 627.16 658.336 624.896L658.058 623.935ZM659.438 610.005C659.21 613.391 659.011 616.34 658.752 618.759C658.492 621.19 658.175 623.037 657.728 624.241L658.666 624.589C659.16 623.257 659.486 621.298 659.746 618.866C660.008 616.422 660.208 613.451 660.436 610.073L659.438 610.005ZM660.972 592.163C660.191 598.832 659.782 604.905 659.438 610.005L660.436 610.073C660.779 604.971 661.187 598.921 661.965 592.28L660.972 592.163ZM662.64 591.526L661.388 591.728L661.548 592.715L662.799 592.513L662.64 591.526ZM696.535 544.673C700.134 566.941 684.96 587.919 662.64 591.526L662.799 592.513C685.662 588.818 701.209 567.329 697.522 544.513L696.535 544.673ZM700.169 535.752L696.567 544.401L697.49 544.785L701.093 536.137L700.169 535.752ZM636.807 493.6C656.962 485.518 677.277 487.591 690.295 495.908C696.8 500.064 701.47 505.767 703.422 512.533C705.372 519.294 704.623 527.172 700.187 535.714L701.075 536.175C705.609 527.443 706.415 519.301 704.383 512.256C702.352 505.215 697.504 499.327 690.833 495.065C677.501 486.548 656.84 484.49 636.435 492.672L636.807 493.6ZM633.557 494.987L636.817 493.596L636.425 492.676L633.165 494.067L633.557 494.987ZM613.208 498.145C620.148 498.808 627.144 497.722 633.557 494.987L633.165 494.067C626.906 496.737 620.077 497.796 613.303 497.149L613.208 498.145Z" fill="#CCCCCC"/>
<path fill-rule="evenodd" clip-rule="evenodd" d="M583.569 574.706C590.683 587.196 593.395 608.879 587.911 637.641C592.948 636.827 589.671 646.558 585.374 659.323C577.183 683.647 565.285 718.987 600.145 713.353C623.409 712.472 629.341 690.71 635.143 669.424C640.056 651.401 644.875 633.72 660.044 629.343C660.938 626.954 661.266 622.173 661.703 615.802C662.74 600.682 664.391 576.608 675.684 554.312C675.763 554.364 675.842 554.416 675.921 554.468C692.132 565.329 699.872 572.271 699.572 585.46C698.236 644.391 681.138 661.789 670.572 672.54C667.064 676.109 664.276 678.946 663.024 682.327C659.594 682.881 658.075 688.345 655.995 695.822C651.052 713.596 642.945 742.747 598.505 744.387C547.28 752.665 549.75 724.572 551.449 705.235C552.341 695.088 553.021 687.352 545.619 688.548C546.48 683.97 547.293 679.577 548.076 675.349C554.921 638.397 559.432 614.04 572.745 588.53C575.68 583.416 579.356 578.812 583.569 574.706Z" fill="#CCCCCC"/>
<path d="M587.911 637.641L587.419 637.547L587.286 638.248L587.99 638.134L587.911 637.641ZM583.569 574.706L584.003 574.459L583.683 573.897L583.22 574.348L583.569 574.706ZM585.374 659.323L584.9 659.163L585.374 659.323ZM600.145 713.353L600.127 712.853L600.096 712.855L600.066 712.859L600.145 713.353ZM635.143 669.424L635.625 669.556L635.143 669.424ZM660.044 629.343L660.182 629.823L660.424 629.754L660.512 629.518L660.044 629.343ZM661.703 615.802L662.201 615.836L661.703 615.802ZM675.684 554.312L675.956 553.893L675.489 553.589L675.238 554.086L675.684 554.312ZM675.921 554.468L676.199 554.053L676.199 554.053L675.921 554.468ZM699.572 585.46L699.073 585.449L699.572 585.46ZM670.572 672.54L670.215 672.19L670.572 672.54ZM663.024 682.327L663.104 682.82L663.392 682.774L663.493 682.5L663.024 682.327ZM655.995 695.822L656.477 695.956L655.995 695.822ZM598.505 744.387L598.487 743.887L598.456 743.888L598.425 743.893L598.505 744.387ZM551.449 705.235L550.951 705.191L551.449 705.235ZM545.619 688.548L545.127 688.456L544.996 689.155L545.698 689.042L545.619 688.548ZM548.076 675.349L548.568 675.44L548.076 675.349ZM572.745 588.53L572.312 588.281L572.307 588.289L572.302 588.298L572.745 588.53ZM588.402 637.734C593.896 608.919 591.202 587.097 584.003 574.459L583.134 574.954C590.165 587.296 592.893 608.839 587.419 637.547L588.402 637.734ZM585.848 659.482C587.991 653.116 589.9 647.451 590.635 643.481C590.999 641.513 591.096 639.861 590.718 638.731C590.522 638.147 590.187 637.667 589.667 637.378C589.153 637.093 588.529 637.034 587.831 637.147L587.99 638.134C588.551 638.044 588.927 638.111 589.182 638.252C589.429 638.39 589.631 638.636 589.77 639.049C590.059 639.914 590.014 641.339 589.651 643.299C588.933 647.182 587.054 652.765 584.9 659.163L585.848 659.482ZM600.066 712.859C591.411 714.258 585.789 713.091 582.289 710.316C578.796 707.546 577.293 703.073 577.115 697.556C576.938 692.042 578.09 685.575 579.808 678.944C581.526 672.319 583.799 665.566 585.848 659.482L584.9 659.163C582.853 665.241 580.568 672.028 578.84 678.694C577.114 685.355 575.934 691.931 576.116 697.588C576.297 703.242 577.844 708.068 581.668 711.1C585.487 714.127 591.449 715.265 600.225 713.847L600.066 712.859ZM634.66 669.293C631.754 679.955 628.837 690.639 623.768 698.776C618.722 706.874 611.562 712.42 600.127 712.853L600.164 713.853C611.992 713.405 619.43 707.629 624.617 699.305C629.779 691.019 632.73 680.179 635.625 669.556L634.66 669.293ZM659.905 628.863C652.14 631.103 647.053 636.749 643.303 644.038C639.559 651.314 637.113 660.295 634.66 669.293L635.625 669.556C638.085 660.531 640.506 651.66 644.192 644.495C647.872 637.343 652.779 631.96 660.182 629.823L659.905 628.863ZM661.204 615.768C660.985 618.957 660.794 621.733 660.547 624.012C660.299 626.301 659.998 628.038 659.575 629.168L660.512 629.518C660.983 628.259 661.293 626.411 661.542 624.12C661.791 621.817 661.983 619.018 662.201 615.836L661.204 615.768ZM675.238 554.086C663.894 576.484 662.241 600.653 661.204 615.768L662.201 615.836C663.239 600.71 664.888 576.733 676.13 554.538L675.238 554.086ZM675.411 554.731C675.489 554.782 675.566 554.832 675.642 554.884L676.199 554.053C676.119 553.999 676.038 553.946 675.956 553.893L675.411 554.731ZM675.642 554.884C683.751 560.316 689.681 564.731 693.553 569.41C697.401 574.06 699.219 578.976 699.073 585.449L700.072 585.472C700.225 578.755 698.323 573.605 694.323 568.772C690.347 563.967 684.302 559.481 676.199 554.053L675.642 554.884ZM699.073 585.449C698.406 614.869 693.805 633.882 688.076 646.866C682.351 659.841 675.487 666.825 670.215 672.19L670.928 672.891C676.222 667.504 683.191 660.414 688.991 647.27C694.787 634.134 699.403 614.983 700.072 585.472L699.073 585.449ZM670.215 672.19C666.731 675.735 663.852 678.651 662.555 682.153L663.493 682.5C664.7 679.241 667.396 676.484 670.928 672.891L670.215 672.19ZM662.944 681.833C660.958 682.154 659.625 683.883 658.548 686.273C657.46 688.686 656.549 691.964 655.514 695.688L656.477 695.956C657.521 692.203 658.41 689.011 659.459 686.684C660.519 684.333 661.66 683.054 663.104 682.82L662.944 681.833ZM655.514 695.688C653.039 704.585 649.799 716.212 641.68 725.832C633.582 735.426 620.584 743.071 598.487 743.887L598.524 744.886C620.866 744.062 634.142 736.312 642.444 726.477C650.723 716.668 654.008 704.834 656.477 695.956L655.514 695.688ZM598.425 743.893C572.864 748.024 560.95 743.039 555.547 734.89C552.828 730.789 551.707 725.821 551.38 720.643C551.053 715.463 551.522 710.119 551.947 705.279L550.951 705.191C550.527 710.019 550.049 715.438 550.382 720.706C550.715 725.975 551.86 731.138 554.714 735.443C560.458 744.106 572.922 749.028 598.585 744.88L598.425 743.893ZM551.947 705.279C552.17 702.746 552.381 700.345 552.455 698.196C552.529 696.05 552.468 694.121 552.133 692.535C551.799 690.95 551.178 689.641 550.076 688.823C548.967 687.999 547.468 687.743 545.539 688.055L545.698 689.042C547.471 688.756 548.663 689.018 549.48 689.625C550.304 690.238 550.845 691.273 551.155 692.741C551.464 694.208 551.529 696.04 551.455 698.162C551.383 700.279 551.174 702.651 550.951 705.191L551.947 705.279ZM546.11 688.641C546.971 684.062 547.785 679.668 548.568 675.44L547.585 675.258C546.802 679.486 545.988 683.878 545.127 688.456L546.11 688.641ZM548.568 675.44C555.415 638.475 559.916 614.194 573.188 588.761L572.302 588.298C558.948 613.887 554.427 638.32 547.585 675.258L548.568 675.44ZM573.179 588.778C576.088 583.709 579.735 579.141 583.918 575.064L583.22 574.348C578.978 578.482 575.272 583.123 572.312 588.281L573.179 588.778Z" fill="#CCCCCC"/>
<path fill-rule="evenodd" clip-rule="evenodd" d="M578.578 568.631C585.187 582.18 587.457 604.32 582.011 633.157C587.331 632.297 583.879 642.627 579.351 656.177C570.722 681.998 558.186 719.511 595.004 713.561C619.576 712.647 625.821 689.545 631.931 666.949C637.103 647.816 642.178 629.046 658.196 624.413C659.138 621.877 659.48 616.801 659.936 610.037C661.037 593.691 662.803 567.49 675.307 543.47C676.249 543.944 677.131 544.455 677.95 545.003C694.982 556.394 703.112 563.676 702.795 577.515C701.376 639.35 683.406 657.609 672.301 668.892C668.614 672.638 665.684 675.615 664.367 679.163C660.764 679.745 659.166 685.478 656.979 693.325C651.78 711.975 643.255 742.564 596.559 744.295C542.732 752.994 545.334 723.517 547.124 703.227C548.064 692.58 548.78 684.463 541.002 685.72C541.908 680.916 542.764 676.306 543.588 671.87C550.789 633.096 555.535 607.538 569.53 580.767C572.061 576.365 575.117 572.321 578.578 568.631Z" fill="white"/>
<path d="M582.011 633.157L581.519 633.064L581.387 633.764L582.091 633.651L582.011 633.157ZM578.578 568.631L579.027 568.412L578.709 567.76L578.213 568.289L578.578 568.631ZM579.351 656.177L579.825 656.335L579.351 656.177ZM595.004 713.561L594.985 713.061L594.954 713.062L594.924 713.067L595.004 713.561ZM631.931 666.949L631.448 666.818L631.931 666.949ZM658.196 624.413L658.335 624.893L658.577 624.823L658.665 624.587L658.196 624.413ZM659.936 610.037L660.435 610.07L659.936 610.037ZM675.307 543.47L675.531 543.024L675.091 542.802L674.863 543.239L675.307 543.47ZM677.95 545.003L677.672 545.418L677.672 545.418L677.95 545.003ZM702.795 577.515L702.295 577.504L702.795 577.515ZM672.301 668.892L672.657 669.243L672.301 668.892ZM664.367 679.163L664.447 679.656L664.735 679.61L664.836 679.337L664.367 679.163ZM656.979 693.325L656.497 693.19L656.979 693.325ZM596.559 744.295L596.54 743.796L596.51 743.797L596.479 743.802L596.559 744.295ZM547.124 703.227L547.622 703.271L547.124 703.227ZM541.002 685.72L540.511 685.627L540.379 686.327L541.082 686.213L541.002 685.72ZM543.588 671.87L544.079 671.961L543.588 671.87ZM569.53 580.767L569.097 580.518L569.092 580.527L569.087 580.536L569.53 580.767ZM582.502 633.25C587.958 604.359 585.703 582.096 579.027 568.412L578.129 568.851C584.672 582.264 586.955 604.281 581.519 633.064L582.502 633.25ZM579.825 656.335C582.084 649.577 584.094 643.566 584.866 639.354C585.249 637.265 585.348 635.519 584.951 634.328C584.745 633.713 584.396 633.21 583.853 632.907C583.318 632.608 582.665 632.545 581.931 632.664L582.091 633.651C582.686 633.555 583.09 633.626 583.366 633.78C583.636 633.931 583.854 634.199 584.002 634.644C584.312 635.572 584.263 637.093 583.882 639.173C583.126 643.299 581.146 649.228 578.877 656.018L579.825 656.335ZM594.924 713.067C585.781 714.545 579.832 713.301 576.124 710.345C572.421 707.392 570.827 702.63 570.635 696.766C570.442 690.907 571.654 684.037 573.463 676.997C575.271 669.963 577.667 662.793 579.825 656.335L578.877 656.018C576.72 662.471 574.313 669.674 572.495 676.749C570.677 683.819 569.438 690.797 569.635 696.799C569.832 702.798 571.469 707.912 575.5 711.127C579.527 714.338 585.818 715.552 595.084 714.054L594.924 713.067ZM631.448 666.818C628.388 678.136 625.316 689.483 619.966 698.122C614.639 706.723 607.074 712.611 594.985 713.061L595.022 714.06C607.506 713.596 615.349 707.476 620.816 698.649C626.259 689.86 629.364 678.358 632.413 667.079L631.448 666.818ZM658.057 623.933C649.866 626.302 644.504 632.285 640.551 640.016C636.605 647.735 634.031 657.266 631.448 666.818L632.413 667.079C635.003 657.499 637.553 648.079 641.441 640.471C645.324 632.876 650.508 627.157 658.335 624.893L658.057 623.933ZM659.437 610.003C659.209 613.388 659.01 616.337 658.751 618.757C658.491 621.187 658.175 623.035 657.727 624.239L658.665 624.587C659.16 623.255 659.485 621.296 659.746 618.863C660.007 616.42 660.207 613.449 660.435 610.07L659.437 610.003ZM674.863 543.239C662.305 567.364 660.538 593.664 659.437 610.003L660.435 610.07C661.537 593.718 663.3 567.617 675.75 543.701L674.863 543.239ZM675.082 543.917C676.007 544.382 676.872 544.883 677.672 545.418L678.228 544.587C677.391 544.027 676.49 543.506 675.531 543.024L675.082 543.917ZM677.672 545.418C686.191 551.116 692.424 555.749 696.494 560.66C700.54 565.543 702.451 570.707 702.295 577.504L703.295 577.527C703.456 570.485 701.461 565.088 697.264 560.022C693.089 554.985 686.741 550.281 678.228 544.587L677.672 545.418ZM702.295 577.504C701.587 608.375 696.747 628.33 690.723 641.958C684.702 655.578 677.486 662.911 671.944 668.541L672.657 669.243C678.221 663.59 685.542 656.152 691.638 642.363C697.729 628.582 702.584 608.49 703.295 577.527L702.295 577.504ZM671.944 668.541C668.282 672.263 665.26 675.32 663.899 678.989L664.836 679.337C666.108 675.91 668.946 673.013 672.657 669.243L671.944 668.541ZM664.288 678.669C662.215 679.004 660.818 680.807 659.686 683.314C658.544 685.844 657.587 689.282 656.497 693.19L657.46 693.459C658.558 689.521 659.494 686.17 660.598 683.725C661.712 681.258 662.916 679.904 664.447 679.656L664.288 678.669ZM656.497 693.19C653.895 702.525 650.487 714.731 641.949 724.832C633.432 734.906 619.766 742.934 596.54 743.796L596.577 744.795C620.048 743.925 633.992 735.793 642.712 725.477C651.41 715.188 654.864 702.775 657.46 693.459L656.497 693.19ZM596.479 743.802C569.616 748.143 557.085 742.916 551.402 734.355C548.542 730.048 547.365 724.831 547.023 719.395C546.68 713.959 547.174 708.35 547.622 703.271L546.626 703.183C546.179 708.249 545.676 713.933 546.025 719.458C546.373 724.984 547.574 730.397 550.569 734.908C556.593 743.984 569.675 749.146 596.639 744.789L596.479 743.802ZM547.622 703.271C547.857 700.613 548.079 698.095 548.158 695.84C548.236 693.589 548.172 691.568 547.821 689.906C547.471 688.246 546.821 686.88 545.67 686.026C544.512 685.167 542.945 684.899 540.922 685.226L541.082 686.213C542.948 685.912 544.209 686.187 545.074 686.829C545.947 687.477 546.517 688.569 546.843 690.112C547.168 691.654 547.235 693.579 547.158 695.806C547.081 698.028 546.861 700.518 546.626 703.183L547.622 703.271ZM541.493 685.812C542.399 681.007 543.255 676.397 544.079 671.961L543.096 671.779C542.272 676.215 541.416 680.824 540.511 685.627L541.493 685.812ZM544.079 671.961C551.283 633.173 556.019 607.692 569.973 580.999L569.087 580.536C555.051 607.384 550.295 633.018 543.096 671.779L544.079 671.961ZM569.964 581.017C572.474 576.65 575.506 572.637 578.943 568.973L578.213 568.289C574.728 572.005 571.649 576.079 569.097 580.518L569.964 581.017Z" fill="#CCCCCC"/>
<path d="M564.2 663.685C581.65 647.486 618.315 644.58 640.895 624.978C576.101 636.876 561.898 655.881 562.896 663.895L564.2 663.685Z" fill="white" stroke="#CCCCCC"/>
<path d="M656.891 637.748L658.085 645.137C654.595 648.376 638.861 639.324 631.92 637.77C624.98 636.216 593.674 643.951 585.851 645.215C578.028 646.48 578.783 640.114 583.072 636.299C586.503 633.247 616.962 627.997 631.762 625.754L656.891 637.748Z" fill="white" stroke="#CCCCCC"/>
<path d="M560.502 692.571C555.417 678.765 607.055 660.52 633.509 653.123L636.442 660.23C610.558 672.262 575.03 686.804 560.502 692.571Z" fill="white" stroke="#CCCCCC"/>
<path d="M566.271 698.582C561.477 702.033 563.886 707.738 564.985 709.939C574.867 702.098 610.346 695.265 624.093 700.387C632.16 703.392 633.758 691.204 629.866 689.196C618.676 683.423 575.11 692.218 566.271 698.582Z" fill="white" stroke="#CCCCCC"/>
<path d="M665.025 621.482C674.495 626.855 671.392 629.996 666.647 631.52C650.349 621.305 599.538 617.883 580.919 620.743C579.971 617.463 584.091 610.378 608.154 608.281C632.217 606.183 655.555 616.109 665.025 621.482Z" fill="white" stroke="#CCCCCC"/>
<path d="M581.456 622.338C572.216 626.817 571.022 636.1 571.58 640.182C580.862 626.788 578.609 639.727 614.549 622.405C643.3 608.547 659.757 607.425 664.391 608.596C666.635 609.186 669.669 608.343 663.852 600.249C656.58 590.13 593.006 616.738 581.456 622.338Z" fill="white" stroke="#CCCCCC"/>
<path d="M670.773 596.706L672.67 608.441C646.782 588.988 600.321 602.293 591.418 602.394C584.296 602.475 584.093 595.699 584.882 592.302C636.878 580.688 663.808 590.399 670.773 596.706Z" fill="white" stroke="#CCCCCC"/>
<path d="M662.854 581.485L663.626 586.266L662.322 586.477C652.59 578.685 612.723 605.195 606.05 608.057C600.712 610.347 585.9 613.99 579.161 615.525L569.924 624.599L569.011 618.949C569.847 615.841 572.723 608.805 577.546 605.528C583.573 601.433 586.251 601.446 595.672 599.032C605.093 596.617 643.138 572.63 650.443 573.68C656.287 574.519 661.152 579.233 662.854 581.485Z" fill="white" stroke="#CCCCCC"/>
<path d="M576.772 666.306L573.185 674.467C616.757 659.845 650.856 687.335 642.742 674.376C629.758 653.64 593.352 660.356 576.772 666.306Z" fill="white" stroke="#CCCCCC"/>
<path d="M667.354 587.255C656.288 580.817 592.227 572.192 575.825 581.086C570.175 581.999 574.434 569.716 586.616 565.071C614.043 554.615 644.981 566.973 665.067 573.103C685.153 579.232 678.419 593.693 667.354 587.255Z" fill="white" stroke="#CCCCCC"/>
<path d="M590.712 579.225C573.579 591.369 566.587 613.55 575.061 603.954C576.478 602.35 584.043 587.786 601.178 591.706C614.453 580.797 621.523 566.235 632.813 561.174C651.153 552.952 670.316 563.142 679.785 564.831C685.435 563.918 675.664 547.463 662.639 546.892C648.284 546.263 642.828 542.489 630.846 549.004C618.352 555.797 599.457 573.026 590.712 579.225Z" fill="white" stroke="#CCCCCC"/>
<path fill-rule="evenodd" clip-rule="evenodd" d="M188.598 1766.72C22.1723 1766.72 -118.031 1662.22 -143.722 1526.47C-156.416 1527.73 -169.348 1528.38 -182.475 1528.38C-364.465 1528.38 -515.099 1403.42 -518.926 1249.28C-522.624 1100.31 -387.841 978.594 -214.508 970.6C-235.833 949.729 -249.044 922.756 -249.775 893.302C-251.419 827.093 -189.382 773.42 -111.212 773.42C-75.6704 773.42 -42.9133 784.515 -17.6013 802.839C6.80084 784.515 39.007 773.42 74.5481 773.42C112.723 773.42 147.686 786.22 173.661 807.03C205.205 810.061 235.497 816.845 263.885 826.843C271.13 826.2 278.493 825.87 285.956 825.87C338.548 825.87 387.033 842.237 424.557 869.286C477.414 837.215 542.415 818.376 613.077 818.376C663.828 818.376 712.14 828.094 755.51 845.451C798.88 828.094 847.191 818.376 897.942 818.376C968.604 818.376 1033.6 837.215 1086.46 869.286C1123.99 842.237 1172.47 825.87 1225.06 825.87C1232.53 825.87 1239.89 826.2 1247.13 826.843C1275.52 816.845 1305.81 810.061 1337.36 807.03C1363.33 786.22 1398.3 773.42 1436.47 773.42C1472.01 773.42 1504.22 784.515 1528.62 802.839C1553.93 784.515 1586.69 773.42 1622.23 773.42C1700.4 773.42 1762.44 827.093 1760.79 893.302C1760.06 922.756 1746.85 949.729 1725.53 970.6C1898.86 978.594 2033.64 1100.31 2029.94 1249.28C2026.12 1403.42 1875.48 1528.38 1693.49 1528.38C1680.37 1528.38 1667.44 1527.73 1654.74 1526.47C1629.05 1662.22 1488.85 1766.72 1322.42 1766.72C1303.1 1766.72 1284.2 1765.31 1265.86 1762.61C1244.34 1774.4 1219.16 1781.87 1191.94 1783.62C1142.32 1889.17 1020.09 1964.25 879.026 1964.25C835.154 1964.25 793.465 1956.99 755.51 1943.81C717.554 1956.99 675.865 1964.25 631.993 1964.25C490.924 1964.25 368.695 1889.17 319.079 1783.62C291.861 1781.87 266.675 1774.4 245.163 1762.61C226.82 1765.31 207.921 1766.72 188.598 1766.72Z" fill="#0D3C61"/>
<path fill-rule="evenodd" clip-rule="evenodd" d="M1062.89 856.27C1014.77 832.179 958.43 818.375 897.942 818.375C856.461 818.375 816.609 824.867 779.753 836.716C781.75 840.117 783.36 846.049 784.12 858.6C784.67 867.687 784.955 876.6 785.232 885.267C787.715 962.939 789.567 1020.9 976.001 1007.99C1112.64 998.526 1100.18 922.338 1062.89 856.27Z" fill="#0A2D49"/>
<path d="M1086.87 -24.1562L875.947 -51.8566C833.773 216.832 837.384 370.806 835.169 644.809L957.391 660.86C968.99 464.344 1051.22 247.352 1086.87 -24.1562Z" fill="#99775C"/>
<path d="M1081.74 14.2441L894.203 -10.3839C856.699 228.564 859.906 365.494 857.929 609.167L966.595 623.438C976.913 448.674 1050.03 255.699 1081.74 14.2441Z" fill="#C89C7B"/>
<path d="M999 416.99C934.467 432.771 902.855 431.315 837 427.49C837.132 432.415 831.878 435.763 831.284 444.481C830.755 452.233 833.3 454.759 832.104 461.906C830.507 471.443 827.691 478.561 827.09 486.558C826.219 498.148 830.011 512.417 827.821 518.18C827.735 530.255 825.625 543.13 826.062 555.248C826.378 564.029 833.9 571.874 834.315 580.31C834.963 593.473 833.688 600.889 834.116 612.255C834.498 622.383 829.678 665.844 833.878 668.172L960.796 675.515C957.971 656.257 962.127 624.668 968.885 589.102C970.493 580.637 972.249 571.947 974.094 563.144C978.265 555.221 980.573 543.175 981.58 528.604C984.281 520.155 987.207 513.039 988.586 497.11C992.159 486.584 996.118 476.374 995.308 466.022C998.845 458.844 1000.13 451.689 999.778 443.519C1001.51 434.239 997.983 424.735 999 416.99Z" fill="#FFCA28"/>
<path d="M999.5 416.99C939.901 431.523 913.128 432.334 852.304 428.792C852.427 433.332 844.689 436.057 844.142 444.093C843.656 451.239 846.007 453.568 844.904 460.157C843.432 468.948 840.832 475.509 840.279 482.881C839.477 493.565 842.983 506.72 840.962 512.032C840.885 523.164 838.939 535.032 839.345 546.203C839.639 554.298 846.589 561.531 846.974 569.309C847.575 581.443 846.399 588.279 846.798 598.757C847.153 608.093 842.711 648.158 846.59 650.304L963.812 657.103C961.199 639.349 965.03 610.23 971.264 577.445C972.747 569.642 974.367 561.631 976.068 553.516C979.919 546.213 982.048 535.109 982.974 521.678C985.468 513.889 988.168 507.33 989.438 492.646C992.736 482.944 996.39 473.532 995.639 463.989C998.905 457.373 1000.09 450.777 999.763 443.246C1001.36 434.691 998.562 424.13 999.5 416.99Z" fill="#FFE082"/>
<path fill-rule="evenodd" clip-rule="evenodd" d="M979.382 546.577C979.677 545.032 979.947 543.434 980.192 541.784C974.381 543.042 967.007 544.927 960.53 546.692C929.928 549.712 861.345 554.424 831.838 549.106C829.635 548.709 827.717 548.404 826.06 548.181C825.988 550.554 825.978 552.911 826.061 555.24C829.943 557.253 834.515 559.343 838.538 561.061C861.81 565.49 919.948 569.846 966.328 551.831C971.655 549.762 975.963 548.024 979.382 546.577Z" fill="#FFCA28"/>
<path fill-rule="evenodd" clip-rule="evenodd" d="M827.13 495.355C827.298 498.014 827.563 500.671 827.816 503.21C828.014 505.187 828.204 507.092 828.336 508.873C847.103 507.309 866.811 503.688 884.759 496.717C931.139 478.702 900.218 485.785 878.961 491.577C866.341 492.823 847.263 494.356 827.13 495.355Z" fill="#FFCA28"/>
<path fill-rule="evenodd" clip-rule="evenodd" d="M964.936 611.369C965.612 607.212 966.342 602.966 967.118 598.646C933.87 600.904 891.349 602.384 869.754 598.492C840.246 593.175 861.926 604.246 876.455 610.446C893.429 613.677 928.954 616.869 964.936 611.369Z" fill="#FFCA28"/>
<path d="M993.293 779.693L956.818 665.226C924.975 613.532 862.515 629.307 834.596 649.175C812.26 665.069 804.855 689.672 804.484 722.926C795.37 792.331 826.712 801.627 827.834 805.475C824.507 911.962 811.976 946.52 950.928 953.519C1077.09 959.875 1025.33 829.932 993.293 779.693Z" fill="#CCCCCC" stroke="#999999"/>
<path d="M993.294 779.693L956.818 665.226C924.976 613.532 862.515 629.307 834.596 649.174C812.261 665.068 808.631 706.005 809.608 724.487C818.257 766.83 822.665 785.111 823.787 788.958C820.46 895.445 907.514 915.552 951.458 912.294C1061.81 926.786 1025.33 829.931 993.294 779.693Z" fill="#838383"/>
<path fill-rule="evenodd" clip-rule="evenodd" d="M845.775 631.221C842.72 632.599 839.863 634.121 837.247 635.759C803.257 657.031 806.897 695.118 808.95 716.598C809.235 719.578 809.489 722.238 809.609 724.489C818.257 766.832 822.665 785.113 823.788 788.961C821.496 862.272 862.044 894.642 901.871 906.632C923.587 896.552 943.454 872.945 925.947 825.91C917.508 803.236 910.514 777.562 903.662 752.414C888.428 696.497 873.903 643.18 845.775 631.221Z" fill="white"/>
<path d="M845.775 631.221L845.57 630.765L845.77 630.675L845.971 630.761L845.775 631.221ZM837.247 635.759L836.981 635.335L837.247 635.759ZM808.95 716.598L808.453 716.646L808.95 716.598ZM809.609 724.489L809.119 724.589L809.111 724.553L809.109 724.516L809.609 724.489ZM823.788 788.961L824.267 788.821L824.29 788.897L824.287 788.976L823.788 788.961ZM901.871 906.632L902.081 907.086L901.909 907.166L901.726 907.111L901.871 906.632ZM925.947 825.91L926.416 825.735L925.947 825.91ZM903.662 752.414L904.145 752.283L903.662 752.414ZM845.981 631.677C842.944 633.046 840.108 634.558 837.512 636.183L836.981 635.335C839.618 633.685 842.495 632.151 845.57 630.765L845.981 631.677ZM837.512 636.183C803.815 657.272 807.391 695.022 809.448 716.551L808.453 716.646C806.404 695.213 802.699 656.791 836.981 635.335L837.512 636.183ZM809.448 716.551C809.733 719.527 809.988 722.199 810.108 724.463L809.109 724.516C808.991 722.277 808.738 719.629 808.453 716.646L809.448 716.551ZM810.098 724.389C818.748 766.736 823.152 784.996 824.267 788.821L823.308 789.101C822.178 785.229 817.766 766.927 809.119 724.589L810.098 724.389ZM824.287 788.976C823.145 825.532 832.682 851.832 847.427 870.482C862.177 889.137 882.173 900.18 902.015 906.153L901.726 907.111C881.742 901.094 861.55 889.957 846.643 871.102C831.73 852.241 822.139 825.701 823.288 788.945L824.287 788.976ZM926.416 825.735C935.201 849.337 934.634 867.134 929.078 880.323C923.524 893.509 913.018 902.009 902.081 907.086L901.66 906.179C912.439 901.176 922.725 892.832 928.157 879.935C933.587 867.042 934.201 849.518 925.479 826.084L926.416 825.735ZM904.145 752.283C910.997 777.436 917.986 803.086 926.416 825.735L925.479 826.084C917.03 803.385 910.03 777.688 903.18 752.546L904.145 752.283ZM845.971 630.761C860.235 636.825 870.962 653.322 880.016 675.142C889.082 696.991 896.53 724.334 904.145 752.283L903.18 752.546C895.56 724.578 888.129 697.303 879.092 675.525C870.043 653.717 859.443 637.576 845.58 631.681L845.971 630.761Z" fill="#CCCCCC"/>
<path d="M993.974 783.474C983.604 735.61 978.582 706.594 961.791 676.391C937.55 636.62 871.391 627.696 850.075 643.019C833.021 655.278 824.934 663.027 825.662 677.256C829.993 761.939 862.047 766.149 867.853 780.626C880.333 782.265 871.179 845.062 938.971 845.498C1023.14 856.551 970.797 780.431 993.974 783.474Z" fill="#CCCCCC" stroke="#CCCCCC"/>
<path fill-rule="evenodd" clip-rule="evenodd" d="M1009.07 904.743C989.328 900.765 970.047 885.346 964.915 845.568C961.82 821.573 956.048 795.597 950.395 770.153C939.296 720.2 928.653 672.298 939.61 645.464C945.943 650.522 951.766 657.025 956.818 665.227L993.294 779.694C1017.31 817.366 1043.84 881.251 1009.07 904.743Z" fill="white"/>
<path d="M964.915 845.568L964.419 845.632L964.915 845.568ZM1009.07 904.743L1009.35 905.157L1009.18 905.274L1008.97 905.233L1009.07 904.743ZM950.395 770.153L949.907 770.262L950.395 770.153ZM939.61 645.464L939.147 645.275L939.4 644.656L939.922 645.073L939.61 645.464ZM956.818 665.227L957.244 664.964L957.276 665.017L957.295 665.075L956.818 665.227ZM993.294 779.694L992.872 779.963L992.837 779.908L992.817 779.846L993.294 779.694ZM965.411 845.504C967.968 865.324 974.043 879.024 981.895 888.256C989.743 897.485 999.394 902.283 1009.17 904.252L1008.97 905.233C999.005 903.224 989.144 898.324 981.133 888.904C973.125 879.488 966.994 865.59 964.419 845.632L965.411 845.504ZM950.883 770.045C956.535 795.483 962.312 821.482 965.411 845.504L964.419 845.632C961.327 821.664 955.561 795.711 949.907 770.262L950.883 770.045ZM940.073 645.653C934.646 658.942 934.551 677.515 937.228 699.077C939.903 720.623 945.332 745.062 950.883 770.045L949.907 770.262C944.359 745.292 938.917 720.803 936.235 699.2C933.555 677.615 933.617 658.819 939.147 645.275L940.073 645.653ZM956.392 665.489C951.369 657.334 945.584 650.875 939.298 645.855L939.922 645.073C946.303 650.169 952.163 656.717 957.244 664.964L956.392 665.489ZM992.817 779.846L956.342 665.379L957.295 665.075L993.77 779.542L992.817 779.846ZM1008.79 904.328C1025.9 892.767 1028.02 871.217 1022.74 847.645C1017.47 824.106 1004.87 798.772 992.872 779.963L993.715 779.425C1005.74 798.289 1018.41 823.733 1023.71 847.427C1029.01 871.089 1027.01 893.227 1009.35 905.157L1008.79 904.328Z" fill="#CCCCCC"/>
<path d="M993.937 781.554C983.733 735.045 978.785 706.852 962.312 677.493C938.532 638.832 873.738 630.093 852.879 644.957C836.193 656.849 828.281 664.368 829.009 678.192C833.338 760.463 864.731 764.586 870.432 778.656C882.654 780.261 873.755 841.257 940.141 841.751C1022.57 852.576 971.239 778.573 993.937 781.554Z" fill="white" stroke="#CCCCCC"/>
<path fill-rule="evenodd" clip-rule="evenodd" d="M916.143 595.705C956.397 585.459 991.394 607.781 971.667 642.736L959.512 661.623C962.495 677.655 957.219 688.912 947.399 694.78C947.253 705.08 948.474 716.963 951.389 730.231C946.046 729.529 949.802 739.752 954.73 753.162C964.12 778.716 977.763 815.841 940.785 810.984C916.196 810.799 909.269 787.892 902.493 765.487C896.755 746.516 891.127 727.905 874.978 723.748C873.961 721.241 873.469 716.177 872.813 709.43C872.318 704.341 871.731 698.296 870.754 691.667L869.497 691.502C846.807 688.522 830.824 667.753 833.797 645.113L829.94 636.575C810.983 602.577 851.629 576.833 892.654 591.889L895.954 593.182C902.367 595.696 909.308 596.563 916.143 595.705Z" fill="white"/>
<path d="M971.667 642.736L972.102 642.982L972.095 642.994L972.087 643.006L971.667 642.736ZM916.143 595.705L916.266 596.19L916.236 596.198L916.205 596.201L916.143 595.705ZM959.512 661.623L959.02 661.714L958.984 661.519L959.091 661.352L959.512 661.623ZM947.399 694.78L946.899 694.773L946.903 694.494L947.142 694.351L947.399 694.78ZM951.389 730.231L951.877 730.124L952.03 730.82L951.324 730.727L951.389 730.231ZM954.73 753.162L955.199 752.989L954.73 753.162ZM940.785 810.984L940.788 810.484L940.819 810.485L940.85 810.489L940.785 810.984ZM902.493 765.487L902.971 765.342L902.493 765.487ZM874.978 723.748L874.854 724.233L874.61 724.17L874.515 723.936L874.978 723.748ZM872.813 709.43L873.311 709.381L872.813 709.43ZM870.754 691.667L870.82 691.171L871.194 691.22L871.249 691.594L870.754 691.667ZM833.797 645.113L834.253 644.907L834.312 645.037L834.293 645.178L833.797 645.113ZM829.94 636.575L830.377 636.331L830.387 636.35L830.396 636.369L829.94 636.575ZM892.654 591.889L892.826 591.419L892.837 591.423L892.654 591.889ZM895.954 593.182L896.136 592.717L895.954 593.182ZM971.232 642.49C976.121 633.826 977.594 625.992 976.481 619.282C975.369 612.575 971.665 606.935 966.094 602.667C954.936 594.118 936.294 591.092 916.266 596.19L916.019 595.221C936.246 590.072 955.23 593.084 966.702 601.873C972.446 606.274 976.308 612.128 977.468 619.118C978.626 626.104 977.076 634.169 972.102 642.982L971.232 642.49ZM959.091 661.352L971.247 642.465L972.087 643.006L959.932 661.893L959.091 661.352ZM947.142 694.351C956.748 688.61 961.973 677.583 959.02 661.714L960.003 661.531C963.017 677.727 957.689 689.213 947.655 695.209L947.142 694.351ZM950.901 730.338C947.978 717.038 946.753 705.117 946.899 694.773L947.899 694.787C947.754 705.043 948.969 716.887 951.877 730.124L950.901 730.338ZM954.261 753.334C951.803 746.645 949.615 740.697 948.719 736.509C948.275 734.433 948.123 732.69 948.485 731.488C948.672 730.868 949.007 730.354 949.54 730.036C950.067 729.721 950.717 729.638 951.454 729.735L951.324 730.727C950.726 730.648 950.324 730.732 950.053 730.894C949.788 731.053 949.578 731.327 949.443 731.777C949.161 732.713 949.254 734.232 949.697 736.3C950.575 740.401 952.73 746.269 955.199 752.989L954.261 753.334ZM940.85 810.489C950.033 811.695 955.942 810.275 959.561 807.21C963.175 804.149 964.627 799.342 964.645 793.475C964.664 787.612 963.249 780.782 961.232 773.799C959.216 766.821 956.609 759.726 954.261 753.334L955.199 752.989C957.546 759.375 960.165 766.503 962.193 773.521C964.219 780.535 965.665 787.473 965.645 793.478C965.626 799.481 964.142 804.641 960.207 807.973C956.277 811.302 950.025 812.702 940.72 811.48L940.85 810.489ZM902.971 765.342C906.365 776.565 909.772 787.815 915.376 796.292C920.955 804.732 928.692 810.393 940.788 810.484L940.781 811.484C928.289 811.39 920.268 805.505 914.542 796.844C908.841 788.22 905.396 776.815 902.014 765.632L902.971 765.342ZM875.103 723.264C883.36 725.39 888.898 731.211 893.078 738.822C897.251 746.42 900.107 755.871 902.971 765.342L902.014 765.632C899.141 756.133 896.314 746.792 892.201 739.303C888.095 731.827 882.744 726.264 874.854 724.233L875.103 723.264ZM873.311 709.381C873.639 712.759 873.925 715.7 874.256 718.111C874.588 720.533 874.959 722.37 875.442 723.56L874.515 723.936C873.981 722.619 873.597 720.671 873.265 718.247C872.931 715.812 872.643 712.849 872.315 709.478L873.311 709.381ZM871.249 691.594C872.227 698.236 872.816 704.294 873.311 709.381L872.315 709.478C871.821 704.389 871.234 698.355 870.26 691.74L871.249 691.594ZM869.562 691.006L870.82 691.171L870.689 692.163L869.432 691.998L869.562 691.006ZM834.293 645.178C831.356 667.543 847.145 688.062 869.562 691.006L869.432 691.998C846.47 688.982 830.292 667.963 833.302 645.048L834.293 645.178ZM830.396 636.369L834.253 644.907L833.342 645.319L829.485 636.781L830.396 636.369ZM892.482 592.358C872.096 584.877 851.852 587.551 839.086 596.25C832.707 600.596 828.207 606.436 826.457 613.257C824.708 620.073 825.69 627.925 830.377 636.331L829.504 636.818C824.712 628.225 823.666 620.111 825.489 613.008C827.31 605.911 831.981 599.881 838.523 595.424C851.596 586.515 872.187 583.845 892.826 591.419L892.482 592.358ZM895.771 593.648L892.472 592.354L892.837 591.423L896.136 592.717L895.771 593.648ZM916.205 596.201C909.288 597.07 902.262 596.192 895.771 593.648L896.136 592.717C902.471 595.2 909.329 596.057 916.08 595.209L916.205 596.201Z" fill="#CCCCCC"/>
<path fill-rule="evenodd" clip-rule="evenodd" d="M948.1 671.851C941.358 684.546 939.29 706.3 945.624 734.887C940.565 734.223 944.128 743.853 948.803 756.484C957.71 780.556 970.651 815.527 935.638 810.929C912.359 810.738 905.785 789.161 899.355 768.056C893.91 750.187 888.569 732.656 873.277 728.731C872.313 726.369 871.843 721.6 871.218 715.245C869.733 700.162 867.369 676.148 855.42 654.196C855.342 654.25 855.265 654.304 855.188 654.359C839.306 665.695 831.775 672.863 832.465 686.038C835.547 744.904 853.154 761.787 864.034 772.22C867.646 775.684 870.517 778.437 871.868 781.779C875.313 782.231 876.993 787.648 879.294 795.06C884.761 812.68 893.729 841.577 938.198 841.9C989.645 848.656 986.345 820.649 984.073 801.371C982.881 791.255 981.972 783.542 989.406 784.519C988.41 779.968 987.467 775.601 986.559 771.398C978.622 734.665 973.391 710.453 959.328 685.348C956.243 680.324 952.432 675.83 948.1 671.851Z" fill="#CCCCCC"/>
<path d="M945.624 734.887L946.112 734.779L946.267 735.476L945.559 735.383L945.624 734.887ZM948.1 671.851L947.658 671.617L947.961 671.046L948.438 671.483L948.1 671.851ZM948.803 756.484L949.272 756.311L948.803 756.484ZM935.638 810.929L935.643 810.429L935.673 810.429L935.704 810.433L935.638 810.929ZM899.355 768.056L898.876 768.202L899.355 768.056ZM873.277 728.731L873.153 729.215L872.909 729.153L872.814 728.92L873.277 728.731ZM871.218 715.245L870.72 715.294L871.218 715.245ZM855.42 654.196L855.135 653.785L855.593 653.467L855.859 653.957L855.42 654.196ZM855.188 654.359L854.898 653.952L854.898 653.952L855.188 654.359ZM832.465 686.038L832.965 686.012L832.465 686.038ZM864.034 772.22L864.38 771.859L864.034 772.22ZM871.868 781.779L871.803 782.275L871.514 782.237L871.405 781.966L871.868 781.779ZM879.294 795.06L878.816 795.209L879.294 795.06ZM938.198 841.9L938.201 841.4L938.232 841.4L938.263 841.404L938.198 841.9ZM984.073 801.371L984.57 801.312L984.073 801.371ZM989.406 784.519L989.895 784.412L990.047 785.107L989.341 785.014L989.406 784.519ZM986.559 771.398L986.07 771.504L986.559 771.398ZM959.328 685.348L959.754 685.086L959.759 685.095L959.764 685.103L959.328 685.348ZM945.136 734.995C938.79 706.355 940.836 684.462 947.658 671.617L948.541 672.086C941.879 684.63 939.79 706.246 946.112 734.779L945.136 734.995ZM948.334 756.658C946.002 750.358 943.927 744.752 943.075 740.805C942.652 738.85 942.506 737.201 942.851 736.06C943.029 735.471 943.349 734.981 943.861 734.677C944.366 734.376 944.988 734.299 945.689 734.391L945.559 735.383C944.996 735.309 944.622 735.388 944.372 735.536C944.128 735.681 943.934 735.933 943.808 736.35C943.544 737.223 943.632 738.647 944.052 740.594C944.885 744.454 946.929 749.979 949.272 756.311L948.334 756.658ZM935.704 810.433C944.396 811.575 949.981 810.241 953.397 807.364C956.807 804.492 958.177 799.976 958.191 794.456C958.204 788.939 956.861 782.509 954.947 775.933C953.034 769.361 950.562 762.679 948.334 756.658L949.272 756.311C951.497 762.326 953.983 769.042 955.907 775.653C957.83 782.26 959.205 788.799 959.191 794.459C959.176 800.116 957.773 804.985 954.041 808.129C950.314 811.269 944.387 812.582 935.573 811.425L935.704 810.433ZM899.833 767.911C903.054 778.483 906.286 789.075 911.595 797.058C916.878 805.003 924.199 810.335 935.643 810.429L935.634 811.429C923.799 811.332 916.193 805.779 910.762 797.612C905.356 789.483 902.086 778.735 898.876 768.202L899.833 767.911ZM873.401 728.247C881.23 730.256 886.481 735.748 890.446 742.923C894.404 750.085 897.115 758.99 899.833 767.911L898.876 768.202C896.15 759.254 893.468 750.459 889.571 743.406C885.681 736.367 880.616 731.131 873.153 729.215L873.401 728.247ZM871.715 715.196C872.028 718.377 872.301 721.147 872.615 723.417C872.931 725.698 873.284 727.425 873.74 728.542L872.814 728.92C872.306 727.675 871.941 725.837 871.625 723.554C871.307 721.26 871.032 718.468 870.72 715.294L871.715 715.196ZM855.859 653.957C867.862 676.008 870.231 700.119 871.715 715.196L870.72 715.294C869.235 700.205 866.875 676.287 854.981 654.435L855.859 653.957ZM855.705 654.606C855.629 654.659 855.554 654.712 855.479 654.766L854.898 653.952C854.976 653.896 855.055 653.84 855.135 653.785L855.705 654.606ZM855.479 654.766C847.534 660.436 841.738 665.025 838.007 669.816C834.298 674.579 832.626 679.546 832.965 686.012L831.966 686.064C831.615 679.355 833.363 674.151 837.218 669.202C841.049 664.281 846.96 659.618 854.898 653.952L855.479 654.766ZM832.965 686.012C834.503 715.399 839.665 734.268 845.777 747.076C851.883 759.875 858.951 766.654 864.38 771.859L863.688 772.581C858.236 767.354 851.061 760.474 844.874 747.507C838.691 734.549 833.509 715.543 831.966 686.064L832.965 686.012ZM864.38 771.859C867.967 775.3 870.932 778.129 872.332 781.592L871.405 781.966C870.102 778.744 867.325 776.069 863.688 772.581L864.38 771.859ZM871.933 781.283C873.928 781.545 875.312 783.234 876.46 785.591C877.618 787.97 878.626 791.22 879.771 794.912L878.816 795.209C877.662 791.488 876.678 788.324 875.561 786.029C874.432 783.711 873.253 782.465 871.803 782.275L871.933 781.283ZM879.771 794.912C882.508 803.731 886.091 815.258 894.493 824.633C902.871 833.982 916.089 841.239 938.201 841.4L938.194 842.4C915.837 842.238 902.337 834.885 893.748 825.3C885.181 815.741 881.547 804.009 878.816 795.209L879.771 794.912ZM938.263 841.404C963.936 844.775 975.696 839.439 980.855 831.134C983.452 826.954 984.425 821.956 984.599 816.77C984.772 811.583 984.145 806.255 983.577 801.429L984.57 801.312C985.137 806.125 985.774 811.528 985.598 816.803C985.422 822.079 984.43 827.275 981.705 831.662C976.22 840.491 963.908 845.78 938.133 842.395L938.263 841.404ZM983.577 801.429C983.279 798.904 982.997 796.511 982.859 794.365C982.722 792.222 982.725 790.292 983.013 788.696C983.3 787.103 983.882 785.776 984.959 784.925C986.044 784.068 987.534 783.768 989.471 784.023L989.341 785.014C987.561 784.781 986.378 785.079 985.579 785.71C984.773 786.346 984.263 787.397 983.997 788.874C983.731 790.349 983.721 792.183 983.857 794.301C983.993 796.415 984.271 798.78 984.57 801.312L983.577 801.429ZM988.918 784.625C987.922 780.074 986.978 775.707 986.07 771.504L987.047 771.293C987.955 775.496 988.899 779.862 989.895 784.412L988.918 784.625ZM986.07 771.504C978.13 734.757 972.912 710.62 958.892 685.592L959.764 685.103C973.87 710.285 979.114 734.573 987.047 771.293L986.07 771.504ZM958.902 685.609C955.843 680.628 952.063 676.17 947.761 672.22L948.438 671.483C952.8 675.49 956.642 680.019 959.754 685.086L958.902 685.609Z" fill="#CCCCCC"/>
<path fill-rule="evenodd" clip-rule="evenodd" d="M952.909 665.631C946.704 679.37 945.091 701.567 951.389 730.231C946.046 729.529 949.803 739.752 954.73 753.162C964.12 778.715 977.763 815.84 940.785 810.984C916.196 810.799 909.269 787.892 902.493 765.487C896.755 746.516 891.127 727.905 874.978 723.748C873.961 721.241 873.469 716.177 872.813 709.43C871.228 693.124 868.687 666.987 855.476 643.348C854.549 643.849 853.682 644.386 852.88 644.957C836.193 656.849 828.282 664.368 829.009 678.192C832.26 739.957 850.764 757.676 862.198 768.625C865.994 772.26 869.011 775.149 870.432 778.656C874.052 779.131 875.819 784.815 878.237 792.593C883.986 811.081 893.414 841.403 940.141 841.751C994.202 848.85 990.728 819.463 988.337 799.235C987.082 788.621 986.126 780.528 993.938 781.554C992.89 776.779 991.898 772.197 990.943 767.787C982.596 729.243 977.094 703.838 962.312 677.493C959.651 673.168 956.477 669.216 952.909 665.631Z" fill="white"/>
<path d="M951.389 730.231L951.878 730.124L952.031 730.819L951.324 730.727L951.389 730.231ZM952.909 665.631L952.453 665.425L952.752 664.764L953.263 665.278L952.909 665.631ZM954.73 753.162L954.261 753.334L954.73 753.162ZM940.785 810.984L940.789 810.484L940.819 810.484L940.85 810.489L940.785 810.984ZM902.493 765.487L902.971 765.342L902.493 765.487ZM874.978 723.748L874.854 724.232L874.61 724.17L874.515 723.936L874.978 723.748ZM872.813 709.43L872.315 709.478L872.813 709.43ZM855.476 643.348L855.238 642.908L855.672 642.673L855.913 643.104L855.476 643.348ZM852.88 644.957L853.17 645.365L853.17 645.365L852.88 644.957ZM829.009 678.192L829.509 678.166L829.009 678.192ZM862.198 768.625L861.852 768.986L862.198 768.625ZM870.432 778.656L870.367 779.152L870.078 779.114L869.969 778.844L870.432 778.656ZM878.237 792.593L878.715 792.444L878.237 792.593ZM940.141 841.751L940.145 841.251L940.176 841.251L940.206 841.255L940.141 841.751ZM988.337 799.235L987.841 799.294L988.337 799.235ZM993.938 781.554L994.426 781.447L994.579 782.143L993.873 782.05L993.938 781.554ZM990.943 767.787L990.454 767.893L990.943 767.787ZM962.312 677.493L962.738 677.231L962.743 677.24L962.748 677.249L962.312 677.493ZM950.901 730.338C944.591 701.621 946.186 679.301 952.453 665.425L953.364 665.837C947.221 679.438 945.591 701.514 951.878 730.124L950.901 730.338ZM954.261 753.334C951.803 746.645 949.616 740.697 948.719 736.509C948.275 734.433 948.123 732.69 948.485 731.488C948.672 730.868 949.007 730.354 949.54 730.036C950.067 729.721 950.717 729.638 951.454 729.735L951.324 730.727C950.726 730.648 950.325 730.732 950.053 730.894C949.788 731.053 949.578 731.327 949.443 731.776C949.161 732.713 949.254 734.232 949.697 736.3C950.575 740.401 952.73 746.269 955.2 752.989L954.261 753.334ZM940.85 810.489C950.033 811.694 955.943 810.275 959.561 807.21C963.175 804.149 964.627 799.341 964.646 793.475C964.664 787.612 963.25 780.782 961.232 773.799C959.216 766.82 956.609 759.725 954.261 753.334L955.2 752.989C957.546 759.375 960.166 766.503 962.193 773.521C964.219 780.534 965.665 787.473 965.646 793.478C965.626 799.48 964.142 804.641 960.207 807.973C956.277 811.302 950.026 812.702 940.72 811.48L940.85 810.489ZM902.971 765.342C906.365 776.564 909.772 787.815 915.376 796.292C920.955 804.732 928.692 810.393 940.789 810.484L940.781 811.484C928.289 811.39 920.268 805.505 914.542 796.844C908.841 788.22 905.396 776.815 902.014 765.632L902.971 765.342ZM875.103 723.264C883.361 725.389 888.898 731.211 893.078 738.822C897.251 746.42 900.107 755.87 902.971 765.342L902.014 765.632C899.141 756.133 896.314 746.792 892.201 739.303C888.096 731.826 882.745 726.263 874.854 724.232L875.103 723.264ZM873.311 709.381C873.639 712.758 873.925 715.7 874.256 718.111C874.588 720.533 874.959 722.37 875.442 723.56L874.515 723.936C873.981 722.619 873.597 720.671 873.265 718.247C872.931 715.812 872.643 712.848 872.315 709.478L873.311 709.381ZM855.913 643.104C869.181 666.845 871.726 693.082 873.311 709.381L872.315 709.478C870.73 693.166 868.193 667.128 855.04 643.591L855.913 643.104ZM855.714 643.787C854.803 644.28 853.954 644.806 853.17 645.365L852.589 644.55C853.41 643.966 854.295 643.418 855.238 642.908L855.714 643.787ZM853.17 645.365C844.823 651.312 838.731 656.128 834.808 661.157C830.909 666.158 829.151 671.376 829.509 678.166L828.51 678.218C828.14 671.184 829.974 665.73 834.02 660.543C838.043 655.384 844.249 650.494 852.589 644.55L853.17 645.365ZM829.509 678.166C831.131 709.003 836.56 728.805 842.986 742.249C849.407 755.684 856.838 762.8 862.544 768.264L861.852 768.986C856.124 763.501 848.585 756.283 842.084 742.68C835.586 729.086 830.138 709.147 828.51 678.218L829.509 678.166ZM862.544 768.264C866.315 771.875 869.426 774.841 870.896 778.468L869.969 778.844C868.596 775.457 865.673 772.645 861.852 768.986L862.544 768.264ZM870.497 778.16C872.579 778.433 874.028 780.195 875.234 782.667C876.452 785.161 877.51 788.569 878.715 792.444L877.76 792.741C876.546 788.838 875.512 785.515 874.336 783.105C873.149 780.672 871.905 779.354 870.367 779.152L870.497 778.16ZM878.715 792.444C881.592 801.698 885.361 813.798 894.195 823.64C903.006 833.458 916.904 841.078 940.145 841.251L940.137 842.251C916.652 842.076 902.472 834.361 893.45 824.308C884.451 814.281 880.631 801.976 877.76 792.741L878.715 792.444ZM940.206 841.255C967.186 844.798 979.557 839.202 984.984 830.477C987.715 826.086 988.736 820.837 988.918 815.394C989.099 809.949 988.439 804.357 987.841 799.294L988.834 799.177C989.431 804.227 990.101 809.894 989.917 815.427C989.733 820.961 988.693 826.407 985.833 831.005C980.08 840.255 967.157 845.803 940.076 842.246L940.206 841.255ZM987.841 799.294C987.527 796.644 987.23 794.134 987.085 791.882C986.94 789.635 986.944 787.612 987.245 785.941C987.546 784.271 988.156 782.886 989.281 781.999C990.413 781.106 991.971 780.792 994.003 781.058L993.873 782.05C991.998 781.804 990.747 782.116 989.9 782.784C989.047 783.457 988.509 784.566 988.229 786.118C987.95 787.669 987.94 789.595 988.083 791.818C988.226 794.037 988.52 796.519 988.834 799.177L987.841 799.294ZM993.449 781.661C992.401 776.886 991.409 772.303 990.454 767.893L991.431 767.681C992.386 772.091 993.379 776.673 994.426 781.447L993.449 781.661ZM990.454 767.893C982.104 729.336 976.615 704.006 961.876 677.738L962.748 677.249C977.573 703.669 983.087 729.151 991.431 767.681L990.454 767.893ZM961.886 677.755C959.247 673.465 956.098 669.544 952.554 665.984L953.263 665.278C956.857 668.889 960.055 672.87 962.738 677.231L961.886 677.755Z" fill="#CCCCCC"/>
<path d="M970.098 760.217C952.175 744.542 915.44 742.724 892.29 723.8C957.408 733.773 972.167 752.348 971.407 760.389L970.098 760.217Z" fill="white" stroke="#CCCCCC"/>
<path d="M876.679 737.038L875.704 744.459C879.289 747.594 894.747 738.08 901.639 736.32C908.531 734.561 940.052 741.365 947.909 742.397C955.766 743.429 954.823 737.088 950.422 733.402C946.902 730.453 916.301 726.109 901.441 724.305L876.679 737.038Z" fill="white" stroke="#CCCCCC"/>
<path d="M974.65 788.98C979.324 775.03 927.168 758.323 900.506 751.713L897.785 758.904C924.014 770.164 959.957 783.646 974.65 788.98Z" fill="white" stroke="#CCCCCC"/>
<path d="M969.061 795.16C973.955 798.468 971.717 804.241 970.684 806.474C960.574 798.929 924.908 793.151 911.319 798.677C903.344 801.92 901.386 789.786 905.217 787.663C916.231 781.56 960.038 789.06 969.061 795.16Z" fill="white" stroke="#CCCCCC"/>
<path d="M868.066 721.021C858.76 726.672 861.954 729.72 866.742 731.103C882.73 720.409 933.418 715.483 952.114 717.79C952.964 714.483 948.636 707.523 924.521 706.14C900.406 704.757 877.373 715.37 868.066 721.021Z" fill="white" stroke="#CCCCCC"/>
<path d="M951.624 719.399C960.992 723.603 962.461 732.846 962.025 736.943C952.35 723.83 954.985 736.697 918.548 720.447C889.399 707.447 872.916 706.813 868.318 708.121C866.093 708.778 863.035 708.025 868.61 699.761C875.578 689.432 939.913 714.145 951.624 719.399Z" fill="white" stroke="#CCCCCC"/>
<path d="M861.586 696.426L860.039 708.212C885.339 688.001 932.173 699.923 941.075 699.76C948.197 699.63 948.199 692.852 947.31 689.479C894.992 679.411 868.362 689.916 861.586 696.426Z" fill="white" stroke="#CCCCCC"/>
<path d="M869.051 680.977L868.421 685.779L869.73 685.951C879.227 677.874 919.862 703.191 926.617 705.854C932.021 707.985 946.934 711.187 953.716 712.521L963.217 721.318L963.963 715.643C963.035 712.561 959.951 705.614 955.034 702.482C948.888 698.566 946.211 698.659 936.723 696.525C927.234 694.391 888.496 671.542 881.225 672.807C875.408 673.819 870.685 678.676 869.051 680.977Z" fill="white" stroke="#CCCCCC"/>
<path d="M957.609 763.209L961.436 771.26C917.45 757.936 884.18 786.424 891.907 773.23C904.271 752.119 940.86 757.753 957.609 763.209Z" fill="white" stroke="#CCCCCC"/>
<path d="M864.724 686.879C875.593 680.116 939.371 669.596 956.029 678C961.704 678.745 957.083 666.593 944.768 662.312C917.044 652.673 886.486 665.943 866.59 672.665C846.695 679.387 853.854 693.642 864.724 686.879Z" fill="white" stroke="#CCCCCC"/>
<path d="M941.094 676.581C958.579 688.212 966.225 710.176 957.47 700.835C956.007 699.274 948.013 684.94 931.002 689.367C917.409 678.856 909.911 664.51 898.476 659.785C879.9 652.11 861.048 662.864 851.633 664.833C845.959 664.087 855.237 647.35 868.24 646.394C882.57 645.339 887.911 641.406 900.081 647.562C912.772 653.982 932.168 670.644 941.094 676.581Z" fill="white" stroke="#CCCCCC"/>
</g>
<defs>
<clipPath id="clip0_752_8761">
<rect width="1512" height="1013" fill="white"/>
</clipPath>
<clipPath id="clip1_752_8761">
<rect width="1512" height="881.408" fill="white" transform="matrix(1 0 0 -1 0 567.902)"/>
</clipPath>
</defs>
</svg>
