<svg width="1512" height="953" viewBox="0 0 1512 953" fill="none" xmlns="http://www.w3.org/2000/svg">
<g clip-path="url(#clip0_451_6672)">
<path fill-rule="evenodd" clip-rule="evenodd" d="M1270.46 803.882C1276.43 807.186 1282.9 808.964 1289.54 809.351C1278.15 861.873 1295.39 913.317 1336.43 936.051C1367.52 953.274 1405.33 950.179 1438.58 931.358C1429.54 981.914 1446.99 1030.56 1486.57 1052.49C1520.67 1071.38 1562.86 1065.83 1598.24 1041.89C1594.69 1051.6 1593.49 1061.52 1594.47 1070.69C1583.24 1076.15 1572.97 1085.72 1565.88 1098.51C1550.31 1126.62 1556.07 1159.59 1578.75 1172.15C1601.42 1184.72 1632.43 1172.11 1648 1144C1655.09 1131.22 1657.76 1117.43 1656.43 1105.01C1667.66 1099.55 1677.93 1089.98 1685.01 1077.19C1696.12 1057.16 1696.38 1034.65 1687.4 1018.82C1695.67 1011.43 1703.03 1002.3 1708.91 991.686C1719.39 972.773 1723.36 952.378 1721.44 933.993C1743.11 920.783 1762.61 900.814 1776.68 875.402C1801.39 830.813 1803.04 780.971 1784.88 744.481C1793.9 738.478 1801.97 729.868 1807.92 719.128C1813.98 708.184 1817 696.547 1817.21 685.536C1838.63 688.243 1862.62 674.872 1875.96 650.799C1892.5 620.931 1886.39 585.897 1862.29 572.549C1838.2 559.201 1805.25 572.594 1788.7 602.462C1787.86 603.979 1787.08 605.509 1786.36 607.049C1778.61 583.392 1763.65 563.637 1742.18 551.742C1689.38 522.494 1617.19 551.839 1580.94 617.286C1579.23 620.37 1577.63 623.478 1576.14 626.606C1567.97 613.91 1557.05 603.334 1543.56 595.861C1493.97 568.391 1427.28 592.607 1389.31 649.876C1386.96 647.797 1384.37 645.958 1381.55 644.395C1355.68 630.066 1320.31 644.443 1302.55 676.508C1301.15 679.039 1299.9 681.605 1298.8 684.191C1282.08 688.826 1266.02 701.422 1255.79 719.878C1238.03 751.943 1244.6 789.553 1270.46 803.882Z" fill="white"/>
<path fill-rule="evenodd" clip-rule="evenodd" d="M242.831 678.764C237.331 679.453 232.231 681.385 227.684 684.314C209.988 644.365 174.01 618.842 136.164 623.58C107.491 627.169 84.1397 647.327 71.3285 675.62C53.0306 638.088 18.2622 614.501 -18.2454 619.071C-49.6942 623.008 -74.7415 646.877 -86.5007 679.551C-88.8241 671.475 -92.789 664.385 -97.8269 658.832C-93.0705 649.863 -90.9142 638.651 -92.3899 626.863C-95.6354 600.937 -115.22 582.043 -136.134 584.661C-157.048 587.279 -171.371 610.418 -168.125 636.344C-166.65 648.133 -161.795 658.468 -154.974 665.988C-159.73 674.957 -161.887 686.168 -160.411 697.956C-158.098 716.435 -147.483 731.342 -134.004 737.433C-135.885 746.253 -136.347 755.775 -135.121 765.564C-132.938 783.006 -125.772 798.304 -115.698 809.457C-123.601 828.52 -126.833 850.978 -123.899 874.415C-118.751 915.537 -95.9459 949.062 -66.5348 964.325C-69.5798 972.589 -70.7534 982.111 -69.5134 992.016C-68.25 1002.11 -64.6559 1011.2 -59.5158 1018.53C-74.8813 1027.02 -84.2277 1047.3 -81.4484 1069.5C-78 1097.04 -57.1909 1117.12 -34.97 1114.34C-12.7491 1111.56 2.46895 1086.97 -0.979451 1059.43C-1.15459 1058.03 -1.37449 1056.65 -1.63709 1055.29C14.7911 1067.11 34.0819 1072.92 53.8845 1070.44C102.574 1064.34 135.92 1010.47 128.364 950.111C128.008 947.268 127.567 944.46 127.046 941.693C138.5 946.113 150.739 947.825 163.18 946.268C208.91 940.543 241.105 892.674 238.59 836.868C241.133 837.105 243.716 837.071 246.317 836.745C270.172 833.759 286.509 807.366 282.807 777.794C282.515 775.459 282.106 773.175 281.59 770.948C290.349 759.891 294.858 743.922 292.727 726.901C289.025 697.33 266.686 675.778 242.831 678.764Z" fill="white"/>
<path fill-rule="evenodd" clip-rule="evenodd" d="M522.417 850.589C521.989 854.105 520.806 857.354 519.02 860.24C543.234 871.934 558.658 895.207 555.712 919.405C553.479 937.735 541.202 952.509 524.007 960.459C546.752 972.517 561.002 994.998 558.16 1018.34C555.711 1038.45 541.177 1054.27 521.322 1061.51C526.22 1063.07 530.516 1065.67 533.878 1068.95C539.33 1065.98 546.139 1064.7 553.291 1065.76C569.02 1068.07 580.451 1080.78 578.823 1094.15C577.195 1107.52 563.124 1116.49 547.395 1114.18C540.243 1113.12 533.98 1109.92 529.429 1105.49C523.976 1108.45 517.167 1109.73 510.015 1108.68C498.804 1107.03 489.776 1100.1 486.105 1091.41C480.748 1092.53 474.969 1092.74 469.03 1091.87C458.447 1090.32 449.175 1085.59 442.425 1079.03C430.84 1083.92 417.204 1085.79 402.985 1083.7C378.036 1080.03 357.732 1065.12 348.523 1046.15C343.502 1048.02 337.72 1048.69 331.71 1047.81C325.587 1046.91 320.076 1044.52 315.637 1041.16C310.456 1050.93 298.131 1056.73 284.661 1054.75C267.949 1052.29 255.803 1038.78 257.533 1024.58C259.263 1010.37 274.214 1000.85 290.926 1003.3C291.775 1003.43 292.612 1003.58 293.436 1003.76C286.291 993.134 282.804 980.726 284.346 968.066C288.136 936.937 320.895 916.066 357.514 921.451C359.24 921.705 360.943 922.012 362.622 922.371C359.961 914.995 358.944 907.141 359.913 899.187C363.473 869.95 392.587 849.763 426.452 851.878C426.314 850.247 426.339 848.593 426.542 846.93C428.399 831.679 444.448 821.454 462.389 824.092C463.805 824.3 465.19 824.582 466.54 824.933C473.268 819.422 482.968 816.679 493.294 818.198C511.235 820.836 524.274 835.338 522.417 850.589Z" fill="white"/>
<path fill-rule="evenodd" clip-rule="evenodd" d="M1014.57 917.433C1013.96 915.195 1013.5 912.891 1013.22 910.527C1009.43 879.398 1036.04 849.798 1072.66 844.413C1108.35 839.165 1140.38 858.859 1145.48 888.684C1149.27 886.634 1153.55 885.178 1158.15 884.501C1159.07 884.365 1159.99 884.264 1160.91 884.195C1165.09 874.276 1175.39 866.361 1188.19 864.479C1206.13 861.841 1222.18 872.066 1224.03 887.317C1225.89 902.569 1212.85 917.071 1194.91 919.709C1193.99 919.845 1193.07 919.946 1192.16 920.015L1192.14 920.051C1208.05 928.236 1219.27 942.461 1221.39 959.908C1222.94 972.568 1219.45 984.975 1212.3 995.604C1213.13 995.423 1213.97 995.27 1214.81 995.145C1231.53 992.688 1246.48 1002.21 1248.21 1016.42C1249.94 1030.63 1237.79 1044.13 1221.08 1046.59C1207.61 1048.57 1195.28 1042.77 1190.1 1033.01C1185.66 1036.36 1180.15 1038.75 1174.03 1039.65C1168.02 1040.53 1162.24 1039.87 1157.22 1037.99C1148.01 1056.97 1127.7 1071.87 1102.75 1075.54C1088.54 1077.63 1074.9 1075.77 1063.32 1070.88C1056.57 1077.43 1047.29 1082.16 1036.71 1083.71C1035.21 1083.93 1033.72 1084.09 1032.24 1084.17C1026.82 1087.02 1020.93 1089.28 1014.67 1090.83C1010.06 1095.78 1003.41 1099.39 995.724 1100.52C988.573 1101.57 981.764 1100.29 976.312 1097.33C971.761 1101.76 965.498 1104.97 958.346 1106.02C942.617 1108.33 928.546 1099.37 926.918 1086C926.194 1080.05 928.054 1074.23 931.727 1069.4C896.613 1072.92 865.892 1052.41 862.228 1022.33C858.438 991.2 885.051 961.6 921.67 956.215C948.77 952.23 973.756 962.625 986.451 980.915C988.728 980.371 991.052 979.922 993.418 979.574C1005.3 977.827 1016.77 978.844 1026.99 982.079C1016.66 973.762 1009.69 962.286 1008.07 948.919C1006.72 937.896 1009.19 927.065 1014.57 917.433Z" fill="white"/>
</g>
<path fill-rule="evenodd" clip-rule="evenodd" d="M216.208 443.324C230.429 419.089 264.437 408.686 296.305 420.089C304.23 422.924 311.341 426.864 317.464 431.604C333.007 410.457 364.82 401.935 394.746 412.643C428.714 424.797 447.714 457.238 438.196 485.961C442.503 485.934 446.964 486.66 451.343 488.227C452.221 488.542 453.08 488.884 453.917 489.252C462.273 482.466 475.087 480.325 487.264 484.682C504.338 490.791 513.693 507.363 508.16 521.696C506.609 525.712 504.054 529.127 500.803 531.827C527.519 547.085 540.814 576.102 530.956 601.637C522.108 624.554 497.238 637.868 470.126 636.568C470.506 640.05 470.093 643.592 468.778 646.999C463.624 660.35 446.552 666.56 430.648 660.869C417.829 656.282 409.681 645.364 409.7 634.31C404.203 635.187 398.219 634.699 392.392 632.614C386.672 630.568 381.883 627.261 378.334 623.244C361.283 635.659 336.353 639.267 312.61 630.772C299.079 625.93 287.923 617.869 279.999 608.106C270.96 610.715 260.554 610.527 250.483 606.923C249.054 606.412 247.667 605.844 246.323 605.224C240.202 605.194 233.937 604.417 227.689 602.836C221.289 605.041 213.717 605.097 206.407 602.481C199.601 600.046 194.194 595.715 190.777 590.534C184.674 592.308 177.641 592.189 170.835 589.753C155.866 584.397 147.664 569.869 152.516 557.303C154.674 551.713 159.052 547.453 164.566 544.917C131.922 531.51 114.452 498.968 125.368 470.694C136.662 441.439 174.069 427.832 208.918 440.302C211.432 441.202 213.864 442.212 216.208 443.324Z" fill="white"/>
<path fill-rule="evenodd" clip-rule="evenodd" d="M-56.2158 164.641C-56.4024 136.542 -32.5118 110.198 0.702596 103.683C8.96232 102.063 17.0873 101.809 24.7737 102.746C27.3025 76.6237 50.2709 53.0202 81.4614 46.9023C116.863 39.9584 149.79 58.1032 156.315 87.6506C160 85.4227 164.205 83.7635 168.768 82.8684C169.684 82.6887 170.597 82.5433 171.505 82.4312C175.21 72.3246 185.123 63.9266 197.814 61.4373C215.609 57.9469 232.127 67.3951 234.71 82.5405C235.433 86.7847 234.986 91.0258 233.575 95.0093C264.336 94.4434 290.609 112.567 295.209 139.55C299.338 163.765 284.787 187.933 260.83 200.693C262.938 203.489 264.397 206.743 265.01 210.343C267.416 224.451 255.928 238.524 239.352 241.775C225.992 244.395 213.404 239.187 207.763 229.68C203.489 233.247 198.099 235.891 192.025 237.082C186.065 238.251 180.258 237.862 175.153 236.228C166.859 255.62 147.289 271.48 122.543 276.334C108.44 279.1 94.7306 277.885 82.926 273.553C76.496 280.42 67.4602 285.585 56.964 287.644C55.4745 287.936 53.992 288.158 52.5206 288.314C47.2465 291.42 41.4665 293.96 35.2897 295.8C30.9203 300.97 24.4437 304.893 16.8249 306.387C9.7317 307.779 2.86972 306.825 -2.71774 304.123C-7.05211 308.771 -13.1554 312.268 -20.2487 313.659C-35.8496 316.719 -50.3319 308.436 -52.5957 295.158C-53.6028 289.251 -52.022 283.35 -48.5829 278.35C-83.4892 283.54 -115.153 264.525 -120.247 234.648C-125.517 203.735 -100.346 172.9 -64.0249 165.776C-61.4051 165.262 -58.7988 164.885 -56.2158 164.641Z" fill="white"/>
<path fill-rule="evenodd" clip-rule="evenodd" d="M1322.82 464.324C1308.6 440.089 1274.6 429.686 1242.73 441.089C1234.8 443.924 1227.69 447.864 1221.57 452.604C1206.02 431.457 1174.21 422.935 1144.29 433.643C1110.32 445.797 1091.32 478.238 1100.84 506.961C1096.53 506.934 1092.07 507.66 1087.69 509.227C1086.81 509.542 1085.95 509.884 1085.11 510.252C1076.76 503.466 1063.94 501.325 1051.77 505.682C1034.69 511.791 1025.34 528.363 1030.87 542.696C1032.42 546.712 1034.98 550.127 1038.23 552.827C1011.51 568.085 998.218 597.102 1008.08 622.637C1016.92 645.554 1041.79 658.868 1068.91 657.568C1068.53 661.05 1068.94 664.592 1070.25 667.999C1075.41 681.35 1092.48 687.56 1108.38 681.869C1121.2 677.282 1129.35 666.364 1129.33 655.31C1134.83 656.187 1140.81 655.699 1146.64 653.614C1152.36 651.568 1157.15 648.261 1160.7 644.244C1177.75 656.659 1202.68 660.267 1226.42 651.772C1239.95 646.93 1251.11 638.869 1259.03 629.106C1268.07 631.715 1278.48 631.527 1288.55 627.923C1289.98 627.412 1291.37 626.844 1292.71 626.224C1298.83 626.194 1305.1 625.417 1311.34 623.836C1317.74 626.041 1325.31 626.097 1332.63 623.481C1339.43 621.046 1344.84 616.715 1348.26 611.534C1354.36 613.308 1361.39 613.189 1368.2 610.753C1383.17 605.397 1391.37 590.869 1386.52 578.303C1384.36 572.713 1379.98 568.453 1374.47 565.917C1407.11 552.51 1424.58 519.968 1413.66 491.694C1402.37 462.439 1364.96 448.832 1330.11 461.302C1327.6 462.202 1325.17 463.212 1322.82 464.324Z" fill="white"/>
<path fill-rule="evenodd" clip-rule="evenodd" d="M1594 210.107C1599.05 182.466 1580.09 152.381 1548.5 140.208C1540.65 137.181 1532.69 135.522 1524.96 135.114C1527 108.948 1508.47 81.7208 1478.81 70.2898C1445.15 57.3156 1409.57 69.4791 1398.02 97.4485C1394.78 94.6156 1390.93 92.2528 1386.59 90.5803C1385.72 90.2446 1384.84 89.9432 1383.97 89.6755C1382.07 79.0797 1373.76 69.0908 1361.7 64.4396C1344.78 57.918 1326.87 64.3603 1321.7 78.829C1320.25 82.8835 1319.96 87.1381 1320.66 91.3058C1290.46 85.4172 1261.44 98.7129 1252.24 124.49C1243.97 147.624 1254.12 173.947 1275.5 190.666C1272.94 193.055 1270.94 196.007 1269.71 199.446C1264.9 212.924 1273.77 228.774 1289.53 234.849C1302.24 239.745 1315.54 236.797 1322.74 228.412C1326.33 232.665 1331.18 236.204 1336.96 238.43C1342.62 240.614 1348.41 241.237 1353.72 240.513C1358.53 261.049 1375.05 280.06 1398.58 289.129C1411.99 294.298 1425.71 295.477 1438.08 293.257C1443.23 301.135 1451.23 307.787 1461.21 311.634C1462.63 312.18 1464.05 312.656 1465.47 313.064C1470.13 317.037 1475.38 320.54 1481.14 323.423C1484.55 329.272 1490.25 334.258 1497.49 337.05C1504.24 339.65 1511.16 339.9 1517.13 338.207C1520.6 343.536 1526 348.038 1532.75 350.638C1547.58 356.355 1563.28 350.707 1567.81 338.022C1569.83 332.379 1569.29 326.294 1566.77 320.773C1600.25 331.934 1634.73 318.695 1644.93 290.153C1655.47 260.621 1636.03 225.89 1601.49 212.579C1599 211.618 1596.5 210.796 1594 210.107Z" fill="white"/>
<defs>
<clipPath id="clip0_451_6672">
<rect width="2369" height="845" fill="white" transform="translate(-428.5 350)"/>
</clipPath>
</defs>
</svg>
