<svg width="1512" height="382" viewBox="0 0 1512 382" fill="none" xmlns="http://www.w3.org/2000/svg">
<g clip-path="url(#clip0_151_11493)">
<path d="M183.216 251.532C184.651 249.335 184.374 242.437 171.79 232.426C156.551 220.305 193.963 192.414 197.807 226.844C198.064 229.145 197.37 231.419 196.661 233.622C195.43 237.45 194.974 242.959 198.581 247.481M183.216 251.532L198.581 247.481M183.216 251.532C182.355 253.473 180.422 256.349 182.394 257.782M198.581 247.481C199.993 249.252 202.526 250.52 201.632 252.709M188.607 250.111C187.256 245.392 183.654 235.388 180.051 233.121C176.116 230.644 180.317 219.003 185.44 224.634C187.286 226.664 188.123 231.253 185.404 231.615C184.474 231.739 183.394 230.504 182.326 226.488C179.543 216.019 196.409 221.051 191.333 232.156C187.273 241.041 190.879 247.022 193.19 248.902M182.394 257.782L201.632 252.709M182.394 257.782C182.543 259.302 181.437 261.252 183.311 262.136M201.632 252.709C202.235 254.245 203.74 255.084 202.729 257.016M183.311 262.136C183.883 263.952 184.601 265.506 185.183 266.525C184.25 268.711 194.812 264.986 201.215 262.463C201.99 262.158 202.599 261.52 202.718 260.697C202.86 259.714 202.903 258.455 202.729 257.016M183.311 262.136L202.729 257.016M158.179 247.481L169.448 242.857M155.215 226.488L161.739 230.38M158.179 193.245L169.448 206.238M188.607 199.742L195.547 193.245M202.729 215.689L215.713 213.326M202.729 233.121L211.561 237.542" stroke="#999999"/>
<path d="M234.909 301.405C235.144 300.755 235.378 300.105 235.612 299.455C235.795 298.945 236.175 298.283 236.2 297.743C236.248 296.719 236.653 295.513 237.002 294.543C237.238 293.889 237.57 292.046 238.122 291.708C238.496 291.479 238.56 290.643 238.951 290.341C239.294 290.077 239.349 289.482 239.743 289.234C240.162 288.969 240.361 288.485 240.758 288.248C241.198 287.984 241.39 287.247 241.801 287.006C242.137 286.81 242.463 286.155 242.759 285.846C243.023 285.572 243.362 284.952 243.49 284.598C243.606 284.274 244.03 283.862 244.251 283.556C244.512 283.194 244.865 282.921 245.203 282.569C245.535 282.223 245.838 281.927 246.207 281.614C246.442 281.414 246.876 280.979 247.166 280.88C247.556 280.747 247.911 280.165 248.198 279.865C248.469 279.582 248.702 279.211 248.996 278.956C249.646 278.388 250.086 277.435 250.865 277.017C251.253 276.81 251.599 276.38 251.918 276.101C252.137 275.91 252.582 275.599 252.739 275.381C252.967 275.064 253.439 274.55 253.78 274.341C253.946 274.24 254.141 274.122 254.285 273.991C254.834 273.492 255.816 273.534 256.492 273.396L259.083 273.567C260.343 274.017 261.618 274.221 262.881 274.672C264.912 275.397 266.958 276.003 268.994 276.73C273.505 278.342 278.122 279.739 282.645 281.355C286.804 282.841 290.976 284.634 295.241 285.736C298.115 286.478 300.94 288.801 303.885 289.3C304.976 289.484 305.956 290.084 307.045 290.268C308.291 290.478 309.579 290.951 310.792 291.299C313.036 291.941 315.247 292.883 317.446 293.669C318.829 294.163 320.174 294.74 321.54 295.257C322.662 295.682 323.906 296.155 324.945 296.753C326.563 297.685 328.042 297.578 329.603 298.605C330.706 299.332 332.039 300.316 332.72 301.445C333.291 302.393 333.929 303.439 333.782 304.591C333.725 305.045 333.662 305.792 333.719 306.267C333.806 306.986 333.653 307.717 333.657 308.466C333.664 310.161 333.15 311.625 332.579 313.21C332.1 314.54 331.666 315.963 330.798 317.102L328.177 325.429L325.162 334.501M234.909 301.405C234.419 302.767 234.051 304.139 233.556 305.512C233.239 306.393 233.053 307.319 232.797 308.224M234.909 301.405C234.464 300.968 233.49 300.326 233.157 301.249C232.825 302.171 232.399 303.354 232.227 303.829L231.429 306.045C231.186 306.72 230.854 308.006 231.469 307.75C232.084 307.494 232.61 307.959 232.797 308.224M233.898 315.353C233.577 315.119 232.682 314.597 232.712 314.147C232.725 313.953 232.34 312.832 232.206 312.765C232.041 312.681 231.994 311.356 232.033 311.124C232.152 310.41 232.287 309.736 232.536 309.046C232.633 308.775 232.718 308.501 232.797 308.224M233.898 315.353C234.405 315.724 235.02 315.872 235.528 316.243C236.249 316.769 237.181 316.898 237.941 317.336C238.073 317.412 238.413 317.807 238.561 317.543M233.898 315.353C236.455 308.399 242.225 293.422 244.852 289.152C247.479 284.883 254.25 279.453 257.306 277.271L265.654 279.995L269.331 281.308L256.65 314.328L254.656 315.306M238.561 317.543C238.765 317.18 238.866 316.718 239.007 316.326C239.288 315.546 239.569 314.766 239.85 313.986C240.753 311.478 242.972 309.947 245.605 309.753C246.913 309.657 248.012 310.11 249.241 310.549C250.095 310.854 250.558 311.367 251.304 311.796C251.869 312.122 252.342 312.789 252.958 313.009C253.295 313.129 253.679 313.79 253.957 314.092C254.262 314.426 254.578 314.867 254.656 315.306M238.561 317.543C237.91 318.598 237.328 320.966 237.928 322.482C238.579 324.127 242.096 325.707 243.519 326.432C245.22 327.257 248.863 328.862 249.835 328.689C249.986 328.662 250.153 328.608 250.33 328.534C252.488 327.638 254.017 325.631 255.174 323.604V323.604M254.656 315.306C254.744 315.803 255.104 316.339 255.23 316.867C255.37 317.447 255.004 317.971 255.089 318.487C255.263 319.541 254.339 320.745 254.001 321.682C253.91 321.934 253.82 322.186 253.729 322.438C253.51 323.044 253.563 323.035 254.216 323.268C254.534 323.382 254.854 323.494 255.174 323.604M292.284 291.36L273.026 284.934L266.598 302.779L271.791 304.697M292.284 291.36L285.061 309.596M292.284 291.36L307.456 296.423M285.061 309.596L279.868 307.679M285.061 309.596L290.83 311.727M307.456 296.423L327.928 303.254L320.879 322.822L317.406 321.539M307.456 296.423L302.97 316.209M302.97 316.209L290.83 311.727M302.97 316.209L306.985 317.691M255.174 323.604C257.055 324.249 258.951 324.834 260.827 325.504C261.643 325.796 262.536 325.863 263.381 326.165C264.676 326.628 265.971 327.091 267.266 327.553C268.153 327.87 269.106 327.959 269.995 328.276C271.264 328.73 272.589 329.101 273.877 329.538C275.937 330.235 278.087 330.413 280.145 331.148C281.714 331.708 290.438 335.014 292.039 335.586C292.426 335.724 292.812 335.862 293.199 336M293.199 336C293.536 336.12 293.872 336.24 294.209 336.361C294.482 336.458 294.788 335.264 295.041 335.023C296.029 334.083 297.684 332.866 299.002 332.595C300.666 332.833 304.173 333.443 304.89 333.979C305.154 334.22 305.598 334.327 305.785 334.648C305.916 334.872 306.178 335.099 306.395 335.236C306.832 335.511 306.904 336.13 307.21 336.478C307.446 336.745 307.757 337.465 307.668 337.836C307.556 338.307 307.778 339.141 307.854 339.6C307.92 340.004 307.683 340.526 307.858 340.894C307.953 341.095 308.446 341.414 308.923 341.68M293.199 336C293.407 336.631 293.034 340.085 295.612 343.089C297.376 345.145 300.013 345.968 302.111 346.222C303.665 346.41 305.127 345.653 306.209 344.521L308.923 341.68M308.923 341.68C309.294 341.887 309.655 342.061 309.814 342.124C310.482 342.389 311.077 342.701 311.763 342.946C312.397 343.173 313.031 343.399 313.666 343.626C314.48 343.917 315.36 343.98 316.152 344.262C316.709 344.461 317.266 344.661 317.824 344.86C318.437 345.079 319.057 345.085 319.645 345.259C320.14 345.405 320.67 345.528 321.14 345.667C321.594 345.801 321.996 343.991 322.146 343.574L323.381 339.858M247.485 295.952L245.575 295.269C245.67 295.004 246.234 293.614 247.724 290.178C249.215 286.742 254.847 281.547 257.477 279.379L266.556 282.273L260.016 300.428L247.485 295.952ZM247.485 295.952L251.878 293.569L250.473 290.104L253.9 296.29M325.162 334.501L326.859 335.108L324.946 340.417L323.381 339.858M325.162 334.501L323.381 339.858M278.072 299.963L271.791 304.697M271.791 304.697L279.868 307.679M286.18 302.86L279.868 307.679M294.53 306.899L290.83 311.727M301.301 309.876L298.44 314.155M310.433 313.138L306.985 317.691M306.985 317.691L313.932 320.257M317.01 315.488L313.932 320.257M313.932 320.257L317.406 321.539M321.125 316.958L317.406 321.539M250.659 321.621V321.621C249.961 323.558 247.048 323.787 245.108 323.094L244.702 322.949C244.464 322.864 244.235 322.753 244.02 322.62L243.847 322.512C242.674 321.782 242.09 320.392 242.388 319.043V319.043C242.523 318.434 242.829 317.876 243.271 317.435L243.492 317.214C244.394 316.314 245.645 315.853 246.915 315.955L248.273 316.064C248.979 316.12 249.648 316.404 250.178 316.871V316.871C251.182 317.757 251.543 319.166 251.089 320.427C250.937 320.849 250.79 321.258 250.659 321.621ZM305.036 341.248C304.207 342.037 303.88 342.154 303.332 342.338C303.091 342.419 302.844 342.485 302.594 342.529L302.089 342.617C301.099 342.79 300.085 342.504 299.332 341.841V341.841C298.524 341.127 298.116 340.064 298.24 338.992L298.275 338.688C298.325 338.256 298.482 337.842 298.731 337.484V337.484C299.323 336.634 300.359 336.209 301.377 336.396L303.1 336.712C303.595 336.803 304.058 337.02 304.443 337.343V337.343C305.031 337.834 305.429 338.533 305.478 339.297C305.525 340.047 305.479 340.827 305.036 341.248Z" stroke="#999999" stroke-linecap="round"/>
<path d="M61.8166 196.231C56.1171 199.93 50.3053 205.128 44.2969 211.778C57.4963 227.442 85.5113 249.1 119.004 211.778C111.974 203.519 106.178 198.257 99.4969 194.599M61.8166 196.231C74.2895 188.135 87.2131 187.873 99.4969 194.599M61.8166 196.231C61.2532 200.673 62.598 207.311 67.7481 211.778M99.4969 194.599C100.87 198.087 100.931 203.858 98.2409 208.606M67.7481 211.778C70.9916 214.591 75.7444 216.544 82.4803 216.544C90.8735 216.544 95.7431 213.016 98.2409 208.606M67.7481 211.778C70.5145 211.343 70.8178 208.513 72.3119 200.669C74.1796 190.864 73.2457 203.003 78.8488 204.871C84.4518 206.739 85.3856 201.136 85.8525 199.268C86.3194 197.4 88.654 197.867 89.1209 201.136C89.5226 203.947 92.68 207.302 94.257 209.54C95.5186 211.33 97.4386 209.664 98.2409 208.606" stroke="#999999"/>
<path d="M1293.54 165.308C1290.12 166.949 1284.07 167.909 1287.16 158.62C1290.25 149.332 1298.79 159.316 1302.67 165.469M1302.67 165.469L1306.88 163.404M1302.67 165.469C1299.19 169.078 1296.93 176.309 1306.8 179.388M1306.88 163.404C1306.89 157.555 1308.52 146.355 1314.95 148.353C1322.98 150.85 1324.58 160.429 1316.24 157.664M1306.88 163.404C1317.32 168.585 1314.74 173.917 1310.32 177.298M1306.8 179.388C1291.12 171.891 1267.46 189.258 1299.09 193.176C1296.49 201.267 1297.42 220.415 1311.82 198.303M1306.8 179.388C1308.14 178.784 1309.02 178.299 1310.32 177.298M1306.8 179.388L1307.32 186.775C1307.49 189.12 1308.15 191.405 1309.25 193.482L1311.82 198.303M1306.8 179.388L1309.89 184.277C1312.18 187.901 1313 192.26 1312.18 196.463L1311.82 198.303M1311.82 198.303C1334.51 209.375 1330.37 195.179 1325.46 186.697C1342.48 158.575 1322.46 168.714 1310.32 177.298M1303.64 170.842L1303.32 171.363L1303.43 171.782L1304.27 171.575L1304.06 170.738L1303.64 170.842ZM1309.1 169.499L1309.52 169.396L1310.05 169.711L1309.73 170.233L1309.31 170.336L1309.1 169.499ZM1304.37 198.816L1304.45 198.863C1304.72 199.025 1304.8 199.375 1304.64 199.644V199.644C1304.61 199.696 1304.57 199.742 1304.52 199.782L1304.15 200.097C1303.93 200.288 1303.62 200.361 1303.34 200.297L1303.23 200.272C1302.95 200.209 1302.73 199.994 1302.66 199.717V199.717C1302.59 199.439 1302.68 199.146 1302.9 198.961L1303.21 198.696C1303.3 198.624 1303.4 198.572 1303.51 198.546V198.546C1303.69 198.5 1303.89 198.53 1304.06 198.628L1304.37 198.816ZM1323.14 194.682V194.682C1323.27 195.183 1322.96 195.689 1322.46 195.812L1321.87 195.958C1321.66 196.008 1321.44 195.975 1321.26 195.866V195.866C1321.08 195.756 1320.95 195.579 1320.9 195.373L1320.9 195.364C1320.81 195.02 1320.96 194.661 1321.26 194.473L1321.9 194.069C1321.97 194.023 1322.05 193.989 1322.14 193.968L1322.14 193.966C1322.35 193.916 1322.56 193.949 1322.75 194.058V194.058C1322.93 194.167 1323.06 194.345 1323.11 194.551L1323.14 194.682ZM1323.43 176.308V176.308C1323.38 176.533 1323.39 176.767 1323.44 176.991L1323.5 177.226C1323.6 177.642 1323.93 177.965 1324.35 178.059V178.059C1324.52 178.098 1324.7 178.096 1324.87 178.054L1325.28 177.953C1325.66 177.86 1325.99 177.621 1326.19 177.287L1326.22 177.233C1326.4 176.933 1326.46 176.573 1326.37 176.231V176.231C1326.32 176.032 1326.23 175.846 1326.09 175.689L1325.95 175.522C1325.77 175.309 1325.52 175.161 1325.25 175.099V175.099C1324.91 175.024 1324.56 175.084 1324.27 175.267L1324.09 175.384C1323.76 175.593 1323.52 175.925 1323.43 176.308ZM1293.4 186.874L1293.29 186.963C1293.09 187.133 1292.85 187.254 1292.6 187.317L1292.07 187.448C1291.84 187.503 1291.61 187.505 1291.39 187.454V187.454C1291 187.368 1290.66 187.132 1290.45 186.798L1290.3 186.554C1290.14 186.307 1290.09 186.007 1290.15 185.721V185.721C1290.22 185.407 1290.43 185.141 1290.71 184.991L1291.4 184.63C1291.69 184.477 1292.02 184.409 1292.34 184.435L1292.46 184.445C1292.93 184.482 1293.35 184.737 1293.61 185.133L1293.65 185.204C1293.83 185.493 1293.89 185.844 1293.82 186.178V186.178C1293.76 186.45 1293.61 186.694 1293.4 186.874Z" stroke="#999999" stroke-linejoin="round"/>
<path d="M747.504 272.462C698.081 302.387 705.992 254.063 734.544 244.524C718.581 240.184 674.58 240.24 693.053 287.832C705.55 320.028 741.682 288.621 747.504 272.462Z" stroke="#999999"/>
<path d="M1364.34 280.006C1358.44 276.839 1357.31 293.374 1357.5 303.301C1357.51 303.827 1357.09 304.262 1356.57 304.262H1356.3C1355.79 304.262 1355.37 303.836 1355.36 303.32C1355.2 290.906 1351.87 291.922 1350.29 291.395C1349.06 290.983 1349.69 303.984 1350.22 311.422C1350.26 311.97 1350.76 312.36 1351.3 312.269L1353.99 311.818L1356.21 310.826C1356.83 310.55 1357.53 311.002 1357.53 311.679V335.639L1369.31 334.726L1368.01 316.962C1374.49 316.531 1377.39 313.158 1378.03 311.525C1380.4 299.032 1371.47 280.687 1372.93 295.006C1373.82 303.832 1371.48 307.919 1369.31 309.47C1368.44 310.095 1367.44 309.335 1367.36 308.263L1365.42 281.872C1365.36 281.115 1365.01 280.366 1364.34 280.006Z" stroke="#999999"/>
<path d="M419.577 302.657C412.609 307.776 408.191 320.878 406.334 328.925C405.939 330.638 406.872 332.342 408.5 333.006C429.491 341.565 468.036 356.863 474.029 357.579C481.864 358.515 489.115 333.525 488.875 331.122M419.577 302.657C419.845 300.798 421.49 296.685 425.92 295.104C426.56 294.875 427.915 295.072 429.822 295.605M419.577 302.657C426.537 305.283 435.605 308.748 444.877 312.357M488.875 331.122C490.292 328.133 489.541 325.148 488.595 323.264C488.114 322.305 487.242 321.63 486.284 321.143C483.911 319.937 481.27 318.608 478.455 317.208M488.875 331.122C488.768 330.058 476.5 325.222 459.963 318.65M438.173 298.576C440.591 296.964 445.951 293.989 448.058 294.979C450.053 295.917 465.929 303.383 474.844 307.576C475.785 308.018 476.638 308.635 477.212 309.5C478.57 311.547 479.919 314.745 478.455 317.208M438.173 298.576C449.304 303.034 465.671 310.851 478.455 317.208M438.173 298.576C437.197 298.185 436.261 297.82 435.371 297.484M429.822 295.605C428.559 294.387 427.363 291.477 432.679 289.58C439.324 287.207 437.724 298.341 435.371 297.484M429.822 295.605C431.346 296.031 433.224 296.673 435.371 297.484M444.877 312.357C435.932 316.67 421.575 332.17 444.014 338.426C465.547 344.429 466.617 325.394 459.963 318.65M444.877 312.357C449.294 314.077 455.66 316.94 459.963 318.65M419.319 327.271C415.085 327.723 413.845 332.026 419.714 333.411C425.583 334.797 424.936 326.672 419.319 327.271ZM446.487 332.915C438.156 328.828 440.618 324.34 444.841 321.289C447.356 319.473 450.877 319.699 453.076 321.876C457.428 326.184 455.923 329.874 453.279 332.275C451.446 333.939 448.707 334.004 446.487 332.915Z" stroke="#999999"/>
<path d="M846.901 261.333C818.169 248.11 804.395 172.452 846.902 221.264C865.026 191.287 930.935 224.41 846.901 261.333Z" stroke="#999999"/>
<path d="M1095.04 270.468C1097.61 273.223 1100.5 279.145 1091.5 280.794M1095.04 270.468C1094.51 273.566 1093.3 275.277 1091.75 276.053M1095.04 270.468C1093.08 268.299 1089 265.664 1084.76 267.383M1079.66 271.958C1082.72 274.608 1088.15 277.854 1091.75 276.053M1079.66 271.958C1079.31 272.028 1078.89 272.722 1078.45 273.803M1079.66 271.958C1081.3 269.499 1083.04 268.082 1084.76 267.383M1091.5 280.794L1091.75 276.053M1091.5 280.794C1089.69 280.758 1085.93 280.673 1085.43 280.612C1084.81 280.536 1090.26 300.473 1093.67 304.394M1093.67 304.394L1090.86 307.364M1093.67 304.394C1094.9 303.481 1097.54 300.652 1098.34 296.646C1099.33 291.639 1107.28 303.061 1102.42 306.843C1097.55 310.625 1077.98 329.182 1047.92 317.799C1045.85 317.212 1041.72 315.8 1041.68 314.845C1041.64 313.651 1041.51 306.066 1050.88 311.594C1051.5 311.961 1052.2 312.289 1052.96 312.579M1090.86 307.364L1089.23 305.288C1073.02 291.239 1061.86 305.18 1058.31 313.907M1090.86 307.364C1087.07 312.435 1069.88 315.622 1058.31 313.907M1058.31 313.907C1056.33 313.613 1054.51 313.176 1052.96 312.579M1052.96 312.579L1052.26 303.505C1052.46 300.009 1053.43 293.657 1055.77 292.184M1057.15 291.906C1057.54 292.175 1059.63 293.442 1064.89 296.359C1068.97 295.968 1076.65 293.661 1074.77 287.562C1074.85 287.172 1074.94 286.751 1075.04 286.307M1057.15 291.906C1056.69 288.66 1057.29 283.465 1063.33 288.661C1064.71 289.061 1068.3 289.129 1071.68 286.195M1057.15 291.906C1056.64 291.814 1056.18 291.921 1055.77 292.184M1075.04 286.307C1075.88 282.413 1077.26 276.709 1078.45 273.803M1075.04 286.307C1074.07 286.815 1072.35 287.302 1071.68 286.195M1077.68 267.149C1074.96 264.689 1071.51 281.407 1071.4 284.834C1071.38 285.44 1071.49 285.881 1071.68 286.195M1077.68 267.149C1079.84 269.116 1079.1 272.405 1078.45 273.803M1077.68 267.149C1079.35 266.144 1082.9 263.735 1083.7 262.132C1084.5 260.529 1084.74 264.965 1084.76 267.383M1055.77 292.184C1053.54 291.095 1045.87 292.904 1043.72 298.946M1055.77 292.184C1054.42 291.299 1053.35 291.692 1052.52 292.837M1055.77 292.184C1053.46 291.005 1049.96 290.186 1046.8 291.451C1043.4 292.807 1040.39 296.561 1039.66 304.837L1049.83 306.398C1049.91 302.227 1050.59 295.499 1052.52 292.837M1052.52 292.837C1050.95 294.021 1047.66 297.098 1047.11 299.933M1094.53 275.871L1095.08 276.236M1088.16 270.249C1088.05 271.34 1087.77 272.349 1089.55 271.155C1090.56 270.475 1088.43 268.593 1088.16 270.249Z" stroke="#999999"/>
<path d="M509.106 236.986C520.286 238.618 518.499 230.776 516.208 226.651C524.708 219.076 517.15 216.149 512.308 215.632C506.885 207.426 501.662 213.54 499.729 217.623C488.59 216.232 490.914 224.467 493.468 228.759C486.104 236.064 492.802 239.327 497.072 240.045C502.859 249.004 507.506 241.738 509.106 236.986ZM509.106 236.986C511.523 239.466 514.721 243.091 517.687 247.07M525.665 267.159C527.47 262.273 522.94 254.116 517.687 247.07M517.687 247.07L525.441 229.368M517.687 247.07C517.372 247.626 518.06 248.151 523.331 245.809C528.602 243.467 526.934 233.873 525.441 229.368M517.687 247.07C517.104 244.302 516.527 237.697 518.88 233.419C521.232 229.142 524.234 228.936 525.441 229.368M505.265 223.024C501.81 223.814 496.241 226.806 501.601 232.454C508.302 239.514 514.898 219.029 505.265 223.024Z" stroke="#999999"/>
<path d="M82.4134 293.784C74.5682 303.022 62.3203 327.042 76.0902 349.213M82.4134 293.784C90.1421 307.757 99.6976 338.405 76.0902 349.213M82.4134 293.784C75.4897 293.784 67.9516 297.042 61.6864 302.009M82.4134 293.784C91.3621 295.979 98.4136 298.639 103.841 301.592M76.0902 349.213C69.003 347.788 63.4568 345.764 59.2273 343.326M76.0902 349.213C85.2889 351.063 95.613 348.496 103.841 343.518M47.9183 324.27C70.4075 324.848 116.129 325.24 119.098 322.192M47.9183 324.27C48.6373 316.165 54.2701 307.889 61.6864 302.009M47.9183 324.27C47.2935 331.313 50.3787 338.226 59.2273 343.326M119.098 322.192C119.351 315.073 115.073 307.703 103.841 301.592M119.098 322.192C118.807 330.409 112.479 338.292 103.841 343.518M61.6864 302.009C69.766 306.898 89.5086 313.658 103.841 301.592M59.2273 343.326C68.0096 339.528 89.2275 334.25 103.841 343.518" stroke="#999999"/>
<path d="M912.694 74.605C911.684 78.0124 911.183 81.3558 909.372 84.4503C909.183 84.5446 908.396 86.4381 908.3 86.7757C908.148 87.3053 906.903 87.1822 906.654 86.7455C906.308 86.1413 905.045 85.8375 904.464 85.4016C903.407 84.6089 902.386 83.7738 901.353 82.9705C899.331 81.3975 901.102 85.9523 901.202 86.5039C901.525 88.2796 902.383 90.026 902.863 91.789C903.092 92.6262 903.958 95.1514 904.887 95.564C906.636 96.3415 901.157 94.6995 899.3 94.2352C897.368 93.7523 895.516 93.324 893.637 92.6195C891.374 91.7708 892.892 93.2205 893.471 94.2503C896.071 98.8723 899.767 99.6311 903.154 103.771C903.478 104.167 905.411 105.887 904.996 106.458C904.699 106.867 904.368 107.296 903.949 107.924C902.797 109.131 899.788 112.044 898.771 112.189C897.751 112.335 896.555 112.613 895.57 112.929C894.955 113.127 890.993 113.805 893.275 113.805C893.983 113.805 894.727 114.022 895.359 114.288C896.079 114.591 897.326 114.373 898.107 114.485C899.604 114.698 901.128 114.62 902.637 114.62C903.96 114.62 907.413 113.795 906.442 115.979C905.885 117.234 905.717 118.713 905.506 120.056C905.153 122.31 904.751 124.198 904.751 126.519C904.751 127.506 904.087 131.2 905.506 129.781C909.271 126.016 913.12 122.123 917.194 118.697C917.431 118.497 918.925 116.812 919.157 117.218C919.38 117.609 919.459 118.019 919.64 118.426C920.013 119.266 919.947 120.339 920.304 121.144C921.232 123.23 921.224 128.393 924.321 128.211C924.438 128.204 925.69 123.523 925.891 123.046C926.937 120.563 928.548 118.167 930.723 116.387C932.807 114.683 936.283 117.234 938.183 117.867C939.782 118.4 941.28 119.431 942.803 120.192C944.976 121.279 943.789 120.06 943.075 118.939C941.6 116.621 940.631 113.943 938.862 111.782C938.344 111.148 937.349 109.843 936.673 109.456C936.094 109.125 935.675 108.553 935.193 108.097C935.091 108.001 934.156 107.615 934.272 107.569C934.958 107.294 936.879 107.487 937.488 107.689C938.952 108.177 940.991 107.825 942.532 107.825C944.364 107.825 943.919 108.057 942.939 106.859C941.309 104.866 939.433 103.639 937.639 101.846C937.13 101.337 934.577 99.9356 935.359 99.4145C936.24 98.8269 936.74 97.7573 937.247 96.8173C938.133 95.1709 938.709 93.4542 939.542 91.789C940.105 90.6628 940.854 89.6777 941.414 88.5575C941.945 87.4957 941.545 87.9159 940.901 87.9837C939.289 88.1533 937.538 88.8427 936.008 89.3427C933.964 90.0112 931.887 90.1581 929.757 90.1581C927.947 90.1581 927.952 89.57 928.458 87.9233C928.678 87.2104 929.174 85.9735 929.213 85.2657C929.302 83.6669 929.757 82.1615 929.757 80.5242V77.1116C929.757 76.0939 929.829 76.084 929.213 76.5076C928.312 77.127 927.598 78.3727 926.707 79.0142C925.473 79.9024 924.257 81.0158 923.022 82.004C922.475 82.4415 918.012 86.3272 917.858 86.0811C917.162 84.9682 917.003 83.4721 916.438 82.2759C915.636 80.5772 915.149 78.3775 914.596 76.568C914.379 75.8576 913.208 72.8705 912.694 74.605Z" stroke="#999999" stroke-linecap="round"/>
<path d="M1469.96 289.859C1470.23 286.489 1466.67 286.653 1464.31 285.359C1452.74 279.025 1445.66 277.066 1434.18 270.781C1430.89 268.978 1420.14 259.709 1416.24 266.833C1411.53 275.449 1407.61 278.128 1400.34 278.087C1398.71 278.077 1396.54 279.731 1395.03 279.629C1393.75 279.543 1392.21 278.087 1391.15 277.504C1388.84 276.238 1388.33 274.764 1387.09 272.165C1385.54 268.933 1386.24 266.489 1385.29 262.691C1384.72 260.416 1386.58 254.744 1388.14 251.883L1391.25 246.207C1393.57 241.979 1396.61 240.254 1399.95 238.149C1403.62 235.83 1407.43 232.76 1410.33 234.348C1414.01 236.363 1416.29 236.068 1419.97 238.083C1422.02 239.203 1424.22 239.125 1425.84 242.84C1425.67 244.03 1428.57 244.997 1428.05 246.534C1427.94 246.866 1427.61 248.474 1427.59 248.776C1427.54 250.091 1427.1 251.823 1428.06 252.473C1434.35 256.738 1441.47 259.813 1448.12 263.455L1484.35 283.292C1488 285.292 1496.5 287.269 1491.8 295.856C1489.67 299.743 1487.36 301.229 1486.06 305.06C1485.26 307.441 1486.1 307.69 1484.74 306.946C1483.24 306.123 1480.44 306.172 1482.02 303.281C1482.65 302.129 1485.05 296.827 1485 295.733C1484.99 295.491 1484.1 294.94 1483.36 294.511C1482.88 294.234 1482.26 294.432 1482.03 294.931L1478.06 303.346C1477.86 303.762 1477.27 303.747 1477.09 303.321C1477.03 303.184 1477.04 303.031 1477.1 302.897L1481.19 294.128C1481.4 293.682 1481.22 293.151 1480.79 292.915L1479.24 292.064C1478.78 291.812 1478.2 291.99 1477.96 292.457L1473.71 300.725C1473.6 300.932 1473.42 301.091 1473.21 301.173L1472.85 301.305C1472.44 301.459 1471.99 301.294 1471.88 300.87C1471.84 300.708 1471.8 300.521 1471.77 300.31C1471.68 299.697 1474.33 294.98 1476.1 291.959C1476.4 291.441 1476.14 290.764 1475.55 290.702C1471.47 290.274 1470.36 295.524 1468.12 298.313C1466.55 300.278 1467.19 296.683 1467.42 295.707C1467.84 293.947 1469.84 291.36 1469.96 289.859Z" stroke="#999999" stroke-linecap="round"/>
<path d="M597.834 309.707C598.358 308.83 598.918 307.805 599.251 306.847C599.469 306.219 599.804 305.588 599.804 304.917C599.804 303.766 599.804 302.614 599.804 301.462C599.804 301.15 599.589 300.912 599.573 300.59C599.558 300.309 599.498 299.956 599.45 299.673C599.402 299.382 599.273 298.544 599.083 298.307C598.233 297.249 597.428 296.112 596.302 295.281C595 294.32 594.077 292.921 592.729 291.998C591.229 290.972 589.886 289.461 588.737 288.062C588.204 287.413 587.929 286.625 587.456 285.94C586.845 285.055 586.275 284.006 585.782 283.048C585.276 282.068 584.91 281.016 584.501 279.996C584.262 279.403 583.773 278.737 583.696 278.086C583.672 277.887 583.441 277.235 583.322 277.073C583.048 276.697 582.885 275.38 582.885 276.521C582.885 277.095 583.116 277.648 583.116 278.227C583.116 278.876 583.157 279.633 583.239 280.285C583.621 283.331 583.348 286.369 583.348 289.421C583.348 290.742 583.232 292.022 583.232 293.326C583.232 294.943 582.885 296.567 582.885 298.173C582.885 298.986 582.653 299.8 582.653 300.615C582.653 301.319 582.624 302.132 582.37 302.782C582.16 303.319 582.189 304.364 582.189 304.95C582.189 305.624 582.073 306.257 582.073 306.937C582.073 308.808 581.726 310.626 581.726 312.502C581.726 313.841 581.377 315.186 581.172 316.516C580.93 318.08 580.538 319.618 580.329 321.183C580.259 321.705 580.046 322.221 579.897 322.722C579.683 323.441 579.539 324.113 579.125 324.761C578.311 326.034 577.432 327.347 576.305 328.428C575.256 329.434 574.266 330.669 572.828 331.147C571.748 331.505 570.586 331.959 569.441 331.98C568.29 332.002 567.129 332.095 565.965 332.095C564.309 332.095 562.658 331.232 561.381 330.191C560.38 329.376 559.809 328.553 559.501 327.248C559.258 326.219 559.32 325.054 559.359 323.991C559.403 322.816 560.267 321.812 560.808 320.843C561.28 319.998 562.548 318.887 563.473 318.478C563.983 318.252 564.48 317.887 564.98 317.619C565.541 317.318 566.261 317.188 566.866 317.003C568.134 316.614 569.619 316.631 570.948 316.631C572.039 316.631 573.183 317.533 574.051 318.131C574.659 318.551 575.824 319.187 576.163 319.862" stroke="#999999" stroke-linecap="round"/>
<path d="M83.4571 90.7067C82.5036 89.5977 81.4229 88.0408 79.7762 88.0408C78.8808 88.0408 77.9982 87.9298 77.0929 87.9298C75.6497 87.9298 74.1441 88.0408 72.7489 88.0408C72.0648 88.0408 71.4088 88.5971 70.8527 88.9048C70.2222 89.2536 70.0026 89.7392 69.5699 90.2562C68.8466 91.1207 69.1795 92.4717 69.1795 93.4837C69.1795 94.0764 69.5671 94.6382 69.824 95.1499C69.9416 95.3841 70.1683 95.468 70.3507 95.6497C70.4837 95.7821 70.6765 96.1886 70.8031 96.2607C71.0952 96.4269 71.224 96.5978 71.5219 96.7297C71.7618 96.8358 71.9846 96.8161 72.247 96.8161C73.1554 96.8161 73.8492 96.3541 74.7319 96.1743C76.2501 95.865 78.1007 95.8847 79.2804 94.8167C79.7824 94.3622 80.3787 94.0787 80.8916 93.5948C81.6385 92.8901 82.3039 92.2275 82.9552 91.4349C83.5955 90.6555 84.0872 89.6876 84.3557 88.7073C84.5016 88.1744 84.8445 87.6879 84.9939 87.1522C85.1651 86.5388 85.3223 85.8859 85.4401 85.2639C85.8864 82.9086 85.9111 80.3198 85.9111 77.9388C85.9111 73.5443 86.8034 69.2374 86.8034 64.8377C86.8034 63.3392 86.915 61.8151 86.915 60.2958C86.915 59.9835 86.8899 58.6961 87.2496 58.716C88.1557 58.7662 89.2778 59.5574 90.094 59.8885C91.156 60.3194 92.112 60.9899 93.2172 61.277C94.9802 61.735 96.7316 62.3091 98.4907 62.826C99.7446 63.1944 101.184 63.7589 102.308 64.4428C103.377 65.0933 104.63 65.371 105.741 65.9609C107.742 67.0236 110.001 67.6136 112.062 68.5465C112.809 68.8849 113.598 69.1019 114.349 69.429C114.691 69.5781 115.028 69.6261 115.359 69.7992C115.665 69.96 115.707 70.7776 115.78 71.1322C116.246 73.4018 116.697 75.5395 116.697 77.871C116.697 80.0925 116.697 82.3141 116.697 84.5357C116.697 86.5234 116.669 88.5355 116.914 90.4908C117.058 91.6399 117.122 92.7895 117.249 93.928C117.377 95.0776 117.143 96.2347 117.143 97.3715C117.143 98.8205 116.805 99.9663 116.424 101.321C116.281 101.83 116.386 102.317 116.164 102.814C116.053 103.064 116.028 103.625 116.028 103.9C116.028 104.574 115.697 105.13 115.47 105.752C114.96 107.148 113.658 108.518 112.347 109.17C111.642 109.521 110.798 109.923 110.005 109.923C108.948 109.923 107.685 110.306 106.664 109.862C105.759 109.467 105.121 109.031 104.427 108.263C103.95 107.735 103.575 107.319 103.337 106.677C103.02 105.826 102.805 104.123 103.256 103.314C103.757 102.416 104.116 101.652 104.898 100.951C105.705 100.228 107.254 100.037 108.276 100.037C109.45 100.037 110.702 99.9143 111.839 100.173C112.573 100.34 113.234 100.566 113.958 100.698C114.418 100.781 114.636 101.177 115.024 101.37" stroke="#999999" stroke-linecap="round"/>
<path d="M359.741 196.024C361.016 194.261 362.47 192.653 363.371 190.651C363.719 189.878 364.129 189.19 364.581 188.471C364.973 187.849 365.357 187.212 365.686 186.553C365.869 186.188 365.978 185.787 366.212 185.449C366.384 185.2 366.662 184.791 366.768 184.531C367.344 183.117 368.393 181.929 369.001 180.532C369.806 178.679 370.828 176.915 371.398 174.979C372.052 172.755 373.202 170.731 374.028 168.583C374.446 167.498 374.814 166.346 375.338 165.298C375.571 164.832 375.977 162.7 376.577 162.667C377.68 162.606 378.238 163.909 378.682 164.772C378.988 165.368 379.502 165.927 379.892 166.467C380.359 167.114 381.063 167.775 381.441 168.455C381.781 169.067 382.171 169.672 382.575 170.249C382.851 170.644 383.045 171.078 383.259 171.506C383.412 171.813 383.649 172.336 383.861 172.582C384.307 173.099 384.685 174.017 384.937 174.663C385.245 175.457 385.47 176.277 385.79 177.06C386.708 179.302 387.1 181.839 387.1 184.262C387.1 185.241 386.946 186.731 386.258 187.5C385.977 187.814 385.906 188.392 385.574 188.658C385.125 189.017 384.667 189.581 384.317 190.026C383.875 190.589 382.993 191.253 382.364 191.604C381.858 191.887 381.357 192.317 380.897 192.662C379.837 193.458 378.768 194.167 377.682 194.919C377.087 195.331 376.468 195.841 375.84 196.187C375.377 196.444 375.063 196.844 374.625 197.123C374.394 197.269 374.139 197.391 373.9 197.544C373.711 197.664 373.473 197.923 373.292 198C372.973 198.134 372.823 198.367 372.473 198.467C372.25 198.531 371.868 198.78 371.684 198.923C370.838 199.581 369.937 200.146 369.048 200.712C368.907 200.802 368.526 201.128 368.644 201.01C368.732 200.922 368.984 200.766 369.106 200.759C369.609 200.729 370.123 200.759 370.626 200.759C371.031 200.759 371.437 200.759 371.842 200.759C372.383 200.759 372.738 200.974 373.257 201.069C373.72 201.153 374.248 201.068 374.683 201.262C375.062 201.43 375.595 201.532 376.004 201.607C376.751 201.742 377.992 202.162 378.53 202.7C378.701 202.871 379.278 203.033 379.523 203.156C379.668 203.228 380.541 203.639 380.57 203.769C380.796 204.787 379.969 205.906 379.465 206.698C378.795 207.751 377.824 208.559 377.156 209.598C376.821 210.119 376.319 210.599 375.922 211.071C375.639 211.409 375.349 211.804 374.993 212.071C374.233 212.64 373.994 213.281 372.941 213.281C372.08 213.281 371.629 212.91 370.947 212.38C370.072 211.7 369.148 211.029 368.323 210.334C367.496 209.638 366.434 209.114 365.634 208.394C365.255 208.053 364.791 207.808 364.423 207.441C364.307 207.324 364.159 207.254 364.055 207.125C363.894 206.923 364.055 207.128 364.055 207.306C364.055 209.116 364.16 210.993 364.16 212.836C364.16 213.338 364.215 213.82 364.003 214.286C363.82 214.688 364.05 215.202 363.927 215.619C363.799 216.05 363.74 216.672 363.74 217.116C363.74 217.446 363.442 217.81 363.424 218.121C363.378 218.898 362.083 218.669 361.506 218.647C360.52 218.611 359.665 217.798 358.689 217.7C357.753 217.607 356.798 216.9 355.929 216.566C355.461 216.386 354.907 216.133 354.48 215.859C354.115 215.624 353.365 215.46 353.135 215.07C352.929 214.718 353.006 214.26 353.006 213.865C353.006 213.359 353.583 212.929 353.638 212.439C353.687 211.999 354.092 211.522 354.269 211.124C354.516 210.569 354.879 209.873 355.24 209.387C355.808 208.623 356.572 207.902 357.216 207.178C357.784 206.538 357.101 206.817 356.596 207.014C356.095 207.209 355.595 207.228 355.111 207.47C354.203 207.924 353.243 208.187 352.317 208.651C351.226 209.196 349.992 209.703 348.751 209.703C348.044 209.703 347.327 209.808 346.611 209.808C346.091 209.808 345.733 209.632 345.267 209.498C344.104 209.166 343.049 208.058 342.215 207.224C340.342 205.351 338.27 203.657 336.539 201.659C335.731 200.727 334.901 199.84 334.165 198.859C333.442 197.895 332.531 196.822 332.172 195.655C331.84 194.577 331.255 193.492 330.851 192.393C330.737 192.085 330.547 191.81 330.436 191.499C330.386 191.361 330.333 190.989 330.254 190.891C329.961 190.524 330.412 190.657 330.751 190.657C332.128 190.657 333.457 190.88 334.802 191.072C336.443 191.307 338.136 191.358 339.754 191.762C341.244 192.134 342.775 192.324 344.273 192.656C345.113 192.843 345.968 192.935 346.798 193.159C347.124 193.247 347.515 193.384 347.85 193.393C348.233 193.404 348.552 193.604 348.903 193.604C350.063 193.604 351.204 194.235 352.323 194.235C352.745 194.235 353.109 194.423 353.533 194.445C354.095 194.475 354.721 194.669 355.269 194.814C356.827 195.224 358.337 195.322 359.741 196.024Z" stroke="#999999" stroke-linecap="round"/>
<path d="M925.089 311.028C926.543 310.006 929.621 306.686 932.1 303.705C934.495 300.725 936.803 298.426 937.231 298.511C938.257 298.852 949.971 313.583 949.971 314.519C949.971 315.03 948.945 315.371 947.662 315.371C943.302 315.371 942.703 316.478 944.755 320.224C945.781 322.012 947.748 324.311 949.201 325.163C952.194 327.206 952.365 328.143 949.629 328.143C948.432 328.143 946.551 328.484 945.268 328.994L943.131 329.846L945.354 333.422C946.636 335.466 949.372 338.957 951.425 341.171C953.562 343.47 955.016 345.513 954.674 345.854C954.332 346.194 950.741 346.62 946.722 346.876L939.283 347.301L939.026 350.878L938.77 354.539H934.495H930.305V351.218C930.305 347.301 929.45 346.876 920.301 346.876C916.966 346.876 913.973 346.535 913.717 346.109C913.46 345.769 915.684 343.299 918.591 340.745C921.498 338.105 924.576 334.785 925.431 333.337L926.97 330.697H923.55C917.308 330.697 917.052 330.101 921.498 325.248C925.688 320.65 928.338 316.563 927.569 315.796C927.398 315.541 926.115 315.286 924.918 315.2C921.925 314.945 922.011 313.327 925.089 311.028Z" stroke="#999999"/>
<path d="M635.596 149.993C629.767 149.993 622.806 148.218 617.105 148.218C615.492 148.218 613.786 148.069 612.3 147.982M635.596 149.993C635.758 149.266 635.786 148.318 636.243 147.692C636.917 146.77 636.533 144.377 636.533 143.25C636.533 140.198 635.524 136.673 633.154 134.549C632.645 134.093 632.034 133.943 631.438 133.773C630.726 133.571 629.966 132.884 629.168 132.84C627.996 132.775 625.498 132.414 624.417 132.893C623.767 133.18 622.75 133.199 622.041 133.3C621.385 133.393 620.763 133.695 620.14 133.97C618.303 134.783 616.289 135.502 614.729 136.915C614.349 137.258 613.698 137.719 613.488 138.19C613.268 138.682 612.824 139.746 612.485 140.122C612.068 140.583 611.691 141.324 611.574 141.962C611.435 142.726 610.875 143.461 610.875 144.196C610.875 145.02 610.875 145.844 610.875 146.667C610.875 148.08 611.063 147.909 612.3 147.982M635.596 149.993C635.475 150.533 638.146 150.347 638.671 150.347M612.3 147.982C612.152 147.973 608.437 148.924 606.598 149.401M638.671 150.347C639.776 150.347 640.333 146.803 640.333 146.089C640.333 144.314 639.599 142.639 639.599 140.789C639.599 139.999 639.599 139.328 639.232 138.597C639.039 138.213 639.013 136.998 638.823 136.573C638.552 135.966 638.355 135.702 637.925 135.166C637.093 134.13 635.754 133.271 634.718 132.446C633.489 131.467 632.298 130.661 630.679 130.303C629.95 130.142 627.746 129.607 626.998 129.607C626.246 129.607 626.918 129.607 626.165 129.607C624.676 129.607 623.134 129.476 621.77 129.962C621.121 130.193 620.273 130.516 619.632 130.553C619.036 130.588 618.257 131.344 617.613 131.486C616.585 131.714 614.969 132.639 614.168 133.392C611.6 135.807 609.615 136.154 608.445 139.648C607.867 141.376 607.31 143.125 607.31 144.959C607.31 145.839 607.349 146.562 607.534 147.39C607.608 147.719 607.038 149.375 606.598 149.401M638.671 150.347L643.605 150.655C644.637 150.655 643.089 152.91 643.089 153.736C643.089 154.507 643.089 155.278 643.089 156.049C643.089 157.295 643.572 159.925 642.97 161.004C642.334 162.144 642.851 164.91 642.851 166.209C642.851 166.895 642.925 170.243 642.495 170.586C641.998 170.982 642.701 172.192 642.323 172.663C641.964 173.109 642 174.484 641.914 175.081C641.792 175.933 641.525 176.627 641.135 177.447C640.89 177.963 640.807 178.981 640.356 179.34C639.955 179.66 639.716 180.512 639.235 180.943C638.697 181.425 637.695 181.885 637.03 182.179C636.168 182.56 633.737 182.966 632.917 183.469C632.172 183.926 631.055 184.437 630.25 184.666C629.626 184.843 628.914 185.56 628.218 185.599C627.318 185.649 626.4 185.599 625.499 185.599C623.808 185.599 622.112 185.362 620.483 185.362C618.506 185.362 616.567 184.727 614.795 183.943C613.329 183.294 612.318 181.85 611.007 181.104C610.106 180.591 609.112 179.269 608.618 178.383C608.249 177.722 607.882 177.063 607.496 176.372C607.186 175.817 606.259 174.908 606.136 174.361C605.514 171.571 603.51 168.754 603.51 165.726C603.51 164.018 602.512 162.223 602.322 160.521C602.126 158.76 601.847 157.139 601.847 155.316C601.847 153.535 601.983 151.691 602.085 149.874C602.131 149.044 605.906 149.442 606.598 149.401M619.05 157.233C616.212 158.955 616.813 163.501 618.24 164.253C619.747 165.048 621.357 165.94 620.272 167.947C619.916 168.606 619.926 169.518 619.612 170.221C619.349 170.811 618.715 171.616 618.715 172.232C618.715 172.555 618.51 172.823 618.768 172.823C619.403 172.823 620.023 172.759 620.615 173.007C621.257 173.276 622.648 173.296 623.334 173.296C624.17 173.296 625.006 173.296 625.842 173.296C626.489 173.296 624.808 172.387 624.667 171.758C624.301 170.117 623.466 169.108 623.466 167.263C623.466 165.475 625.531 164.879 626.687 163.728C627.867 162.552 626.672 161.697 626.304 160.415C625.891 158.974 624.55 157.755 623.348 157.09C622.21 156.461 620.254 156.502 619.05 157.233Z" stroke="#999999" stroke-linecap="round"/>
<path d="M798.829 145.303C796.22 146.173 793.585 146.571 790.972 146.584M797.539 143.432C798.173 143.776 799.339 145.131 798.933 147.793M762.119 138.763C775.783 171.93 800.555 172.211 818.752 165.173M761.522 131.519C756.492 125.187 761.951 121.935 765.516 121.076C775.097 104.836 796.121 105.642 811.903 111.125M761.522 131.519C761.806 131.877 762.124 132.245 762.478 132.622C763.472 133.684 764.554 134.74 765.714 135.768M761.522 131.519C758.934 136.283 756.149 143.802 765.714 135.768M765.714 135.768C770.758 140.239 777.257 144.185 784.23 145.804M784.23 145.804C786.44 146.317 788.698 146.596 790.972 146.584M784.23 145.804C784.722 150.65 786.76 157.59 790.972 146.584M802.08 122.355C803.687 122.051 808.581 122.72 807.806 126.956M809.861 138.039C810.291 139.582 810.496 142.784 807.868 143.248M812.186 140.766C812.394 142.224 812.409 144.986 810.807 144.373M814.323 141.584C814.576 143.058 814.653 145.844 812.944 145.19M818.05 152.655C816.626 154.509 813.938 158.922 814.575 161.738C815.372 165.258 804.4 159.118 803.998 153.366M832.52 132.839C833.273 134.73 833.966 136.757 834.592 138.925M832.52 132.839C836.208 133.666 841.786 136.043 834.592 138.925M832.52 132.839C830.717 128.31 828.566 124.556 826.149 121.476M834.592 138.925C835.285 141.328 835.896 143.905 836.417 146.667C839.876 144.162 847.727 140.398 851.457 145.377L839.253 153.264C839.518 156.172 840.47 161.691 842.151 160.497C839.633 160.809 834.334 160.599 833.285 157.258C831.191 158.797 828.754 160.353 826.059 161.805M811.903 111.125C820.449 106.783 835.795 101.383 828.812 114.513L826.149 121.476M811.903 111.125C817.154 112.949 822.037 116.237 826.149 121.476M786.987 116.581C786.901 114.805 785.923 111.758 782.699 113.781M818.752 165.173C821.337 164.174 823.79 163.026 826.059 161.805M818.752 165.173C821.767 167.78 827.448 170.757 826.059 161.805M798.429 135.504C795.925 133.506 796.676 131.201 798.297 129.326C800.253 127.063 804.421 126.377 805.333 129.226C806.534 132.984 802.268 138.566 798.429 135.504ZM781.341 117.331C778.329 118.934 773.774 122.704 779.651 124.952C786.997 127.762 787.938 114.495 781.341 117.331Z" stroke="#999999"/>
<path d="M991.145 149.569C957.316 146.82 966.917 165.779 976.211 175.866C975.639 180.25 975.286 189.368 978.458 190.767M991.144 149.569C997.09 146.045 1011.23 139.473 1020.22 141.376C1027.04 133.359 1038.93 121.991 1044.79 136.751C1050.51 151.134 1047.97 156.572 1047.97 156.572C1052.82 161.562 1060.6 174.404 1053.14 186.078M979.515 196.084C979.366 196.98 979.507 197.791 979.834 198.463M986.122 194.895C986.122 196.869 985.706 198.242 985.081 199.123M985.081 199.123C986.205 199.824 988.195 200.428 989.56 199.123M985.081 199.123C983.568 201.258 980.834 200.511 979.834 198.463M990.879 196.084C990.651 197.582 990.168 198.542 989.56 199.123M989.56 199.123C990.308 200.136 992.254 201.555 994.051 199.123C994.157 198.9 994.255 198.68 994.346 198.463M979.834 198.463H976.211C975.964 195.136 976.893 192.587 978.458 190.767M994.346 198.463H1034.49M994.346 198.463C998.999 187.349 984.3 183.971 978.458 190.767M1034.49 198.463C1035.28 195.908 1036.76 190.349 1036.34 188.552M1034.49 198.463H1052.99C1055.52 198.145 1054.04 190.225 1052.99 186.305C1053.04 186.229 1053.09 186.154 1053.14 186.078M1036.34 188.552L1038.03 186.966M1036.34 188.552C1034.71 188.419 1031.45 186.649 1031.45 180.623C1031.45 173.091 1050.77 171.05 1053.14 186.078M1036.34 183.002C1036.47 184.304 1036.97 186.055 1038.03 186.966M1042.55 186.305V183.002M1042.55 186.305C1044.35 187.054 1047.97 187.442 1047.97 183.002M1042.55 186.305C1040.46 187.933 1039.01 187.811 1038.03 186.966M986.122 175.866C988.677 172.254 995.452 166.589 1002.11 172.826M1018.1 168.862C1020.26 165.074 1026.56 158.555 1034.49 162.783M1010.44 175.866C1013.29 174.703 1012.42 173.355 1011.63 172.826L1006.87 173.751C1006.87 174.941 1007.58 177.029 1010.44 175.866ZM1010.44 175.866V179.169M1010.44 179.169C1010.03 180.325 1009.07 182.01 1007.93 181.603M1010.44 179.169C1011.6 180.039 1014.08 180.98 1016.17 179.169M1017.44 177.584C1017.05 178.259 1016.62 178.778 1016.17 179.169M1006.87 180.623C1007.23 181.179 1007.59 181.483 1007.93 181.603M1007.93 181.603C1008.59 186.305 1016.94 187.415 1016.17 179.169M986.122 154.326C983.215 157.453 977.612 164.395 978.458 167.144C979.515 170.58 963.129 150.097 986.122 154.326ZM1025.24 142.169C1029.18 142.829 1038.17 145.234 1042.55 149.569C1042.9 140.23 1039.93 125.677 1025.24 142.169Z" stroke="#999999"/>
<path d="M1415.99 83.7835L1415.99 83.7836C1417.8 87.8101 1419.69 91.7895 1421.77 95.676C1422.34 96.7367 1422.55 97.7362 1422.5 98.6769L1422.47 99.2355L1421.92 99.1425C1414.05 97.8171 1405.94 97.1377 1397.96 96.5702L1397.3 96.5236L1397.52 95.9039C1399.17 91.2812 1399.74 86.4197 1397.69 82.5691L1415.99 83.7835ZM1415.99 83.7835C1415.3 82.2562 1414.62 80.5524 1413.91 78.766L1413.81 78.499C1413.14 76.798 1412.44 75.0297 1411.69 73.2928C1410.1 69.6444 1408.25 66.0813 1405.81 63.5024C1405.03 62.6757 1404.19 62.0737 1403.32 61.6599L1402.76 61.3928L1402.62 61.998C1401.23 67.9853 1399.09 74.7692 1395.78 79.9539L1395.52 80.3572M1415.99 83.7835L1395.52 80.3572M1395.52 80.3572L1395.91 80.6322M1395.52 80.3572L1395.91 80.6322M1395.91 80.6322C1396.67 81.1686 1397.3 81.8219 1397.69 82.569L1395.91 80.6322ZM1387.83 101.513C1386.94 100.807 1385.95 100.339 1384.94 99.9639C1384.36 99.7466 1383.74 99.5488 1383.13 99.356C1382.72 99.2256 1382.32 99.0975 1381.94 98.9671L1381.94 98.967C1379.29 98.0551 1377.02 96.7736 1374.6 95.3144L1374.6 95.3139C1374.32 95.1501 1374.03 95.2204 1373.84 95.3557C1373.65 95.4962 1373.49 95.7794 1373.6 96.1043C1374.01 97.3271 1374.87 98.2304 1375.84 98.932C1376.81 99.6311 1377.93 100.156 1378.91 100.603L1378.91 100.603C1381.38 101.74 1384.48 102.983 1387.4 102.782L1387.4 102.782C1387.69 102.761 1387.91 102.571 1388.01 102.362C1388.07 102.249 1388.11 102.101 1388.08 101.937C1388.05 101.766 1387.96 101.619 1387.83 101.513ZM1387.83 101.513L1387.52 101.905M1387.83 101.513C1387.83 101.513 1387.83 101.513 1387.83 101.513L1387.52 101.905M1387.52 101.905C1387.68 102.037 1387.53 102.271 1387.36 102.283L1381.78 99.4399C1382.18 99.5795 1382.6 99.71 1383.01 99.8406C1384.6 100.347 1386.2 100.855 1387.52 101.905ZM1372.94 127.172L1373.3 126.497C1374.98 123.403 1376.38 120.151 1377.79 116.897C1377.95 116.52 1378.11 116.143 1378.27 115.767L1378.27 115.767C1378.6 115.009 1378.94 114.249 1379.28 113.486C1380.67 110.375 1382.08 107.222 1382.79 103.997L1382.91 103.458L1383.43 103.629C1386.53 104.64 1389.89 105.312 1392.78 104.848C1392.84 104.839 1392.89 104.816 1392.95 104.775C1392.95 104.773 1392.96 104.771 1392.96 104.768C1392.97 104.756 1392.99 104.738 1393.01 104.718C1393.03 104.702 1393.04 104.688 1393.05 104.678C1393.06 104.67 1393.07 104.664 1393.07 104.659C1393.08 104.656 1393.08 104.654 1393.08 104.651C1393.08 104.65 1393.09 104.648 1393.09 104.647L1393.1 104.63L1393.12 104.606C1393.14 104.576 1393.17 104.553 1393.19 104.538C1393.19 104.532 1393.2 104.527 1393.2 104.522C1394.39 102.697 1395.62 100.512 1396.63 98.1639L1396.79 97.7996L1397.18 97.8712C1403.73 99.0701 1410.46 99.6118 1417.16 100.15C1418.52 100.26 1419.88 100.369 1421.24 100.484L1422.07 100.554L1421.62 101.253C1420.91 102.351 1419.85 103.277 1418.75 104.048C1417.65 104.822 1416.47 105.46 1415.5 105.969M1372.94 127.172L1403.29 112.064C1398.9 114.514 1394.51 116.963 1390.03 119.265M1372.94 127.172L1373.7 127.234C1376.6 127.467 1379.65 126.112 1382.47 124.48C1383.73 123.752 1384.97 122.955 1386.15 122.198C1386.3 122.1 1386.45 122.003 1386.6 121.907C1387.92 121.06 1389.14 120.285 1390.26 119.71M1372.94 127.172L1390.03 119.265M1415.5 105.969L1415.27 105.526L1415.5 105.969C1415.5 105.969 1415.5 105.969 1415.5 105.969ZM1415.5 105.969C1411.47 108.072 1407.51 110.285 1403.53 112.502C1403.32 112.618 1403.11 112.735 1402.9 112.851C1398.72 115.184 1394.53 117.514 1390.26 119.71M1390.26 119.71C1390.26 119.71 1390.26 119.71 1390.26 119.71L1390.03 119.265M1390.26 119.71L1390.03 119.265M1408.03 63.4745L1408.03 63.4746C1411.07 67.9513 1413.38 72.9268 1415.57 78.007C1415.99 78.9767 1416.4 79.9508 1416.82 80.9259C1418.57 85.0456 1420.33 89.1829 1422.43 93.0859C1424.25 96.4863 1424.28 99.2262 1423.16 101.515C1422.02 103.839 1419.65 105.795 1416.45 107.496L1416.45 107.496C1409.13 111.392 1401.91 115.469 1394.69 119.542C1391.15 121.541 1387.61 123.54 1384.06 125.515L1384.06 125.515C1380.88 127.288 1377.6 128.826 1374.54 129.06C1373.03 129.176 1371.58 128.97 1370.22 128.317C1368.86 127.664 1367.56 126.549 1366.38 124.802L1365.97 125.082L1366.38 124.802C1361.65 117.822 1358.15 109.518 1354.76 101.471C1353.75 99.0976 1352.76 96.7464 1351.75 94.4583L1351.75 94.4583C1350.21 90.9805 1350.43 88.4136 1351.69 86.322C1352.97 84.1843 1355.4 82.4584 1358.49 80.8035L1358.5 80.798L1358.51 80.792C1358.55 80.7712 1358.57 80.7494 1358.6 80.7299C1366.68 75.9387 1374.93 71.3702 1383.17 66.8064C1385.59 65.4686 1388 64.1312 1390.41 62.7886C1393.59 61.0222 1396.85 59.4854 1399.89 59.2476C1401.4 59.1296 1402.85 59.3328 1404.2 59.9806C1405.56 60.6285 1406.85 61.7359 1408.03 63.4745ZM1358.65 80.6795C1358.65 80.6792 1358.65 80.6793 1358.65 80.6796L1358.65 80.6795ZM1394.07 83.5294L1394.07 83.5315C1394.13 83.9317 1394.37 84.2171 1394.59 84.4129C1394.74 84.5475 1394.93 84.6802 1395.07 84.7805C1395.12 84.8162 1395.16 84.8478 1395.2 84.8739C1395.45 85.0638 1395.74 85.1139 1396.02 85.0453C1396.27 84.9808 1396.48 84.8201 1396.62 84.6379C1396.88 84.2921 1397.03 83.6568 1396.53 83.2058L1396.53 83.2051C1396.31 83.0056 1396.01 82.7815 1395.67 82.6524C1395.32 82.5194 1394.88 82.4783 1394.46 82.7063C1394.38 82.7473 1394.32 82.7961 1394.27 82.8496C1394.27 82.8401 1394.27 82.8306 1394.27 82.8211C1394.31 82.6469 1394.28 82.4718 1394.21 82.3278L1394.21 82.3231C1393.76 81.3612 1392.91 80.986 1392.05 80.9292C1391.22 80.874 1390.34 81.1106 1389.65 81.3945L1389.84 81.8569L1389.65 81.3945C1388.1 82.0309 1386.61 83.453 1386.35 85.2638C1386.31 85.4965 1386.4 85.7323 1386.58 85.8843C1386.78 86.0568 1387.07 86.0984 1387.33 85.9502L1387.33 85.95C1387.76 85.7008 1388.18 85.4177 1388.57 85.1478C1388.7 85.0618 1388.82 84.9772 1388.94 84.8954C1389.46 84.549 1389.96 84.2389 1390.5 84.0127L1390.51 84.0123C1390.96 83.8228 1391.43 83.7832 1392 83.7358L1392.05 83.7317C1392.61 83.6844 1393.26 83.6245 1393.9 83.3118C1393.97 83.2738 1394.04 83.225 1394.09 83.1698C1394.06 83.3045 1394.06 83.4354 1394.07 83.5294ZM1359.2 81.8488L1359.18 81.8591L1359.16 81.8719C1358.07 82.4922 1356.85 83.1899 1355.76 84.0051C1354.67 84.8194 1353.66 85.775 1353.03 86.9291L1352.65 87.6239L1353.44 87.6695C1354.78 87.7468 1356.29 88.1635 1357.77 88.6676C1358.45 88.8972 1359.11 89.1418 1359.75 89.3768C1359.81 89.3987 1359.87 89.4206 1359.93 89.4423C1360.62 89.6957 1361.27 89.9364 1361.87 90.1243C1363.04 90.4931 1364.21 90.8771 1365.38 91.2623C1367.23 91.8655 1369.08 92.4715 1370.93 93.0264L1371.51 93.2006L1371.57 92.5969C1371.82 90.0965 1373.55 88.2847 1375.86 87.4281C1378.18 86.5694 1381.02 86.6982 1383.36 88.0538L1384.06 88.4625L1384.11 87.6487C1384.3 84.2188 1386.03 81.0572 1389.27 79.6618L1389.27 79.6618C1390.58 79.0936 1392.25 79.1098 1393.82 79.6069L1394.27 79.7507L1394.44 79.3053C1395.29 77.0264 1396.22 74.7794 1397.15 72.5233C1397.42 71.863 1397.69 71.2019 1397.96 70.539C1399.16 67.6166 1400.32 64.6663 1401.28 61.6311L1401.47 61.0417L1400.86 60.9824C1397.94 60.7018 1394.87 62.0497 1392.01 63.6885C1390.73 64.4256 1389.47 65.2356 1388.27 66.0055C1388.13 66.097 1387.99 66.188 1387.85 66.2783C1386.52 67.1318 1385.28 67.9149 1384.15 68.4955L1384.15 68.4955C1380.6 70.3225 1377.1 72.2696 1373.62 74.212C1372.98 74.5653 1372.35 74.9185 1371.72 75.2707C1367.61 77.5535 1363.5 79.8002 1359.28 81.8209C1359.26 81.8271 1359.23 81.8359 1359.2 81.8488ZM1359.34 81.8074L1359.34 81.8079C1359.34 81.8075 1359.34 81.8072 1359.34 81.8072L1359.34 81.8074ZM1358.08 103.568L1358.08 103.568C1359.12 105.881 1360.2 108.189 1361.27 110.496C1362.09 112.25 1362.9 114.004 1363.7 115.756C1363.94 116.276 1364.18 116.823 1364.43 117.384C1364.86 118.375 1365.31 119.407 1365.8 120.397C1366.58 121.96 1367.48 123.485 1368.66 124.729L1368.66 124.73C1369.41 125.511 1370.19 126.084 1371.01 126.492L1371.49 126.729L1371.69 126.238L1372.02 125.473C1375.11 118.127 1378.21 110.764 1381.42 103.48L1381.63 103.004L1381.15 102.813L1381.06 102.779C1380.71 102.642 1380.37 102.506 1380.04 102.371C1376.59 100.939 1373.04 99.1626 1371.92 95.5934C1371.86 95.4013 1371.81 95.2126 1371.76 95.0212L1371.69 94.7018L1371.36 94.6453C1368.76 94.1913 1366.25 93.365 1363.71 92.5301C1362.96 92.2832 1362.2 92.0355 1361.44 91.7964C1360.34 91.4486 1359.12 91.1655 1357.9 90.8824C1357.67 90.83 1357.44 90.7775 1357.22 90.7247C1355.76 90.3835 1354.33 90.0232 1353.04 89.5293L1352.3 89.2424L1352.37 90.0378C1352.4 90.4668 1352.48 90.9187 1352.62 91.3984L1352.62 91.3987C1353.28 93.5359 1354.2 95.5905 1355.17 97.6001C1355.52 98.3182 1355.88 99.0273 1356.23 99.7325C1356.86 101.014 1357.5 102.282 1358.08 103.568Z" fill="#999999" stroke="#999999"/>
<path d="M1178.3 236.354C1184.2 231.02 1188.95 224.398 1192.68 217.402C1196.45 210.314 1199.19 202.805 1200.53 194.894C1201.21 190.897 1202.95 182.208 1198.57 179.344C1195.04 177.04 1190.77 179.802 1187.86 181.891C1180.95 186.868 1174.97 193.65 1170.02 200.524C1164.97 207.544 1160.87 215.661 1158.47 224.151C1158.45 224.154 1158.42 224.148 1158.39 224.156C1155.74 224.904 1152.14 225.624 1150.51 228.13C1148.25 231.601 1147.4 235.989 1146.88 240.033C1146.82 240.506 1147.38 240.984 1147.84 240.828C1150.81 239.816 1153.6 238.392 1156.62 237.534C1157.04 238.251 1157.58 238.938 1158.23 239.578C1156.38 240.315 1150.2 246.135 1149.27 247.852C1149.06 248.254 1149.37 248.634 1149.8 248.592C1150.18 248.526 1150.56 248.512 1150.94 248.523C1150.31 250.55 1149.6 252.539 1149.28 254.645C1149.21 255.063 1149.71 255.225 1150.02 255.11C1152.07 254.345 1154.17 253.991 1155.73 252.554C1155.79 253.029 1155.87 253.501 1155.98 253.979C1156.07 254.338 1156.56 254.534 1156.84 254.248C1157.6 253.465 1164.32 245.356 1164.56 243.331C1165.39 243.592 1166.2 243.769 1166.97 243.848C1167.53 247.007 1167.42 250.202 1167.78 253.383C1167.83 253.863 1168.51 254.167 1168.91 253.908C1172.32 251.729 1175.99 249.1 1178.12 245.6C1179.69 243.001 1178.83 239.215 1178.3 236.354ZM1167.25 242.476C1163.66 241.594 1159.89 239.505 1157.65 236.533C1157.8 234.989 1158.02 233.454 1158.29 231.93C1159.76 234.203 1162.29 235.899 1164.51 237.253C1166.27 238.325 1168.72 239.645 1171.05 240.013C1169.82 240.87 1168.56 241.693 1167.25 242.476ZM1163.96 214.147C1164.74 215.166 1165.66 216.106 1166.66 216.978C1166.31 217.949 1165.94 218.916 1165.57 219.88C1164.48 219.023 1163.48 218.088 1162.68 217.06C1163.09 216.079 1163.52 215.11 1163.96 214.147ZM1176.91 235.404C1176.38 235.281 1175.79 235.203 1175.44 235.076C1175.04 234.928 1174.63 234.755 1174.23 234.583C1175.02 233.728 1175.81 232.872 1176.6 232.017C1177.6 232.413 1178.62 232.706 1179.63 232.83C1178.75 233.713 1177.84 234.573 1176.91 235.404ZM1167.16 236.827C1168.09 235.751 1169 234.659 1169.9 233.552C1170.7 233.988 1171.69 234.519 1172.72 235.008C1171.85 235.975 1170.98 236.936 1170.11 237.883C1169.11 237.598 1168.12 237.246 1167.16 236.827ZM1161.19 232.863C1161.65 231.728 1162.13 230.586 1162.61 229.44C1163.45 230.039 1164.35 230.58 1165.24 231.073C1164.64 232.305 1164.07 233.545 1163.52 234.791C1162.69 234.211 1161.91 233.567 1161.19 232.863ZM1172.7 228.814C1171.27 227.994 1169.88 227.107 1168.5 226.18C1168.92 225.347 1169.33 224.514 1169.75 223.685C1171.31 224.677 1172.97 225.54 1174.64 226.354C1173.99 227.177 1173.35 227.996 1172.7 228.814ZM1175.25 226.65C1175.82 226.928 1176.4 227.203 1176.98 227.475C1177.61 227.772 1178.26 228.112 1178.93 228.439C1178.14 229.205 1177.36 229.992 1176.6 230.793C1175.47 230.297 1174.39 229.751 1173.34 229.169C1173.98 228.332 1174.62 227.492 1175.25 226.65ZM1172.04 229.651C1171.29 230.594 1170.54 231.533 1169.79 232.471C1169.46 232.308 1169.13 232.143 1168.81 231.987C1167.97 231.584 1167.12 231.146 1166.28 230.674C1166.86 229.499 1167.43 228.323 1168.02 227.15C1169.01 227.795 1170.01 228.414 1171 229.018C1171.34 229.224 1171.69 229.436 1172.04 229.651ZM1167.9 225.772C1166.92 225.103 1165.94 224.414 1164.96 223.719C1165.29 222.877 1165.61 222.032 1165.91 221.183C1166.97 221.898 1168.03 222.521 1168.79 223.046C1168.92 223.137 1169.06 223.222 1169.19 223.311C1168.76 224.129 1168.33 224.95 1167.9 225.772ZM1167.4 226.744C1166.79 227.921 1166.2 229.104 1165.62 230.294C1164.71 229.76 1163.83 229.183 1162.99 228.554C1163.52 227.283 1164.05 226.004 1164.57 224.719C1165.48 225.431 1166.43 226.102 1167.4 226.744ZM1164.1 235.184C1164.7 233.933 1165.3 232.685 1165.91 231.437C1166.77 231.899 1167.61 232.319 1168.36 232.703C1168.53 232.791 1168.83 232.96 1169.22 233.178C1168.32 234.296 1167.42 235.41 1166.51 236.524C1165.68 236.128 1164.87 235.683 1164.1 235.184ZM1170.49 232.817C1171.23 231.896 1171.96 230.965 1172.68 230.03C1173.66 230.609 1174.7 231.183 1175.77 231.666C1174.98 232.515 1174.2 233.372 1173.42 234.233C1172.43 233.786 1171.45 233.3 1170.49 232.817ZM1180.28 232.17C1179.3 231.862 1178.34 231.516 1177.42 231.137C1178.16 230.347 1178.9 229.562 1179.65 228.782C1180.59 229.213 1181.55 229.573 1182.53 229.725C1181.8 230.561 1181.05 231.375 1180.28 232.17ZM1183.08 229.08C1182.19 228.713 1181.31 228.344 1180.43 227.971C1180.99 227.399 1181.54 226.83 1182.11 226.268C1182.11 226.263 1182.11 226.258 1182.12 226.252C1183.03 226.564 1183.94 226.792 1184.83 226.903C1184.26 227.642 1183.68 228.368 1183.08 229.08ZM1179.73 227.67C1178.41 227.103 1177.1 226.522 1175.8 225.904C1176.28 225.265 1176.76 224.624 1177.23 223.984C1178.6 224.753 1180.07 225.491 1181.54 226.044C1180.93 226.57 1180.33 227.114 1179.73 227.67ZM1175.21 225.612C1173.86 224.96 1172.53 224.274 1171.22 223.524C1170.88 223.325 1170.52 223.118 1170.16 222.906C1170.57 222.088 1170.99 221.272 1171.42 220.457C1172.24 220.984 1173.06 221.487 1173.85 221.968C1174.7 222.493 1175.67 223.087 1176.69 223.677C1176.2 224.325 1175.7 224.969 1175.21 225.612ZM1170.9 220.122C1170.46 220.936 1170.02 221.753 1169.59 222.57C1168.46 221.898 1167.29 221.164 1166.2 220.357C1166.54 219.37 1166.85 218.379 1167.13 217.385C1168.33 218.377 1169.61 219.283 1170.9 220.122ZM1165.25 220.719C1164.92 221.555 1164.59 222.388 1164.26 223.22C1163.24 222.501 1162.21 221.776 1161.15 221.057C1161.54 219.948 1161.96 218.85 1162.4 217.762C1162.95 218.866 1164.05 219.854 1165.25 220.719ZM1163.88 224.164C1163.36 225.454 1162.83 226.744 1162.31 228.034C1161.37 227.28 1160.51 226.457 1159.74 225.558C1160.13 224.177 1160.55 222.808 1161.02 221.451C1161.89 222.425 1162.85 223.324 1163.88 224.164ZM1161.95 228.939C1161.5 230.052 1161.06 231.168 1160.63 232.286C1159.95 231.551 1159.34 230.761 1158.83 229.907C1158.8 229.85 1158.75 229.817 1158.71 229.774C1158.95 228.634 1159.22 227.5 1159.52 226.374C1160.13 227.328 1160.98 228.178 1161.95 228.939ZM1173.09 238.526C1172.37 238.419 1171.65 238.276 1170.93 238.098C1171.79 237.194 1172.65 236.283 1173.5 235.369C1174.35 235.749 1175.19 236.076 1175.91 236.266C1174.99 237.044 1174.05 237.796 1173.09 238.526ZM1197.33 180.41C1199.74 181.575 1199.7 185.603 1199.7 187.79C1199.7 188.482 1199.67 189.174 1199.62 189.868C1194.59 189.665 1191.34 187.132 1187.96 183.476C1191.03 181.001 1194.53 179.061 1197.33 180.41ZM1181.57 187.805C1182.68 186.726 1184.35 185.25 1186.29 183.559C1188.91 187.248 1195.72 192.111 1200.54 191.36C1200.26 193.886 1199.43 197.067 1198.89 199.514C1197.31 206.671 1193.24 215.49 1189.33 220.7C1188.13 222.826 1187.34 223.485 1185.94 225.421C1178.07 223.193 1170.06 218.87 1164.7 212.598C1165.79 210.365 1166.64 207.442 1167.92 205.314C1171.72 198.995 1176.28 192.933 1181.57 187.805ZM1148.63 238.872C1149.08 236.016 1149.83 233.272 1150.93 230.576C1152.23 227.407 1155.21 226.763 1158.05 225.732C1157.18 229.169 1156.58 232.657 1156.33 236.154C1153.61 236.577 1151.17 237.871 1148.63 238.872ZM1162.87 244.675C1162.48 245.733 1157.52 251.805 1156.79 252.722C1156.72 252.284 1156.66 251.844 1156.61 251.393C1156.56 251.004 1156.02 250.885 1155.76 251.128C1154.26 252.539 1152.27 252.936 1150.44 253.829C1150.84 251.918 1151.52 250.085 1152.07 248.211C1152.16 247.893 1151.93 247.599 1151.61 247.572C1151.26 247.543 1150.91 247.542 1150.57 247.558C1151.43 246.163 1157.41 241.067 1158.74 240.048C1160.03 241.196 1161.61 242.163 1163.23 242.841C1163.1 243.446 1163.08 244.113 1162.87 244.675ZM1169.21 251.851C1169.02 249.016 1169.18 246.146 1168.29 243.419C1171.43 241.762 1174.33 239.77 1177 237.504C1177.25 239.723 1177.63 241.919 1177.05 244.134C1176.26 247.129 1172.05 250.027 1169.21 251.851Z" fill="#999999"/>
<path d="M1172.72 183.488C1174.72 179.168 1180.9 170.119 1189.64 168.481M1181.58 179.358C1183.33 176.865 1188.02 172.015 1192.71 172.555M1187.92 236.81C1194.5 230.813 1207.4 216.425 1206.32 206.854M1185.45 245.594C1198.32 235.96 1222.27 212.277 1215.2 194.618M1178.3 236.354C1184.2 231.02 1188.95 224.398 1192.68 217.402C1196.45 210.314 1199.19 202.805 1200.53 194.894C1201.21 190.897 1202.95 182.208 1198.57 179.344C1195.04 177.04 1190.77 179.802 1187.86 181.891C1180.95 186.868 1174.97 193.65 1170.02 200.524C1164.97 207.544 1160.87 215.661 1158.47 224.151C1158.45 224.154 1158.42 224.148 1158.39 224.156C1155.74 224.904 1152.14 225.624 1150.51 228.13C1148.25 231.601 1147.4 235.989 1146.88 240.033C1146.82 240.506 1147.38 240.984 1147.84 240.828C1150.81 239.816 1153.6 238.392 1156.62 237.534C1157.04 238.251 1157.58 238.938 1158.23 239.578C1156.38 240.315 1150.2 246.135 1149.27 247.852C1149.06 248.254 1149.37 248.634 1149.8 248.592C1150.18 248.526 1150.56 248.512 1150.94 248.523C1150.31 250.55 1149.6 252.539 1149.28 254.645C1149.21 255.063 1149.71 255.225 1150.02 255.11C1152.07 254.345 1154.17 253.991 1155.73 252.554C1155.79 253.029 1155.87 253.501 1155.98 253.979C1156.07 254.338 1156.56 254.534 1156.84 254.248C1157.6 253.465 1164.32 245.356 1164.56 243.331C1165.39 243.592 1166.2 243.769 1166.97 243.848C1167.53 247.007 1167.42 250.202 1167.78 253.383C1167.83 253.863 1168.51 254.167 1168.91 253.908C1172.32 251.729 1175.99 249.1 1178.12 245.6C1179.69 243.001 1178.83 239.215 1178.3 236.354ZM1167.25 242.476C1163.66 241.594 1159.89 239.505 1157.65 236.533C1157.8 234.989 1158.02 233.454 1158.29 231.93C1159.76 234.203 1162.29 235.899 1164.51 237.253C1166.27 238.325 1168.72 239.645 1171.05 240.013C1169.82 240.87 1168.56 241.693 1167.25 242.476ZM1163.96 214.147C1164.74 215.166 1165.66 216.106 1166.66 216.978C1166.31 217.949 1165.94 218.916 1165.57 219.88C1164.48 219.023 1163.48 218.088 1162.68 217.06C1163.09 216.079 1163.52 215.11 1163.96 214.147ZM1176.91 235.404C1176.38 235.281 1175.79 235.203 1175.44 235.076C1175.04 234.928 1174.63 234.755 1174.23 234.583C1175.02 233.728 1175.81 232.872 1176.6 232.017C1177.6 232.413 1178.62 232.706 1179.63 232.83C1178.75 233.713 1177.84 234.573 1176.91 235.404ZM1167.16 236.827C1168.09 235.751 1169 234.659 1169.9 233.552C1170.7 233.988 1171.69 234.519 1172.72 235.008C1171.85 235.975 1170.98 236.936 1170.11 237.883C1169.11 237.598 1168.12 237.246 1167.16 236.827ZM1161.19 232.863C1161.65 231.728 1162.13 230.586 1162.61 229.44C1163.45 230.039 1164.35 230.58 1165.24 231.073C1164.64 232.305 1164.07 233.545 1163.52 234.791C1162.69 234.211 1161.91 233.567 1161.19 232.863ZM1172.7 228.814C1171.27 227.994 1169.88 227.107 1168.5 226.18C1168.92 225.347 1169.33 224.514 1169.75 223.685C1171.31 224.677 1172.97 225.54 1174.64 226.354C1173.99 227.177 1173.35 227.996 1172.7 228.814ZM1175.25 226.65C1175.82 226.928 1176.4 227.203 1176.98 227.475C1177.61 227.772 1178.26 228.112 1178.93 228.439C1178.14 229.205 1177.36 229.992 1176.6 230.793C1175.47 230.297 1174.39 229.751 1173.34 229.169C1173.98 228.332 1174.62 227.492 1175.25 226.65ZM1172.04 229.651C1171.29 230.594 1170.54 231.533 1169.79 232.471C1169.46 232.308 1169.13 232.143 1168.81 231.987C1167.97 231.584 1167.12 231.146 1166.28 230.674C1166.86 229.499 1167.43 228.323 1168.02 227.15C1169.01 227.795 1170.01 228.414 1171 229.018C1171.34 229.224 1171.69 229.436 1172.04 229.651ZM1167.9 225.772C1166.92 225.103 1165.94 224.414 1164.96 223.719C1165.29 222.877 1165.61 222.032 1165.91 221.183C1166.97 221.898 1168.03 222.521 1168.79 223.046C1168.92 223.137 1169.06 223.222 1169.19 223.311C1168.76 224.129 1168.33 224.95 1167.9 225.772ZM1167.4 226.744C1166.79 227.921 1166.2 229.104 1165.62 230.294C1164.71 229.76 1163.83 229.183 1162.99 228.554C1163.52 227.283 1164.05 226.004 1164.57 224.719C1165.48 225.431 1166.43 226.102 1167.4 226.744ZM1164.1 235.184C1164.7 233.933 1165.3 232.685 1165.91 231.437C1166.77 231.899 1167.61 232.319 1168.36 232.703C1168.53 232.791 1168.83 232.96 1169.22 233.178C1168.32 234.296 1167.42 235.41 1166.51 236.524C1165.68 236.128 1164.87 235.683 1164.1 235.184ZM1170.49 232.817C1171.23 231.896 1171.96 230.965 1172.68 230.03C1173.66 230.609 1174.7 231.183 1175.77 231.666C1174.98 232.515 1174.2 233.372 1173.42 234.233C1172.43 233.786 1171.45 233.3 1170.49 232.817ZM1180.28 232.17C1179.3 231.862 1178.34 231.516 1177.42 231.137C1178.16 230.347 1178.9 229.562 1179.65 228.782C1180.59 229.213 1181.55 229.573 1182.53 229.725C1181.8 230.561 1181.05 231.375 1180.28 232.17ZM1183.08 229.08C1182.19 228.713 1181.31 228.344 1180.43 227.971C1180.99 227.399 1181.54 226.83 1182.11 226.268C1182.11 226.263 1182.11 226.258 1182.12 226.252C1183.03 226.564 1183.94 226.792 1184.83 226.903C1184.26 227.642 1183.68 228.368 1183.08 229.08ZM1179.73 227.67C1178.41 227.103 1177.1 226.522 1175.8 225.904C1176.28 225.265 1176.76 224.624 1177.23 223.984C1178.6 224.753 1180.07 225.491 1181.54 226.044C1180.93 226.57 1180.33 227.114 1179.73 227.67ZM1175.21 225.612C1173.86 224.96 1172.53 224.274 1171.22 223.524C1170.88 223.325 1170.52 223.118 1170.16 222.906C1170.57 222.088 1170.99 221.272 1171.42 220.457C1172.24 220.984 1173.06 221.487 1173.85 221.968C1174.7 222.493 1175.67 223.087 1176.69 223.677C1176.2 224.325 1175.7 224.969 1175.21 225.612ZM1170.9 220.122C1170.46 220.936 1170.02 221.753 1169.59 222.57C1168.46 221.897 1167.29 221.164 1166.2 220.357C1166.54 219.37 1166.85 218.379 1167.13 217.385C1168.33 218.377 1169.61 219.283 1170.9 220.122ZM1165.25 220.719C1164.92 221.555 1164.59 222.388 1164.26 223.22C1163.24 222.501 1162.21 221.776 1161.15 221.057C1161.54 219.948 1161.96 218.85 1162.4 217.762C1162.95 218.866 1164.05 219.854 1165.25 220.719ZM1163.88 224.164C1163.36 225.454 1162.83 226.744 1162.31 228.034C1161.37 227.28 1160.51 226.457 1159.74 225.558C1160.13 224.177 1160.55 222.808 1161.02 221.451C1161.89 222.425 1162.85 223.324 1163.88 224.164ZM1161.95 228.939C1161.5 230.052 1161.06 231.168 1160.63 232.286C1159.95 231.551 1159.34 230.761 1158.83 229.907C1158.8 229.85 1158.75 229.817 1158.71 229.774C1158.95 228.634 1159.22 227.5 1159.52 226.374C1160.13 227.328 1160.98 228.178 1161.95 228.939ZM1173.09 238.526C1172.37 238.419 1171.65 238.276 1170.93 238.098C1171.79 237.194 1172.65 236.283 1173.5 235.369C1174.35 235.749 1175.19 236.076 1175.91 236.266C1174.99 237.044 1174.05 237.796 1173.09 238.526ZM1197.33 180.41C1199.74 181.575 1199.7 185.603 1199.7 187.79C1199.7 188.482 1199.67 189.174 1199.62 189.868C1194.59 189.665 1191.34 187.132 1187.96 183.476C1191.03 181.001 1194.53 179.061 1197.33 180.41ZM1181.57 187.805C1182.68 186.726 1184.35 185.25 1186.29 183.559C1188.91 187.248 1195.72 192.111 1200.54 191.36C1200.26 193.886 1199.43 197.067 1198.89 199.514C1197.31 206.671 1193.24 215.49 1189.33 220.7C1188.13 222.826 1187.34 223.485 1185.94 225.421C1178.07 223.193 1170.06 218.87 1164.7 212.598C1165.79 210.365 1166.64 207.442 1167.92 205.314C1171.72 198.995 1176.28 192.933 1181.57 187.805ZM1148.63 238.872C1149.08 236.016 1149.83 233.272 1150.93 230.576C1152.23 227.407 1155.21 226.763 1158.05 225.732C1157.18 229.169 1156.58 232.657 1156.33 236.154C1153.61 236.577 1151.17 237.871 1148.63 238.872ZM1162.87 244.675C1162.48 245.733 1157.52 251.805 1156.79 252.722C1156.72 252.284 1156.66 251.844 1156.61 251.393C1156.56 251.004 1156.02 250.885 1155.76 251.128C1154.26 252.539 1152.27 252.936 1150.44 253.829C1150.84 251.918 1151.52 250.085 1152.07 248.211C1152.16 247.893 1151.93 247.599 1151.61 247.572C1151.26 247.543 1150.91 247.542 1150.57 247.558C1151.43 246.163 1157.41 241.067 1158.74 240.048C1160.03 241.196 1161.61 242.163 1163.23 242.841C1163.1 243.446 1163.08 244.113 1162.87 244.675ZM1169.21 251.851C1169.02 249.016 1169.18 246.146 1168.29 243.419C1171.43 241.762 1174.33 239.77 1177 237.504C1177.25 239.723 1177.63 241.919 1177.05 244.134C1176.26 247.129 1172.05 250.027 1169.21 251.851ZM1185.5 192.264C1183.46 191.699 1179.05 191.386 1177.68 194.648C1175.98 198.726 1173.59 202.804 1175.63 204.161C1177.67 205.518 1180.4 206.875 1182.11 206.873C1183.81 206.872 1189.61 204.49 1189.61 202.112C1189.61 199.734 1191.89 192.259 1185.5 192.264Z" stroke="#999999"/>
<path d="M211.048 105.753C210.735 107.238 210.619 108.778 210.727 110.356C226.681 117.089 248.558 112.46 257.502 109.303C257.155 108.056 256.77 106.873 256.35 105.753M211.048 105.753C214.758 88.1444 246.049 78.2705 256.35 105.753M211.048 105.753C201.314 108.574 189.412 114.999 190.777 120.614M256.35 105.753C270.909 109.303 277.378 113.574 277.686 117.556M190.777 120.614C191.681 124.334 198.407 127.698 215.441 129.426C251.529 133.085 278.338 125.964 277.686 117.556M190.777 120.614C191.585 125.129 201.687 134.108 235.626 133.897C269.564 133.687 277.807 122.915 277.686 117.556M196.954 105.753C199.121 103.864 204.329 100.298 207.832 101.14M198.525 101.14C200.662 99.2108 205.515 95.9316 207.832 98.2463M248.442 85.8838C253.035 87.8971 262.221 93.767 262.221 101.14M254.848 85.8838C258.393 87.2428 265.387 91.3549 265 96.9312M263.671 137.307C275.437 135.553 296.405 128.337 286.152 113.502M286.152 119.956C286.111 123.467 281.825 131.17 265 133.897M207.832 141.351L186.047 192.196M254.848 141.351L277.686 183.53M218.981 154.351L215.441 183.53M248.442 149.151L256.35 183.53M210.727 121.798C209.962 122.718 209.211 125.007 211.048 125.743C213.345 126.664 214.241 121.798 210.727 121.798ZM233.371 122.981C232.606 123.902 231.855 126.19 233.692 126.927C235.988 127.847 236.885 122.981 233.371 122.981ZM256.35 121.798C255.584 122.718 254.833 125.007 256.67 125.743C258.967 126.664 259.863 121.798 256.35 121.798ZM273.015 114.827C272.249 115.748 271.498 118.036 273.335 118.773C275.632 119.693 276.528 114.827 273.015 114.827ZM194.411 116.011C193.646 116.932 192.895 119.22 194.732 119.956C197.028 120.877 197.925 116.011 194.411 116.011Z" stroke="#999999"/>
<path d="M1252.6 346.308C1252.11 325.817 1252.16 284.851 1256.23 284.907M1252.6 346.308C1258.53 341.305 1272.38 307.009 1278.56 290.487M1252.6 346.308C1261.41 341.702 1281.23 327.849 1290.08 309.28M1252.6 346.308C1258.72 347.838 1275.17 346.934 1291.99 331.077M1252.6 346.308C1246.23 331.638 1238.71 310.347 1237.86 296.232M1252.6 346.308C1237.13 334.021 1228.81 323.047 1225.21 314.391M1252.6 346.308C1245.16 343.436 1239.03 340.354 1234.14 337.279M1252.6 346.308C1231.57 346.818 1231.53 340.501 1234.14 337.279M1252.6 346.308C1260.93 347.03 1267.76 347.246 1273.33 347.073M1252.6 346.308C1259.87 350.186 1274.2 355.769 1273.33 347.073M1256.23 284.907C1261.49 279.867 1273.33 273.926 1278.56 290.487M1256.23 284.907C1241.5 277.021 1237.12 283.879 1237.86 296.232M1278.56 290.487C1286.08 289.014 1298.92 290.711 1290.08 309.28M1290.08 309.28C1297.72 309.939 1308.8 315.22 1291.99 331.077M1291.99 331.077C1297.61 336.698 1299.71 346.253 1273.33 347.073M1237.86 296.232C1227.8 290.517 1218.65 298.599 1225.21 314.391M1225.21 314.391C1214.75 315.071 1216.38 326.133 1234.14 337.279" stroke="#999999"/>
</g>
<defs>
<clipPath id="clip0_151_11493">
<rect width="1512" height="380.362" fill="white" transform="translate(0 0.833984)"/>
</clipPath>
</defs>
</svg>
