<svg width="18" height="18" viewBox="0 0 18 18" fill="none" xmlns="http://www.w3.org/2000/svg">
<path d="M11.0913 2.59933C11.1543 2.77945 11.1093 2.97974 10.9753 3.1156C9.49338 4.61795 9.04789 6.76605 10.0152 8.6546L10.0153 8.65466C11.3381 11.238 13.9828 11.5439 15.495 11.1287C15.6846 11.0766 15.8872 11.1405 16.0126 11.292C16.1379 11.4435 16.1629 11.6544 16.0764 11.8309C15.2132 13.5919 13.4993 14.5075 12.8314 14.7726C10.1302 15.846 6.59459 15.1156 4.80243 12.1247L11.0913 2.59933ZM11.0913 2.59933C11.0283 2.41921 10.8682 2.29067 10.6787 2.26801M11.0913 2.59933L10.6787 2.26801M10.6787 2.26801C9.79943 2.16286 8.62992 2.39782 7.54288 2.9152M10.6787 2.26801L7.54288 2.9152M15.4426 4.59733C15.4426 4.59738 15.4426 4.59743 15.4426 4.59747L15.4426 4.59763L15.4424 4.60276L15.4414 4.62692C15.4407 4.64889 15.4399 4.68199 15.4396 4.72369C15.439 4.80753 15.4406 4.92379 15.4493 5.05291C15.468 5.33187 15.5156 5.59267 15.5922 5.74009C15.6688 5.88751 15.8549 6.07638 16.0723 6.25212C16.173 6.33346 16.2672 6.40161 16.3361 6.44932C16.3704 6.47305 16.398 6.49138 16.4164 6.50342L16.4367 6.51655L16.441 6.5193L16.4411 6.51939C16.4412 6.51941 16.4412 6.51944 16.4413 6.51946M15.4426 4.59733L15.4438 7.02989C15.5682 7.13048 15.6832 7.2136 15.7672 7.27168C15.8093 7.30086 15.8441 7.32404 15.869 7.34031L15.8987 7.35948L15.9074 7.36501L15.9101 7.36672L15.911 7.36731L15.9114 7.36754L15.9115 7.36763C15.9116 7.36768 15.9117 7.36772 16.1764 6.94355C16.4411 6.51939 16.4412 6.51943 16.4413 6.51946M15.4426 4.59733L15.4426 4.59721C15.4426 4.59717 15.4426 4.59712 15.4426 4.59707C15.4426 4.59705 15.4426 4.59704 15.4426 4.59702C15.4549 4.36936 15.3115 4.16224 15.0941 4.0935C14.8766 4.02473 14.6401 4.1119 14.5193 4.30539M15.4426 4.59733L14.5193 4.30539M16.4413 6.51946C16.6347 6.6403 16.7219 6.87677 16.6532 7.09429C16.5844 7.31172 16.3773 7.45507 16.1496 7.44283C16.1495 7.44283 16.1495 7.44283 16.1494 7.44282L16.1493 7.44282C16.1493 7.44282 16.1492 7.44281 16.1492 7.44281L16.149 7.4428L16.1439 7.44257L16.1197 7.44164C16.0978 7.44091 16.0647 7.44007 16.023 7.43977C15.9391 7.43916 15.8229 7.44077 15.6937 7.44946C15.4148 7.46825 15.154 7.51584 15.0066 7.59244C14.8591 7.66903 14.6703 7.85506 14.4945 8.07252C14.4132 8.17316 14.345 8.26737 14.2973 8.33632C14.2736 8.37061 14.2553 8.39818 14.2432 8.41658L14.2301 8.43687L14.2274 8.44121L14.2273 8.44134L16.4413 6.51946ZM12.5973 5.30404L12.5974 5.30405L12.6026 5.30429L12.6267 5.30521C12.6487 5.30594 12.6818 5.30678 12.7235 5.30708C12.8073 5.30769 12.9236 5.30608 13.0527 5.29739C13.3317 5.2786 13.5925 5.23101 13.7399 5.15441C13.8873 5.07782 14.0762 4.89179 14.2519 4.67433C14.3333 4.57369 14.4014 4.47948 14.4491 4.41053C14.4728 4.37624 14.4912 4.34867 14.5032 4.33027L14.5164 4.30998L14.5191 4.30564L14.5192 4.30551C14.5192 4.30547 14.5192 4.30543 14.5193 4.30539M12.5973 5.30404L14.5193 4.30539M12.5973 5.30404C12.5972 5.30404 12.5972 5.30403 12.5971 5.30403L12.597 5.30403L12.5968 5.30402C12.5968 5.30401 12.5968 5.30401 12.5968 5.30401C12.5968 5.30401 12.5967 5.30401 12.5967 5.30401C12.3691 5.29184 12.162 5.43518 12.0933 5.65256C12.0245 5.87008 12.1117 6.10655 12.3052 6.22739L12.3053 6.22746L12.5973 5.30404ZM7.54288 2.9152C6.44901 3.43583 5.37286 4.2735 4.72972 5.4409L7.54288 2.9152ZM4.72971 5.44093C4.09193 6.59848 3.01817 9.14832 4.80237 12.1246L4.72971 5.44093Z" fill="white" stroke="black" stroke-linejoin="round"/>
</svg>
