<svg width="261" height="260" viewBox="0 0 261 260" fill="none" xmlns="http://www.w3.org/2000/svg">
<mask id="mask0_835_9425" style="mask-type:alpha" maskUnits="userSpaceOnUse" x="0" y="0" width="260" height="130">
<path d="M260 130C260 112.928 256.637 96.0235 250.104 80.2512C243.571 64.4788 233.996 50.1477 221.924 38.0761C209.852 26.0045 195.521 16.4288 179.749 9.89566C163.977 3.36255 147.072 7.46234e-07 130 0C112.928 -7.46234e-07 96.0235 3.36255 80.2512 9.89566C64.4788 16.4288 50.1477 26.0045 38.0761 38.0761C26.0045 50.1477 16.4288 64.4788 9.89566 80.2512C3.36255 96.0235 0 112.928 0 130L130 130L260 130Z" fill="black"/>
</mask>
<g mask="url(#mask0_835_9425)">
<circle cx="130" cy="129.5" r="110" transform="rotate(-180 130 129.5)" fill="#FFECB3" fill-opacity="0.1"/>
<circle cx="129.5" cy="130" r="90" transform="rotate(-180 129.5 130)" fill="#F2F2F2"/>
<circle cx="130.5" cy="130" r="13" transform="rotate(-180 130.5 130)" fill="#D9D9D9"/>
<circle cx="101.25" cy="93" r="13" transform="rotate(-180 101.25 93)" fill="#D9D9D9"/>
<circle cx="72.25" cy="112" r="13" transform="rotate(-180 72.25 112)" fill="#D9D9D9"/>
<ellipse cx="182.75" cy="117" rx="27.5" ry="27" transform="rotate(-180 182.75 117)" fill="#D9D9D9"/>
</g>
<mask id="mask1_835_9425" style="mask-type:alpha" maskUnits="userSpaceOnUse" x="0" y="130" width="261" height="130">
<path d="M0.5 130C0.5 147.072 3.86255 163.977 10.3957 179.749C16.9288 195.521 26.5045 209.852 38.5761 221.924C50.6477 233.995 64.9788 243.571 80.7512 250.104C96.5235 256.637 113.428 260 130.5 260C147.572 260 164.477 256.637 180.249 250.104C196.021 243.571 210.352 233.995 222.424 221.924C234.496 209.852 244.071 195.521 250.604 179.749C257.137 163.977 260.5 147.072 260.5 130L130.5 130L0.5 130Z" fill="black"/>
</mask>
<g mask="url(#mask1_835_9425)">
<circle cx="130" cy="127.5" r="110" transform="rotate(-180 130 127.5)" fill="#FFECB3" fill-opacity="0.5"/>
<circle cx="129.5" cy="128" r="90" transform="rotate(-180 129.5 128)" fill="#FFE082"/>
<mask id="mask2_835_9425" style="mask-type:alpha" maskUnits="userSpaceOnUse" x="-1" y="-1" width="261" height="260">
<path fill-rule="evenodd" clip-rule="evenodd" d="M129.5 -1C57.703 -1 -0.5 57.203 -0.5 129C-0.5 200.797 57.703 259 129.5 259C201.297 259 259.5 200.797 259.5 129C259.5 57.203 201.297 -1 129.5 -1ZM129.5 38C79.7944 38 39.5 78.2944 39.5 128C39.5 177.706 79.7944 218 129.5 218C179.206 218 219.5 177.706 219.5 128C219.5 78.2944 179.206 38 129.5 38Z" fill="black"/>
</mask>
<g mask="url(#mask2_835_9425)">
<path d="M129.5 -1L164.612 93.8882L259.5 129L164.612 164.112L129.5 259L94.3882 164.112L-0.5 129L94.3882 93.8882L129.5 -1Z" fill="#FFD54F"/>
<path d="M221.424 37.0761L179.156 129L221.424 220.924L129.5 178.656L37.5761 220.924L79.8444 129L37.5761 37.0761L129.5 79.3444L221.424 37.0761Z" fill="#FFC107"/>
<path d="M194.5 16.4166L177.463 116.148L242.083 194L142.352 176.964L64.4998 241.583L81.5362 141.852L16.9165 63.9999L116.648 81.0363L194.5 16.4166Z" fill="#FFD54F"/>
<path d="M255.07 95.3534L172.503 153.828L163.146 254.57L104.672 172.003L3.92959 162.646L86.497 104.172L95.8535 3.42956L154.328 85.9969L255.07 95.3534Z" fill="#FFC107"/>
<path d="M163.147 3.42968L172.503 104.172L255.07 162.647L154.328 172.003L95.8536 254.57L86.4971 153.828L3.9297 95.3536L104.672 85.997L163.147 3.42968Z" fill="#FFC107"/>
<path d="M242.083 63.9999L177.464 141.852L194.5 241.583L116.648 176.964L16.9169 194L81.5366 116.148L64.5002 16.4166L142.352 81.0363L242.083 63.9999Z" fill="#FFD54F"/>
</g>
</g>
</svg>
