<svg width="18" height="18" viewBox="0 0 18 18" fill="none" xmlns="http://www.w3.org/2000/svg">
<mask id="path-1-inside-1_350_4589" fill="white">
<path fill-rule="evenodd" clip-rule="evenodd" d="M5.43822 5.04235C6.20281 4.41482 7.15048 4.00216 8.18896 3.89664V1.5H9.18896V3.89104C10.2357 3.98547 11.1926 4.39171 11.9659 5.01615L13.6389 3.34317L14.346 4.05028L12.68 5.71627C13.3266 6.48545 13.7533 7.44563 13.8634 8.5H16.189V9.5H13.8717C13.7784 10.5669 13.3612 11.5409 12.7191 12.3233L14.3456 13.9498L13.6385 14.6569L12.0134 13.0317C11.2319 13.6781 10.2573 14.0992 9.18896 14.1956V16.5H8.18896V14.19C7.12905 14.0823 6.16372 13.6547 5.39111 13.0052L3.73939 14.6569L3.03228 13.9498L4.69099 12.2911C4.06374 11.5143 3.65666 10.5523 3.56463 9.5H1.18896V8.5H3.57294C3.68146 7.46013 4.09803 6.51187 4.72977 5.74811L3.03194 4.05028L3.73905 3.34317L5.43822 5.04235Z"/>
</mask>
<path fill-rule="evenodd" clip-rule="evenodd" d="M5.43822 5.04235C6.20281 4.41482 7.15048 4.00216 8.18896 3.89664V1.5H9.18896V3.89104C10.2357 3.98547 11.1926 4.39171 11.9659 5.01615L13.6389 3.34317L14.346 4.05028L12.68 5.71627C13.3266 6.48545 13.7533 7.44563 13.8634 8.5H16.189V9.5H13.8717C13.7784 10.5669 13.3612 11.5409 12.7191 12.3233L14.3456 13.9498L13.6385 14.6569L12.0134 13.0317C11.2319 13.6781 10.2573 14.0992 9.18896 14.1956V16.5H8.18896V14.19C7.12905 14.0823 6.16372 13.6547 5.39111 13.0052L3.73939 14.6569L3.03228 13.9498L4.69099 12.2911C4.06374 11.5143 3.65666 10.5523 3.56463 9.5H1.18896V8.5H3.57294C3.68146 7.46013 4.09803 6.51187 4.72977 5.74811L3.03194 4.05028L3.73905 3.34317L5.43822 5.04235Z" fill="#FFD54F"/>
<path d="M5.43822 5.04235L4.73111 5.74945L5.37203 6.39037L6.07265 5.81533L5.43822 5.04235ZM8.18896 3.89664L8.29005 4.89152L9.18896 4.80019V3.89664H8.18896ZM8.18896 1.5V0.5H7.18896V1.5H8.18896ZM9.18896 1.5H10.189V0.5H9.18896V1.5ZM9.18896 3.89104H8.18896V4.80489L9.09912 4.887L9.18896 3.89104ZM11.9659 5.01615L11.3377 5.79417L12.0372 6.35904L12.673 5.72325L11.9659 5.01615ZM13.6389 3.34317L14.346 2.63607L13.6389 1.92896L12.9318 2.63607L13.6389 3.34317ZM14.346 4.05028L15.0531 4.75739L15.7602 4.05028L15.0531 3.34317L14.346 4.05028ZM12.68 5.71627L11.9729 5.00917L11.3244 5.6577L11.9145 6.35976L12.68 5.71627ZM13.8634 8.5L12.8688 8.6038L12.9623 9.5H13.8634V8.5ZM16.189 8.5H17.189V7.5H16.189V8.5ZM16.189 9.5V10.5H17.189V9.5H16.189ZM13.8717 9.5V8.5H12.9553L12.8755 9.41287L13.8717 9.5ZM12.7191 12.3233L11.9461 11.6888L11.3711 12.3895L12.012 13.0304L12.7191 12.3233ZM14.3456 13.9498L15.0528 14.6569L15.7599 13.9498L15.0528 13.2427L14.3456 13.9498ZM13.6385 14.6569L12.9314 15.364L13.6385 16.0711L14.3456 15.364L13.6385 14.6569ZM12.0134 13.0317L12.7205 12.3246L12.0771 11.6812L11.376 12.2611L12.0134 13.0317ZM9.18896 14.1956L9.09912 13.1996L8.18896 13.2817V14.1956H9.18896ZM9.18896 16.5V17.5H10.189V16.5H9.18896ZM8.18896 16.5H7.18896V17.5H8.18896V16.5ZM8.18896 14.19H9.18896V13.2864L8.29005 13.1951L8.18896 14.19ZM5.39111 13.0052L6.0346 12.2397L5.33254 11.6495L4.68401 12.2981L5.39111 13.0052ZM3.73939 14.6569L3.03228 15.364L3.73939 16.0711L4.44649 15.364L3.73939 14.6569ZM3.03228 13.9498L2.32517 13.2427L1.61807 13.9498L2.32517 14.6569L3.03228 13.9498ZM4.69099 12.2911L5.39809 12.9982L6.03388 12.3624L5.46901 11.6628L4.69099 12.2911ZM3.56463 9.5L4.56082 9.41287L4.48098 8.5H3.56463V9.5ZM1.18896 9.5H0.188965V10.5H1.18896V9.5ZM1.18896 8.5V7.5H0.188965V8.5H1.18896ZM3.57294 8.5V9.5H4.474L4.56753 8.6038L3.57294 8.5ZM4.72977 5.74811L5.50033 6.38547L6.08024 5.68437L5.43688 5.041L4.72977 5.74811ZM3.03194 4.05028L2.32483 3.34317L1.61773 4.05028L2.32483 4.75739L3.03194 4.05028ZM3.73905 3.34317L4.44615 2.63607L3.73905 1.92896L3.03194 2.63607L3.73905 3.34317ZM6.07265 5.81533C6.69006 5.30859 7.45352 4.97651 8.29005 4.89152L8.08788 2.90176C6.84744 3.0278 5.71556 3.52104 4.8038 4.26936L6.07265 5.81533ZM9.18896 3.89664V1.5H7.18896V3.89664H9.18896ZM8.18896 2.5H9.18896V0.5H8.18896V2.5ZM8.18896 1.5V3.89104H10.189V1.5H8.18896ZM9.09912 4.887C9.94251 4.96308 10.7133 5.29 11.3377 5.79417L12.5941 4.23812C11.6719 3.49341 10.529 3.00787 9.27881 2.89509L9.09912 4.887ZM12.673 5.72325L14.346 4.05028L12.9318 2.63607L11.2588 4.30904L12.673 5.72325ZM12.9318 4.05028L13.6389 4.75739L15.0531 3.34317L14.346 2.63607L12.9318 4.05028ZM13.6389 3.34317L11.9729 5.00917L13.3871 6.42338L15.0531 4.75739L13.6389 3.34317ZM11.9145 6.35976C12.4368 6.98096 12.7801 7.75456 12.8688 8.6038L14.858 8.3962C14.7265 7.1367 14.2165 5.98994 13.4455 5.07279L11.9145 6.35976ZM13.8634 9.5H16.189V7.5H13.8634V9.5ZM15.189 8.5V9.5H17.189V8.5H15.189ZM16.189 8.5H13.8717V10.5H16.189V8.5ZM12.8755 9.41287C12.8003 10.2725 12.4646 11.0571 11.9461 11.6888L13.4921 12.9577C14.2579 12.0247 14.7564 10.8613 14.8679 9.58713L12.8755 9.41287ZM12.012 13.0304L13.6385 14.6569L15.0528 13.2427L13.4262 11.6161L12.012 13.0304ZM13.6385 13.2427L12.9314 13.9498L14.3456 15.364L15.0528 14.6569L13.6385 13.2427ZM14.3456 13.9498L12.7205 12.3246L11.3063 13.7388L12.9314 15.364L14.3456 13.9498ZM11.376 12.2611C10.745 12.7831 9.9598 13.122 9.09912 13.1996L9.27881 15.1915C10.5547 15.0764 11.7188 14.5731 12.6507 13.8023L11.376 12.2611ZM8.18896 14.1956V16.5H10.189V14.1956H8.18896ZM9.18896 15.5H8.18896V17.5H9.18896V15.5ZM9.18896 16.5V14.19H7.18896V16.5H9.18896ZM8.29005 13.1951C7.4363 13.1084 6.65857 12.7642 6.0346 12.2397L4.74763 13.7706C5.66888 14.5451 6.82179 15.0562 8.08788 15.1849L8.29005 13.1951ZM4.68401 12.2981L3.03228 13.9498L4.44649 15.364L6.09822 13.7123L4.68401 12.2981ZM4.44649 13.9498L3.73939 13.2427L2.32517 14.6569L3.03228 15.364L4.44649 13.9498ZM3.73939 14.6569L5.39809 12.9982L3.98388 11.584L2.32517 13.2427L3.73939 14.6569ZM5.46901 11.6628C4.96258 11.0357 4.63498 10.2607 4.56082 9.41287L2.56843 9.58713C2.67835 10.8438 3.1649 11.9929 3.91296 12.9193L5.46901 11.6628ZM3.56463 8.5H1.18896V10.5H3.56463V8.5ZM2.18896 9.5V8.5H0.188965V9.5H2.18896ZM1.18896 9.5H3.57294V7.5H1.18896V9.5ZM4.56753 8.6038C4.65495 7.76621 4.99017 7.00225 5.50033 6.38547L3.95921 5.11075C3.20589 6.0215 2.70798 7.15405 2.57834 8.3962L4.56753 8.6038ZM5.43688 5.041L3.73905 3.34317L2.32483 4.75739L4.02266 6.45522L5.43688 5.041ZM3.73905 4.75739L4.44615 4.05028L3.03194 2.63607L2.32483 3.34317L3.73905 4.75739ZM3.03194 4.05028L4.73111 5.74945L6.14533 4.33524L4.44615 2.63607L3.03194 4.05028Z" fill="black" mask="url(#path-1-inside-1_350_4589)"/>
</svg>
