<svg width="835" height="556" viewBox="0 0 835 556" fill="none" xmlns="http://www.w3.org/2000/svg">
<path d="M587.165 450.825C553.675 661.36 430.136 816.699 311.233 797.785C-20.5949 745.001 158.007 569.535 191.497 359C224.987 148.465 313.608 16.4568 432.511 35.3709C551.414 54.2849 620.655 240.29 587.165 450.825Z" fill="black"/>
<path d="M657.248 380.742C667.479 581.835 752.906 764.381 471.283 755.257C358.347 761.003 258.499 602.643 248.268 401.55C238.037 200.457 321.296 32.7813 434.232 27.0353C547.169 21.2892 647.016 179.649 657.248 380.742Z" fill="black"/>
<path fill-rule="evenodd" clip-rule="evenodd" d="M305.201 251.105C305.456 247.949 304.98 244.686 303.673 241.564C299.304 231.127 287.301 226.207 276.864 230.576C266.426 234.945 261.507 246.948 265.876 257.386C268.173 262.874 272.582 266.837 277.764 268.726C277.509 271.882 277.985 275.144 279.292 278.266C283.661 288.704 295.664 293.623 306.101 289.254C316.539 284.885 321.458 272.882 317.089 262.445C314.792 256.956 310.383 252.993 305.201 251.105Z" fill="#BB9D86"/>
<path fill-rule="evenodd" clip-rule="evenodd" d="M306.779 251.12C306.978 248.658 306.607 246.114 305.587 243.679C302.18 235.539 292.819 231.702 284.679 235.11C276.539 238.517 272.703 247.878 276.11 256.018C277.902 260.298 281.34 263.389 285.381 264.862C285.183 267.323 285.554 269.867 286.573 272.302C289.98 280.442 299.341 284.279 307.481 280.872C315.621 277.464 319.458 268.103 316.05 259.963C314.259 255.683 310.821 252.592 306.779 251.12Z" fill="#99775C"/>
<path fill-rule="evenodd" clip-rule="evenodd" d="M530.764 251.105C530.509 247.949 530.985 244.686 532.292 241.564C536.661 231.127 548.664 226.207 559.101 230.576C569.539 234.945 574.458 246.948 570.089 257.386C567.792 262.874 563.383 266.837 558.201 268.726C558.456 271.882 557.98 275.144 556.673 278.266C552.304 288.704 540.301 293.623 529.864 289.254C519.426 284.885 514.507 272.882 518.876 262.445C521.173 256.956 525.582 252.993 530.764 251.105Z" fill="#BB9D86"/>
<path fill-rule="evenodd" clip-rule="evenodd" d="M529.186 251.12C528.987 248.658 529.358 246.114 530.378 243.679C533.785 235.539 543.146 231.702 551.286 235.11C559.426 238.517 563.262 247.878 559.855 256.018C558.063 260.298 554.625 263.389 550.584 264.862C550.782 267.323 550.411 269.867 549.392 272.302C545.985 280.442 536.624 284.279 528.484 280.872C520.344 277.464 516.507 268.103 519.915 259.963C521.706 255.683 525.145 252.592 529.186 251.12Z" fill="#99775C"/>
<path d="M71.6375 566.013C88.8963 489.163 149.653 429.599 226.83 413.867L377.552 383.143C403.913 377.77 431.087 377.77 457.448 383.143L608.17 413.867C685.347 429.599 746.104 489.163 763.362 566.013L780.242 641.176C808.319 766.196 713.237 885 585.103 885H249.897C121.763 885 26.6809 766.196 54.7576 641.176L71.6375 566.013Z" fill="#4285F4"/>
<path fill-rule="evenodd" clip-rule="evenodd" d="M510.871 371.885C507.387 350.006 512.516 327.76 515.088 305.755C515.542 301.877 515.775 297.93 515.775 293.928C515.775 238.739 471.418 194 416.701 194C361.984 194 317.627 238.739 317.627 293.928C317.627 296.65 317.735 299.346 317.946 302.012C319.627 323.193 323.906 344.587 320.564 365.57L317.945 382.015C308.419 441.837 354.639 496 415.215 496C475.791 496 522.011 441.837 512.484 382.015L510.871 371.885Z" fill="#A47F63"/>
<path d="M515.5 308.5C515.5 243.883 482.617 215 418 215C353.383 215 317.5 243.883 317.5 308.5C352 332.5 300 377.5 418 377.5C465 377.5 508 361 515.5 308.5Z" fill="#99775C"/>
<path d="M535 260C535 324.617 482.617 327 418 327C353.383 327 301 324.617 301 260C301 195.383 353.383 143 418 143C482.617 143 535 195.383 535 260Z" fill="#B58C6C"/>
<path d="M543 205.647C543 280.006 487.036 240.532 418 240.532C348.964 240.532 293 280.006 293 205.647C293 131.288 338.977 50 418 50C497.023 50 543 131.288 543 205.647Z" fill="#D9AE8D"/>
<path d="M419 267.412C466.606 267.412 530.546 336.982 539.999 266.283C540.139 265.24 540.278 264.206 540.415 263.181C549.018 199.102 552.981 132 419 132C285.019 132 288.982 199.102 297.585 263.181C297.722 264.206 297.861 265.24 298.001 266.283C307.454 336.982 371.394 267.412 419 267.412Z" fill="#CDA180"/>
<path d="M312.5 163C329.747 180.541 357.436 155.659 388.5 142C344.787 180.541 329.126 204.759 345.43 261.011L322 298C309.54 298.772 286.728 189.3 312.5 163Z" fill="#C89C7B"/>
<path d="M526.74 163C509.493 180.541 481.804 155.658 450.74 142C494.454 180.54 510.115 204.759 493.81 261.011L517.24 298C529.7 298.772 552.512 189.299 526.74 163Z" fill="#C89C7B"/>
<path d="M446 251.941C446 262.401 433.24 253.398 417.5 253.398C401.76 253.398 389 262.401 389 251.941C389 241.48 401.76 233 417.5 233C433.24 233 446 241.48 446 251.941Z" fill="#D9AE8D"/>
<path d="M397.471 104.659C402.677 117.727 383.373 117.378 362.97 125.506C342.567 133.634 328.791 147.16 323.585 134.091C318.379 121.023 329.228 100.148 349.631 92.0206C370.034 83.893 390.441 77.8962 397.471 104.659Z" fill="black"/>
<path d="M439.194 105.659C433.988 118.727 453.292 118.378 473.695 126.506C494.098 134.634 507.874 148.16 513.08 135.091C518.286 122.023 507.437 101.148 487.034 93.0206C466.631 84.893 446.224 78.8962 439.194 105.659Z" fill="black"/>
<path d="M404.283 119.918C410.686 135.993 386.943 135.563 361.847 145.56C336.751 155.557 319.806 172.195 313.403 156.12C307 140.046 320.344 114.37 345.44 104.373C370.536 94.3761 395.636 87 404.283 119.918Z" fill="#C49774"/>
<path d="M432.906 119.808C426.503 135.883 450.247 135.454 475.342 145.45C500.438 155.447 517.383 172.085 523.786 156.011C530.19 139.936 516.845 114.26 491.749 104.263C466.654 94.2663 441.554 86.8901 432.906 119.808Z" fill="#C49774"/>
<ellipse cx="30.8988" cy="18.5719" rx="30.8988" ry="18.5719" transform="matrix(0.975092 -0.221801 0.149338 0.988786 328.854 116.9)" fill="#D9AE8D"/>
<mask id="mask0_163_3061" style="mask-type:alpha" maskUnits="userSpaceOnUse" x="333" y="114" width="59" height="34">
<ellipse cx="29.4543" cy="15.3848" rx="29.4543" ry="15.3848" transform="matrix(0.975092 -0.221801 0.149338 0.988786 331.75 122.211)" fill="white"/>
</mask>
<g mask="url(#mask0_163_3061)">
<ellipse cx="29.4543" cy="15.3848" rx="29.4543" ry="15.3848" transform="matrix(0.975092 -0.221801 0.149338 0.988786 331.75 122.211)" fill="white"/>
<circle cx="366.967" cy="122.308" r="13.1009" transform="rotate(-4.30874 366.967 122.308)" fill="black"/>
<path d="M361.036 113.949C361.036 113.949 364.677 117.248 367.595 117.75C370.513 118.251 375.047 116.356 375.047 116.356C375.047 116.356 371.748 119.998 371.247 122.916C370.746 125.834 372.641 130.368 372.641 130.368C372.641 130.368 368.999 127.069 366.081 126.568C363.163 126.066 358.629 127.961 358.629 127.961C358.629 127.961 361.928 124.319 362.429 121.401C362.93 118.483 361.036 113.949 361.036 113.949Z" fill="white"/>
<ellipse cx="45.5287" cy="23.7809" rx="45.5287" ry="23.7809" transform="matrix(0.975092 -0.221801 0.149338 0.988786 314.148 150.04)" fill="#D9AE8D"/>
</g>
<ellipse cx="30.8988" cy="18.5719" rx="30.8988" ry="18.5719" transform="matrix(-0.975092 -0.221801 -0.149338 0.988786 509.838 116.9)" fill="#D9AE8D"/>
<mask id="mask1_163_3061" style="mask-type:alpha" maskUnits="userSpaceOnUse" x="447" y="114" width="58" height="34">
<ellipse cx="29.4543" cy="15.3848" rx="29.4543" ry="15.3848" transform="matrix(-0.975092 -0.221801 -0.149338 0.988786 506.941 122.211)" fill="white"/>
</mask>
<g mask="url(#mask1_163_3061)">
<ellipse cx="29.4543" cy="15.3848" rx="29.4543" ry="15.3848" transform="matrix(-0.975092 -0.221801 -0.149338 0.988786 506.941 122.211)" fill="white"/>
<circle cx="13.1009" cy="13.1009" r="13.1009" transform="matrix(-0.997174 -0.0751308 -0.0751308 0.997174 485.772 110.228)" fill="black"/>
<path d="M466.051 113.949C466.051 113.949 469.693 117.248 472.611 117.75C475.529 118.251 480.063 116.356 480.063 116.356C480.063 116.356 476.764 119.998 476.263 122.916C475.761 125.834 477.656 130.368 477.656 130.368C477.656 130.368 474.014 127.069 471.096 126.568C468.179 126.066 463.645 127.961 463.645 127.961C463.645 127.961 466.944 124.319 467.445 121.401C467.946 118.483 466.051 113.949 466.051 113.949Z" fill="white"/>
<ellipse cx="45.5287" cy="23.7809" rx="45.5287" ry="23.7809" transform="matrix(-0.975092 -0.221801 -0.149338 0.988786 524.543 150.04)" fill="#D9AE8D"/>
</g>
<path d="M407.697 112.914C407.694 112.92 407.692 112.924 407.689 112.93C404.17 124.647 401.553 131.12 393.769 142.21C388.743 152.783 395.026 166 405.08 166C410.518 163.926 414.759 162.94 419 162.965C423.241 162.94 427.483 163.926 432.921 166C441.717 166 447.628 155.881 445.6 146.268C445.311 144.895 444.86 143.532 444.231 142.21C436.448 131.12 433.83 124.647 430.31 112.93C425.287 102.362 412.729 102.357 407.697 112.914Z" fill="#C49774"/>
<path d="M407.749 122.487C407.746 122.492 407.744 122.495 407.741 122.5C404.238 132.104 401.633 137.409 393.885 146.5C388.882 155.166 395.136 166 405.144 166C410.557 164.3 414.778 163.492 419 163.512C423.222 163.492 427.443 164.3 432.856 166C441.612 166 447.496 157.705 445.478 149.826C445.189 148.701 444.74 147.583 444.114 146.5C436.367 137.409 433.762 132.104 430.258 122.5C425.258 113.838 412.758 113.833 407.749 122.487Z" fill="#9F7158"/>
<ellipse cx="407.09" cy="151.26" rx="6" ry="8.5" transform="rotate(25.6747 407.09 151.26)" fill="black"/>
<ellipse cx="6" cy="8.5" rx="6" ry="8.5" transform="matrix(-0.901268 0.433262 0.433262 0.901268 432.815 141)" fill="black"/>
<circle cx="419" cy="128" r="7" fill="#B68866"/>
<path d="M508 164.5C480.85 107.055 448.447 82.9477 407.5 43.5L508 68C516.748 87.3684 513.627 98.2959 508.135 117.528L508 118C491.72 88.9742 478.646 79.652 452.5 68C485.5 92.5 500.193 119.996 508 164.5Z" fill="black"/>
<path fill-rule="evenodd" clip-rule="evenodd" d="M465.999 206.275C452.004 201.921 435.145 199.379 417 199.379C398.855 199.379 381.995 201.921 368 206.276C378.235 198.72 396.354 193.698 417 193.698C437.644 193.698 455.763 198.72 465.999 206.275Z" fill="#99775C"/>
<path fill-rule="evenodd" clip-rule="evenodd" d="M452.714 211.582C442.142 213.255 430.801 214.163 419.001 214.163C407.2 214.163 395.858 213.255 385.286 211.581C391.625 217.179 404.343 221 419 221C433.656 221 446.375 217.179 452.714 211.582Z" fill="#99775C"/>
</svg>
