<svg width="596" height="494" viewBox="0 0 596 494" fill="none" xmlns="http://www.w3.org/2000/svg">
<path fill-rule="evenodd" clip-rule="evenodd" d="M333.083 335.574C329.928 352.243 312.713 365.073 292.278 365.073C287.197 365.073 282.354 364.28 277.909 362.831C273.375 378.014 257.025 389.329 237.835 389.329C216.055 389.329 198.656 374.753 198.224 356.49C195.782 357.381 193.098 357.876 190.291 357.876C189.727 357.876 189.169 357.856 188.618 357.817C185.249 363.373 178.4 367.196 170.592 367.196C159.644 367.196 150.956 359.679 151.186 350.407C151.251 347.808 152.009 345.347 153.307 343.151C135.018 339.912 121.558 326.122 121.968 309.601C122.336 294.776 133.765 282.149 149.441 277.373C148.517 275.471 148.031 273.374 148.085 271.17C148.3 262.532 156.741 255.53 166.939 255.53C175.158 255.53 182.011 260.078 184.248 266.366C187.195 264.75 190.696 263.81 194.432 263.81C198.1 263.81 201.494 264.715 204.329 266.276C211.496 255.751 224.933 248.629 240.158 248.629C248.834 248.629 256.815 250.942 263.306 254.88C267.913 251.559 273.866 249.549 280.324 249.549C281.241 249.549 282.145 249.59 283.036 249.669C286.52 248.442 290.239 247.609 294.111 247.237C297.301 244.681 301.594 243.109 306.282 243.109C310.646 243.109 314.601 244.471 317.597 246.721C320.705 244.471 324.727 243.109 329.091 243.109C338.689 243.109 346.307 249.699 346.105 257.829C346.015 261.446 344.393 264.758 341.774 267.321C363.057 268.302 379.607 283.247 379.153 301.539C378.683 320.466 360.187 335.809 337.841 335.809C336.229 335.809 334.642 335.729 333.083 335.574Z" fill="white"/>
<path fill-rule="evenodd" clip-rule="evenodd" d="M300.313 368.329C309.873 388.195 335.795 398.519 361.449 391.654C367.828 389.947 373.641 387.323 378.735 384.012C389.527 401.548 413.854 410.259 437.944 403.813C465.286 396.496 482.231 372.352 476.638 349.28C480.004 349.579 483.539 349.298 487.064 348.354C487.771 348.165 488.465 347.953 489.143 347.719C495.24 353.562 505.122 356.061 514.924 353.438C528.668 349.76 537.05 337.405 533.645 325.841C532.691 322.601 530.913 319.766 528.545 317.446C550.417 307.235 562.681 285.401 556.616 264.799C551.173 246.311 532.584 234.299 511.301 233.57C511.822 230.872 511.727 228.076 510.918 225.327C507.747 214.556 494.798 208.601 481.996 212.027C471.677 214.789 464.603 222.801 463.907 231.446C459.664 230.407 454.954 230.403 450.263 231.658C445.659 232.89 441.701 235.167 438.667 238.079C426.134 227.274 406.872 222.848 387.76 227.962C376.868 230.877 367.625 236.462 360.801 243.586C353.901 240.965 345.752 240.442 337.645 242.611C336.494 242.919 335.372 243.274 334.281 243.672C329.494 243.303 324.546 243.506 319.559 244.34C314.697 242.204 308.779 241.673 302.894 243.248C297.416 244.714 292.909 247.752 289.904 251.583C285.246 249.803 279.739 249.444 274.261 250.91C262.211 254.134 254.862 264.967 257.847 275.105C259.175 279.615 262.324 283.228 266.472 285.565C240.083 293.948 224.328 318.269 231.043 341.08C237.992 364.682 266.366 377.73 294.418 370.223C296.442 369.681 298.408 369.048 300.313 368.329Z" fill="white"/>
<path d="M165.107 167.658C178.748 174.001 192.499 176.164 207.282 176.164C214.656 176.164 221.095 175.846 222.273 173.785C236.933 148.13 221.657 101.253 205.676 78.9644C202.894 75.0835 196.768 75.6614 192.798 76.8526C174.278 82.4085 182.436 105.835 183.191 119.415C183.211 119.779 181.614 115.598 181.287 114.805C175.368 100.429 166.861 77.0118 153.091 68.138C148.639 65.2689 141.998 60.6486 136.494 62.5463C133.165 63.6943 132.542 64.7351 132.063 67.9C128.555 91.0499 144.133 111.702 157.374 129.051C157.577 129.318 158.549 131.576 158.028 130.925C156.073 128.481 152.686 127.149 150.117 125.423C141.957 119.94 111.326 115.33 114.782 130.449C118.881 148.383 150.924 161.062 165.107 167.658Z" fill="#A5D6A7"/>
<path d="M149.176 288.811C166.839 280.088 180.324 267.826 192.447 252.735C198.495 245.208 203.45 238.375 202.312 235.482C188.147 199.478 127.768 176.627 91.9103 174.661C85.6668 174.319 81.2332 181.046 79.1928 186.076C69.6764 209.536 100.28 220.421 114.761 230.787C115.149 231.065 109.572 229.267 108.494 228.95C88.9651 223.203 58.0842 212.682 37.7335 219.461C31.1536 221.652 20.991 224.642 18.4148 231.817C16.8565 236.156 17.4079 237.646 20.2454 240.731C40.9999 263.297 74.8567 264.331 103.425 265.044C103.864 265.055 106.966 265.915 105.875 265.913C101.776 265.904 97.6391 268.269 93.7697 269.476C81.4818 273.309 51.6549 300.796 69.9229 309.667C91.5908 320.19 130.812 297.88 149.176 288.811Z" fill="#A5D6A7"/>
<path d="M450.534 261.105C431.028 263.853 412.977 261.323 394.458 255.69C385.22 252.88 377.276 250.028 376.586 246.997C367.997 209.272 404.996 156.369 433.509 134.536C438.474 130.735 445.927 133.793 450.447 136.798C471.53 150.815 452.384 177.054 446.264 193.778C446.1 194.227 449.693 189.598 450.405 188.728C463.298 172.975 482.879 146.881 503.511 141.012C510.181 139.114 520.261 135.857 526.432 140.331C530.165 143.038 530.549 144.579 529.944 148.727C525.517 179.064 498.131 198.999 474.933 215.688C474.577 215.944 472.499 218.403 473.4 217.786C476.781 215.469 481.531 215.092 485.407 213.908C497.718 210.149 537.848 216.046 527.757 233.67C515.788 254.574 470.816 258.247 450.534 261.105Z" fill="#A5D6A7"/>
<path fill-rule="evenodd" clip-rule="evenodd" d="M401.79 179.076C399.361 184.88 398.02 191.252 398.02 197.937C398.02 204.623 399.361 210.995 401.791 216.799H150.269C143.641 216.799 138.269 211.426 138.269 204.799V191.076C138.269 184.448 143.641 179.076 150.269 179.076H401.79Z" fill="#2196F3"/>
<path fill-rule="evenodd" clip-rule="evenodd" d="M400.493 182.542C398.888 187.382 398.02 192.558 398.02 197.937C398.02 203.316 398.888 208.492 400.493 213.333H242.669C236.042 213.333 230.669 207.96 230.669 201.333V194.542C230.669 187.914 236.042 182.542 242.669 182.542H400.493Z" fill="white"/>
<path fill-rule="evenodd" clip-rule="evenodd" d="M408.886 122.804C402.584 130.263 398.786 139.905 398.786 150.434C398.786 160.964 402.585 170.607 408.887 178.066C406.908 178.722 404.792 179.077 402.594 179.077H193.771C182.726 179.077 173.771 170.122 173.771 159.077V141.794C173.771 130.748 182.726 121.794 193.771 121.794H402.594C404.792 121.794 406.907 122.149 408.886 122.804Z" fill="#FFC107"/>
<path fill-rule="evenodd" clip-rule="evenodd" d="M405.72 127.057C401.334 133.779 398.785 141.809 398.785 150.434C398.785 159.06 401.335 167.091 405.721 173.813H268.815C260.531 173.813 253.815 167.097 253.815 158.813V142.057C253.815 133.772 260.531 127.057 268.815 127.057H405.72Z" fill="white"/>
<path fill-rule="evenodd" clip-rule="evenodd" d="M189.809 92.8286C191.675 97.2851 192.705 102.178 192.705 107.311C192.705 112.445 191.674 117.338 189.809 121.794H359.949C367.948 121.794 374.432 115.31 374.432 107.311C374.432 99.3128 367.948 92.8286 359.949 92.8286H189.809Z" fill="#4CAF50"/>
<path fill-rule="evenodd" clip-rule="evenodd" d="M190.806 95.4897C192.038 99.2065 192.705 103.181 192.705 107.311C192.705 111.441 192.038 115.416 190.806 119.133H297.966C304.494 119.133 309.787 113.84 309.787 107.311C309.787 100.782 304.494 95.4897 297.966 95.4897H190.806Z" fill="white"/>
<path fill-rule="evenodd" clip-rule="evenodd" d="M462.659 216.799C459.331 224.752 457.492 233.483 457.492 242.643C457.492 251.803 459.331 260.534 462.659 268.487H125.583C112.328 268.487 101.583 257.742 101.583 244.487V240.799C101.583 227.544 112.328 216.799 125.583 216.799H462.659Z" fill="#4CAF50"/>
<path fill-rule="evenodd" clip-rule="evenodd" d="M461.204 220.598C458.799 227.502 457.492 234.92 457.492 242.643C457.492 250.366 458.799 257.785 461.204 264.688H244.189C235.353 264.688 228.189 257.525 228.189 248.688V236.598C228.189 227.762 235.353 220.598 244.189 220.598H461.204Z" fill="white"/>
<path fill-rule="evenodd" clip-rule="evenodd" d="M236.12 288.819C232.69 270.7 213.978 256.754 191.765 256.754C186.242 256.754 180.977 257.616 176.146 259.191C171.218 242.687 153.445 230.388 132.586 230.388C108.911 230.388 89.9982 246.232 89.5284 266.084C86.8735 265.115 83.9566 264.578 80.9047 264.578C80.2921 264.578 79.686 264.599 79.0874 264.642C75.4245 258.601 67.9802 254.445 59.493 254.445C47.5925 254.445 38.148 262.616 38.3983 272.696C38.4684 275.521 39.2925 278.196 40.7044 280.583C20.8232 284.104 6.19268 299.094 6.63848 317.052C7.03854 333.167 19.4614 346.892 36.5008 352.084C35.4964 354.151 34.968 356.431 35.0275 358.826C35.2606 368.216 44.436 375.827 55.5214 375.827C64.4559 375.827 71.9043 370.883 74.3363 364.048C77.5393 365.805 81.3448 366.827 85.4067 366.827C89.3931 366.827 93.0835 365.843 96.1646 364.146C103.955 375.586 118.562 383.328 135.111 383.328C144.542 383.328 153.217 380.813 160.272 376.533C165.28 380.143 171.751 382.327 178.771 382.327C179.767 382.327 180.75 382.283 181.717 382.198C185.506 383.532 189.548 384.437 193.758 384.842C197.225 387.62 201.892 389.329 206.988 389.329C211.731 389.329 216.03 387.848 219.287 385.402C222.665 387.848 227.037 389.329 231.781 389.329C242.214 389.329 250.494 382.165 250.275 373.328C250.177 369.396 248.413 365.796 245.567 363.01C268.702 361.944 286.692 345.699 286.198 325.815C285.687 305.241 265.582 288.563 241.292 288.563C239.54 288.563 237.814 288.65 236.12 288.819Z" fill="white"/>
<ellipse cx="52.5812" cy="44.5492" rx="52.5812" ry="44.5492" transform="matrix(-0.966008 0.258513 -0.282407 -0.959295 595.933 291.042)" fill="white"/>
<path fill-rule="evenodd" clip-rule="evenodd" d="M448.035 78.4712C448.311 78.4712 448.535 78.695 448.535 78.9712V83.6064L453.17 83.6064C453.447 83.6064 453.67 83.8303 453.67 84.1064C453.67 84.3826 453.447 84.6064 453.17 84.6064H448.535V89.2417C448.535 89.5178 448.311 89.7417 448.035 89.7417C447.759 89.7417 447.535 89.5178 447.535 89.2417V84.6064H442.9C442.624 84.6064 442.4 84.3826 442.4 84.1064C442.4 83.8303 442.624 83.6064 442.9 83.6064L447.535 83.6064V78.9712C447.535 78.695 447.759 78.4712 448.035 78.4712Z" fill="#4CAF50"/>
<path fill-rule="evenodd" clip-rule="evenodd" d="M278.694 15.0991C278.97 15.0991 279.194 15.323 279.194 15.5991V20.2344L283.829 20.2344C284.105 20.2344 284.329 20.4582 284.329 20.7344C284.329 21.0105 284.105 21.2344 283.829 21.2344H279.194V25.8696C279.194 26.1458 278.97 26.3696 278.694 26.3696C278.418 26.3696 278.194 26.1458 278.194 25.8696V21.2344H273.559C273.282 21.2344 273.059 21.0105 273.059 20.7344C273.059 20.4582 273.282 20.2344 273.559 20.2344L278.194 20.2344V15.5991C278.194 15.323 278.418 15.0991 278.694 15.0991Z" fill="#4CAF50"/>
<path fill-rule="evenodd" clip-rule="evenodd" d="M494.974 63.4844C495.25 63.4844 495.474 63.7082 495.474 63.9844V68.6196L500.109 68.6196C500.386 68.6196 500.609 68.8435 500.609 69.1196C500.609 69.3958 500.386 69.6196 500.109 69.6196H495.474V74.2549C495.474 74.531 495.25 74.7549 494.974 74.7549C494.698 74.7549 494.474 74.531 494.474 74.2549V69.6196H489.839C489.563 69.6196 489.339 69.3958 489.339 69.1196C489.339 68.8435 489.563 68.6196 489.839 68.6196L494.474 68.6196V63.9844C494.474 63.7082 494.698 63.4844 494.974 63.4844Z" fill="#4CAF50"/>
<path fill-rule="evenodd" clip-rule="evenodd" d="M325.633 0.112305C325.909 0.112305 326.133 0.336162 326.133 0.612305V5.24756L330.768 5.24756C331.044 5.24756 331.268 5.47142 331.268 5.74756C331.268 6.0237 331.044 6.24756 330.768 6.24756H326.133V10.8828C326.133 11.159 325.909 11.3828 325.633 11.3828C325.357 11.3828 325.133 11.159 325.133 10.8828V6.24756H320.498C320.221 6.24756 319.998 6.0237 319.998 5.74756C319.998 5.47142 320.221 5.24756 320.498 5.24756L325.133 5.24756V0.612305C325.133 0.336162 325.357 0.112305 325.633 0.112305Z" fill="#4CAF50"/>
<path fill-rule="evenodd" clip-rule="evenodd" d="M34.8608 109.198C35.137 109.198 35.3608 109.422 35.3608 109.698V114.333L39.9961 114.333C40.2722 114.333 40.4961 114.557 40.4961 114.833C40.4961 115.109 40.2722 115.333 39.9961 115.333H35.3608V119.968C35.3608 120.244 35.137 120.468 34.8608 120.468C34.5847 120.468 34.3608 120.244 34.3608 119.968V115.333H29.7256C29.4494 115.333 29.2256 115.109 29.2256 114.833C29.2256 114.557 29.4494 114.333 29.7256 114.333L34.3608 114.333V109.698C34.3608 109.422 34.5847 109.198 34.8608 109.198Z" fill="#4CAF50"/>
<path fill-rule="evenodd" clip-rule="evenodd" d="M70.2535 130.556C70.4323 130.556 70.5772 130.701 70.5772 130.879V133.88L73.5779 133.88C73.7567 133.88 73.9016 134.025 73.9016 134.204C73.9016 134.383 73.7567 134.527 73.5779 134.527H70.5772V137.528C70.5772 137.707 70.4323 137.852 70.2535 137.852C70.0748 137.852 69.9299 137.707 69.9299 137.528V134.527H66.9292C66.7504 134.527 66.6055 134.383 66.6055 134.204C66.6055 134.025 66.7504 133.88 66.9292 133.88L69.9299 133.88V130.879C69.9299 130.701 70.0748 130.556 70.2535 130.556Z" fill="#4CAF50"/>
<path fill-rule="evenodd" clip-rule="evenodd" d="M48.7097 159.935C48.9859 159.935 49.2097 160.159 49.2097 160.435V165.07L53.845 165.07C54.1211 165.07 54.345 165.294 54.345 165.57C54.345 165.846 54.1211 166.07 53.845 166.07H49.2097V170.706C49.2097 170.982 48.9859 171.206 48.7097 171.206C48.4336 171.206 48.2097 170.982 48.2097 170.706V166.07H43.5745C43.2983 166.07 43.0745 165.846 43.0745 165.57C43.0745 165.294 43.2983 165.07 43.5745 165.07L48.2097 165.07V160.435C48.2097 160.159 48.4336 159.935 48.7097 159.935Z" fill="#4CAF50"/>
<path fill-rule="evenodd" clip-rule="evenodd" d="M489.839 109.198C490.059 109.198 490.238 109.377 490.238 109.598V113.304L493.945 113.304C494.166 113.304 494.345 113.484 494.345 113.704C494.345 113.925 494.166 114.104 493.945 114.104H490.238V117.811C490.238 118.032 490.059 118.211 489.839 118.211C489.618 118.211 489.439 118.032 489.439 117.811V114.104H485.732C485.511 114.104 485.332 113.925 485.332 113.704C485.332 113.484 485.511 113.304 485.732 113.304H489.439V109.598C489.439 109.377 489.618 109.198 489.839 109.198Z" fill="#4CAF50"/>
<path fill-rule="evenodd" clip-rule="evenodd" d="M309.787 33.1426C309.946 33.1426 310.076 33.2717 310.076 33.431V36.1047L312.749 36.1047C312.908 36.1047 313.038 36.2338 313.038 36.3931C313.038 36.5523 312.908 36.6815 312.749 36.6815H310.076V39.3551C310.076 39.5144 309.946 39.6436 309.787 39.6436C309.628 39.6436 309.499 39.5144 309.499 39.3551V36.6815H306.825C306.666 36.6815 306.537 36.5523 306.537 36.3931C306.537 36.2338 306.666 36.1047 306.825 36.1047L309.499 36.1047V33.431C309.499 33.2717 309.628 33.1426 309.787 33.1426Z" fill="#4CAF50"/>
</svg>
