<svg width="596" height="494" viewBox="0 0 596 494" fill="none" xmlns="http://www.w3.org/2000/svg">
<path fill-rule="evenodd" clip-rule="evenodd" d="M333.15 335.472C329.995 352.14 312.78 364.971 292.345 364.971C287.264 364.971 282.421 364.178 277.976 362.729C273.442 377.912 257.092 389.226 237.902 389.226C216.122 389.226 198.723 374.651 198.291 356.388C195.849 357.279 193.165 357.773 190.358 357.773C189.794 357.773 189.236 357.753 188.685 357.714C185.316 363.271 178.467 367.094 170.659 367.094C159.711 367.094 151.023 359.577 151.253 350.304C151.318 347.706 152.076 345.245 153.374 343.049C135.085 339.81 121.625 326.02 122.035 309.499C122.403 294.674 133.832 282.047 149.508 277.271C148.584 275.369 148.098 273.272 148.152 271.068C148.367 262.43 156.808 255.428 167.006 255.428C175.225 255.428 182.078 259.976 184.315 266.264C187.262 264.648 190.763 263.707 194.499 263.707C198.167 263.707 201.562 264.613 204.396 266.174C211.563 255.649 225 248.527 240.225 248.527C248.901 248.527 256.882 250.84 263.373 254.778C267.98 251.457 273.933 249.447 280.391 249.447C281.308 249.447 282.212 249.488 283.103 249.567C286.587 248.339 290.306 247.507 294.179 247.134C297.368 244.579 301.661 243.007 306.349 243.007C310.713 243.007 314.668 244.369 317.664 246.619C320.772 244.369 324.794 243.007 329.158 243.007C338.756 243.007 346.374 249.597 346.172 257.727C346.082 261.343 344.46 264.656 341.841 267.218C363.124 268.2 379.674 283.145 379.22 301.437C378.75 320.364 360.254 335.707 337.908 335.707C336.296 335.707 334.709 335.627 333.15 335.472Z" fill="#1E4620"/>
<path fill-rule="evenodd" clip-rule="evenodd" d="M300.381 368.227C309.941 388.093 335.863 398.417 361.517 391.552C367.896 389.845 373.71 387.221 378.803 383.91C389.595 401.446 413.922 410.157 438.012 403.711C465.354 396.394 482.3 372.25 476.707 349.178C480.072 349.476 483.607 349.196 487.132 348.252C487.84 348.063 488.533 347.851 489.211 347.617C495.308 353.46 505.19 355.959 514.992 353.336C528.736 349.658 537.118 337.302 533.714 325.739C532.76 322.498 530.982 319.664 528.613 317.344C550.486 307.133 562.749 285.299 556.685 264.697C551.242 246.209 532.653 234.197 511.369 233.468C511.89 230.77 511.796 227.974 510.987 225.225C507.816 214.454 494.866 208.499 482.064 211.925C471.745 214.687 464.671 222.699 463.975 231.344C459.733 230.305 455.022 230.3 450.331 231.556C445.727 232.788 441.769 235.065 438.736 237.977C426.202 227.172 406.941 222.746 387.828 227.86C376.936 230.775 367.694 236.36 360.869 243.484C353.969 240.863 345.82 240.34 337.714 242.509C336.563 242.817 335.44 243.172 334.349 243.57C329.562 243.201 324.614 243.404 319.628 244.238C314.765 242.101 308.848 241.57 302.963 243.145C297.484 244.611 292.978 247.65 289.972 251.481C285.314 249.701 279.807 249.342 274.329 250.808C262.279 254.032 254.931 264.865 257.915 275.003C259.243 279.513 262.392 283.126 266.54 285.463C240.152 293.846 224.397 318.167 231.112 340.978C238.06 364.58 266.434 377.628 294.487 370.121C296.51 369.579 298.477 368.946 300.381 368.227Z" fill="#1E4620"/>
<path d="M165.174 167.555C178.815 173.899 192.566 176.062 207.349 176.062C214.723 176.062 221.162 175.744 222.34 173.682C237 148.028 221.724 101.151 205.743 78.8621C202.961 74.9813 196.835 75.5591 192.865 76.7503C174.345 82.3062 182.503 105.733 183.258 119.312C183.278 119.676 181.681 115.496 181.354 114.702C175.435 100.327 166.927 76.9095 153.158 68.0357C148.706 65.1666 142.065 60.5463 136.561 62.444C133.232 63.592 132.609 64.6328 132.13 67.7977C128.622 90.9476 144.2 111.599 157.441 128.949C157.644 129.215 158.616 131.474 158.095 130.823C156.14 128.379 152.753 127.047 150.184 125.32C142.024 119.838 111.393 115.227 114.849 130.347C118.948 148.28 150.99 160.96 165.174 167.555Z" fill="#A5D6A7"/>
<path d="M149.243 288.709C166.905 279.986 180.391 267.724 192.514 252.633C198.562 245.106 203.517 238.273 202.379 235.38C188.214 199.376 127.835 176.525 91.9772 174.559C85.7337 174.217 81.3001 180.944 79.2597 185.974C69.7433 209.434 100.347 220.319 114.828 230.685C115.216 230.963 109.639 229.165 108.561 228.848C89.032 223.101 58.1511 212.58 37.8004 219.359C31.2205 221.55 21.0579 224.54 18.4817 231.715C16.9234 236.054 17.4748 237.544 20.3123 240.629C41.0668 263.195 74.9236 264.229 103.492 264.942C103.931 264.953 107.033 265.813 105.942 265.811C101.843 265.802 97.706 268.167 93.8366 269.374C81.5487 273.207 51.7218 300.694 69.9898 309.565C91.6577 320.088 130.879 297.778 149.243 288.709Z" fill="#A5D6A7"/>
<path d="M450.601 261.003C431.095 263.752 413.044 261.221 394.525 255.588C385.287 252.778 377.343 249.926 376.653 246.895C368.064 209.17 405.063 156.267 433.576 134.434C438.541 130.633 445.994 133.691 450.514 136.696C471.597 150.713 452.45 176.952 446.331 193.676C446.167 194.125 449.76 189.496 450.472 188.626C463.365 172.873 482.946 146.779 503.577 140.91C510.248 139.012 520.328 135.755 526.499 140.229C530.232 142.936 530.616 144.477 530.011 148.625C525.583 178.962 498.198 198.897 475 215.586C474.644 215.842 472.566 218.301 473.466 217.684C476.847 215.367 481.598 214.99 485.474 213.806C497.785 210.048 537.915 215.944 527.824 233.568C515.855 254.472 470.883 258.145 450.601 261.003Z" fill="#A5D6A7"/>
<path fill-rule="evenodd" clip-rule="evenodd" d="M401.858 178.974C399.429 184.778 398.087 191.15 398.087 197.835C398.087 204.521 399.429 210.893 401.858 216.697H150.335C143.708 216.697 138.335 211.324 138.335 204.697V190.974C138.335 184.346 143.708 178.974 150.335 178.974H401.858Z" fill="#2196F3"/>
<path fill-rule="evenodd" clip-rule="evenodd" d="M400.56 182.439C398.955 187.28 398.087 192.456 398.087 197.835C398.087 203.214 398.955 208.39 400.56 213.231H242.736C236.109 213.231 230.736 207.858 230.736 201.231V194.439C230.736 187.812 236.109 182.439 242.736 182.439H400.56Z" fill="white"/>
<path fill-rule="evenodd" clip-rule="evenodd" d="M408.953 122.702C402.651 130.161 398.853 139.803 398.853 150.332C398.853 160.862 402.652 170.505 408.954 177.964C406.975 178.62 404.859 178.974 402.661 178.974H193.838C182.792 178.974 173.838 170.02 173.838 158.974V141.692C173.838 130.646 182.792 121.692 193.838 121.692H402.661C404.859 121.692 406.974 122.046 408.953 122.702Z" fill="#FFC107"/>
<path fill-rule="evenodd" clip-rule="evenodd" d="M405.787 126.954C401.401 133.677 398.852 141.707 398.852 150.332C398.852 158.958 401.402 166.988 405.788 173.711H268.882C260.598 173.711 253.882 166.995 253.882 158.711V141.954C253.882 133.67 260.598 126.954 268.882 126.954H405.787Z" fill="white"/>
<path fill-rule="evenodd" clip-rule="evenodd" d="M189.876 92.7264C191.741 97.1829 192.772 102.076 192.772 107.209C192.772 112.342 191.741 117.235 189.876 121.692H360.016C368.015 121.692 374.499 115.208 374.499 107.209C374.499 99.2106 368.015 92.7264 360.016 92.7264H189.876Z" fill="#4CAF50"/>
<path fill-rule="evenodd" clip-rule="evenodd" d="M190.873 95.3873C192.105 99.1041 192.772 103.078 192.772 107.209C192.772 111.339 192.105 115.313 190.873 119.03H298.032C304.561 119.03 309.854 113.738 309.854 107.209C309.854 100.68 304.561 95.3873 298.032 95.3873H190.873Z" fill="white"/>
<path fill-rule="evenodd" clip-rule="evenodd" d="M462.726 216.697C459.398 224.65 457.559 233.381 457.559 242.541C457.559 251.702 459.398 260.432 462.726 268.385H125.649C112.395 268.385 101.649 257.64 101.649 244.385V240.697C101.649 227.442 112.395 216.697 125.649 216.697H462.726Z" fill="#4CAF50"/>
<path fill-rule="evenodd" clip-rule="evenodd" d="M461.271 220.496C458.866 227.4 457.559 234.818 457.559 242.541C457.559 250.264 458.866 257.682 461.271 264.586H244.256C235.419 264.586 228.256 257.423 228.256 248.586V236.496C228.256 227.66 235.419 220.496 244.256 220.496H461.271Z" fill="white"/>
<path fill-rule="evenodd" clip-rule="evenodd" d="M236.187 288.717C232.757 270.598 214.045 256.652 191.832 256.652C186.309 256.652 181.044 257.514 176.213 259.089C171.285 242.585 153.512 230.286 132.652 230.286C108.978 230.286 90.0651 246.13 89.5953 265.982C86.9404 265.013 84.0235 264.476 80.9716 264.476C80.359 264.476 79.7529 264.497 79.1543 264.54C75.4914 258.499 68.0471 254.343 59.5598 254.343C47.6593 254.343 38.2149 262.514 38.4652 272.594C38.5353 275.419 39.3594 278.093 40.7713 280.481C20.8901 284.002 6.25957 298.992 6.70537 316.95C7.10544 333.065 19.5282 346.79 36.5676 351.982C35.5633 354.049 35.0349 356.329 35.0944 358.724C35.3275 368.114 44.5029 375.725 55.5883 375.725C64.5228 375.725 71.9712 370.781 74.4032 363.946C77.6062 365.703 81.4117 366.725 85.4736 366.725C89.4599 366.725 93.1504 365.741 96.2315 364.044C104.022 375.484 118.628 383.226 135.177 383.226C144.609 383.226 153.284 380.711 160.339 376.431C165.347 380.041 171.818 382.225 178.838 382.225C179.834 382.225 180.817 382.181 181.784 382.096C185.572 383.43 189.615 384.335 193.825 384.74C197.292 387.518 201.959 389.227 207.054 389.227C211.798 389.227 216.097 387.746 219.354 385.3C222.732 387.746 227.104 389.227 231.848 389.227C242.281 389.227 250.561 382.063 250.342 373.226C250.244 369.294 248.48 365.694 245.633 362.908C268.769 361.842 286.759 345.596 286.265 325.713C285.754 305.139 265.649 288.461 241.359 288.461C239.607 288.461 237.881 288.548 236.187 288.717Z" fill="#1E4620"/>
<ellipse cx="52.5812" cy="44.5492" rx="52.5812" ry="44.5492" transform="matrix(-0.966008 0.258513 -0.282407 -0.959295 596 290.939)" fill="#1E4620"/>
<path fill-rule="evenodd" clip-rule="evenodd" d="M448.102 78.3589C448.378 78.3589 448.602 78.5827 448.602 78.8589V83.4941L453.237 83.4941C453.513 83.4941 453.737 83.718 453.737 83.9941C453.737 84.2703 453.513 84.4941 453.237 84.4941H448.602V89.1294C448.602 89.4055 448.378 89.6294 448.102 89.6294C447.826 89.6294 447.602 89.4055 447.602 89.1294V84.4941H442.967C442.691 84.4941 442.467 84.2703 442.467 83.9941C442.467 83.718 442.691 83.4941 442.967 83.4941L447.602 83.4941V78.8589C447.602 78.5827 447.826 78.3589 448.102 78.3589Z" fill="#4CAF50"/>
<path fill-rule="evenodd" clip-rule="evenodd" d="M278.761 14.9868C279.037 14.9868 279.261 15.2107 279.261 15.4868V20.1221L283.896 20.1221C284.172 20.1221 284.396 20.3459 284.396 20.6221C284.396 20.8982 284.172 21.1221 283.896 21.1221H279.261V25.7573C279.261 26.0335 279.037 26.2573 278.761 26.2573C278.485 26.2573 278.261 26.0335 278.261 25.7573V21.1221H273.625C273.349 21.1221 273.125 20.8982 273.125 20.6221C273.125 20.3459 273.349 20.1221 273.625 20.1221L278.261 20.1221V15.4868C278.261 15.2107 278.485 14.9868 278.761 14.9868Z" fill="#4CAF50"/>
<path fill-rule="evenodd" clip-rule="evenodd" d="M495.041 63.3721C495.317 63.3721 495.541 63.5959 495.541 63.8721V68.5073L500.176 68.5073C500.452 68.5073 500.676 68.7312 500.676 69.0073C500.676 69.2835 500.452 69.5073 500.176 69.5073H495.541V74.1426C495.541 74.4187 495.317 74.6426 495.041 74.6426C494.765 74.6426 494.541 74.4187 494.541 74.1426V69.5073H489.906C489.63 69.5073 489.406 69.2835 489.406 69.0073C489.406 68.7312 489.63 68.5073 489.906 68.5073L494.541 68.5073V63.8721C494.541 63.5959 494.765 63.3721 495.041 63.3721Z" fill="#4CAF50"/>
<path fill-rule="evenodd" clip-rule="evenodd" d="M325.7 0C325.976 0 326.2 0.223858 326.2 0.5V5.13525L330.835 5.13525C331.111 5.13525 331.335 5.35911 331.335 5.63525C331.335 5.9114 331.111 6.13525 330.835 6.13525H326.2V10.7705C326.2 11.0466 325.976 11.2705 325.7 11.2705C325.424 11.2705 325.2 11.0466 325.2 10.7705V6.13525H320.564C320.288 6.13525 320.064 5.9114 320.064 5.63525C320.064 5.35911 320.288 5.13525 320.564 5.13525L325.2 5.13525V0.5C325.2 0.223858 325.424 0 325.7 0Z" fill="#4CAF50"/>
<path fill-rule="evenodd" clip-rule="evenodd" d="M34.9277 109.085C35.2039 109.085 35.4277 109.309 35.4277 109.585V114.221L40.063 114.221C40.3391 114.221 40.563 114.445 40.563 114.721C40.563 114.997 40.3391 115.221 40.063 115.221H35.4277V119.856C35.4277 120.132 35.2039 120.356 34.9277 120.356C34.6516 120.356 34.4277 120.132 34.4277 119.856V115.221H29.7925C29.5163 115.221 29.2925 114.997 29.2925 114.721C29.2925 114.445 29.5163 114.221 29.7925 114.221L34.4277 114.221V109.585C34.4277 109.309 34.6516 109.085 34.9277 109.085Z" fill="#4CAF50"/>
<path fill-rule="evenodd" clip-rule="evenodd" d="M70.3204 130.443C70.4992 130.443 70.6441 130.588 70.6441 130.767V133.768L73.6448 133.768C73.8236 133.768 73.9685 133.912 73.9685 134.091C73.9685 134.27 73.8236 134.415 73.6448 134.415H70.6441V137.416C70.6441 137.594 70.4992 137.739 70.3204 137.739C70.1417 137.739 69.9968 137.594 69.9968 137.416V134.415H66.996C66.8173 134.415 66.6724 134.27 66.6724 134.091C66.6724 133.912 66.8173 133.768 66.996 133.768L69.9968 133.768V130.767C69.9968 130.588 70.1417 130.443 70.3204 130.443Z" fill="#4CAF50"/>
<path fill-rule="evenodd" clip-rule="evenodd" d="M48.7766 159.823C49.0528 159.823 49.2766 160.047 49.2766 160.323V164.958L53.9119 164.958C54.188 164.958 54.4119 165.182 54.4119 165.458C54.4119 165.734 54.188 165.958 53.9119 165.958H49.2766V170.593C49.2766 170.869 49.0528 171.093 48.7766 171.093C48.5005 171.093 48.2766 170.869 48.2766 170.593V165.958H43.6414C43.3652 165.958 43.1414 165.734 43.1414 165.458C43.1414 165.182 43.3652 164.958 43.6414 164.958L48.2766 164.958V160.323C48.2766 160.047 48.5005 159.823 48.7766 159.823Z" fill="#4CAF50"/>
<path fill-rule="evenodd" clip-rule="evenodd" d="M489.906 109.085C490.127 109.085 490.306 109.264 490.306 109.485V113.192L494.012 113.192C494.233 113.192 494.412 113.371 494.412 113.592C494.412 113.813 494.233 113.992 494.012 113.992H490.306V117.699C490.306 117.92 490.127 118.099 489.906 118.099C489.685 118.099 489.506 117.92 489.506 117.699V113.992H485.799C485.578 113.992 485.399 113.813 485.399 113.592C485.399 113.371 485.578 113.192 485.799 113.192L489.506 113.192V109.485C489.506 109.264 489.685 109.085 489.906 109.085Z" fill="#4CAF50"/>
<path fill-rule="evenodd" clip-rule="evenodd" d="M309.854 33.0304C310.013 33.0304 310.142 33.1595 310.142 33.3188V35.9925L312.816 35.9925C312.975 35.9925 313.104 36.1216 313.104 36.2809C313.104 36.4402 312.975 36.5693 312.816 36.5693H310.142V39.243C310.142 39.4022 310.013 39.5314 309.854 39.5314C309.695 39.5314 309.566 39.4022 309.566 39.243V36.5693H306.892C306.733 36.5693 306.604 36.4402 306.604 36.2809C306.604 36.1216 306.733 35.9925 306.892 35.9925L309.566 35.9925V33.3188C309.566 33.1595 309.695 33.0304 309.854 33.0304Z" fill="#4CAF50"/>
</svg>
