<svg width="265" height="274" viewBox="0 0 265 274" fill="none" xmlns="http://www.w3.org/2000/svg">
<path d="M135.354 262.824C114.484 262.824 96.1629 257.243 80.3895 246.08C64.6162 234.674 52.3615 219.144 43.6255 199.488C35.1322 179.589 30.8855 157.264 30.8855 132.512C30.8855 107.76 35.1322 85.5558 43.6255 65.8998C52.3615 46.0012 64.6162 30.4705 80.3895 19.3078C96.1629 7.90249 114.484 2.19983 135.354 2.19983C156.223 2.19983 174.544 7.90249 190.318 19.3078C206.091 30.4705 218.224 46.0012 226.718 65.8998C235.454 85.5558 239.822 107.76 239.822 132.512C239.822 157.264 235.454 179.589 226.718 199.488C218.224 219.144 206.091 234.674 190.318 246.08C174.544 257.243 156.223 262.824 135.354 262.824ZM135.354 218.052C147.002 218.052 157.072 214.412 165.566 207.132C174.302 199.609 180.854 189.417 185.222 176.556C189.832 163.452 192.138 148.771 192.138 132.512C192.138 107.275 187.042 86.7692 176.85 70.9958C166.658 54.9798 152.826 46.9718 135.354 46.9718C118.124 46.9718 104.414 54.9798 94.2215 70.9958C84.0295 87.0118 78.9335 107.517 78.9335 132.512C78.9335 148.771 81.1175 163.452 85.4855 176.556C90.0962 189.417 96.6482 199.609 105.142 207.132C113.878 214.412 123.948 218.052 135.354 218.052Z" fill="currentColor"/>
<path fill-rule="evenodd" clip-rule="evenodd" d="M189.104 51.8424C182.075 44.4555 171.925 41.7191 161.687 43.4139L161.682 43.3921C162.083 43.0444 162.475 42.679 162.858 42.296C170.297 34.857 171.347 23.5918 165.202 17.1346C159.058 10.6774 148.047 11.4734 140.607 18.9124C135.302 24.2179 133.246 31.4695 134.733 37.5351C134.332 37.8827 133.939 38.2481 133.557 38.6311C126.117 46.0702 125.068 57.3353 131.212 63.7925C131.435 64.0262 131.663 64.2504 131.898 64.4652C125.309 75.5575 124.111 88.5051 128.727 98.7804C128.647 98.8593 128.567 98.9387 128.487 99.0186C119.318 108.188 116.154 120.952 119.57 131.126C110.06 128.226 98.4178 131.282 89.7787 139.921C88.8 140.9 87.8902 141.92 87.0501 142.973C74.7996 138.826 59.5429 142.632 48.2908 153.884C33.1069 169.068 30.9646 192.061 43.5059 205.241C54.2363 216.518 72.2396 216.956 86.7255 207.337C86.7349 207.347 86.7443 207.357 86.7537 207.367C92.1406 213.028 101.795 212.33 108.316 205.808C114.094 200.031 115.475 191.621 111.971 185.841C115.712 184.625 119.372 182.653 122.708 179.943C125.946 180.207 129.511 178.914 132.281 176.144C134.133 174.292 135.35 172.06 135.901 169.791C140.119 169.57 144.522 167.656 148.055 164.123C153.652 158.526 155.343 150.591 152.728 144.605C156.905 142.951 160.929 140.347 164.457 136.82C171.925 129.351 175.41 119.497 174.599 110.601C175.007 110.371 175.413 110.135 175.816 109.89C181.576 112.461 189.163 110.857 194.658 105.362C197.197 102.823 198.937 99.8056 199.841 96.7052C205.634 99.4572 213.381 97.892 218.966 92.3069C225.895 85.3773 226.873 74.8838 221.149 68.8689C215.426 62.8539 205.169 63.5954 198.239 70.5249C197.887 70.8768 197.55 71.238 197.229 71.6072C196.876 64.186 194.204 57.2026 189.104 51.8424Z" fill="currentColor"/>
<ellipse cx="16.7004" cy="14.1494" rx="16.7004" ry="14.1494" transform="matrix(-0.707107 0.707107 0.68934 0.724438 42.618 72.9999)" fill="currentColor"/>
<ellipse cx="34.5539" cy="29.2756" rx="34.5539" ry="29.2756" transform="matrix(-0.707107 0.707107 0.68934 0.724438 76.8666 24)" fill="currentColor"/>
<ellipse cx="34.5539" cy="29.2756" rx="34.5539" ry="29.2756" transform="matrix(-0.707107 0.707107 0.68934 0.724438 178.867 182)" fill="currentColor"/>
<ellipse cx="34.5539" cy="29.2756" rx="34.5539" ry="29.2756" transform="matrix(-0.707107 0.707107 0.68934 0.724438 210.867 155)" fill="currentColor"/>
<ellipse cx="34.5539" cy="29.2756" rx="34.5539" ry="29.2756" transform="matrix(-0.707107 0.707107 0.68934 0.724438 222.867 91)" fill="currentColor"/>
<ellipse cx="34.5539" cy="29.2756" rx="34.5539" ry="29.2756" transform="matrix(-0.707107 0.707107 0.68934 0.724438 223.867 49)" fill="currentColor"/>
<ellipse cx="34.5539" cy="29.2756" rx="34.5539" ry="29.2756" transform="matrix(-0.707107 0.707107 0.68934 0.724438 194.867 0)" fill="currentColor"/>
<ellipse cx="34.5539" cy="29.2756" rx="34.5539" ry="29.2756" transform="matrix(-0.707107 0.707107 0.68934 0.724438 79.8666 166)" fill="currentColor"/>
<ellipse cx="34.5539" cy="29.2756" rx="34.5539" ry="29.2756" transform="matrix(-0.707107 0.707107 0.68934 0.724438 89.8666 175)" fill="currentColor"/>
</svg>
