<svg width="214" height="259" viewBox="0 0 214 259" fill="none" xmlns="http://www.w3.org/2000/svg">
<path d="M125.514 203.136C114.32 210.408 108.043 211.741 96.8491 203.136C85.6545 214.598 79.3786 213.549 68.1841 203.136C45.7953 221.283 33.2429 226.302 10.8541 203.136C-3.32136 186.566 -3.85139 178.061 10.8541 164.552C10.093 141.768 15.2227 132.223 38.5181 123.42C38.6031 99.1008 46.1896 91.2731 66.1821 82.2878C66.3867 29.4311 83.0416 15.8176 121.51 0.0238342C151.828 0.0238342 179.158 20.615 184.57 50.4462C190.947 85.5985 190.523 115.558 173.198 158.728C185.281 150.554 192.055 146.585 204.138 158.728C215.591 175.36 217.72 184.952 204.138 203.136C192.945 210.464 185.97 208.812 173.198 203.136C184.767 221.047 183.347 231.089 173.198 249C154.575 261.385 144.137 261.502 125.514 249C108.384 231.089 103.602 221.047 125.514 203.136ZM125.514 158.728C116.259 144.707 126.427 117.441 133.5 105.5C127.144 90.0384 118 86.5 122.602 71.0038C106.006 115.169 91.6673 132.178 63.6341 158.728C87.7997 152.291 101.348 150.428 125.514 158.728Z" fill="currentColor"/>
</svg>
