<svg width="1512" height="639" viewBox="0 0 1512 639" fill="none" xmlns="http://www.w3.org/2000/svg">
<path d="M31.628 111.746C31.628 111.746 33.1093 113.306 34.3666 113.621C35.6239 113.936 37.6655 113.258 37.6655 113.258C37.6655 113.258 36.1055 114.739 35.7908 115.996C35.476 117.254 36.154 119.295 36.154 119.295C36.154 119.295 34.6727 117.735 33.4154 117.42C32.1581 117.106 30.1165 117.784 30.1165 117.784C30.1165 117.784 31.6765 116.302 31.9912 115.045C32.306 113.788 31.628 111.746 31.628 111.746Z" fill="white"/>
<path d="M744.364 406.648C744.364 406.648 745.846 408.208 747.103 408.523C748.36 408.838 750.402 408.16 750.402 408.16C750.402 408.16 748.842 409.641 748.527 410.898C748.212 412.155 748.89 414.197 748.89 414.197C748.89 414.197 747.409 412.637 746.152 412.322C744.894 412.008 742.853 412.686 742.853 412.686C742.853 412.686 744.413 411.204 744.728 409.947C745.042 408.69 744.364 406.648 744.364 406.648Z" fill="white"/>
<path d="M1311.36 427.716C1311.36 427.716 1311.97 428.363 1312.49 428.493C1313.02 428.624 1313.86 428.343 1313.86 428.343C1313.86 428.343 1313.22 428.957 1313.09 429.479C1312.95 430 1313.24 430.847 1313.24 430.847C1313.24 430.847 1312.62 430.2 1312.1 430.069C1311.58 429.939 1310.73 430.22 1310.73 430.22C1310.73 430.22 1311.38 429.605 1311.51 429.084C1311.64 428.562 1311.36 427.716 1311.36 427.716Z" fill="white"/>
<path d="M692.616 586.832C692.616 586.832 693.231 587.479 693.752 587.61C694.274 587.74 695.121 587.459 695.121 587.459C695.121 587.459 694.474 588.074 694.343 588.595C694.213 589.117 694.494 589.964 694.494 589.964C694.494 589.964 693.879 589.317 693.358 589.186C692.836 589.055 691.989 589.337 691.989 589.337C691.989 589.337 692.637 588.722 692.767 588.201C692.898 587.679 692.616 586.832 692.616 586.832Z" fill="white"/>
<path d="M1409.77 76.2629C1409.77 76.2629 1411.26 77.8228 1412.51 78.1376C1413.77 78.4523 1415.81 77.7743 1415.81 77.7743C1415.81 77.7743 1414.25 79.2556 1413.94 80.5129C1413.62 81.7702 1414.3 83.8118 1414.3 83.8118C1414.3 83.8118 1412.82 82.2519 1411.56 81.9371C1410.3 81.6223 1408.26 82.3003 1408.26 82.3003C1408.26 82.3003 1409.82 80.819 1410.14 79.5617C1410.45 78.3045 1409.77 76.2629 1409.77 76.2629Z" fill="white"/>
<path d="M782.127 425.12C782.127 425.12 782.742 425.767 783.263 425.898C783.785 426.028 784.632 425.747 784.632 425.747C784.632 425.747 783.984 426.361 783.854 426.883C783.723 427.404 784.005 428.251 784.005 428.251C784.005 428.251 783.39 427.604 782.869 427.474C782.347 427.343 781.5 427.624 781.5 427.624C781.5 427.624 782.147 427.01 782.278 426.488C782.408 425.967 782.127 425.12 782.127 425.12Z" fill="white"/>
<path d="M1302.57 378.565C1302.57 378.565 1303.18 379.212 1303.7 379.343C1304.23 379.473 1305.07 379.192 1305.07 379.192C1305.07 379.192 1304.42 379.807 1304.29 380.328C1304.16 380.85 1304.44 381.697 1304.44 381.697C1304.44 381.697 1303.83 381.049 1303.31 380.919C1302.79 380.788 1301.94 381.07 1301.94 381.07C1301.94 381.07 1302.59 380.455 1302.72 379.934C1302.85 379.412 1302.57 378.565 1302.57 378.565Z" fill="white"/>
<path d="M200.191 84.8361C200.191 84.8361 201.673 86.396 202.93 86.7108C204.187 87.0256 206.229 86.3476 206.229 86.3476C206.229 86.3476 204.669 87.8289 204.354 89.0862C204.039 90.3434 204.718 92.385 204.718 92.385C204.718 92.385 203.236 90.8251 201.979 90.5103C200.722 90.1956 198.68 90.8736 198.68 90.8736C198.68 90.8736 200.24 89.3923 200.555 88.135C200.869 86.8777 200.191 84.8361 200.191 84.8361Z" fill="white"/>
<path d="M322.709 549.557C322.709 549.557 324.19 551.117 325.448 551.432C326.705 551.747 328.747 551.069 328.747 551.069C328.747 551.069 327.187 552.55 326.872 553.807C326.557 555.065 327.235 557.106 327.235 557.106C327.235 557.106 325.754 555.546 324.496 555.232C323.239 554.917 321.198 555.595 321.198 555.595C321.198 555.595 322.758 554.113 323.072 552.856C323.387 551.599 322.709 549.557 322.709 549.557Z" fill="white"/>
<path d="M408.457 446.105C408.457 446.105 409.072 446.752 409.593 446.882C410.115 447.013 410.962 446.732 410.962 446.732C410.962 446.732 410.315 447.346 410.184 447.868C410.053 448.389 410.335 449.236 410.335 449.236C410.335 449.236 409.72 448.589 409.199 448.458C408.677 448.328 407.83 448.609 407.83 448.609C407.83 448.609 408.477 447.995 408.608 447.473C408.738 446.952 408.457 446.105 408.457 446.105Z" fill="white"/>
<path d="M1041.32 156.42C1041.32 156.42 1041.93 157.067 1042.45 157.197C1042.97 157.328 1043.82 157.047 1043.82 157.047C1043.82 157.047 1043.17 157.661 1043.04 158.183C1042.91 158.704 1043.19 159.551 1043.19 159.551C1043.19 159.551 1042.58 158.904 1042.06 158.773C1041.54 158.643 1040.69 158.924 1040.69 158.924C1040.69 158.924 1041.34 158.31 1041.47 157.788C1041.6 157.267 1041.32 156.42 1041.32 156.42Z" fill="white"/>
<path d="M245.819 30.6209C245.819 30.6209 246.433 31.2679 246.955 31.3985C247.476 31.5291 248.323 31.2478 248.323 31.2478C248.323 31.2478 247.676 31.8623 247.545 32.3838C247.415 32.9053 247.696 33.7522 247.696 33.7522C247.696 33.7522 247.082 33.1051 246.56 32.9745C246.038 32.844 245.192 33.1252 245.192 33.1252C245.192 33.1252 245.839 32.5108 245.969 31.9892C246.1 31.4677 245.819 30.6209 245.819 30.6209Z" fill="white"/>
<path d="M1486.38 561.507C1486.38 561.507 1487.86 563.067 1489.12 563.382C1490.38 563.696 1492.42 563.018 1492.42 563.018C1492.42 563.018 1490.86 564.5 1490.54 565.757C1490.23 567.014 1490.91 569.056 1490.91 569.056C1490.91 569.056 1489.43 567.496 1488.17 567.181C1486.91 566.866 1484.87 567.544 1484.87 567.544C1484.87 567.544 1486.43 566.063 1486.74 564.806C1487.06 563.549 1486.38 561.507 1486.38 561.507Z" fill="white"/>
<path d="M630.891 251.087C630.891 251.087 631.505 251.734 632.027 251.865C632.548 251.995 633.395 251.714 633.395 251.714C633.395 251.714 632.748 252.329 632.618 252.85C632.487 253.372 632.768 254.218 632.768 254.218C632.768 254.218 632.154 253.571 631.632 253.441C631.111 253.31 630.264 253.592 630.264 253.592C630.264 253.592 630.911 252.977 631.042 252.456C631.172 251.934 630.891 251.087 630.891 251.087Z" fill="white"/>
<path d="M1174.29 470.457C1174.29 470.457 1175.85 471.938 1176.16 473.195C1176.48 474.452 1175.8 476.494 1175.8 476.494C1175.8 476.494 1177.28 474.934 1178.54 474.619C1179.8 474.305 1181.84 474.983 1181.84 474.983C1181.84 474.983 1180.28 473.501 1179.96 472.244C1179.65 470.987 1180.33 468.945 1180.33 468.945C1180.33 468.945 1178.84 470.505 1177.59 470.82C1176.33 471.135 1174.29 470.457 1174.29 470.457Z" fill="white"/>
<path d="M442.595 222.558C442.595 222.558 443.243 223.172 443.373 223.694C443.504 224.215 443.222 225.062 443.222 225.062C443.222 225.062 443.837 224.415 444.358 224.285C444.88 224.154 445.727 224.435 445.727 224.435C445.727 224.435 445.08 223.821 444.949 223.299C444.819 222.778 445.1 221.931 445.1 221.931C445.1 221.931 444.485 222.578 443.964 222.709C443.442 222.839 442.595 222.558 442.595 222.558Z" fill="white"/>
<path d="M996.883 87.1594C996.883 87.1594 997.53 87.7739 997.66 88.2954C997.791 88.8169 997.51 89.6637 997.51 89.6637C997.51 89.6637 998.124 89.0167 998.646 88.8861C999.167 88.7556 1000.01 89.0368 1000.01 89.0368C1000.01 89.0368 999.367 88.4223 999.236 87.9008C999.106 87.3793 999.387 86.5324 999.387 86.5324C999.387 86.5324 998.772 87.1795 998.251 87.3101C997.729 87.4406 996.883 87.1594 996.883 87.1594Z" fill="white"/>
<path d="M949.791 273.262C949.791 273.262 948.231 274.743 947.917 276C947.602 277.258 948.28 279.299 948.28 279.299C948.28 279.299 946.799 277.739 945.541 277.425C944.284 277.11 942.242 277.788 942.242 277.788C942.242 277.788 943.802 276.306 944.117 275.049C944.432 273.792 943.754 271.75 943.754 271.75C943.754 271.75 945.235 273.31 946.492 273.625C947.75 273.94 949.791 273.262 949.791 273.262Z" fill="white"/>
<path d="M1058.21 285.656C1058.21 285.656 1056.65 287.138 1056.34 288.395C1056.02 289.652 1056.7 291.694 1056.7 291.694C1056.7 291.694 1055.22 290.134 1053.96 289.819C1052.7 289.504 1050.66 290.182 1050.66 290.182C1050.66 290.182 1052.22 288.701 1052.54 287.444C1052.85 286.186 1052.17 284.145 1052.17 284.145C1052.17 284.145 1053.66 285.705 1054.91 286.02C1056.17 286.334 1058.21 285.656 1058.21 285.656Z" fill="white"/>
<path d="M296.341 482.797C296.341 482.797 294.781 484.278 294.466 485.536C294.152 486.793 294.83 488.834 294.83 488.834C294.83 488.834 293.348 487.274 292.091 486.96C290.834 486.645 288.792 487.323 288.792 487.323C288.792 487.323 290.352 485.842 290.667 484.584C290.982 483.327 290.304 481.285 290.304 481.285C290.304 481.285 291.785 482.845 293.042 483.16C294.3 483.475 296.341 482.797 296.341 482.797Z" fill="white"/>
<path d="M1034.41 397.681C1034.41 397.681 1033.76 398.295 1033.63 398.817C1033.5 399.338 1033.78 400.185 1033.78 400.185C1033.78 400.185 1033.17 399.538 1032.65 399.408C1032.12 399.277 1031.28 399.558 1031.28 399.558C1031.28 399.558 1031.92 398.944 1032.05 398.422C1032.19 397.901 1031.9 397.054 1031.9 397.054C1031.9 397.054 1032.52 397.701 1033.04 397.832C1033.56 397.962 1034.41 397.681 1034.41 397.681Z" fill="white"/>
<path d="M126.13 459.482C126.13 459.482 125.483 460.096 125.352 460.618C125.222 461.139 125.503 461.986 125.503 461.986C125.503 461.986 124.889 461.339 124.367 461.208C123.846 461.078 122.999 461.359 122.999 461.359C122.999 461.359 123.646 460.745 123.776 460.223C123.907 459.702 123.626 458.855 123.626 458.855C123.626 458.855 124.24 459.502 124.762 459.632C125.283 459.763 126.13 459.482 126.13 459.482Z" fill="white"/>
<path d="M1447.18 15.593C1447.18 15.593 1446.53 16.2074 1446.4 16.729C1446.27 17.2505 1446.55 18.0973 1446.55 18.0973C1446.55 18.0973 1445.94 17.4503 1445.41 17.3197C1444.89 17.1892 1444.05 17.4704 1444.05 17.4704C1444.05 17.4704 1444.69 16.8559 1444.82 16.3344C1444.95 15.8129 1444.67 14.966 1444.67 14.966C1444.67 14.966 1445.29 15.6131 1445.81 15.7437C1446.33 15.8742 1447.18 15.593 1447.18 15.593Z" fill="white"/>
</svg>
