<svg width="32" height="32" viewBox="0 0 32 32" fill="none" xmlns="http://www.w3.org/2000/svg">
<path d="M16.0003 2.66663C14.2494 2.66663 12.5156 3.0115 10.8979 3.68157C9.2802 4.35163 7.81035 5.33375 6.57223 6.57187C4.07175 9.07235 2.66699 12.4637 2.66699 16C2.66699 21.8933 6.49366 26.8933 11.787 28.6666C12.4537 28.7733 12.667 28.36 12.667 28V25.7466C8.97366 26.5466 8.18699 23.96 8.18699 23.96C7.57366 22.4133 6.70699 22 6.70699 22C5.49366 21.1733 6.80032 21.2 6.80032 21.2C8.13366 21.2933 8.84033 22.5733 8.84033 22.5733C10.0003 24.6 11.9603 24 12.7203 23.68C12.8403 22.8133 13.187 22.2266 13.5603 21.8933C10.6003 21.56 7.49366 20.4133 7.49366 15.3333C7.49366 13.8533 8.00033 12.6666 8.86699 11.72C8.73366 11.3866 8.26699 9.99996 9.00033 8.19996C9.00033 8.19996 10.1203 7.83996 12.667 9.55996C13.7203 9.26663 14.867 9.11996 16.0003 9.11996C17.1337 9.11996 18.2803 9.26663 19.3337 9.55996C21.8803 7.83996 23.0003 8.19996 23.0003 8.19996C23.7337 9.99996 23.267 11.3866 23.1337 11.72C24.0003 12.6666 24.507 13.8533 24.507 15.3333C24.507 20.4266 21.387 21.5466 18.4137 21.88C18.8937 22.2933 19.3337 23.1066 19.3337 24.3466V28C19.3337 28.36 19.547 28.7866 20.227 28.6666C25.5203 26.88 29.3337 21.8933 29.3337 16C29.3337 14.249 28.9888 12.5152 28.3187 10.8975C27.6487 9.27984 26.6665 7.80998 25.4284 6.57187C24.1903 5.33375 22.7204 4.35163 21.1028 3.68157C19.4851 3.0115 17.7513 2.66663 16.0003 2.66663Z" fill="white"/>
</svg>
