<svg width="21" height="20" viewBox="0 0 21 20" fill="none" xmlns="http://www.w3.org/2000/svg">
<path d="M16.5003 2.5C16.9424 2.5 17.3663 2.67559 17.6788 2.98816C17.9914 3.30072 18.167 3.72464 18.167 4.16667V15.8333C18.167 16.2754 17.9914 16.6993 17.6788 17.0118C17.3663 17.3244 16.9424 17.5 16.5003 17.5H4.83366C4.39163 17.5 3.96771 17.3244 3.65515 17.0118C3.34259 16.6993 3.16699 16.2754 3.16699 15.8333V4.16667C3.16699 3.72464 3.34259 3.30072 3.65515 2.98816C3.96771 2.67559 4.39163 2.5 4.83366 2.5H16.5003ZM16.0837 15.4167V11C16.0837 10.2795 15.7974 9.5885 15.288 9.07903C14.7785 8.56955 14.0875 8.28333 13.367 8.28333C12.6587 8.28333 11.8337 8.71667 11.4337 9.36667V8.44167H9.10866V15.4167H11.4337V11.3083C11.4337 10.6667 11.9503 10.1417 12.592 10.1417C12.9014 10.1417 13.1982 10.2646 13.417 10.4834C13.6357 10.7022 13.7587 10.9989 13.7587 11.3083V15.4167H16.0837ZM6.40033 7.13333C6.77163 7.13333 7.12772 6.98583 7.39028 6.72328C7.65283 6.46073 7.80033 6.10464 7.80033 5.73333C7.80033 4.95833 7.17533 4.325 6.40033 4.325C6.02681 4.325 5.6686 4.47338 5.40448 4.73749C5.14037 5.0016 4.99199 5.35982 4.99199 5.73333C4.99199 6.50833 5.62533 7.13333 6.40033 7.13333ZM7.55866 15.4167V8.44167H5.25033V15.4167H7.55866Z" fill="currentColor"/>
</svg>
