<svg width="32" height="32" viewBox="0 0 32 32" fill="none" xmlns="http://www.w3.org/2000/svg">
<path d="M6.37497 13.9002L9.75854 15.8219L13.3715 13.7872C14.3464 13.2219 14.6905 11.9785 14.117 11.0176C13.5435 10.0567 12.2819 9.7176 11.307 10.2828L5.4574 13.5611C5.80149 13.6176 6.08823 13.7306 6.37497 13.9002Z" fill="white"/>
<path d="M25.5295 18.4217L22.1459 16.5L18.533 18.5348C17.558 19.1 17.214 20.3435 17.7874 21.3043C18.1889 21.9826 18.8771 22.3217 19.5652 22.3217C19.9093 22.3217 20.2534 22.2087 20.5975 22.0391L26.4471 18.7043C26.1603 18.7043 25.8162 18.5913 25.5295 18.4217Z" fill="white"/>
<path d="M27.8808 14.4087L20.5975 10.2826C20.2534 10.113 19.9093 10 19.5652 10C18.8771 10 18.1315 10.3391 17.7874 11.0174C17.214 11.9783 17.558 13.2217 18.533 13.787L25.8162 17.9131C26.1603 18.0826 26.5044 18.1957 26.8485 18.1957C27.5367 18.1957 28.2822 17.8565 28.6263 17.1783C29.2572 16.2174 28.9131 14.9174 27.8808 14.4087Z" fill="white"/>
<path d="M13.3716 18.5349L6.08836 14.4088C5.74427 14.2393 5.40018 14.1262 5.05609 14.1262C4.36791 14.1262 3.62238 14.4653 3.27828 15.1436C2.7048 16.1045 3.04889 17.348 4.02382 17.9132L11.3071 22.0393C11.6512 22.2088 11.9953 22.3219 12.3394 22.3219C13.0275 22.3219 13.7731 21.9828 14.1172 21.3045C14.6906 20.3436 14.3466 19.1001 13.3716 18.5349Z" fill="white"/>
</svg>
