<svg width="220" height="27" viewBox="0 0 220 27" fill="none" xmlns="http://www.w3.org/2000/svg">
<g clip-path="url(#clip0_681_6302)">
<path d="M10.6893 9.35426L3.40599 5.22817C3.0619 5.0586 2.71781 4.94556 2.37372 4.94556C1.68553 4.94556 0.940003 5.28468 0.595911 5.96294C0.022425 6.92383 0.366516 8.16731 1.34144 8.73252L8.62471 12.8586C8.9688 13.0282 9.31289 13.1412 9.65699 13.1412C10.3452 13.1412 11.0907 12.8021 11.4348 12.1238C12.0083 11.163 11.6642 9.91948 10.6893 9.35426Z" fill="white"/>
<path d="M25.1984 5.22803L17.9151 1.10194C17.5711 0.932379 17.227 0.819336 16.8829 0.819336C16.1947 0.819336 15.4492 1.15847 15.1051 1.83673C14.5316 2.7976 14.8757 4.04108 15.8506 4.60629L23.1339 8.73239C23.478 8.90195 23.822 9.015 24.1661 9.015C24.8543 9.015 25.5999 8.67587 25.9439 7.9976C26.5748 7.03673 26.2307 5.73673 25.1984 5.22803Z" fill="white"/>
<path d="M22.8471 9.24108L19.4636 7.31934L15.8506 9.35412C14.8757 9.91934 14.5316 11.1628 15.1051 12.1237C15.5065 12.8019 16.1947 13.1411 16.8829 13.1411C17.227 13.1411 17.5711 13.028 17.9151 12.8585L23.7647 9.52368C23.478 9.52368 23.1339 9.41064 22.8471 9.24108Z" fill="white"/>
<path d="M3.6926 4.71954L7.07617 6.64128L10.6891 4.6065C11.6641 4.04128 12.0081 2.79781 11.4347 1.83694C10.8612 0.876066 9.5995 0.536935 8.62458 1.10215L2.77502 4.38041C3.11912 4.43694 3.40586 4.54998 3.6926 4.71954Z" fill="white"/>
<path d="M34.489 10.9933C33.7434 10.5976 33.1699 9.97595 32.7112 9.24116C32.2524 8.50638 32.0803 7.65856 32.0803 6.75415C32.0803 5.84983 32.3097 5.05853 32.7112 4.26722C33.1699 3.53244 33.7434 2.96722 34.489 2.51505C35.2345 2.1194 36.0374 1.89331 36.9549 1.89331C37.6431 1.89331 38.274 2.00635 38.9048 2.23244C39.5356 2.45853 39.9944 2.79766 40.3959 3.24983L39.593 4.04114C39.3062 3.70201 38.9048 3.4194 38.446 3.19331C37.9872 3.02375 37.4711 2.9107 36.9549 2.9107C36.3241 2.9107 35.6933 3.08027 35.1198 3.36288C34.5463 3.70201 34.0875 4.09766 33.7434 4.7194C33.3993 5.28461 33.2273 5.96288 33.2273 6.69769C33.2273 7.43247 33.3993 8.11073 33.7434 8.67595C34.0875 9.24116 34.5463 9.69328 35.1198 10.0324C35.6933 10.3715 36.3241 10.4846 36.9549 10.4846C37.5858 10.4846 38.1019 10.3716 38.5607 10.202C38.9621 10.0325 39.3636 9.74986 39.6503 9.41073C39.8797 9.18464 40.0518 8.90203 40.2238 8.50638C40.3385 8.16725 40.4532 7.77154 40.4532 7.37595H36.9549V6.35856H41.4855C41.5428 6.58464 41.5428 6.81073 41.5428 7.03676C41.5428 7.60198 41.4281 8.16725 41.2561 8.67595C41.084 9.24116 40.7973 9.69334 40.3959 10.089C39.5356 10.9933 38.3313 11.502 36.9549 11.502C36.0374 11.6151 35.2345 11.4455 34.489 10.9933Z" fill="white"/>
<path d="M44.0087 11.1629C43.4926 10.8803 43.0911 10.4282 42.8044 9.91951C42.5176 9.41081 42.403 8.78902 42.403 8.16728C42.403 7.54554 42.5176 6.92386 42.8044 6.41516C43.0911 5.90644 43.4926 5.45426 44.0087 5.17166C44.5248 4.88905 45.0983 4.71948 45.7292 4.71948C46.36 4.71948 46.9335 4.88905 47.4496 5.17166C47.9658 5.45426 48.3672 5.90644 48.6539 6.41516C48.9407 6.92386 49.0554 7.54554 49.0554 8.16728C49.0554 8.78902 48.9407 9.41081 48.6539 9.91951C48.3672 10.4282 47.9658 10.8803 47.4496 11.1629C46.9335 11.4455 46.36 11.6152 45.7292 11.6152C45.0983 11.6152 44.5248 11.5021 44.0087 11.1629ZM46.8188 10.3151C47.1629 10.089 47.4496 9.80641 47.6217 9.46728C47.8511 9.12815 47.9084 8.67598 47.9084 8.16728C47.9084 7.65858 47.7937 7.26299 47.6217 6.86734C47.3923 6.52821 47.1629 6.18905 46.8188 6.01948C46.4747 5.7934 46.1306 5.73687 45.7292 5.73687C45.3277 5.73687 44.9836 5.84992 44.6395 6.01948C44.2955 6.24557 44.0087 6.52821 43.8367 6.86734C43.6073 7.26299 43.5499 7.65858 43.5499 8.16728C43.5499 8.67598 43.6646 9.07163 43.8367 9.46728C44.0661 9.86293 44.2955 10.1455 44.6395 10.3151C44.9836 10.5412 45.3277 10.5977 45.7292 10.5977C46.1306 10.6542 46.532 10.5412 46.8188 10.3151Z" fill="white"/>
<path d="M51.464 11.1629C50.9479 10.8803 50.5465 10.4282 50.2597 9.91951C49.973 9.41081 49.8583 8.78902 49.8583 8.16728C49.8583 7.54554 49.973 6.92386 50.2597 6.41516C50.5465 5.90644 50.9479 5.45426 51.464 5.17166C51.9802 4.88905 52.5537 4.71948 53.1845 4.71948C53.8153 4.71948 54.3888 4.88905 54.905 5.17166C55.4211 5.45426 55.8225 5.90644 56.1093 6.41516C56.396 6.92386 56.5107 7.54554 56.5107 8.16728C56.5107 8.78902 56.396 9.41081 56.1093 9.91951C55.8225 10.4282 55.4211 10.8803 54.905 11.1629C54.3888 11.4455 53.8153 11.6152 53.1845 11.6152C52.5537 11.6152 51.9802 11.5021 51.464 11.1629ZM54.3315 10.3151C54.6756 10.089 54.9623 9.80641 55.1343 9.46728C55.3637 9.12815 55.4211 8.67598 55.4211 8.16728C55.4211 7.65858 55.3064 7.26299 55.1343 6.86734C54.905 6.52821 54.6756 6.18905 54.3315 6.01948C53.9874 5.7934 53.6433 5.73687 53.2418 5.73687C52.8404 5.73687 52.4963 5.84992 52.1522 6.01948C51.8081 6.24557 51.5214 6.52821 51.3493 6.86734C51.1199 7.26299 51.0626 7.65858 51.0626 8.16728C51.0626 8.67598 51.1773 9.07163 51.3493 9.46728C51.5787 9.86293 51.8081 10.1455 52.1522 10.3151C52.4963 10.5412 52.8404 10.5977 53.2418 10.5977C53.5859 10.6542 53.9874 10.5412 54.3315 10.3151Z" fill="white"/>
<path d="M58.6327 13.8759C58.1165 13.4802 57.7724 13.0846 57.6003 12.5759L58.6327 12.1237C58.7474 12.5194 58.9768 12.802 59.3209 13.0281C59.6649 13.2542 60.0664 13.3672 60.5252 13.3672C61.2134 13.3672 61.7295 13.1411 62.1309 12.7455C62.5324 12.3498 62.7044 11.7846 62.7044 11.1063V10.4281H62.6471C62.4177 10.7672 62.1309 11.0498 61.7295 11.2194C61.3281 11.4455 60.8693 11.5585 60.4105 11.5585C59.837 11.5585 59.3209 11.3889 58.8621 11.1063C58.4033 10.8237 58.0018 10.4281 57.7151 9.86285C57.4283 9.35416 57.3136 8.73242 57.3136 8.11068C57.3136 7.43242 57.4283 6.8672 57.7151 6.35851C58.0018 5.8498 58.3459 5.45414 58.8621 5.11501C59.3209 4.8324 59.837 4.66284 60.4105 4.66284C60.9266 4.66284 61.3854 4.77589 61.7295 5.00197C62.1309 5.22806 62.4177 5.51067 62.6471 5.79328H62.7044V4.8324H63.794V10.9933C63.794 11.7281 63.6793 12.2933 63.3926 12.802C63.1059 13.3107 62.7044 13.6498 62.2456 13.8759C61.7868 14.102 61.2134 14.215 60.5825 14.215C59.7796 14.4411 59.0915 14.2715 58.6327 13.8759ZM61.6148 10.315C61.9589 10.1455 62.1883 9.86285 62.4177 9.4672C62.5897 9.12807 62.7044 8.6759 62.7044 8.1672C62.7044 7.65851 62.5897 7.26285 62.4177 6.8672C62.2456 6.47155 61.9589 6.24545 61.6148 6.01936C61.2707 5.8498 60.9266 5.73675 60.5252 5.73675C60.1237 5.73675 59.7796 5.8498 59.4356 6.01936C59.0915 6.18893 58.8621 6.47155 58.6327 6.8672C58.4606 7.20633 58.3459 7.65851 58.3459 8.1672C58.3459 8.6759 58.4606 9.07155 58.6327 9.4672C58.8047 9.80633 59.0915 10.0889 59.4356 10.315C59.7796 10.4846 60.1237 10.5976 60.5252 10.5976C60.984 10.6542 61.3281 10.5411 61.6148 10.315Z" fill="white"/>
<path d="M65.2852 2.11938H66.3748V11.389H65.2852V2.11938Z" fill="white"/>
<path d="M69.0701 11.1631C68.554 10.8805 68.2099 10.4848 67.9232 9.91961C67.6364 9.41091 67.5217 8.78917 67.5217 8.16743C67.5217 7.54569 67.6364 6.98048 67.9232 6.47178C68.2099 5.96308 68.554 5.51091 69.0701 5.2283C69.5289 4.94569 70.1024 4.77612 70.7333 4.77612C71.3641 4.77612 71.9376 4.88917 72.3964 5.17178C72.8552 5.45438 73.2566 5.85004 73.486 6.35874C73.7154 6.86743 73.8874 7.43265 73.8874 8.11091C73.8874 8.22395 73.8874 8.337 73.8874 8.39352H68.7261C68.7261 8.90222 68.8407 9.29787 69.0701 9.637C69.2995 9.97613 69.5863 10.2022 69.873 10.3718C70.2171 10.5413 70.5612 10.5979 70.9053 10.5979C71.7082 10.5979 72.339 10.2022 72.7978 9.41091L73.7727 9.86309C73.486 10.3718 73.0845 10.824 72.6258 11.1066C72.1096 11.4457 71.5361 11.5587 70.848 11.5587C70.1024 11.6153 69.5289 11.5022 69.0701 11.1631ZM72.6258 7.48917C72.6258 7.20656 72.5111 6.98048 72.3964 6.69787C72.2817 6.41526 72.0523 6.24569 71.7655 6.0196C71.4788 5.85004 71.0773 5.73699 70.6186 5.73699C70.1024 5.73699 69.701 5.90656 69.3569 6.18917C69.0128 6.5283 68.7834 6.92395 68.6687 7.43265H72.6258V7.48917Z" fill="white"/>
<path d="M78.0739 2.11938H80.9413C81.9162 2.11938 82.7191 2.28895 83.4646 2.6846C84.2101 3.08025 84.7263 3.64547 85.1277 4.32373C85.5292 5.00199 85.7012 5.84981 85.7012 6.75418C85.7012 7.65853 85.5292 8.44983 85.1277 9.18461C84.7263 9.86287 84.2101 10.4281 83.4646 10.8237C82.7191 11.2194 81.9162 11.389 80.9413 11.389H78.0739V2.11938ZM80.9413 10.3716C82.0309 10.3716 82.9485 10.0324 83.5793 9.4107C84.2101 8.78896 84.5542 7.88461 84.5542 6.75418C84.5542 5.62373 84.2101 4.71938 83.5793 4.09765C82.9485 3.47591 82.0309 3.13677 80.9413 3.13677H79.2208V10.315H80.9413V10.3716Z" fill="white"/>
<path d="M88.2246 11.1631C87.7084 10.8805 87.3643 10.4848 87.0776 9.91961C86.7908 9.41091 86.6761 8.78917 86.6761 8.16743C86.6761 7.54569 86.7908 6.98048 87.0776 6.47178C87.3643 5.96308 87.7084 5.51091 88.2246 5.2283C88.6833 4.94569 89.2568 4.77612 89.8877 4.77612C90.5185 4.77612 91.092 4.88917 91.5508 5.17178C92.0096 5.45438 92.411 5.85004 92.6404 6.35874C92.8698 6.86743 93.0418 7.43265 93.0418 8.11091C93.0418 8.22395 93.0418 8.337 93.0418 8.39352H87.8805C87.8805 8.90222 87.9952 9.29787 88.2246 9.637C88.4539 9.97613 88.7407 10.2022 89.0274 10.3718C89.3715 10.5413 89.7156 10.5979 90.0597 10.5979C90.8626 10.5979 91.4934 10.2022 91.9522 9.41091L92.9271 9.86309C92.6404 10.3718 92.2389 10.824 91.7802 11.1066C91.3214 11.3892 90.6905 11.5587 90.0024 11.5587C89.3142 11.6153 88.7407 11.5022 88.2246 11.1631ZM91.7802 7.48917C91.7802 7.20656 91.6655 6.98048 91.5508 6.69787C91.4361 6.41526 91.2067 6.24569 90.9199 6.0196C90.6332 5.85004 90.2318 5.73699 89.773 5.73699C89.2568 5.73699 88.8554 5.90656 88.5113 6.18917C88.1672 6.5283 87.9378 6.92395 87.8231 7.43265H91.7802V7.48917Z" fill="white"/>
<path d="M93.2712 5.00195H94.4756L96.4828 10.1454L98.49 5.00195H99.6943L96.9989 11.4454H95.8519L93.2712 5.00195Z" fill="white"/>
<path d="M101.759 11.1631C101.243 10.8805 100.899 10.4848 100.612 9.91961C100.325 9.41091 100.21 8.78917 100.21 8.16743C100.21 7.54569 100.325 6.98048 100.612 6.47178C100.899 5.96308 101.243 5.51091 101.759 5.2283C102.218 4.94569 102.791 4.77612 103.422 4.77612C104.053 4.77612 104.626 4.88917 105.085 5.17178C105.544 5.45438 105.945 5.85004 106.175 6.35874C106.404 6.86743 106.576 7.43265 106.576 8.11091C106.576 8.22395 106.576 8.337 106.576 8.39352H101.415C101.415 8.90222 101.529 9.29787 101.759 9.637C101.988 9.97613 102.275 10.2022 102.562 10.3718C102.906 10.5413 103.25 10.5979 103.594 10.5979C104.397 10.5979 105.028 10.2022 105.486 9.41091L106.461 9.86309C106.175 10.3718 105.773 10.824 105.314 11.1066C104.798 11.4457 104.225 11.5587 103.537 11.5587C102.791 11.6153 102.218 11.5022 101.759 11.1631ZM105.314 7.48917C105.314 7.20656 105.2 6.98048 105.085 6.69787C104.97 6.41526 104.741 6.24569 104.454 6.0196C104.167 5.85004 103.766 5.73699 103.307 5.73699C102.791 5.73699 102.39 5.90656 102.045 6.18917C101.701 6.5283 101.472 6.92395 101.357 7.43265H105.314V7.48917Z" fill="white"/>
<path d="M107.608 2.11938H108.755V11.389H107.608V2.11938Z" fill="white"/>
<path d="M111.451 11.1629C110.935 10.8803 110.533 10.4282 110.246 9.91951C109.96 9.41081 109.845 8.78902 109.845 8.16728C109.845 7.54554 109.96 6.92386 110.246 6.41516C110.533 5.90644 110.935 5.45426 111.451 5.17166C111.967 4.88905 112.54 4.71948 113.171 4.71948C113.802 4.71948 114.376 4.88905 114.892 5.17166C115.408 5.45426 115.809 5.90644 116.096 6.41516C116.383 6.92386 116.497 7.54554 116.497 8.16728C116.497 8.78902 116.383 9.41081 116.096 9.91951C115.809 10.4282 115.408 10.8803 114.892 11.1629C114.376 11.4455 113.802 11.6152 113.171 11.6152C112.54 11.6152 111.91 11.5021 111.451 11.1629ZM114.261 10.3151C114.605 10.089 114.892 9.80641 115.064 9.46728C115.293 9.12815 115.35 8.67598 115.35 8.16728C115.35 7.65858 115.236 7.26299 115.064 6.86734C114.834 6.52821 114.605 6.18905 114.261 6.01948C113.917 5.7934 113.573 5.73687 113.171 5.73687C112.77 5.73687 112.426 5.84992 112.082 6.01948C111.737 6.24557 111.451 6.52821 111.279 6.86734C111.049 7.26299 110.992 7.65858 110.992 8.16728C110.992 8.67598 111.107 9.07163 111.279 9.46728C111.508 9.86293 111.737 10.1455 112.082 10.3151C112.426 10.5412 112.77 10.5977 113.171 10.5977C113.573 10.6542 113.917 10.5412 114.261 10.3151Z" fill="white"/>
<path d="M117.53 5.00221H118.619V5.96308H118.677C118.906 5.62395 119.193 5.34134 119.594 5.11525C119.996 4.88917 120.454 4.77612 120.971 4.77612C121.544 4.77612 122.06 4.94569 122.519 5.2283C122.978 5.51091 123.379 5.90656 123.666 6.47178C123.953 6.98048 124.067 7.54569 124.067 8.22395C124.067 8.84569 123.953 9.46743 123.666 9.97613C123.379 10.4848 123.035 10.8805 122.519 11.2196C122.06 11.5022 121.544 11.6718 120.971 11.6718C120.454 11.6718 119.996 11.5587 119.594 11.3327C119.193 11.1066 118.906 10.824 118.677 10.4848H118.619L118.677 11.3892V14.2153H117.587V5.00221H117.53ZM121.831 10.3153C122.175 10.0892 122.404 9.80656 122.634 9.46743C122.806 9.1283 122.92 8.67613 122.92 8.16743C122.92 7.65874 122.806 7.26309 122.634 6.86743C122.462 6.5283 122.175 6.18917 121.831 6.0196C121.487 5.79351 121.143 5.73699 120.741 5.73699C120.34 5.73699 119.996 5.85004 119.652 6.0196C119.307 6.18917 119.078 6.47178 118.849 6.86743C118.677 7.20656 118.562 7.65874 118.562 8.16743C118.562 8.67613 118.677 9.07178 118.849 9.46743C119.021 9.86309 119.307 10.1457 119.652 10.3153C119.996 10.4848 120.34 10.5979 120.741 10.5979C121.143 10.5979 121.487 10.5413 121.831 10.3153Z" fill="white"/>
<path d="M126.648 11.1631C126.132 10.8805 125.788 10.4848 125.501 9.91961C125.214 9.41091 125.1 8.78917 125.1 8.16743C125.1 7.54569 125.214 6.98048 125.501 6.47178C125.788 5.96308 126.132 5.51091 126.648 5.2283C127.107 4.94569 127.68 4.77612 128.311 4.77612C128.942 4.77612 129.516 4.88917 129.974 5.17178C130.433 5.45438 130.835 5.85004 131.064 6.35874C131.293 6.86743 131.465 7.43265 131.465 8.11091C131.465 8.22395 131.465 8.337 131.465 8.39352H126.304C126.304 8.90222 126.419 9.29787 126.648 9.637C126.878 9.97613 127.164 10.2022 127.451 10.3718C127.795 10.5413 128.139 10.5979 128.483 10.5979C129.286 10.5979 129.917 10.2022 130.376 9.41091L131.351 9.86309C131.064 10.3718 130.663 10.824 130.204 11.1066C129.688 11.4457 129.114 11.5587 128.426 11.5587C127.68 11.6153 127.107 11.5022 126.648 11.1631ZM130.204 7.48917C130.204 7.20656 130.089 6.98048 129.974 6.69787C129.86 6.41526 129.63 6.24569 129.344 6.0196C129.057 5.85004 128.655 5.73699 128.197 5.73699C127.68 5.73699 127.279 5.90656 126.935 6.18917C126.591 6.5283 126.361 6.92395 126.247 7.43265H130.204V7.48917Z" fill="white"/>
<path d="M132.498 5.00208H133.587V6.076H133.645C133.759 5.73687 134.046 5.39774 134.39 5.17165C134.792 4.94556 135.136 4.83252 135.537 4.83252C135.824 4.83252 136.053 4.88904 136.283 4.94556V6.13252C136.053 6.01948 135.767 5.96295 135.365 5.96295C135.078 5.96295 134.792 6.076 134.505 6.24556C134.218 6.41515 134.046 6.64124 133.874 6.98037C133.702 7.26298 133.645 7.60211 133.645 7.94124V11.5021H132.498V5.00208Z" fill="white"/>
<path d="M141.157 11.3326C140.698 11.163 140.297 10.8804 140.01 10.4848C139.666 10.0891 139.437 9.63692 139.265 9.12823L140.354 8.67606C140.526 9.24127 140.756 9.69345 141.157 10.0326C141.559 10.3717 142.018 10.5413 142.591 10.5413C143.164 10.5413 143.623 10.3717 143.967 10.0891C144.369 9.80649 144.541 9.41084 144.541 8.90214C144.541 8.44997 144.369 8.11084 144.082 7.82823C143.738 7.54562 143.222 7.26301 142.534 7.03693L141.96 6.81084C141.272 6.58475 140.756 6.2456 140.354 5.90647C139.953 5.51082 139.724 5.00213 139.724 4.32387C139.724 3.8717 139.838 3.47604 140.068 3.08039C140.297 2.68473 140.641 2.40213 141.1 2.17604C141.559 1.94996 142.018 1.83691 142.591 1.83691C143.107 1.83691 143.623 1.94996 144.025 2.11952C144.426 2.34561 144.77 2.57169 145 2.8543C145.229 3.13691 145.401 3.41952 145.516 3.70213L144.483 4.1543C144.369 3.81517 144.197 3.53257 143.853 3.30648C143.566 3.02387 143.164 2.91083 142.648 2.91083C142.19 2.91083 141.731 3.02387 141.387 3.30648C141.043 3.58909 140.871 3.92822 140.871 4.32387C140.871 4.663 141.043 5.00213 141.329 5.22822C141.616 5.45431 142.075 5.68039 142.648 5.84996L143.279 6.07604C144.082 6.35866 144.713 6.69779 145.172 7.14997C145.63 7.60214 145.86 8.16736 145.86 8.90214C145.86 9.52388 145.688 9.97605 145.401 10.4282C145.114 10.8239 144.713 11.1065 144.197 11.3326C143.738 11.5021 143.222 11.6152 142.706 11.6152C142.075 11.6152 141.616 11.5587 141.157 11.3326Z" fill="white"/>
<path d="M148.383 11.5021C148.154 11.389 147.982 11.276 147.81 11.1629C147.638 10.9934 147.523 10.8238 147.408 10.5977C147.351 10.3716 147.294 10.089 147.294 9.80642V6.01945H146.147V5.00206H147.294V3.08032H148.383V5.00206H149.989V6.01945H148.383V9.52381C148.383 9.91946 148.441 10.1455 148.613 10.3716C148.785 10.5412 149.014 10.6542 149.301 10.6542C149.588 10.6542 149.817 10.5977 149.989 10.4847V11.5586C149.874 11.6151 149.702 11.6716 149.588 11.6716C149.473 11.6716 149.301 11.7282 149.071 11.7282C148.842 11.6151 148.613 11.5586 148.383 11.5021Z" fill="white"/>
<path d="M151.767 10.937C151.365 10.4848 151.136 9.86307 151.136 9.01525V4.94568H152.226V8.78916C152.226 9.97612 152.742 10.5413 153.831 10.5413C154.175 10.5413 154.52 10.4283 154.806 10.2587C155.093 10.0326 155.322 9.80655 155.437 9.46742C155.552 9.12829 155.666 8.78916 155.666 8.45003V4.88916H156.756V11.3326H155.724V10.3718C155.552 10.7109 155.265 10.9935 154.864 11.2196C154.462 11.4457 154.061 11.5587 153.602 11.5587C152.799 11.6152 152.168 11.3892 151.767 10.937Z" fill="white"/>
<path d="M159.451 11.163C158.993 10.8804 158.591 10.4847 158.305 9.91951C158.018 9.41081 157.903 8.78908 157.903 8.16734C157.903 7.5456 158.018 6.92386 158.305 6.41516C158.591 5.90647 158.935 5.51081 159.451 5.17168C159.91 4.88908 160.426 4.71951 161 4.71951C161.516 4.71951 161.975 4.83255 162.376 5.05864C162.778 5.28473 163.064 5.56734 163.294 5.90647H163.351L163.294 5.00212V2.06299H164.383V11.3326H163.351V10.3717H163.294C163.064 10.7108 162.778 10.9934 162.376 11.2195C161.975 11.4456 161.516 11.5586 161 11.5586C160.426 11.6152 159.91 11.5021 159.451 11.163ZM162.262 10.3152C162.606 10.1456 162.835 9.86299 163.064 9.46734C163.236 9.07168 163.351 8.67603 163.351 8.16734C163.351 7.65864 163.236 7.26299 163.064 6.86734C162.892 6.47168 162.606 6.2456 162.262 6.01951C161.917 5.84995 161.573 5.7369 161.172 5.7369C160.771 5.7369 160.426 5.84995 160.082 6.01951C159.738 6.2456 159.509 6.52821 159.279 6.86734C159.107 7.26299 158.993 7.65864 158.993 8.16734C158.993 8.67603 159.107 9.07168 159.279 9.46734C159.451 9.86299 159.738 10.1456 160.082 10.3152C160.426 10.5413 160.771 10.5978 161.172 10.5978C161.573 10.6543 161.917 10.5413 162.262 10.3152Z" fill="white"/>
<path d="M167.079 11.1631C166.563 10.8805 166.219 10.4848 165.932 9.91961C165.645 9.41091 165.53 8.78917 165.53 8.16743C165.53 7.54569 165.645 6.98048 165.932 6.47178C166.219 5.96308 166.563 5.51091 167.079 5.2283C167.538 4.94569 168.111 4.77612 168.742 4.77612C169.373 4.77612 169.946 4.88917 170.405 5.17178C170.864 5.45438 171.265 5.85004 171.495 6.35874C171.724 6.86743 171.896 7.43265 171.896 8.11091C171.896 8.22395 171.896 8.337 171.896 8.39352H166.735C166.735 8.90222 166.849 9.29787 167.079 9.637C167.308 9.97613 167.595 10.2022 167.882 10.3718C168.226 10.5413 168.57 10.5979 168.914 10.5979C169.717 10.5979 170.348 10.2022 170.806 9.41091L171.781 9.86309C171.495 10.3718 171.093 10.824 170.634 11.1066C170.118 11.4457 169.545 11.5587 168.857 11.5587C168.111 11.6153 167.538 11.5022 167.079 11.1631ZM170.634 7.48917C170.634 7.20656 170.52 6.98048 170.405 6.69787C170.29 6.41526 170.061 6.24569 169.774 6.0196C169.487 5.85004 169.086 5.73699 168.627 5.73699C168.111 5.73699 167.71 5.90656 167.366 6.18917C167.021 6.5283 166.792 6.92395 166.677 7.43265H170.634V7.48917Z" fill="white"/>
<path d="M172.928 5.00221H174.018V5.96308H174.075C174.247 5.62395 174.534 5.34134 174.936 5.11525C175.337 4.88917 175.738 4.77612 176.197 4.77612C177 4.77612 177.574 5.00221 178.032 5.45438C178.434 5.90656 178.663 6.5283 178.663 7.31961V11.3892H177.516V7.48917C177.516 6.35874 176.943 5.73699 175.853 5.73699C175.509 5.73699 175.165 5.85004 174.878 6.0196C174.591 6.24569 174.362 6.47178 174.247 6.81091C174.075 7.15004 174.018 7.48917 174.018 7.8283V11.3892H172.871V5.00221H172.928Z" fill="white"/>
<path d="M181.531 11.5021C181.301 11.389 181.129 11.276 180.957 11.1629C180.785 10.9934 180.67 10.8238 180.556 10.5977C180.498 10.3716 180.441 10.089 180.441 9.80642V6.01945H179.294V5.00206H180.441V3.08032H181.531V5.00206H183.136V6.01945H181.531V9.52381C181.531 9.91946 181.588 10.1455 181.76 10.3716C181.932 10.5412 182.161 10.6542 182.448 10.6542C182.735 10.6542 182.964 10.5977 183.136 10.4847V11.5586C183.022 11.6151 182.85 11.6716 182.735 11.6716C182.62 11.6716 182.448 11.7282 182.219 11.7282C182.047 11.6151 181.76 11.5586 181.531 11.5021Z" fill="white"/>
<path d="M189.158 10.9933C188.412 10.5976 187.839 9.97595 187.38 9.24116C186.979 8.50638 186.749 7.65855 186.749 6.75415C186.749 5.84983 186.979 5.05853 187.38 4.26722C187.782 3.53244 188.412 2.96722 189.158 2.51505C189.904 2.1194 190.706 1.89331 191.624 1.89331C192.312 1.89331 193 2.00635 193.574 2.28896C194.147 2.57157 194.663 2.9107 195.065 3.4194L194.262 4.2107C193.918 3.81505 193.517 3.47592 193.058 3.24983C192.599 3.02374 192.14 2.96722 191.567 2.96722C190.878 2.96722 190.248 3.13679 189.674 3.4194C189.101 3.75853 188.642 4.15418 188.298 4.77592C187.954 5.34114 187.782 6.0194 187.782 6.75415C187.782 7.48893 187.954 8.16719 188.298 8.73241C188.642 9.29763 189.101 9.74986 189.674 10.089C190.248 10.4281 190.878 10.5412 191.567 10.5412C192.714 10.5412 193.689 10.089 194.491 9.12812L195.294 9.91942C194.893 10.4281 194.319 10.8238 193.689 11.1064C193.058 11.389 192.37 11.5585 191.567 11.5585C190.706 11.6151 189.904 11.4455 189.158 10.9933Z" fill="white"/>
<path d="M196.441 2.11938H197.531V11.389H196.441V2.11938Z" fill="white"/>
<path d="M199.653 10.937C199.251 10.4848 199.022 9.86307 199.022 9.01525V4.94568H200.112V8.78916C200.112 9.97612 200.628 10.5413 201.717 10.5413C202.061 10.5413 202.406 10.4283 202.692 10.2587C202.979 10.0326 203.208 9.80655 203.323 9.46742C203.495 9.12829 203.553 8.78916 203.553 8.45003V4.88916H204.642V11.3326H203.61V10.3718H203.553C203.38 10.7109 203.094 10.9935 202.692 11.2196C202.291 11.4457 201.889 11.5587 201.431 11.5587C200.685 11.6152 200.054 11.3892 199.653 10.937Z" fill="white"/>
<path d="M208.255 11.2759C207.854 11.0498 207.567 10.7672 207.338 10.4281H207.28V11.389H206.191V2.11938H207.28V5.05851L207.223 5.96286H207.28C207.51 5.62373 207.796 5.34112 208.198 5.11503C208.599 4.88894 209.058 4.7759 209.574 4.7759C210.148 4.7759 210.664 4.94547 211.123 5.22808C211.581 5.51069 211.983 5.90634 212.27 6.47157C212.556 6.98027 212.671 7.54548 212.671 8.22374C212.671 8.84548 212.556 9.46722 212.27 9.97592C211.983 10.4846 211.639 10.8803 211.123 11.2194C210.664 11.502 210.148 11.6716 209.574 11.6716C209.115 11.615 208.657 11.502 208.255 11.2759ZM210.492 10.315C210.836 10.089 211.065 9.80635 211.295 9.46722C211.467 9.12809 211.581 8.67592 211.581 8.16722C211.581 7.65853 211.467 7.26287 211.295 6.86722C211.123 6.52809 210.836 6.18895 210.492 6.01938C210.148 5.84982 209.804 5.73678 209.402 5.73678C209.001 5.73678 208.657 5.84982 208.312 6.01938C207.968 6.18895 207.739 6.47157 207.51 6.86722C207.338 7.20635 207.223 7.65853 207.223 8.16722C207.223 8.67592 207.338 9.07157 207.51 9.46722C207.682 9.86287 207.968 10.1455 208.312 10.315C208.657 10.4846 209.001 10.5977 209.402 10.5977C209.804 10.6542 210.205 10.5411 210.492 10.315Z" fill="white"/>
<path d="M214.334 11.1065C213.875 10.7673 213.531 10.3152 213.302 9.80647L214.277 9.35429C214.449 9.74994 214.678 10.089 215.022 10.3151C215.366 10.5412 215.71 10.6543 216.054 10.6543C216.456 10.6543 216.8 10.5412 217.087 10.3717C217.374 10.2021 217.488 9.97603 217.488 9.69342C217.488 9.46734 217.374 9.24125 217.201 9.07168C216.972 8.90212 216.628 8.78902 216.169 8.61945L215.252 8.39342C214.735 8.28038 214.334 8.05429 213.99 7.77168C213.646 7.48908 213.474 7.09342 213.474 6.58473C213.474 6.18905 213.588 5.84992 213.818 5.56731C214.047 5.2847 214.334 5.05861 214.735 4.94557C215.137 4.776 215.538 4.71948 215.997 4.71948C216.571 4.71948 217.087 4.83253 217.546 5.11513C218.004 5.39774 218.348 5.73687 218.52 6.18905L217.546 6.58473C217.431 6.24557 217.201 6.01948 216.915 5.90644C216.628 5.73687 216.284 5.68035 215.94 5.68035C215.596 5.68035 215.309 5.73687 215.022 5.90644C214.735 6.076 214.621 6.30209 214.621 6.52821C214.621 6.75429 214.735 6.9238 214.908 7.03685C215.08 7.14989 215.366 7.26299 215.768 7.37603L216.743 7.60206C217.373 7.77163 217.89 7.99771 218.176 8.33685C218.52 8.67598 218.635 9.07168 218.635 9.52386C218.635 9.91951 218.52 10.2586 218.291 10.5412C218.062 10.8239 217.775 11.1064 217.374 11.276C216.972 11.4455 216.513 11.5586 216.054 11.5586C215.366 11.6152 214.793 11.4456 214.334 11.1065Z" fill="white"/>
<path d="M32.9404 18.7935H33.9153L35.7505 23.4848H35.8078L37.643 18.7935H38.6179V24.5022H37.9297V20.8848L37.9871 19.8108H37.9297L36.0372 24.5587H35.4637L33.5712 19.8108H33.5139L33.5712 20.8848V24.5022H32.8831V18.7935H32.9404Z" fill="white"/>
<path d="M40.2237 24.5021C39.9943 24.389 39.8222 24.2194 39.6502 24.0499C39.5355 23.8238 39.4781 23.5977 39.4781 23.3716C39.4781 22.976 39.6502 22.6368 39.9369 22.4108C40.281 22.1847 40.6825 22.0716 41.1986 22.0716C41.428 22.0716 41.6574 22.0716 41.8868 22.1281C42.0588 22.1847 42.2309 22.2412 42.3456 22.2977V22.0716C42.3456 21.9021 42.2882 21.7325 42.1735 21.5629C42.0588 21.3934 41.9441 21.2803 41.7721 21.2238C41.6 21.1673 41.428 21.1108 41.256 21.1108C40.7972 21.1108 40.4531 21.2803 40.2237 21.676L39.6502 21.2803C39.8222 21.0542 40.0516 20.8281 40.3384 20.7151C40.6251 20.6021 40.9119 20.489 41.256 20.489C41.8294 20.489 42.2309 20.6586 42.575 20.9412C42.9191 21.2238 43.0338 21.6194 43.0338 22.1281V24.6151H42.4029V24.0499H42.3456C42.2309 24.276 42.0588 24.4455 41.8294 24.5586C41.6001 24.6716 41.3707 24.7847 41.0839 24.7847C40.7398 24.6716 40.4531 24.6151 40.2237 24.5021ZM41.6574 23.8803C41.8294 23.7673 42.0015 23.5977 42.1162 23.4281C42.2309 23.2586 42.2882 23.0325 42.2882 22.8064C42.0015 22.6368 41.6574 22.5238 41.256 22.5238C40.9119 22.5238 40.6251 22.5803 40.4531 22.7499C40.2237 22.9194 40.1663 23.089 40.1663 23.3151C40.1663 23.5412 40.281 23.7108 40.4531 23.8238C40.6251 23.9368 40.8545 24.0499 41.0839 24.0499C41.256 24.0499 41.4854 23.9934 41.6574 23.8803Z" fill="white"/>
<path d="M43.9514 20.5455H44.5822V21.1673H44.6396C44.6969 20.9412 44.869 20.7716 45.0984 20.6021C45.3278 20.4325 45.5571 20.376 45.7865 20.376C45.9586 20.376 46.1306 20.376 46.2453 20.4325V21.1673C46.0733 21.1108 45.9012 21.0542 45.6718 21.0542C45.4998 21.0542 45.3278 21.1108 45.1557 21.2238C44.9837 21.3368 44.869 21.5064 44.7543 21.676C44.6396 21.8455 44.5822 22.0716 44.5822 22.2412V24.4455H43.894V20.5455H43.9514Z" fill="white"/>
<path d="M48.9407 18.7935H51.0626C51.3493 18.7935 51.6361 18.85 51.8655 19.0195C52.0948 19.1891 52.3242 19.3587 52.4963 19.5848C52.6683 19.8108 52.7257 20.0935 52.7257 20.3761C52.7257 20.6587 52.6683 20.8848 52.4963 21.1108C52.3242 21.3369 52.1522 21.5065 51.9228 21.563C52.2095 21.6761 52.4389 21.8456 52.6683 22.0717C52.8404 22.2978 52.9551 22.5804 52.9551 22.9195C52.9551 23.2587 52.8977 23.4848 52.7257 23.7674C52.5536 23.9935 52.3242 24.2195 52.0948 24.3326C51.8081 24.4456 51.5214 24.5587 51.2346 24.5587H49.0554V18.7935H48.9407ZM51.0052 21.2804C51.1773 21.2804 51.3493 21.2239 51.5214 21.1674C51.6934 21.0543 51.8081 20.9413 51.8655 20.8282C51.9228 20.7152 51.9801 20.5456 51.9801 20.3761C51.9801 20.2065 51.9228 20.0935 51.8655 19.9239C51.8081 19.8108 51.6934 19.6413 51.5214 19.5848C51.3493 19.4717 51.2346 19.4717 51.0052 19.4717H49.6289V21.2804H51.0052ZM51.1773 23.8804C51.3493 23.8804 51.5787 23.8239 51.6934 23.7108C51.8655 23.5978 51.9801 23.4848 52.0375 23.3152C52.0948 23.1456 52.1522 23.0326 52.1522 22.863C52.1522 22.6935 52.0948 22.5239 52.0375 22.4108C51.9801 22.2413 51.8081 22.1282 51.6934 22.0152C51.5787 21.9022 51.3493 21.9022 51.1199 21.9022H49.6289V23.8804H51.1773Z" fill="white"/>
<path d="M54.2167 24.5021C53.9873 24.389 53.8153 24.2194 53.6432 24.0499C53.5285 23.8238 53.4712 23.5977 53.4712 23.3716C53.4712 22.976 53.6432 22.6368 53.93 22.4108C54.2741 22.1847 54.6755 22.0716 55.1916 22.0716C55.421 22.0716 55.6504 22.0716 55.8798 22.1281C56.0519 22.1847 56.2239 22.2412 56.3386 22.2977V22.0716C56.3386 21.9021 56.2813 21.7325 56.1666 21.5629C56.0519 21.3934 55.9372 21.2803 55.7651 21.2238C55.5931 21.1673 55.421 21.1108 55.249 21.1108C54.7902 21.1108 54.4461 21.2803 54.2167 21.676L53.6432 21.2803C53.8153 21.0542 54.0447 20.8281 54.3314 20.7151C54.6182 20.6021 54.9049 20.489 55.249 20.489C55.8225 20.489 56.2239 20.6586 56.568 20.9412C56.9121 21.2238 57.0268 21.6194 57.0268 22.1281V24.6151H56.396V24.0499H56.3386C56.2239 24.276 56.0519 24.4455 55.8225 24.5586C55.5931 24.6716 55.3637 24.7847 55.077 24.7847C54.7902 24.7847 54.4461 24.6151 54.2167 24.5021ZM55.6504 23.8803C55.8225 23.7673 55.9945 23.5977 56.1092 23.4281C56.2239 23.2586 56.2813 23.0325 56.2813 22.8064C55.9945 22.6368 55.6504 22.5238 55.249 22.5238C54.9049 22.5238 54.6182 22.5803 54.4461 22.7499C54.2167 22.9194 54.1594 23.089 54.1594 23.3151C54.1594 23.5412 54.2741 23.7108 54.4461 23.8238C54.6182 23.9368 54.8476 24.0499 55.077 24.0499C55.249 24.0499 55.4784 23.9934 55.6504 23.8803Z" fill="white"/>
<path d="M58.2312 24.3324C57.9445 24.1063 57.7151 23.8802 57.6003 23.5411L58.2312 23.2585C58.3459 23.4845 58.518 23.7106 58.69 23.8237C58.8621 23.9367 59.0915 24.0498 59.3209 24.0498C59.6076 24.0498 59.7796 23.9932 59.9517 23.8802C60.1237 23.7672 60.1811 23.6541 60.1811 23.4845C60.1811 23.315 60.1237 23.2019 60.009 23.0889C59.8943 22.9759 59.6649 22.9193 59.3782 22.8063L58.8047 22.6932C58.518 22.6367 58.2312 22.5237 58.0018 22.2976C57.7724 22.128 57.6577 21.9019 57.6577 21.5628C57.6577 21.3367 57.7151 21.1106 57.8871 20.9411C58.0018 20.7715 58.2312 20.6585 58.4606 20.5454C58.69 20.4324 58.9768 20.4324 59.2635 20.4324C59.6076 20.4324 59.9517 20.4889 60.1811 20.6585C60.4678 20.828 60.6399 21.0541 60.8119 21.3367L60.1811 21.6193C60.0664 21.4498 59.9517 21.2802 59.7796 21.1672C59.6076 21.0541 59.4356 21.0541 59.2062 21.0541C58.9768 21.0541 58.8047 21.1106 58.6327 21.2237C58.4606 21.3367 58.4033 21.4498 58.4033 21.6193C58.4033 21.7324 58.4606 21.8454 58.5753 21.9585C58.69 22.0715 58.8621 22.128 59.0915 22.1845L59.6649 22.3541C60.0664 22.4672 60.3531 22.5802 60.5825 22.8063C60.7546 23.0324 60.8693 23.2585 60.8693 23.5411C60.8693 23.7672 60.8119 23.9932 60.6399 24.1628C60.5252 24.3324 60.2958 24.5019 60.0664 24.615C59.837 24.728 59.5503 24.7845 59.2635 24.7845C58.8621 24.6715 58.518 24.5585 58.2312 24.3324Z" fill="white"/>
<path d="M62.4177 24.3889C62.1309 24.2193 61.8442 23.9367 61.6721 23.6541C61.5001 23.3715 61.3854 22.9759 61.3854 22.5802C61.3854 22.1845 61.4427 21.8454 61.6148 21.5063C61.7868 21.1672 62.0162 20.9411 62.303 20.715C62.5897 20.5454 62.9338 20.4324 63.3352 20.4324C63.7367 20.4324 64.0808 20.5454 64.3675 20.715C64.6542 20.8845 64.8836 21.1106 65.0557 21.4498C65.2277 21.7889 65.2851 22.128 65.2851 22.5237C65.2851 22.5802 65.2851 22.6367 65.2851 22.6932H62.0736C62.0736 22.9759 62.1309 23.2585 62.303 23.428C62.4176 23.6541 62.5897 23.7672 62.8191 23.8802C63.0485 23.9932 63.2205 24.0498 63.4499 24.0498C63.9661 24.0498 64.3675 23.8237 64.6542 23.315L65.2851 23.5976C65.113 23.9367 64.8836 24.1628 64.5395 24.3889C64.1955 24.615 63.8514 24.6715 63.4499 24.6715C63.1058 24.6715 62.7617 24.5585 62.4177 24.3889ZM64.6542 22.0715C64.6542 21.9019 64.5969 21.7324 64.5395 21.6193C64.4822 21.4498 64.3102 21.3367 64.1381 21.2237C63.9661 21.1106 63.7367 21.0541 63.4499 21.0541C63.1632 21.0541 62.8764 21.1672 62.647 21.3367C62.4176 21.5063 62.303 21.7889 62.2456 22.128H64.6542V22.0715Z" fill="white"/>
<path d="M66.1453 18.7935H66.834V24.5022H66.1453V18.7935Z" fill="white"/>
<path d="M67.9231 19.5846C67.8084 19.4716 67.7511 19.3586 67.7511 19.2455C67.7511 19.1325 67.8084 19.0194 67.9231 18.9064C68.0378 18.7933 68.1525 18.7368 68.2672 18.7368C68.3819 18.7368 68.4966 18.7933 68.6113 18.9064C68.726 19.0194 68.7834 19.1325 68.7834 19.2455C68.7834 19.3586 68.726 19.4716 68.6687 19.5846C68.554 19.6977 68.4393 19.7542 68.3246 19.7542C68.0952 19.6977 67.9805 19.6412 67.9231 19.5846ZM67.9231 20.5455H68.6113V24.502H67.9231V20.5455Z" fill="white"/>
<path d="M70.3891 24.389C70.1023 24.2194 69.8156 23.9368 69.6436 23.6542C69.4715 23.3151 69.3568 22.976 69.3568 22.5803C69.3568 22.1847 69.4715 21.8455 69.6436 21.5064C69.8156 21.1673 70.045 20.9412 70.3891 20.7716C70.7332 20.6021 71.0773 20.489 71.4787 20.489C71.8801 20.489 72.2242 20.6021 72.5683 20.7716C72.9124 20.9412 73.1418 21.2238 73.3139 21.5064C73.4859 21.789 73.6006 22.1847 73.6006 22.5803C73.6006 22.976 73.4859 23.3151 73.3139 23.6542C73.1418 23.9934 72.9124 24.2194 72.5683 24.389C72.2242 24.5586 71.8801 24.6716 71.4787 24.6716C71.0773 24.6716 70.6758 24.5586 70.3891 24.389ZM72.1095 23.8238C72.3389 23.7108 72.511 23.5412 72.6257 23.3151C72.7404 23.089 72.7977 22.8064 72.7977 22.5238C72.7977 22.2412 72.7404 21.9586 72.6257 21.7325C72.511 21.5064 72.3389 21.3368 72.1095 21.2238C71.8801 21.1108 71.6508 21.0542 71.4214 21.0542C71.192 21.0542 70.9626 21.1108 70.7332 21.2238C70.5038 21.3368 70.3317 21.5064 70.217 21.7325C70.1023 21.9586 70.045 22.2412 70.045 22.5238C70.045 22.8064 70.1023 23.089 70.217 23.3151C70.3317 23.5412 70.5038 23.7108 70.7332 23.8238C70.9626 23.9368 71.192 23.9934 71.4214 23.9934C71.7081 24.0499 71.9375 23.9934 72.1095 23.8238Z" fill="white"/>
<path d="M74.5755 24.3324C74.2888 24.1063 74.0594 23.8802 73.9447 23.5411L74.5755 23.2585C74.6902 23.4845 74.8623 23.7106 75.0343 23.8237C75.2064 23.9367 75.4358 24.0498 75.6652 24.0498C75.9519 24.0498 76.124 23.9932 76.296 23.8802C76.468 23.7672 76.5254 23.6541 76.5254 23.4845C76.5254 23.315 76.468 23.2019 76.3534 23.0889C76.2387 22.9759 76.0093 22.9193 75.7225 22.8063L75.149 22.6932C74.8623 22.6367 74.5755 22.5237 74.3461 22.2976C74.1168 22.128 74.0021 21.9019 74.0021 21.5628C74.0021 21.3367 74.0594 21.1106 74.2314 20.9411C74.4035 20.7715 74.5755 20.6585 74.8049 20.5454C75.0343 20.4324 75.3211 20.4324 75.6078 20.4324C75.9519 20.4324 76.296 20.4889 76.5254 20.6585C76.8121 20.828 76.9842 21.0541 77.1562 21.3367L76.5827 21.5628C76.468 21.3932 76.3534 21.2237 76.1813 21.1106C76.0093 20.9976 75.8372 20.9976 75.6078 20.9976C75.3784 20.9976 75.2064 21.0541 75.0343 21.1672C74.8623 21.2802 74.8049 21.3932 74.8049 21.5628C74.8049 21.6759 74.8623 21.7889 74.977 21.9019C75.0917 22.015 75.2637 22.0715 75.4931 22.128L76.0666 22.2976C76.468 22.4106 76.7548 22.5237 76.9842 22.7498C77.1562 22.9759 77.2709 23.2019 77.2709 23.4845C77.2709 23.7106 77.2136 23.9367 77.0415 24.1063C76.9268 24.2759 76.6974 24.4454 76.468 24.5585C76.2387 24.6715 75.9519 24.728 75.6652 24.728C75.2637 24.6715 74.8623 24.5585 74.5755 24.3324Z" fill="white"/>
<path d="M81.056 24.2761C80.5972 23.9935 80.2531 23.6543 79.9664 23.2022C79.6796 22.75 79.5649 22.2413 79.5649 21.6761C79.5649 21.1109 79.6796 20.6022 79.9664 20.15C80.2531 19.6978 80.5972 19.3587 81.056 19.0761C81.5148 18.7935 82.0309 18.6804 82.6044 18.6804C83.0632 18.6804 83.4646 18.7369 83.8087 18.9065C84.1528 19.0761 84.4969 19.3022 84.7263 19.5848L84.2675 20.0369C84.0381 19.7543 83.8087 19.5848 83.522 19.4717C83.2353 19.3587 82.9485 19.3022 82.6044 19.3022C82.203 19.3022 81.8015 19.4152 81.4574 19.5848C81.1134 19.7543 80.8266 20.0369 80.5972 20.4326C80.3678 20.8282 80.3105 21.2239 80.3105 21.6761C80.3105 22.1282 80.4252 22.5239 80.5972 22.9196C80.8266 23.2587 81.1134 23.5413 81.4574 23.7674C81.8015 23.9369 82.203 24.05 82.6044 24.05C83.2926 24.05 83.9234 23.7674 84.3822 23.2022L84.8984 23.6543C84.6116 23.9935 84.3249 24.2196 83.9234 24.3891C83.522 24.5587 83.1206 24.6717 82.6044 24.6717C82.0309 24.6717 81.5148 24.5022 81.056 24.2761Z" fill="white"/>
<path d="M86.3321 24.389C86.0453 24.2194 85.7586 23.9368 85.5865 23.6542C85.4145 23.3151 85.2998 22.976 85.2998 22.5803C85.2998 22.1847 85.4145 21.8455 85.5865 21.5064C85.7586 21.1673 85.988 20.9412 86.3321 20.7716C86.6762 20.6021 87.0203 20.489 87.4217 20.489C87.8231 20.489 88.1672 20.6021 88.5113 20.7716C88.8554 20.9412 89.0848 21.2238 89.2569 21.5064C89.4289 21.789 89.5436 22.1847 89.5436 22.5803C89.5436 22.976 89.4289 23.3151 89.2569 23.6542C89.0848 23.9934 88.8554 24.2194 88.5113 24.389C88.1672 24.5586 87.8231 24.6716 87.4217 24.6716C87.0203 24.6716 86.6188 24.5586 86.3321 24.389ZM88.0525 23.8238C88.2819 23.7108 88.454 23.5412 88.5687 23.3151C88.6834 23.089 88.7407 22.8064 88.7407 22.5238C88.7407 22.2412 88.6834 21.9586 88.5687 21.7325C88.454 21.5064 88.2819 21.3368 88.0525 21.2238C87.8231 21.1108 87.5938 21.0542 87.3644 21.0542C87.135 21.0542 86.9056 21.1108 86.6762 21.2238C86.4468 21.3368 86.2747 21.5064 86.16 21.7325C86.0453 21.9586 85.988 22.2412 85.988 22.5238C85.988 22.8064 86.0453 23.089 86.16 23.3151C86.2747 23.5412 86.4468 23.7108 86.6762 23.8238C86.9056 23.9368 87.135 23.9934 87.3644 23.9934C87.6511 24.0499 87.8805 23.9934 88.0525 23.8238Z" fill="white"/>
<path d="M90.1744 18.7935H90.8632V24.5022H90.1744V18.7935Z" fill="white"/>
<path d="M91.8949 18.7935H92.5836V24.5022H91.8949V18.7935Z" fill="white"/>
<path d="M94.3035 24.3889C94.0168 24.2193 93.73 23.9367 93.558 23.6541C93.3859 23.3715 93.2712 22.9759 93.2712 22.5802C93.2712 22.1845 93.3286 21.8454 93.5006 21.5063C93.6727 21.1672 93.9021 20.9411 94.1888 20.715C94.4756 20.5454 94.8196 20.4324 95.2211 20.4324C95.6225 20.4324 95.9666 20.5454 96.2534 20.715C96.5401 20.8845 96.7695 21.1106 96.9415 21.4498C97.1136 21.7889 97.1709 22.128 97.1709 22.5237C97.1709 22.5802 97.1709 22.6367 97.1709 22.6932H93.9594C93.9594 22.9759 94.0168 23.2585 94.1888 23.428C94.3035 23.6541 94.4756 23.7672 94.705 23.8802C94.9343 23.9932 95.1064 24.0498 95.3358 24.0498C95.8519 24.0498 96.2534 23.8237 96.5401 23.315L97.1709 23.5976C96.9989 23.9367 96.7695 24.1628 96.4254 24.3889C96.1387 24.5585 95.7372 24.6715 95.3358 24.6715C94.9343 24.6715 94.5902 24.5585 94.3035 24.3889ZM96.4828 22.0715C96.4828 21.9019 96.4254 21.7324 96.3681 21.6193C96.3107 21.4498 96.1387 21.3367 95.9666 21.2237C95.7946 21.1106 95.5652 21.0541 95.2784 21.0541C94.9917 21.0541 94.7049 21.1672 94.4756 21.3367C94.2462 21.5063 94.1315 21.7889 94.0741 22.128H96.4828V22.0715Z" fill="white"/>
<path d="M98.6046 26.028C98.3179 25.8019 98.0885 25.5193 97.9738 25.2367L98.6046 24.9541C98.662 25.1802 98.834 25.4063 99.0634 25.5193C99.2928 25.6324 99.5222 25.7454 99.8089 25.7454C100.21 25.7454 100.554 25.6323 100.784 25.4062C101.013 25.1802 101.128 24.8411 101.128 24.3889V23.9932H101.071C100.956 24.2193 100.727 24.3889 100.497 24.5019C100.268 24.615 99.981 24.728 99.6942 24.728C99.3502 24.728 99.0634 24.6149 98.7193 24.4454C98.4326 24.2758 98.2032 23.9932 98.0311 23.7106C97.8591 23.3714 97.7444 23.0324 97.7444 22.6367C97.7444 22.2411 97.8591 21.9019 98.0311 21.5628C98.2032 21.2237 98.4326 20.9976 98.7193 20.828C99.0061 20.6585 99.3502 20.5454 99.6942 20.5454C99.981 20.5454 100.268 20.6019 100.497 20.7714C100.727 20.8845 100.956 21.0541 101.071 21.2802H101.128V20.715H101.759V24.3889C101.759 24.8411 101.644 25.1802 101.472 25.5193C101.3 25.8585 101.071 26.028 100.784 26.1975C100.497 26.3671 100.153 26.4236 99.7516 26.4236C99.3501 26.3671 98.9487 26.2541 98.6046 26.028ZM100.497 23.8801C100.669 23.7671 100.841 23.5976 100.956 23.3715C101.071 23.1454 101.128 22.8627 101.128 22.5801C101.128 22.2975 101.071 22.015 100.956 21.7889C100.841 21.5628 100.669 21.3932 100.497 21.2802C100.325 21.1671 100.096 21.1106 99.8663 21.1106C99.6369 21.1106 99.4075 21.1671 99.2355 21.2802C99.0634 21.3932 98.8914 21.5628 98.7767 21.7889C98.662 22.015 98.6046 22.2975 98.6046 22.5801C98.6046 22.8627 98.662 23.1454 98.7767 23.3715C98.8914 23.5976 99.0634 23.7671 99.2355 23.8801C99.4075 23.9932 99.6369 24.0498 99.8663 24.0498C100.096 24.0498 100.325 23.9932 100.497 23.8801Z" fill="white"/>
<path d="M103.537 24.3889C103.25 24.2193 102.963 23.9367 102.791 23.6541C102.619 23.3715 102.504 22.9759 102.504 22.5802C102.504 22.1845 102.562 21.8454 102.734 21.5063C102.906 21.1672 103.135 20.9411 103.422 20.715C103.709 20.5454 104.053 20.4324 104.454 20.4324C104.856 20.4324 105.2 20.5454 105.487 20.715C105.773 20.8845 106.003 21.1106 106.175 21.4498C106.347 21.7889 106.404 22.128 106.404 22.5237C106.404 22.5802 106.404 22.6367 106.404 22.6932H103.193C103.193 22.9759 103.25 23.2585 103.422 23.428C103.537 23.6541 103.709 23.7672 103.938 23.8802C104.168 23.9932 104.34 24.0498 104.569 24.0498C105.085 24.0498 105.487 23.8237 105.773 23.315L106.404 23.5976C106.232 23.9367 106.003 24.1628 105.659 24.3889C105.372 24.5585 104.97 24.6715 104.569 24.6715C104.168 24.6715 103.823 24.5585 103.537 24.3889ZM105.716 22.0715C105.716 21.9019 105.659 21.7324 105.601 21.6193C105.544 21.4498 105.372 21.3367 105.2 21.2237C105.028 21.1106 104.798 21.0541 104.512 21.0541C104.225 21.0541 103.938 21.1672 103.709 21.3367C103.479 21.5063 103.365 21.7889 103.307 22.128H105.716V22.0715Z" fill="white"/>
<path d="M109.902 24.389C109.616 24.2194 109.329 23.9368 109.157 23.6542C108.985 23.3151 108.87 22.976 108.87 22.5803C108.87 22.1847 108.985 21.8455 109.157 21.5064C109.329 21.1673 109.558 20.9412 109.902 20.7716C110.246 20.6021 110.59 20.489 110.992 20.489C111.393 20.489 111.737 20.6021 112.082 20.7716C112.426 20.9412 112.655 21.2238 112.827 21.5064C112.999 21.789 113.114 22.1847 113.114 22.5803C113.114 22.976 112.999 23.3151 112.827 23.6542C112.655 23.9934 112.426 24.2194 112.082 24.389C111.737 24.5586 111.393 24.6716 110.992 24.6716C110.59 24.6716 110.189 24.5586 109.902 24.389ZM111.623 23.8238C111.852 23.7108 112.024 23.5412 112.139 23.3151C112.254 23.089 112.311 22.8064 112.311 22.5238C112.311 22.2412 112.254 21.9586 112.139 21.7325C112.024 21.5064 111.852 21.3368 111.623 21.2238C111.393 21.1108 111.164 21.0542 110.935 21.0542C110.705 21.0542 110.476 21.1108 110.246 21.2238C110.017 21.3368 109.845 21.5064 109.73 21.7325C109.616 21.9586 109.558 22.2412 109.558 22.5238C109.558 22.8064 109.616 23.089 109.73 23.3151C109.845 23.5412 110.017 23.7108 110.246 23.8238C110.476 23.9368 110.705 23.9934 110.935 23.9934C111.221 24.0499 111.451 23.9934 111.623 23.8238Z" fill="white"/>
<path d="M114.146 21.1674H113.401V20.5456H114.146V19.9804C114.146 19.6978 114.203 19.5282 114.318 19.3022C114.433 19.1326 114.605 18.963 114.777 18.85C114.949 18.7369 115.178 18.6804 115.465 18.6804C115.58 18.6804 115.694 18.6804 115.809 18.6804C115.924 18.6804 115.981 18.7369 116.096 18.7369V19.4152C115.924 19.3022 115.752 19.3022 115.522 19.3022C115.35 19.3022 115.178 19.3587 115.064 19.4717C114.949 19.5848 114.892 19.7543 114.892 19.9804V20.4326H115.924V21.0543H114.892V24.3891H114.203V21.1674H114.146Z" fill="white"/>
<path d="M118.734 18.7935H122.118V19.4152H119.422V21.3369H121.831V21.9587H119.422V23.8804H122.118V24.5022H118.734V18.7935Z" fill="white"/>
<path d="M122.978 20.5455H123.609V21.1108H123.666C123.781 20.8847 123.953 20.7151 124.182 20.6021C124.411 20.489 124.698 20.376 124.985 20.376C125.501 20.376 125.845 20.5455 126.132 20.8281C126.361 21.1108 126.533 21.5064 126.533 22.0151V24.5021H125.845V22.1281C125.845 21.3934 125.501 21.0542 124.813 21.0542C124.584 21.0542 124.412 21.1108 124.239 21.2238C124.067 21.3368 123.953 21.5064 123.838 21.676C123.723 21.8455 123.723 22.0716 123.723 22.2977V24.5021H123.035V20.5455H122.978Z" fill="white"/>
<path d="M127.967 26.028C127.68 25.8019 127.451 25.5193 127.336 25.2367L127.967 24.9541C128.024 25.1802 128.196 25.4063 128.426 25.5193C128.655 25.6889 128.885 25.7454 129.171 25.7454C129.573 25.7454 129.917 25.6323 130.146 25.4062C130.376 25.1802 130.49 24.8411 130.49 24.3889V23.9932C130.376 24.2193 130.146 24.3889 129.917 24.5019C129.688 24.615 129.401 24.728 129.114 24.728C128.77 24.728 128.483 24.6149 128.139 24.4454C127.852 24.2758 127.623 23.9932 127.451 23.7106C127.279 23.3714 127.164 23.0324 127.164 22.6367C127.164 22.2411 127.279 21.9019 127.451 21.5628C127.623 21.2237 127.852 20.9976 128.139 20.828C128.426 20.6585 128.77 20.5454 129.114 20.5454C129.401 20.5454 129.688 20.6019 129.917 20.7714C130.146 20.8845 130.376 21.0541 130.49 21.2802H130.548V20.715H131.179V24.3889C131.179 24.8411 131.064 25.1802 130.892 25.5193C130.72 25.8585 130.49 26.028 130.204 26.1975C129.917 26.3671 129.573 26.4236 129.171 26.4236C128.713 26.3671 128.311 26.2541 127.967 26.028ZM129.86 23.8801C130.032 23.7671 130.204 23.5976 130.318 23.3715C130.433 23.1454 130.49 22.8627 130.49 22.5801C130.49 22.2975 130.433 22.015 130.318 21.7889C130.204 21.5628 130.032 21.3932 129.86 21.2802C129.688 21.1671 129.458 21.1106 129.229 21.1106C128.999 21.1106 128.77 21.1671 128.598 21.2802C128.426 21.3932 128.254 21.5628 128.139 21.7889C128.024 22.015 127.967 22.2975 127.967 22.5801C127.967 22.8627 128.024 23.1454 128.139 23.3715C128.254 23.5976 128.426 23.7671 128.598 23.8801C128.77 23.9932 128.999 24.0498 129.229 24.0498C129.458 24.0498 129.63 23.9932 129.86 23.8801Z" fill="white"/>
<path d="M132.268 19.5846C132.154 19.4716 132.096 19.3586 132.096 19.2455C132.096 19.1325 132.154 19.0194 132.268 18.9064C132.383 18.7933 132.498 18.7368 132.612 18.7368C132.727 18.7368 132.842 18.7933 132.956 18.9064C133.071 19.0194 133.128 19.1325 133.128 19.2455C133.128 19.3586 133.071 19.4716 133.014 19.5846C132.899 19.6977 132.784 19.7542 132.67 19.7542C132.44 19.6977 132.326 19.6412 132.268 19.5846ZM132.268 20.5455H132.956V24.502H132.268V20.5455Z" fill="white"/>
<path d="M133.989 20.5455H134.62V21.1108H134.677C134.792 20.8847 134.964 20.7151 135.193 20.6021C135.422 20.489 135.709 20.376 135.996 20.376C136.512 20.376 136.856 20.5455 137.143 20.8281C137.372 21.1108 137.544 21.5064 137.544 22.0151V24.5021H136.856V22.1281C136.856 21.3934 136.512 21.0542 135.824 21.0542C135.595 21.0542 135.422 21.1108 135.25 21.2238C135.078 21.3368 134.964 21.5064 134.849 21.676C134.734 21.8455 134.734 22.0716 134.734 22.2977V24.5021H134.046V20.5455H133.989Z" fill="white"/>
<path d="M139.265 24.3889C138.978 24.2193 138.691 23.9367 138.519 23.6541C138.347 23.3715 138.233 22.9759 138.233 22.5802C138.233 22.1845 138.29 21.8454 138.462 21.5063C138.634 21.1672 138.863 20.9411 139.15 20.715C139.437 20.5454 139.781 20.4324 140.182 20.4324C140.584 20.4324 140.928 20.5454 141.215 20.715C141.501 20.8845 141.731 21.1106 141.903 21.4498C142.075 21.7889 142.132 22.128 142.132 22.5237C142.132 22.5802 142.132 22.6367 142.132 22.6932H138.921C138.921 22.9759 138.978 23.2585 139.15 23.428C139.265 23.6541 139.437 23.7672 139.666 23.8802C139.896 23.9932 140.068 24.0498 140.297 24.0498C140.813 24.0498 141.215 23.8237 141.501 23.315L142.132 23.5976C141.96 23.9367 141.731 24.1628 141.387 24.3889C141.1 24.5585 140.699 24.6715 140.297 24.6715C139.896 24.6715 139.552 24.5585 139.265 24.3889ZM141.444 22.0715C141.444 21.9019 141.387 21.7324 141.329 21.6193C141.272 21.4498 141.1 21.3367 140.928 21.2237C140.756 21.1106 140.526 21.0541 140.24 21.0541C139.953 21.0541 139.666 21.1672 139.437 21.3367C139.207 21.5063 139.093 21.7889 139.035 22.128H141.444V22.0715Z" fill="white"/>
<path d="M143.738 24.3889C143.451 24.2193 143.164 23.9367 142.992 23.6541C142.82 23.3715 142.706 22.9759 142.706 22.5802C142.706 22.1845 142.763 21.8454 142.935 21.5063C143.107 21.1672 143.337 20.9411 143.623 20.715C143.91 20.5454 144.254 20.4324 144.656 20.4324C145.057 20.4324 145.401 20.5454 145.688 20.715C145.975 20.8845 146.204 21.1106 146.376 21.4498C146.548 21.7889 146.605 22.128 146.605 22.5237C146.605 22.5802 146.605 22.6367 146.605 22.6932H143.394C143.394 22.9759 143.451 23.2585 143.623 23.428C143.738 23.6541 143.91 23.7672 144.139 23.8802C144.369 23.9932 144.541 24.0498 144.77 24.0498C145.286 24.0498 145.688 23.8237 145.975 23.315L146.605 23.5976C146.433 23.9367 146.204 24.1628 145.86 24.3889C145.516 24.615 145.172 24.6715 144.77 24.6715C144.426 24.6715 144.082 24.5585 143.738 24.3889ZM145.975 22.0715C145.975 21.9019 145.917 21.7324 145.86 21.6193C145.803 21.4498 145.63 21.3367 145.458 21.2237C145.286 21.1106 145.057 21.0541 144.77 21.0541C144.483 21.0541 144.197 21.1672 143.967 21.3367C143.738 21.5063 143.623 21.7889 143.566 22.128H145.975V22.0715Z" fill="white"/>
<path d="M147.466 20.5455H148.097V21.1673H148.154C148.211 20.9412 148.383 20.7716 148.613 20.6021C148.842 20.4325 149.071 20.376 149.301 20.376C149.473 20.376 149.645 20.376 149.76 20.4325V21.1673C149.588 21.1108 149.416 21.0542 149.186 21.0542C149.014 21.0542 148.842 21.1108 148.67 21.2238C148.498 21.3368 148.383 21.5064 148.269 21.676C148.154 21.8455 148.097 22.0716 148.097 22.2412V24.4455H147.408V20.5455H147.466Z" fill="white"/>
<path d="M150.505 19.5846C150.39 19.4716 150.333 19.3586 150.333 19.2455C150.333 19.1325 150.39 19.0194 150.505 18.9064C150.62 18.7933 150.734 18.7368 150.849 18.7368C150.964 18.7368 151.079 18.7933 151.193 18.9064C151.308 19.0194 151.365 19.1325 151.365 19.2455C151.365 19.3586 151.308 19.4716 151.251 19.5846C151.193 19.6977 151.021 19.7542 150.906 19.7542C150.677 19.6977 150.562 19.6412 150.505 19.5846ZM150.505 20.5455H151.193V24.502H150.505V20.5455Z" fill="white"/>
<path d="M152.226 20.5455H152.856V21.1108H152.914C153.028 20.8847 153.201 20.7151 153.43 20.6021C153.659 20.489 153.946 20.376 154.233 20.376C154.749 20.376 155.093 20.5455 155.38 20.8281C155.666 21.1108 155.781 21.5064 155.781 22.0151V24.5021H155.093V22.1281C155.093 21.3934 154.749 21.0542 154.061 21.0542C153.831 21.0542 153.659 21.1108 153.487 21.2238C153.315 21.3368 153.201 21.5064 153.086 21.676C152.971 21.8455 152.971 22.0716 152.971 22.2977V24.5021H152.283V20.5455H152.226Z" fill="white"/>
<path d="M157.272 26.028C156.985 25.8019 156.756 25.5193 156.641 25.2367L157.272 24.9541C157.33 25.1802 157.502 25.4063 157.731 25.5193C157.96 25.6324 158.19 25.7454 158.477 25.7454C158.878 25.7454 159.222 25.6323 159.451 25.4062C159.681 25.1802 159.796 24.8411 159.796 24.3889V23.9932H159.738C159.624 24.2193 159.394 24.3889 159.165 24.5019C158.935 24.615 158.649 24.728 158.362 24.728C158.018 24.728 157.731 24.6149 157.387 24.4454C157.1 24.2758 156.871 23.9932 156.699 23.7106C156.527 23.3714 156.412 23.0324 156.412 22.6367C156.412 22.2411 156.527 21.9019 156.699 21.5628C156.871 21.2237 157.1 20.9976 157.387 20.828C157.674 20.6585 158.018 20.5454 158.362 20.5454C158.649 20.5454 158.935 20.6019 159.165 20.7714C159.394 20.8845 159.624 21.0541 159.738 21.2802H159.796V20.715H160.426V24.3889C160.426 24.8411 160.312 25.1802 160.14 25.5193C159.968 25.8585 159.738 26.028 159.451 26.1975C159.165 26.3671 158.821 26.4236 158.419 26.4236C157.96 26.3671 157.559 26.2541 157.272 26.028ZM159.165 23.8801C159.337 23.7671 159.509 23.5976 159.623 23.3715C159.738 23.1454 159.796 22.8627 159.796 22.5801C159.796 22.2975 159.738 22.015 159.623 21.7889C159.509 21.5628 159.337 21.3932 159.165 21.2802C158.993 21.1671 158.763 21.1106 158.534 21.1106C158.304 21.1106 158.075 21.1671 157.903 21.2802C157.731 21.3932 157.559 21.5628 157.444 21.7889C157.33 22.015 157.272 22.2975 157.272 22.5801C157.272 22.8627 157.33 23.1454 157.444 23.3715C157.559 23.5976 157.731 23.7671 157.903 23.8801C158.075 23.9932 158.304 24.0498 158.534 24.0498C158.763 24.0498 158.935 23.9932 159.165 23.8801Z" fill="white"/>
<path d="M163.867 24.5021C163.638 24.389 163.466 24.2194 163.294 24.0499C163.179 23.8238 163.122 23.5977 163.122 23.3716C163.122 22.976 163.294 22.6368 163.581 22.4108C163.925 22.1847 164.326 22.0716 164.842 22.0716C165.072 22.0716 165.301 22.0716 165.53 22.1281C165.702 22.1847 165.874 22.2412 165.989 22.2977V22.0716C165.989 21.9021 165.932 21.7325 165.817 21.5629C165.702 21.3934 165.588 21.2803 165.416 21.2238C165.244 21.1673 165.072 21.1108 164.9 21.1108C164.441 21.1108 164.097 21.2803 163.867 21.676L163.294 21.2803C163.466 21.0542 163.695 20.8281 163.982 20.7151C164.269 20.6021 164.555 20.489 164.9 20.489C165.473 20.489 165.874 20.6586 166.219 20.9412C166.563 21.2238 166.677 21.6194 166.677 22.1281V24.6151H166.046V24.0499H165.989C165.874 24.276 165.702 24.4455 165.473 24.5586C165.244 24.6716 165.014 24.7847 164.727 24.7847C164.441 24.7847 164.097 24.6151 163.867 24.5021ZM165.358 23.8803C165.53 23.7673 165.702 23.5977 165.817 23.4281C165.932 23.2586 165.989 23.0325 165.989 22.8064C165.702 22.6368 165.358 22.5238 164.957 22.5238C164.613 22.5238 164.326 22.5803 164.154 22.7499C163.925 22.9194 163.867 23.089 163.867 23.3151C163.867 23.5412 163.982 23.7108 164.154 23.8238C164.326 23.9368 164.555 24.0499 164.785 24.0499C164.957 24.0499 165.129 23.9934 165.358 23.8803Z" fill="white"/>
<path d="M167.595 20.5455H168.226V21.1108H168.283C168.398 20.8847 168.57 20.7151 168.799 20.6021C169.029 20.489 169.315 20.376 169.602 20.376C170.118 20.376 170.462 20.5455 170.749 20.8281C171.036 21.1108 171.151 21.5064 171.151 22.0151V24.5021H170.462V22.1281C170.462 21.3934 170.118 21.0542 169.43 21.0542C169.201 21.0542 169.029 21.1108 168.857 21.2238C168.685 21.3368 168.57 21.5064 168.455 21.676C168.341 21.8455 168.34 22.0716 168.34 22.2977V24.5021H167.652V20.5455H167.595Z" fill="white"/>
<path d="M172.814 24.389C172.527 24.2194 172.298 23.9368 172.125 23.6542C171.953 23.3151 171.839 22.9759 171.839 22.5802C171.839 22.1846 171.953 21.8455 172.125 21.5064C172.298 21.1672 172.527 20.9411 172.814 20.7715C173.1 20.602 173.445 20.4889 173.789 20.4889C174.075 20.4889 174.362 20.5455 174.649 20.7151C174.878 20.8281 175.108 20.9977 175.222 21.2238H175.28L175.222 20.6585V18.8499H175.91V24.5585H175.222V23.9933H175.165C175.05 24.2194 174.878 24.389 174.591 24.502C174.362 24.6151 174.075 24.7281 173.731 24.7281C173.444 24.6715 173.1 24.5585 172.814 24.389ZM174.534 23.8802C174.764 23.7672 174.878 23.5977 174.993 23.3716C175.108 23.1455 175.165 22.8628 175.165 22.5802C175.165 22.2976 175.108 22.0151 174.993 21.789C174.878 21.5629 174.706 21.3933 174.534 21.2803C174.305 21.1672 174.133 21.1107 173.846 21.1107C173.559 21.1107 173.387 21.1672 173.158 21.2803C172.928 21.3933 172.814 21.5629 172.699 21.789C172.584 22.0151 172.527 22.2976 172.527 22.5802C172.527 22.8628 172.584 23.1455 172.699 23.3716C172.814 23.5977 172.986 23.7672 173.158 23.8802C173.387 23.9933 173.559 24.0499 173.846 24.0499C174.133 24.0499 174.362 23.9933 174.534 23.8802Z" fill="white"/>
<path d="M179.753 19.4152H178.147V18.7935H182.104V19.4152H180.498V24.5022H179.81V19.4152H179.753Z" fill="white"/>
<path d="M182.907 24.3889C182.62 24.2193 182.334 23.9367 182.161 23.6541C181.989 23.3715 181.875 22.9759 181.875 22.5802C181.875 22.1845 181.932 21.8454 182.104 21.5063C182.276 21.1672 182.506 20.9411 182.792 20.715C183.079 20.5454 183.423 20.4324 183.825 20.4324C184.226 20.4324 184.57 20.5454 184.857 20.715C185.144 20.8845 185.373 21.1106 185.545 21.4498C185.717 21.7889 185.774 22.128 185.774 22.5237C185.774 22.5802 185.774 22.6367 185.774 22.6932H182.563C182.563 22.9759 182.62 23.2585 182.792 23.428C182.907 23.6541 183.079 23.7672 183.308 23.8802C183.538 23.9932 183.71 24.0498 183.939 24.0498C184.455 24.0498 184.857 23.8237 185.144 23.315L185.774 23.5976C185.602 23.9367 185.373 24.1628 185.029 24.3889C184.742 24.5585 184.341 24.6715 183.939 24.6715C183.538 24.6715 183.194 24.5585 182.907 24.3889ZM185.086 22.0715C185.086 21.9019 185.029 21.7324 184.972 21.6193C184.914 21.4498 184.742 21.3367 184.57 21.2237C184.398 21.1106 184.169 21.0541 183.882 21.0541C183.595 21.0541 183.308 21.1672 183.079 21.3367C182.85 21.5063 182.735 21.7889 182.678 22.128H185.086V22.0715Z" fill="white"/>
<path d="M187.438 24.389C187.151 24.2194 186.864 23.9368 186.692 23.6542C186.52 23.3151 186.405 22.976 186.405 22.5803C186.405 22.1847 186.52 21.8455 186.692 21.5064C186.864 21.1673 187.093 20.9412 187.438 20.7716C187.782 20.6021 188.126 20.489 188.47 20.489C188.929 20.489 189.273 20.6021 189.559 20.8281C189.846 21.0542 190.076 21.2803 190.19 21.6194L189.559 21.9021C189.33 21.3934 188.929 21.1108 188.412 21.1108C188.183 21.1108 187.954 21.1673 187.782 21.2803C187.552 21.3934 187.438 21.5629 187.266 21.789C187.151 22.0151 187.093 22.2977 187.093 22.5803C187.093 22.8629 187.151 23.1455 187.266 23.3716C187.38 23.5977 187.552 23.7673 187.782 23.8803C188.011 23.9934 188.183 24.0499 188.412 24.0499C188.699 24.0499 188.929 23.9934 189.158 23.8238C189.387 23.6542 189.502 23.4847 189.617 23.2586L190.248 23.5412C190.133 23.8803 189.904 24.1629 189.617 24.3325C189.33 24.5021 188.929 24.6716 188.527 24.6716C188.068 24.6716 187.724 24.5586 187.438 24.389Z" fill="white"/>
<path d="M190.993 18.7935H191.681V20.6022L191.624 21.1674H191.681C191.796 20.9413 191.968 20.7717 192.197 20.6587C192.427 20.5456 192.714 20.4326 193 20.4326C193.516 20.4326 193.861 20.6022 194.147 20.8848C194.434 21.1674 194.549 21.563 194.549 22.0152V24.5022H193.861V22.1282C193.861 21.7326 193.746 21.5065 193.574 21.3369C193.402 21.1674 193.172 21.0543 192.828 21.0543C192.599 21.0543 192.427 21.1108 192.255 21.2239C192.083 21.3369 191.968 21.5065 191.853 21.7326C191.739 21.9587 191.681 22.1282 191.681 22.3543V24.5022H190.993V18.7935Z" fill="white"/>
<path d="M195.466 20.5455H196.097V21.1108H196.154C196.269 20.8847 196.441 20.7151 196.671 20.6021C196.9 20.489 197.187 20.376 197.474 20.376C197.99 20.376 198.334 20.5455 198.62 20.8281C198.85 21.1108 199.022 21.5064 199.022 22.0151V24.5021H198.334V22.1281C198.334 21.3934 197.99 21.0542 197.301 21.0542C197.072 21.0542 196.9 21.1108 196.728 21.2238C196.556 21.3368 196.441 21.5064 196.327 21.676C196.212 21.8455 196.212 22.0716 196.212 22.2977V24.5021H195.524V20.5455H195.466Z" fill="white"/>
<path d="M200.742 24.389C200.456 24.2194 200.169 23.9368 199.997 23.6542C199.825 23.3151 199.71 22.976 199.71 22.5803C199.71 22.1847 199.825 21.8455 199.997 21.5064C200.169 21.1673 200.398 20.9412 200.742 20.7716C201.087 20.6021 201.431 20.489 201.832 20.489C202.234 20.489 202.578 20.6021 202.922 20.7716C203.266 20.9412 203.495 21.2238 203.667 21.5064C203.839 21.789 203.954 22.1847 203.954 22.5803C203.954 22.976 203.839 23.3151 203.667 23.6542C203.495 23.9934 203.266 24.2194 202.922 24.389C202.578 24.5586 202.234 24.6716 201.832 24.6716C201.431 24.6716 201.029 24.5586 200.742 24.389ZM202.463 23.8238C202.692 23.7108 202.864 23.5412 202.979 23.3151C203.094 23.089 203.151 22.8064 203.151 22.5238C203.151 22.2412 203.094 21.9586 202.979 21.7325C202.864 21.5064 202.692 21.3368 202.463 21.2238C202.234 21.1108 202.004 21.0542 201.775 21.0542C201.545 21.0542 201.316 21.1108 201.087 21.2238C200.857 21.3368 200.685 21.5064 200.57 21.7325C200.456 21.9586 200.398 22.2412 200.398 22.5238C200.398 22.8064 200.456 23.089 200.57 23.3151C200.685 23.5412 200.857 23.7108 201.087 23.8238C201.316 23.9368 201.545 23.9934 201.775 23.9934C202.061 24.0499 202.291 23.9934 202.463 23.8238Z" fill="white"/>
<path d="M204.585 18.7935H205.274V24.5022H204.585V18.7935Z" fill="white"/>
<path d="M207.051 24.389C206.764 24.2194 206.477 23.9368 206.305 23.6542C206.133 23.3151 206.019 22.976 206.019 22.5803C206.019 22.1847 206.133 21.8455 206.305 21.5064C206.477 21.1673 206.707 20.9412 207.051 20.7716C207.395 20.6021 207.739 20.489 208.14 20.489C208.542 20.489 208.886 20.6021 209.23 20.7716C209.574 20.9412 209.804 21.2238 209.976 21.5064C210.148 21.789 210.262 22.1847 210.262 22.5803C210.262 22.976 210.148 23.3151 209.976 23.6542C209.804 23.9934 209.574 24.2194 209.23 24.389C208.886 24.5586 208.542 24.6716 208.14 24.6716C207.739 24.6716 207.338 24.5586 207.051 24.389ZM208.771 23.8238C209.001 23.7108 209.173 23.5412 209.287 23.3151C209.402 23.089 209.459 22.8064 209.459 22.5238C209.459 22.2412 209.402 21.9586 209.287 21.7325C209.173 21.5064 209.001 21.3368 208.771 21.2238C208.542 21.1108 208.312 21.0542 208.083 21.0542C207.854 21.0542 207.624 21.1108 207.395 21.2238C207.166 21.3368 206.993 21.5064 206.879 21.7325C206.764 21.9586 206.707 22.2412 206.707 22.5238C206.707 22.8064 206.764 23.089 206.879 23.3151C206.993 23.5412 207.166 23.7108 207.395 23.8238C207.624 23.9368 207.854 23.9934 208.083 23.9934C208.312 24.0499 208.542 23.9934 208.771 23.8238Z" fill="white"/>
<path d="M211.524 26.028C211.237 25.8019 211.008 25.5193 210.893 25.2367L211.524 24.9541C211.581 25.1802 211.753 25.4063 211.983 25.5193C212.212 25.6889 212.442 25.7454 212.728 25.7454C213.13 25.7454 213.474 25.6323 213.703 25.4062C213.933 25.1802 214.047 24.8411 214.047 24.3889V23.9932H213.99C213.875 24.2193 213.646 24.3889 213.416 24.5019C213.187 24.615 212.9 24.728 212.614 24.728C212.269 24.728 211.983 24.6149 211.639 24.4454C211.352 24.2758 211.122 23.9932 210.95 23.7106C210.778 23.3714 210.664 23.0324 210.664 22.6367C210.664 22.2411 210.778 21.9019 210.95 21.5628C211.122 21.2237 211.352 20.9976 211.639 20.828C211.925 20.6585 212.269 20.5454 212.614 20.5454C212.9 20.5454 213.187 20.6019 213.416 20.7714C213.646 20.8845 213.875 21.0541 213.99 21.2802H214.047V20.715H214.678V24.3889C214.678 24.8411 214.563 25.1802 214.391 25.5193C214.219 25.8585 213.99 26.028 213.703 26.1975C213.416 26.3671 213.072 26.4236 212.671 26.4236C212.212 26.3671 211.811 26.2541 211.524 26.028ZM213.359 23.8801C213.531 23.7671 213.703 23.5976 213.818 23.3715C213.933 23.1454 213.99 22.8627 213.99 22.5801C213.99 22.2975 213.933 22.015 213.818 21.7889C213.703 21.5628 213.531 21.3932 213.359 21.2802C213.187 21.1671 212.958 21.1106 212.728 21.1106C212.499 21.1106 212.269 21.1671 212.097 21.2802C211.925 21.3932 211.753 21.5628 211.639 21.7889C211.524 22.015 211.467 22.2975 211.467 22.5801C211.467 22.8627 211.524 23.1454 211.639 23.3715C211.753 23.5976 211.925 23.7671 212.097 23.8801C212.269 23.9932 212.499 24.0498 212.728 24.0498C212.958 24.0498 213.187 23.9932 213.359 23.8801Z" fill="white"/>
<path d="M216.915 24.2758L215.252 20.5454H215.997L217.259 23.4845L218.463 20.5454H219.209L216.685 26.2541H215.997L216.915 24.2758Z" fill="white"/>
</g>
<defs>
<clipPath id="clip0_681_6302">
<rect width="219.072" height="26" fill="white" transform="translate(0.309204 0.649902)"/>
</clipPath>
</defs>
</svg>
