<svg width="32" height="32" viewBox="0 0 32 32" fill="none" xmlns="http://www.w3.org/2000/svg">
<path d="M6.48175 13.9L9.97233 15.8217L13.6996 13.7869C14.7053 13.2217 15.0603 11.9782 14.4687 11.0174C13.877 10.0565 12.5755 9.71735 11.5697 10.2826L5.53516 13.5608C5.89013 13.6174 6.18594 13.7304 6.48175 13.9Z" fill="#EA4335"/>
<path d="M26.242 18.4217L22.7514 16.5L19.0242 18.5348C18.0185 19.1 17.6635 20.3435 18.2551 21.3043C18.6692 21.9826 19.3792 22.3217 20.0891 22.3217C20.4441 22.3217 20.7991 22.2087 21.1541 22.0391L27.1886 18.7043C26.8928 18.7043 26.5378 18.5913 26.242 18.4217Z" fill="#FBBC04"/>
<path d="M28.6677 14.4087L21.1541 10.2826C20.7991 10.113 20.4441 10 20.0891 10C19.3792 10 18.6101 10.3391 18.2551 11.0174C17.6635 11.9783 18.0185 13.2217 19.0242 13.787L26.5378 17.9131C26.8928 18.0826 27.2478 18.1957 27.6027 18.1957C28.3127 18.1957 29.0818 17.8565 29.4368 17.1783C30.0876 16.2174 29.7326 14.9174 28.6677 14.4087Z" fill="#34A853"/>
<path d="M13.6997 18.5347L6.18604 14.4086C5.83106 14.239 5.47609 14.126 5.12112 14.126C4.41117 14.126 3.64206 14.4651 3.28708 15.1434C2.69546 16.1042 3.05044 17.3477 4.0562 17.9129L11.5698 22.039C11.9248 22.2086 12.2798 22.3216 12.6347 22.3216C13.3447 22.3216 14.1138 21.9825 14.4688 21.3042C15.0604 20.3434 14.7054 19.0999 13.6997 18.5347Z" fill="#4285F4"/>
</svg>
