<svg width="219" height="26" viewBox="0 0 219 26" fill="none" xmlns="http://www.w3.org/2000/svg">
<g clip-path="url(#clip0_692_6378)">
<path d="M10.3767 8.83734L3.09578 4.83904C2.7518 4.67473 2.40782 4.56519 2.06384 4.56519C1.37588 4.56519 0.630596 4.89381 0.286616 5.55106C-0.286683 6.48218 0.0572964 7.68715 1.0319 8.23486L8.31279 12.2331C8.65677 12.3975 9.00075 12.507 9.34473 12.507C10.0327 12.507 10.778 12.1784 11.122 11.5211C11.6953 10.59 11.3513 9.38505 10.3767 8.83734Z" fill="#4285F4"/>
<path d="M24.8811 4.83904L17.6002 0.84075C17.2562 0.676437 16.9122 0.566895 16.5682 0.566895C15.8803 0.566895 15.135 0.895521 14.791 1.55277C14.2177 2.48388 14.5617 3.68885 15.5363 4.23656L22.8172 8.23485C23.1612 8.39916 23.5051 8.50871 23.8491 8.50871C24.5371 8.50871 25.2824 8.18008 25.6264 7.52283C26.257 6.59172 25.913 5.33198 24.8811 4.83904Z" fill="#34A853"/>
<path d="M22.5305 8.72794L19.1481 6.86572L15.5363 8.83748C14.5617 9.38519 14.2177 10.5902 14.791 11.5213C15.1923 12.1785 15.8803 12.5071 16.5682 12.5071C16.9122 12.5071 17.2562 12.3976 17.6002 12.2333L23.4478 9.00179C23.1612 9.00179 22.8172 8.89225 22.5305 8.72794Z" fill="#FBBC04"/>
<path d="M3.38237 4.34608L6.76483 6.20829L10.3766 4.23653C11.3512 3.68882 11.6952 2.48386 11.1219 1.55275C10.5486 0.621644 9.28734 0.293017 8.31273 0.840727L2.46509 4.01745C2.80907 4.07222 3.09572 4.18176 3.38237 4.34608Z" fill="#EA4335"/>
<path d="M34.1686 10.4255C33.4233 10.0421 32.85 9.43971 32.3914 8.72769C31.9327 8.01566 31.7607 7.1941 31.7607 6.31771C31.7607 5.4414 31.9901 4.6746 32.3914 3.90781C32.85 3.19578 33.4233 2.64807 34.1686 2.2099C34.9139 1.82651 35.7165 1.60742 36.6338 1.60742C37.3217 1.60742 37.9524 1.71696 38.583 1.93605C39.2136 2.15513 39.6723 2.48376 40.0736 2.92193L39.271 3.68872C38.9843 3.3601 38.583 3.08624 38.1244 2.86716C37.6657 2.70284 37.1497 2.5933 36.6338 2.5933C36.0032 2.5933 35.3725 2.75761 34.7992 3.03147C34.2259 3.3601 33.7673 3.74349 33.4233 4.34598C33.0793 4.89369 32.9073 5.55094 32.9073 6.26299C32.9073 6.97501 33.0793 7.63227 33.4233 8.17998C33.7673 8.72769 34.2259 9.1658 34.7992 9.49443C35.3725 9.82305 36.0032 9.93265 36.6338 9.93265C37.2644 9.93265 37.7804 9.82311 38.239 9.6588C38.6403 9.49448 39.0416 9.22063 39.3283 8.892C39.5576 8.67292 39.7296 8.39906 39.9016 8.01566C40.0162 7.68704 40.1309 7.30358 40.1309 6.92024H36.6338V5.93436H41.1628C41.2202 6.15345 41.2202 6.37253 41.2202 6.59156C41.2202 7.13927 41.1055 7.68704 40.9335 8.17998C40.7615 8.72769 40.4749 9.16586 40.0736 9.54925C39.2136 10.4256 38.0097 10.9185 36.6338 10.9185C35.7165 11.0281 34.9139 10.8637 34.1686 10.4255Z" fill="black"/>
<path d="M43.6853 10.5901C43.1693 10.3162 42.768 9.8781 42.4814 9.38516C42.1947 8.89222 42.0801 8.28968 42.0801 7.6872C42.0801 7.08472 42.1947 6.48229 42.4814 5.98935C42.768 5.49638 43.1693 5.05822 43.6853 4.78436C44.2013 4.5105 44.7746 4.34619 45.4052 4.34619C46.0358 4.34619 46.6091 4.5105 47.1251 4.78436C47.6411 5.05822 48.0424 5.49638 48.329 5.98935C48.6157 6.48229 48.7303 7.08472 48.7303 7.6872C48.7303 8.28968 48.6157 8.89222 48.329 9.38516C48.0424 9.8781 47.6411 10.3162 47.1251 10.5901C46.6091 10.8639 46.0358 11.0283 45.4052 11.0283C44.7746 11.0283 44.2013 10.9187 43.6853 10.5901ZM46.4945 9.7685C46.8385 9.54941 47.1251 9.27556 47.2971 8.94693C47.5264 8.61831 47.5837 8.18014 47.5837 7.6872C47.5837 7.19426 47.4691 6.81092 47.2971 6.42752C47.0678 6.09889 46.8385 5.77024 46.4945 5.60593C46.1505 5.38684 45.8065 5.33207 45.4052 5.33207C45.0039 5.33207 44.6599 5.44161 44.3159 5.60593C43.972 5.82501 43.6853 6.09889 43.5133 6.42752C43.284 6.81092 43.2267 7.19426 43.2267 7.6872C43.2267 8.18014 43.3413 8.56354 43.5133 8.94693C43.7426 9.33033 43.972 9.60419 44.3159 9.7685C44.6599 9.98758 45.0039 10.0424 45.4052 10.0424C45.8065 10.0971 46.2078 9.98758 46.4945 9.7685Z" fill="black"/>
<path d="M51.1382 10.5901C50.6222 10.3162 50.2209 9.8781 49.9343 9.38516C49.6476 8.89222 49.533 8.28968 49.533 7.6872C49.533 7.08472 49.6476 6.48229 49.9343 5.98935C50.2209 5.49638 50.6222 5.05822 51.1382 4.78436C51.6542 4.5105 52.2275 4.34619 52.8581 4.34619C53.4887 4.34619 54.062 4.5105 54.578 4.78436C55.094 5.05822 55.4953 5.49638 55.7819 5.98935C56.0686 6.48229 56.1832 7.08472 56.1832 7.6872C56.1832 8.28968 56.0686 8.89222 55.7819 9.38516C55.4953 9.8781 55.094 10.3162 54.578 10.5901C54.062 10.8639 53.4887 11.0283 52.8581 11.0283C52.2275 11.0283 51.6542 10.9187 51.1382 10.5901ZM54.0047 9.7685C54.3487 9.54941 54.6353 9.27556 54.8073 8.94693C55.0366 8.61831 55.094 8.18014 55.094 7.6872C55.094 7.19426 54.9793 6.81092 54.8073 6.42752C54.578 6.09889 54.3487 5.77024 54.0047 5.60593C53.6607 5.38684 53.3167 5.33207 52.9154 5.33207C52.5141 5.33207 52.1701 5.44161 51.8262 5.60593C51.4822 5.82501 51.1955 6.09889 51.0235 6.42752C50.7942 6.81092 50.7369 7.19426 50.7369 7.6872C50.7369 8.18014 50.8515 8.56354 51.0235 8.94693C51.2529 9.33033 51.4822 9.60419 51.8262 9.7685C52.1701 9.98758 52.5141 10.0424 52.9154 10.0424C53.2594 10.0971 53.6607 9.98758 54.0047 9.7685Z" fill="black"/>
<path d="M58.3045 13.2192C57.7885 12.8358 57.4445 12.4524 57.2725 11.9595L58.3045 11.5213C58.4191 11.9047 58.6485 12.1785 58.9924 12.3976C59.3364 12.6167 59.7377 12.7263 60.1964 12.7263C60.8843 12.7263 61.4003 12.5072 61.8016 12.1238C62.2029 11.7404 62.3749 11.1927 62.3749 10.5354V9.87816H62.3176C62.0883 10.2068 61.8016 10.4806 61.4003 10.645C60.999 10.864 60.5403 10.9736 60.0817 10.9736C59.5084 10.9736 58.9924 10.8093 58.5338 10.5354C58.0752 10.2616 57.6739 9.87816 57.3872 9.33045C57.1005 8.83751 56.9858 8.23503 56.9858 7.63255C56.9858 6.9753 57.1005 6.42759 57.3872 5.93465C57.6739 5.4417 58.0178 5.05829 58.5338 4.72967C58.9924 4.45581 59.5084 4.2915 60.0817 4.2915C60.5977 4.2915 61.0563 4.40105 61.4003 4.62013C61.8016 4.83921 62.0883 5.11307 62.3176 5.38693H62.3749V4.45581H63.4642V10.4259C63.4642 11.1379 63.3495 11.6856 63.0629 12.1785C62.7762 12.6715 62.3749 13.0001 61.9163 13.2192C61.4576 13.4383 60.8843 13.5478 60.2537 13.5478C59.4511 13.7669 58.7631 13.6026 58.3045 13.2192ZM61.2856 9.76862C61.6296 9.60431 61.8589 9.33045 62.0883 8.94706C62.2602 8.61843 62.3749 8.18026 62.3749 7.68732C62.3749 7.19438 62.2602 6.81098 62.0883 6.42759C61.9163 6.04419 61.6296 5.82509 61.2856 5.60601C60.9417 5.4417 60.5977 5.33215 60.1964 5.33215C59.7951 5.33215 59.4511 5.4417 59.1071 5.60601C58.7631 5.77032 58.5338 6.04419 58.3045 6.42759C58.1325 6.75621 58.0178 7.19438 58.0178 7.68732C58.0178 8.18026 58.1325 8.56366 58.3045 8.94706C58.4765 9.27568 58.7631 9.54954 59.1071 9.76862C59.4511 9.93293 59.7951 10.0425 60.1964 10.0425C60.655 10.0972 60.999 9.98771 61.2856 9.76862Z" fill="black"/>
<path d="M64.9547 1.82666H66.044V10.8091H64.9547V1.82666Z" fill="black"/>
<path d="M68.7385 10.59C68.2225 10.3162 67.8785 9.93276 67.5919 9.38505C67.3052 8.89211 67.1906 8.28963 67.1906 7.68715C67.1906 7.08467 67.3052 6.53696 67.5919 6.04402C67.8785 5.55107 68.2225 5.1129 68.7385 4.83905C69.1971 4.56519 69.7704 4.40088 70.401 4.40088C71.0317 4.40088 71.605 4.51042 72.0636 4.78428C72.5222 5.05813 72.9235 5.44153 73.1529 5.93447C73.3822 6.42741 73.5542 6.97512 73.5542 7.63238C73.5542 7.74192 73.5542 7.85146 73.5542 7.90623H68.3945C68.3945 8.39917 68.5091 8.78257 68.7385 9.1112C68.9678 9.43982 69.2544 9.65891 69.5411 9.82322C69.8851 9.98753 70.229 10.0423 70.573 10.0423C71.3756 10.0423 72.0063 9.65891 72.4649 8.89211L73.4395 9.33028C73.1529 9.82322 72.7516 10.2614 72.2929 10.5352C71.7769 10.8639 71.2036 10.9734 70.5157 10.9734C69.7704 11.0282 69.1971 10.9186 68.7385 10.59ZM72.2929 7.0299C72.2929 6.75604 72.1783 6.53696 72.0636 6.2631C71.9489 5.98925 71.7196 5.82493 71.433 5.60584C71.1463 5.44153 70.745 5.33199 70.2864 5.33199C69.7704 5.33199 69.3691 5.4963 69.0251 5.77016C68.6811 6.09879 68.4518 6.48218 68.3371 6.97512H72.2929V7.0299Z" fill="black"/>
<path d="M77.7393 1.82666H80.6057C81.5804 1.82666 82.383 1.99097 83.1283 2.37437C83.8735 2.75777 84.3895 3.30548 84.7908 3.96273C85.1921 4.61998 85.3641 5.44155 85.3641 6.3179C85.3641 7.19424 85.1921 7.96103 84.7908 8.67306C84.3895 9.33031 83.8735 9.87802 83.1283 10.2614C82.383 10.6448 81.5804 10.8091 80.6057 10.8091H77.7393V1.82666ZM80.6057 9.82325C81.695 9.82325 82.6123 9.49462 83.2429 8.89214C83.8735 8.28966 84.2175 7.41332 84.2175 6.3179C84.2175 5.22246 83.8735 4.34613 83.2429 3.74365C82.6123 3.14117 81.695 2.81253 80.6057 2.81253H78.8859V9.76848H80.6057V9.82325Z" fill="black"/>
<path d="M87.8866 10.59C87.3707 10.3162 87.0267 9.93276 86.7401 9.38505C86.4534 8.89211 86.3387 8.28963 86.3387 7.68715C86.3387 7.08467 86.4534 6.53696 86.7401 6.04402C87.0267 5.55107 87.3707 5.1129 87.8866 4.83905C88.3453 4.56519 88.9186 4.40088 89.5492 4.40088C90.1798 4.40088 90.7531 4.51042 91.2118 4.78428C91.6704 5.05813 92.0717 5.44153 92.301 5.93447C92.5304 6.42741 92.7023 6.97512 92.7023 7.63238C92.7023 7.74192 92.7023 7.85146 92.7023 7.90623H87.5427C87.5427 8.39917 87.6573 8.78257 87.8866 9.1112C88.116 9.43982 88.4026 9.65891 88.6893 9.82322C89.0332 9.98753 89.3772 10.0423 89.7212 10.0423C90.5238 10.0423 91.1544 9.65891 91.6131 8.89211L92.5877 9.33028C92.301 9.82322 91.8997 10.2614 91.4411 10.5352C90.9825 10.8091 90.3518 10.9734 89.6639 10.9734C88.9759 11.0282 88.4026 10.9186 87.8866 10.59ZM91.4411 7.0299C91.4411 6.75604 91.3264 6.53696 91.2118 6.2631C91.0971 5.98925 90.8678 5.82493 90.5811 5.60584C90.2945 5.44153 89.8932 5.33199 89.4345 5.33199C88.9186 5.33199 88.5173 5.4963 88.1733 5.77016C87.8293 6.09879 87.6 6.48218 87.4853 6.97512H91.4411V7.0299Z" fill="black"/>
<path d="M92.9316 4.61987H94.1356L96.1421 9.60401L98.1487 4.61987H99.3526L96.6581 10.8637H95.5115L92.9316 4.61987Z" fill="black"/>
<path d="M101.416 10.59C100.9 10.3162 100.556 9.93276 100.27 9.38505C99.9832 8.89211 99.8685 8.28963 99.8685 7.68715C99.8685 7.08467 99.9832 6.53696 100.27 6.04402C100.556 5.55107 100.9 5.1129 101.416 4.83905C101.875 4.56519 102.448 4.40088 103.079 4.40088C103.71 4.40088 104.283 4.51042 104.742 4.78428C105.2 5.05813 105.602 5.44153 105.831 5.93447C106.06 6.42741 106.232 6.97512 106.232 7.63238C106.232 7.74192 106.232 7.85146 106.232 7.90623H101.072C101.072 8.39917 101.187 8.78257 101.416 9.1112C101.646 9.43982 101.932 9.65891 102.219 9.82322C102.563 9.98753 102.907 10.0423 103.251 10.0423C104.054 10.0423 104.684 9.65891 105.143 8.89211L106.118 9.33028C105.831 9.82322 105.43 10.2614 104.971 10.5352C104.455 10.8639 103.882 10.9734 103.194 10.9734C102.448 11.0282 101.875 10.9186 101.416 10.59ZM104.971 7.0299C104.971 6.75604 104.856 6.53696 104.742 6.2631C104.627 5.98925 104.398 5.82493 104.111 5.60584C103.824 5.44153 103.423 5.33199 102.964 5.33199C102.448 5.33199 102.047 5.4963 101.703 5.77016C101.359 6.09879 101.13 6.48218 101.015 6.97512H104.971V7.0299Z" fill="black"/>
<path d="M107.264 1.82666H108.411V10.8091H107.264V1.82666Z" fill="black"/>
<path d="M111.105 10.5901C110.589 10.3162 110.188 9.8781 109.901 9.38516C109.615 8.89222 109.5 8.28968 109.5 7.6872C109.5 7.08472 109.615 6.48229 109.901 5.98935C110.188 5.49638 110.589 5.05822 111.105 4.78436C111.621 4.5105 112.195 4.34619 112.825 4.34619C113.456 4.34619 114.029 4.5105 114.545 4.78436C115.061 5.05822 115.462 5.49638 115.749 5.98935C116.036 6.48229 116.15 7.08472 116.15 7.6872C116.15 8.28968 116.036 8.89222 115.749 9.38516C115.462 9.8781 115.061 10.3162 114.545 10.5901C114.029 10.8639 113.456 11.0283 112.825 11.0283C112.195 11.0283 111.564 10.9187 111.105 10.5901ZM113.914 9.7685C114.258 9.54941 114.545 9.27556 114.717 8.94693C114.946 8.61831 115.004 8.18014 115.004 7.6872C115.004 7.19426 114.889 6.81092 114.717 6.42752C114.488 6.09889 114.258 5.77024 113.914 5.60593C113.57 5.38684 113.226 5.33207 112.825 5.33207C112.424 5.33207 112.08 5.44161 111.736 5.60593C111.392 5.82501 111.105 6.09889 110.933 6.42752C110.704 6.81092 110.647 7.19426 110.647 7.6872C110.647 8.18014 110.761 8.56354 110.933 8.94693C111.163 9.33033 111.392 9.60419 111.736 9.7685C112.08 9.98758 112.424 10.0424 112.825 10.0424C113.226 10.0971 113.57 9.98758 113.914 9.7685Z" fill="black"/>
<path d="M117.182 4.61996H118.271V5.55107H118.329C118.558 5.22244 118.845 4.94859 119.246 4.72951C119.647 4.51042 120.106 4.40088 120.622 4.40088C121.195 4.40088 121.711 4.56519 122.17 4.83905C122.628 5.1129 123.03 5.4963 123.316 6.04402C123.603 6.53696 123.718 7.08467 123.718 7.74192C123.718 8.3444 123.603 8.94688 123.316 9.43982C123.03 9.93276 122.686 10.3162 122.17 10.6448C121.711 10.9186 121.195 11.083 120.622 11.083C120.106 11.083 119.647 10.9734 119.246 10.7543C118.845 10.5352 118.558 10.2614 118.329 9.93276H118.271L118.329 10.8091V13.5477H117.239V4.61996H117.182ZM121.482 9.76845C121.826 9.54936 122.055 9.27551 122.284 8.94688C122.456 8.61826 122.571 8.18009 122.571 7.68715C122.571 7.19421 122.456 6.81081 122.284 6.42741C122.112 6.09879 121.826 5.77016 121.482 5.60584C121.138 5.38676 120.794 5.33199 120.393 5.33199C119.991 5.33199 119.647 5.44153 119.303 5.60584C118.959 5.77016 118.73 6.04402 118.501 6.42741C118.329 6.75604 118.214 7.19421 118.214 7.68715C118.214 8.18009 118.329 8.56349 118.501 8.94688C118.673 9.33028 118.959 9.60414 119.303 9.76845C119.647 9.93276 119.991 10.0423 120.393 10.0423C120.794 10.0423 121.138 9.98753 121.482 9.76845Z" fill="black"/>
<path d="M126.298 10.59C125.782 10.3162 125.438 9.93276 125.151 9.38505C124.864 8.89211 124.75 8.28963 124.75 7.68715C124.75 7.08467 124.864 6.53696 125.151 6.04402C125.438 5.55107 125.782 5.1129 126.298 4.83905C126.756 4.56519 127.33 4.40088 127.96 4.40088C128.591 4.40088 129.164 4.51042 129.623 4.78428C130.081 5.05813 130.483 5.44153 130.712 5.93447C130.941 6.42741 131.113 6.97512 131.113 7.63238C131.113 7.74192 131.113 7.85146 131.113 7.90623H125.954C125.954 8.39917 126.068 8.78257 126.298 9.1112C126.527 9.43982 126.814 9.65891 127.1 9.82322C127.444 9.98753 127.788 10.0423 128.132 10.0423C128.935 10.0423 129.565 9.65891 130.024 8.89211L130.999 9.33028C130.712 9.82322 130.311 10.2614 129.852 10.5352C129.336 10.8639 128.763 10.9734 128.075 10.9734C127.33 11.0282 126.756 10.9186 126.298 10.59ZM129.852 7.0299C129.852 6.75604 129.737 6.53696 129.623 6.2631C129.508 5.98925 129.279 5.82493 128.992 5.60584C128.706 5.44153 128.304 5.33199 127.846 5.33199C127.33 5.33199 126.928 5.4963 126.584 5.77016C126.24 6.09879 126.011 6.48218 125.896 6.97512H129.852V7.0299Z" fill="black"/>
<path d="M132.145 4.61988H133.235V5.66053H133.292C133.407 5.3319 133.693 5.00328 134.037 4.78419C134.438 4.56511 134.782 4.45557 135.184 4.45557C135.47 4.45557 135.7 4.51034 135.929 4.56511V5.7153C135.7 5.60576 135.413 5.55099 135.012 5.55099C134.725 5.55099 134.438 5.66053 134.152 5.82484C133.865 5.98918 133.693 6.20826 133.521 6.53689C133.349 6.81074 133.292 7.13937 133.292 7.468V10.9186H132.145V4.61988Z" fill="black"/>
<path d="M140.802 10.7543C140.343 10.59 139.942 10.3161 139.655 9.93272C139.311 9.54932 139.082 9.11115 138.91 8.61821L139.999 8.18004C140.171 8.72775 140.401 9.16592 140.802 9.49455C141.203 9.82318 141.662 9.98749 142.235 9.98749C142.809 9.98749 143.267 9.82318 143.611 9.54932C144.013 9.27546 144.185 8.89207 144.185 8.39913C144.185 7.96096 144.013 7.63233 143.726 7.35848C143.382 7.08462 142.866 6.81077 142.178 6.59168L141.605 6.3726C140.917 6.15351 140.401 5.82487 139.999 5.49624C139.598 5.11285 139.369 4.61991 139.369 3.96266C139.369 3.52449 139.483 3.14109 139.713 2.75769C139.942 2.37429 140.286 2.10044 140.745 1.88136C141.203 1.66228 141.662 1.55273 142.235 1.55273C142.751 1.55273 143.267 1.66228 143.669 1.82659C144.07 2.04567 144.414 2.26475 144.643 2.53861C144.872 2.81246 145.044 3.08632 145.159 3.36017L144.127 3.79835C144.013 3.46972 143.841 3.19587 143.497 2.97678C143.21 2.70293 142.809 2.59338 142.293 2.59338C141.834 2.59338 141.375 2.70293 141.031 2.97678C140.687 3.25064 140.515 3.57926 140.515 3.96266C140.515 4.29129 140.687 4.61991 140.974 4.839C141.261 5.05808 141.719 5.27717 142.293 5.44148L142.923 5.66056C143.726 5.93443 144.356 6.26306 144.815 6.70122C145.274 7.13939 145.503 7.6871 145.503 8.39913C145.503 9.00161 145.331 9.43978 145.044 9.87795C144.758 10.2613 144.356 10.5352 143.841 10.7543C143.382 10.9186 142.866 11.0281 142.35 11.0281C141.719 11.0281 141.261 10.9734 140.802 10.7543Z" fill="black"/>
<path d="M148.026 10.9187C147.796 10.8092 147.624 10.6996 147.452 10.5901C147.28 10.4258 147.166 10.2615 147.051 10.0424C146.994 9.82329 146.936 9.54943 146.936 9.27557V5.60591H145.79V4.62003H146.936V2.75781H148.026V4.62003H149.631V5.60591H148.026V9.00172C148.026 9.38512 148.083 9.6042 148.255 9.82329C148.427 9.9876 148.656 10.0971 148.943 10.0971C149.23 10.0971 149.459 10.0424 149.631 9.93283V10.9735C149.516 11.0282 149.344 11.083 149.23 11.083C149.115 11.083 148.943 11.1378 148.714 11.1378C148.484 11.0282 148.255 10.9735 148.026 10.9187Z" fill="black"/>
<path d="M151.408 10.371C151.007 9.93283 150.777 9.33035 150.777 8.50879V4.56527H151.867V8.2897C151.867 9.43989 152.383 9.9876 153.472 9.9876C153.816 9.9876 154.16 9.87806 154.447 9.71375C154.733 9.49467 154.963 9.27558 155.077 8.94695C155.192 8.61833 155.307 8.2897 155.307 7.96108V4.5105H156.396V10.7544H155.364V9.82329C155.192 10.1519 154.905 10.4258 154.504 10.6449C154.103 10.8639 153.701 10.9735 153.243 10.9735C152.44 11.0283 151.809 10.8092 151.408 10.371Z" fill="black"/>
<path d="M159.09 10.5899C158.632 10.316 158.23 9.93262 157.944 9.38491C157.657 8.89197 157.542 8.28949 157.542 7.687C157.542 7.08452 157.657 6.48204 157.944 5.9891C158.23 5.49616 158.574 5.11276 159.09 4.78414C159.549 4.51028 160.065 4.34597 160.638 4.34597C161.154 4.34597 161.613 4.45551 162.014 4.6746C162.415 4.89368 162.702 5.16753 162.931 5.49616H162.989L162.931 4.61982V1.77173H164.021V10.7542H162.989V9.82308H162.931C162.702 10.1517 162.415 10.4256 162.014 10.6446C161.613 10.8637 161.154 10.9733 160.638 10.9733C160.065 11.028 159.549 10.9185 159.09 10.5899ZM161.899 9.7683C162.243 9.60399 162.473 9.33014 162.702 8.94674C162.874 8.56334 162.989 8.17994 162.989 7.687C162.989 7.19406 162.874 6.81067 162.702 6.42727C162.53 6.04387 162.243 5.82479 161.899 5.6057C161.555 5.44139 161.211 5.33185 160.81 5.33185C160.409 5.33185 160.065 5.44139 159.721 5.6057C159.377 5.82479 159.148 6.09864 158.918 6.42727C158.746 6.81067 158.632 7.19406 158.632 7.687C158.632 8.17994 158.746 8.56334 158.918 8.94674C159.09 9.33014 159.377 9.60399 159.721 9.7683C160.065 9.98739 160.409 10.0422 160.81 10.0422C161.211 10.0969 161.555 9.98739 161.899 9.7683Z" fill="black"/>
<path d="M166.715 10.59C166.199 10.3162 165.855 9.93276 165.569 9.38505C165.282 8.89211 165.167 8.28963 165.167 7.68715C165.167 7.08467 165.282 6.53696 165.569 6.04402C165.855 5.55107 166.199 5.1129 166.715 4.83905C167.174 4.56519 167.747 4.40088 168.378 4.40088C169.008 4.40088 169.582 4.51042 170.04 4.78428C170.499 5.05813 170.9 5.44153 171.13 5.93447C171.359 6.42741 171.531 6.97512 171.531 7.63238C171.531 7.74192 171.531 7.85146 171.531 7.90623H166.371C166.371 8.39917 166.486 8.78257 166.715 9.1112C166.944 9.43982 167.231 9.65891 167.518 9.82322C167.862 9.98753 168.206 10.0423 168.55 10.0423C169.352 10.0423 169.983 9.65891 170.442 8.89211L171.416 9.33028C171.13 9.82322 170.728 10.2614 170.27 10.5352C169.754 10.8639 169.18 10.9734 168.492 10.9734C167.747 11.0282 167.174 10.9186 166.715 10.59ZM170.27 7.0299C170.27 6.75604 170.155 6.53696 170.04 6.2631C169.926 5.98925 169.696 5.82493 169.41 5.60584C169.123 5.44153 168.722 5.33199 168.263 5.33199C167.747 5.33199 167.346 5.4963 167.002 5.77016C166.658 6.09879 166.428 6.48218 166.314 6.97512H170.27V7.0299Z" fill="black"/>
<path d="M172.563 4.61996H173.652V5.55107H173.709C173.881 5.22244 174.168 4.94859 174.569 4.72951C174.971 4.51042 175.372 4.40088 175.831 4.40088C176.633 4.40088 177.207 4.61996 177.665 5.05813C178.067 5.4963 178.296 6.09879 178.296 6.86558V10.8091H177.149V7.0299C177.149 5.93447 176.576 5.33199 175.487 5.33199C175.143 5.33199 174.799 5.44153 174.512 5.60584C174.225 5.82493 173.996 6.04402 173.881 6.37264C173.709 6.70127 173.652 7.0299 173.652 7.35852V10.8091H172.505V4.61996H172.563Z" fill="black"/>
<path d="M181.162 10.9187C180.933 10.8092 180.761 10.6996 180.589 10.5901C180.417 10.4258 180.302 10.2615 180.188 10.0424C180.13 9.82329 180.073 9.54943 180.073 9.27557V5.60591H178.927V4.62003H180.073V2.75781H181.162V4.62003H182.768V5.60591H181.162V9.00172C181.162 9.38512 181.22 9.6042 181.392 9.82329C181.564 9.9876 181.793 10.0971 182.08 10.0971C182.366 10.0971 182.596 10.0424 182.768 9.93283V10.9735C182.653 11.0282 182.481 11.083 182.366 11.083C182.252 11.083 182.08 11.1378 181.85 11.1378C181.678 11.0282 181.392 10.9735 181.162 10.9187Z" fill="black"/>
<path d="M188.787 10.4255C188.042 10.0421 187.469 9.43971 187.01 8.72769C186.609 8.01566 186.379 7.1941 186.379 6.31771C186.379 5.4414 186.609 4.6746 187.01 3.90781C187.411 3.19578 188.042 2.64807 188.787 2.2099C189.533 1.82651 190.335 1.60742 191.252 1.60742C191.94 1.60742 192.628 1.71696 193.202 1.99082C193.775 2.26467 194.291 2.5933 194.692 3.08624L193.89 3.85304C193.546 3.46964 193.144 3.14101 192.686 2.92193C192.227 2.70284 191.768 2.64807 191.195 2.64807C190.507 2.64807 189.877 2.81239 189.303 3.08624C188.73 3.41487 188.271 3.79826 187.927 4.40075C187.583 4.94846 187.411 5.60571 187.411 6.31771C187.411 7.02973 187.583 7.68698 187.927 8.23469C188.271 8.7824 188.73 9.22063 189.303 9.54925C189.877 9.87788 190.507 9.98742 191.195 9.98742C192.342 9.98742 193.316 9.54925 194.119 8.61814L194.922 9.38494C194.52 9.87788 193.947 10.2613 193.316 10.5351C192.686 10.809 191.998 10.9732 191.195 10.9732C190.335 11.0281 189.533 10.8637 188.787 10.4255Z" fill="black"/>
<path d="M196.068 1.82666H197.157V10.8091H196.068V1.82666Z" fill="black"/>
<path d="M199.279 10.371C198.877 9.93283 198.648 9.33035 198.648 8.50879V4.56527H199.737V8.2897C199.737 9.43989 200.253 9.9876 201.342 9.9876C201.686 9.9876 202.03 9.87806 202.317 9.71375C202.604 9.49467 202.833 9.27558 202.948 8.94695C203.12 8.61833 203.177 8.2897 203.177 7.96108V4.5105H204.266V10.7544H203.234V9.82329H203.177C203.005 10.1519 202.718 10.4258 202.317 10.6449C201.916 10.8639 201.514 10.9735 201.056 10.9735C200.311 11.0283 199.68 10.8092 199.279 10.371Z" fill="black"/>
<path d="M207.878 10.6996C207.477 10.4805 207.19 10.2066 206.961 9.87802H206.903V10.8091H205.814V1.82666H206.903V4.67475L206.846 5.55109H206.903C207.133 5.22246 207.419 4.9486 207.821 4.72952C208.222 4.51044 208.681 4.40089 209.197 4.40089C209.77 4.40089 210.286 4.56521 210.744 4.83907C211.203 5.11292 211.604 5.49632 211.891 6.04404C212.178 6.53698 212.292 7.08469 212.292 7.74195C212.292 8.34443 212.178 8.94691 211.891 9.43985C211.604 9.93279 211.26 10.3162 210.744 10.6448C210.286 10.9187 209.77 11.083 209.197 11.083C208.738 11.0282 208.279 10.9187 207.878 10.6996ZM210.114 9.76847C210.458 9.54939 210.687 9.27554 210.916 8.94691C211.088 8.61828 211.203 8.18011 211.203 7.68717C211.203 7.19423 211.088 6.81084 210.916 6.42744C210.744 6.09881 210.458 5.77018 210.114 5.60586C209.77 5.44155 209.426 5.33201 209.025 5.33201C208.623 5.33201 208.279 5.44155 207.935 5.60586C207.591 5.77018 207.362 6.04404 207.133 6.42744C206.961 6.75607 206.846 7.19423 206.846 7.68717C206.846 8.18011 206.961 8.56351 207.133 8.94691C207.305 9.33031 207.591 9.60416 207.935 9.76847C208.279 9.93279 208.623 10.0423 209.025 10.0423C209.426 10.0971 209.827 9.98756 210.114 9.76847Z" fill="black"/>
<path d="M213.955 10.5353C213.496 10.2067 213.152 9.76855 212.923 9.27562L213.898 8.83745C214.07 9.22084 214.299 9.54941 214.643 9.7685C214.987 9.98758 215.331 10.0972 215.675 10.0972C216.076 10.0972 216.42 9.98764 216.707 9.82333C216.993 9.65901 217.108 9.43993 217.108 9.16607C217.108 8.94699 216.994 8.7279 216.822 8.56359C216.592 8.39928 216.248 8.28968 215.79 8.12537L214.872 7.90634C214.356 7.7968 213.955 7.57771 213.611 7.30386C213.267 7.03 213.095 6.6466 213.095 6.15366C213.095 5.77024 213.21 5.44161 213.439 5.16776C213.668 4.8939 213.955 4.67482 214.356 4.56528C214.758 4.40096 215.159 4.34619 215.618 4.34619C216.191 4.34619 216.707 4.45573 217.165 4.72959C217.624 5.00344 217.968 5.33207 218.14 5.77024L217.165 6.15366C217.051 5.82501 216.822 5.60593 216.535 5.49638C216.248 5.33207 215.904 5.2773 215.56 5.2773C215.216 5.2773 214.93 5.33207 214.643 5.49638C214.356 5.6607 214.242 5.87978 214.242 6.09889C214.242 6.31798 214.356 6.48224 214.528 6.59178C214.7 6.70132 214.987 6.81092 215.388 6.92046L216.363 7.13949C216.993 7.3038 217.509 7.52289 217.796 7.85151C218.14 8.18014 218.255 8.56359 218.255 9.00176C218.255 9.38516 218.14 9.71378 217.911 9.98764C217.681 10.2615 217.395 10.5353 216.993 10.6996C216.592 10.8639 216.134 10.9735 215.675 10.9735C214.987 11.0283 214.414 10.864 213.955 10.5353Z" fill="black"/>
<path d="M32.6206 17.9841H33.5952L35.4297 22.5301H35.4871L37.3216 17.9841H38.2962V23.516H37.6083V20.0107L37.6656 18.97H37.6083L35.7164 23.5708H35.1431L33.2512 18.97H33.1939L33.2512 20.0107V23.516H32.5632V17.9841H32.6206Z" fill="#333333"/>
<path d="M39.9014 23.5159C39.6721 23.4064 39.5001 23.2421 39.3281 23.0778C39.2135 22.8587 39.1561 22.6396 39.1561 22.4205C39.1561 22.0371 39.3281 21.7085 39.6148 21.4894C39.9587 21.2703 40.3601 21.1608 40.876 21.1608C41.1053 21.1608 41.3347 21.1608 41.564 21.2156C41.736 21.2703 41.908 21.3251 42.0226 21.3799V21.1608C42.0226 20.9965 41.9653 20.8322 41.8506 20.6678C41.736 20.5035 41.6213 20.394 41.4493 20.3392C41.2773 20.2845 41.1053 20.2297 40.9334 20.2297C40.4747 20.2297 40.1307 20.394 39.9014 20.7774L39.3281 20.394C39.5001 20.1749 39.7294 19.9558 40.0161 19.8463C40.3027 19.7367 40.5894 19.6272 40.9334 19.6272C41.5067 19.6272 41.908 19.7915 42.2519 20.0654C42.5959 20.3392 42.7106 20.7226 42.7106 21.2156V23.6255H42.08V23.0778H42.0226C41.908 23.2969 41.736 23.4612 41.5067 23.5707C41.2773 23.6803 41.048 23.7898 40.7614 23.7898C40.4174 23.6803 40.1307 23.6255 39.9014 23.5159ZM41.3347 22.9135C41.5067 22.8039 41.6786 22.6396 41.7933 22.4753C41.908 22.311 41.9653 22.0919 41.9653 21.8728C41.6786 21.7085 41.3347 21.599 40.9334 21.599C40.5894 21.599 40.3027 21.6537 40.1307 21.818C39.9014 21.9824 39.8441 22.1467 39.8441 22.3657C39.8441 22.5848 39.9587 22.7491 40.1307 22.8587C40.3027 22.9682 40.532 23.0778 40.7614 23.0778C40.9334 23.0778 41.1627 23.023 41.3347 22.9135Z" fill="#333333"/>
<path d="M43.6279 19.6821H44.2585V20.2846H44.3158C44.3732 20.0655 44.5452 19.9012 44.7745 19.7369C45.0038 19.5726 45.2331 19.5178 45.4624 19.5178C45.6344 19.5178 45.8064 19.5178 45.9211 19.5726V20.2846C45.7491 20.2298 45.5771 20.1751 45.3478 20.1751C45.1758 20.1751 45.0038 20.2298 44.8318 20.3394C44.6598 20.4489 44.5452 20.6132 44.4305 20.7776C44.3158 20.9419 44.2585 21.161 44.2585 21.3253V23.4613H43.5706V19.6821H43.6279Z" fill="#333333"/>
<path d="M48.6156 17.9841H50.7368C51.0235 17.9841 51.3101 18.0389 51.5394 18.2032C51.7687 18.3675 51.9981 18.5318 52.1701 18.7509C52.342 18.97 52.3994 19.2439 52.3994 19.5177C52.3994 19.7916 52.342 20.0107 52.1701 20.2297C51.9981 20.4488 51.8261 20.6131 51.5968 20.6679C51.8834 20.7775 52.1127 20.9418 52.342 21.1609C52.514 21.3799 52.6287 21.6538 52.6287 21.9824C52.6287 22.311 52.5714 22.5301 52.3994 22.804C52.2274 23.0231 51.9981 23.2422 51.7687 23.3517C51.4821 23.4612 51.1954 23.5708 50.9088 23.5708H48.7303V17.9841H48.6156ZM50.6795 20.3941C50.8515 20.3941 51.0235 20.3393 51.1954 20.2845C51.3674 20.175 51.4821 20.0654 51.5394 19.9559C51.5968 19.8463 51.6541 19.682 51.6541 19.5177C51.6541 19.3534 51.5968 19.2439 51.5394 19.0796C51.4821 18.97 51.3674 18.8057 51.1954 18.7509C51.0235 18.6414 50.9088 18.6414 50.6795 18.6414H49.3036V20.3941H50.6795ZM50.8515 22.9135C51.0235 22.9135 51.2528 22.8588 51.3674 22.7492C51.5394 22.6397 51.6541 22.5301 51.7114 22.3658C51.7687 22.2015 51.8261 22.092 51.8261 21.9276C51.8261 21.7633 51.7687 21.599 51.7114 21.4895C51.6541 21.3252 51.4821 21.2156 51.3674 21.1061C51.2528 20.9965 51.0235 20.9965 50.7941 20.9965H49.3036V22.9135H50.8515Z" fill="#333333"/>
<path d="M53.8899 23.5159C53.6606 23.4064 53.4886 23.2421 53.3166 23.0778C53.202 22.8587 53.1447 22.6396 53.1447 22.4205C53.1447 22.0371 53.3166 21.7085 53.6033 21.4894C53.9473 21.2703 54.3486 21.1608 54.8645 21.1608C55.0939 21.1608 55.3232 21.1608 55.5525 21.2156C55.7245 21.2703 55.8965 21.3251 56.0111 21.3799V21.1608C56.0111 20.9965 55.9538 20.8322 55.8392 20.6678C55.7245 20.5035 55.6098 20.394 55.4378 20.3392C55.2659 20.2845 55.0939 20.2297 54.9219 20.2297C54.4632 20.2297 54.1193 20.394 53.8899 20.7774L53.3166 20.394C53.4886 20.1749 53.718 19.9558 54.0046 19.8463C54.2912 19.7367 54.5779 19.6272 54.9219 19.6272C55.4952 19.6272 55.8965 19.7915 56.2405 20.0654C56.5844 20.3392 56.6991 20.7226 56.6991 21.2156V23.6255H56.0685V23.0778H56.0111C55.8965 23.2969 55.7245 23.4612 55.4952 23.5707C55.2659 23.6803 55.0365 23.7898 54.7499 23.7898C54.4632 23.7898 54.1193 23.6255 53.8899 23.5159ZM55.3232 22.9135C55.4952 22.8039 55.6672 22.6396 55.7818 22.4753C55.8965 22.311 55.9538 22.0919 55.9538 21.8728C55.6672 21.7085 55.3232 21.599 54.9219 21.599C54.5779 21.599 54.2912 21.6537 54.1193 21.818C53.8899 21.9824 53.8326 22.1467 53.8326 22.3657C53.8326 22.5848 53.9473 22.7491 54.1193 22.8587C54.2912 22.9682 54.5206 23.0778 54.7499 23.0778C54.9219 23.0778 55.1512 23.023 55.3232 22.9135Z" fill="#333333"/>
<path d="M57.9031 23.3515C57.6165 23.1324 57.3872 22.9133 57.2725 22.5847L57.9031 22.3108C58.0178 22.5299 58.1898 22.749 58.3618 22.8585C58.5338 22.9681 58.7631 23.0776 58.9924 23.0776C59.2791 23.0776 59.4511 23.0228 59.623 22.9133C59.795 22.8038 59.8524 22.6942 59.8524 22.5299C59.8524 22.3656 59.795 22.256 59.6804 22.1465C59.5657 22.037 59.3364 21.9822 59.0497 21.8727L58.4764 21.7631C58.1898 21.7083 57.9031 21.5988 57.6738 21.3797C57.4445 21.2154 57.3298 20.9963 57.3298 20.6677C57.3298 20.4486 57.3872 20.2295 57.5592 20.0652C57.6738 19.9009 57.9031 19.7914 58.1325 19.6818C58.3618 19.5723 58.6484 19.5723 58.9351 19.5723C59.2791 19.5723 59.623 19.627 59.8524 19.7913C60.139 19.9557 60.311 20.1747 60.483 20.4486L59.8524 20.7225C59.7377 20.5581 59.623 20.3938 59.4511 20.2843C59.2791 20.1747 59.1071 20.1747 58.8778 20.1747C58.6484 20.1747 58.4764 20.2295 58.3045 20.3391C58.1325 20.4486 58.0751 20.5581 58.0751 20.7225C58.0751 20.832 58.1325 20.9415 58.2471 21.0511C58.3618 21.1606 58.5338 21.2154 58.7631 21.2702L59.3364 21.4345C59.7377 21.544 60.0244 21.6536 60.2537 21.8727C60.4257 22.0917 60.5403 22.3108 60.5403 22.5847C60.5403 22.8038 60.483 23.0228 60.311 23.1872C60.1963 23.3515 59.967 23.5158 59.7377 23.6253C59.5084 23.7349 59.2217 23.7896 58.9351 23.7896C58.5338 23.6801 58.1898 23.5706 57.9031 23.3515Z" fill="#333333"/>
<path d="M62.0882 23.4062C61.8016 23.2419 61.5149 22.9681 61.3429 22.6942C61.1709 22.4204 61.0563 22.037 61.0563 21.6536C61.0563 21.2702 61.1136 20.9415 61.2856 20.6129C61.4576 20.2843 61.6869 20.0652 61.9736 19.8461C62.2602 19.6818 62.6042 19.5723 63.0055 19.5723C63.4068 19.5723 63.7508 19.6818 64.0374 19.8461C64.3241 20.0104 64.5534 20.2295 64.7254 20.5581C64.8974 20.8868 64.9547 21.2154 64.9547 21.5988C64.9547 21.6536 64.9547 21.7083 64.9547 21.7631H61.7442C61.7442 22.037 61.8016 22.3108 61.9736 22.4751C62.0882 22.6942 62.2602 22.8038 62.4895 22.9133C62.7188 23.0228 62.8908 23.0776 63.1201 23.0776C63.6361 23.0776 64.0374 22.8585 64.3241 22.3656L64.9547 22.6394C64.7827 22.9681 64.5534 23.1872 64.2094 23.4062C63.8654 23.6253 63.5215 23.6801 63.1201 23.6801C62.7762 23.6801 62.4322 23.5706 62.0882 23.4062ZM64.3241 21.1606C64.3241 20.9963 64.2667 20.832 64.2094 20.7225C64.1521 20.5581 63.9801 20.4486 63.8081 20.3391C63.6361 20.2295 63.4068 20.1747 63.1201 20.1747C62.8335 20.1747 62.5468 20.2843 62.3175 20.4486C62.0882 20.6129 61.9736 20.8868 61.9162 21.2154H64.3241V21.1606Z" fill="#333333"/>
<path d="M65.8146 17.9841H66.5031V23.516H65.8146V17.9841Z" fill="#333333"/>
<path d="M67.5919 18.7508C67.4773 18.6412 67.4199 18.5317 67.4199 18.4221C67.4199 18.3126 67.4773 18.2031 67.5919 18.0935C67.7066 17.984 67.8212 17.9292 67.9359 17.9292C68.0506 17.9292 68.1652 17.984 68.2799 18.0935C68.3945 18.2031 68.4519 18.3126 68.4519 18.4221C68.4519 18.5317 68.3945 18.6412 68.3372 18.7508C68.2225 18.8603 68.1079 18.9151 67.9932 18.9151C67.7639 18.8603 67.6492 18.8055 67.5919 18.7508ZM67.5919 19.6819H68.2799V23.5158H67.5919V19.6819Z" fill="#333333"/>
<path d="M70.0571 23.4064C69.7704 23.2421 69.4838 22.9682 69.3118 22.6944C69.1398 22.3658 69.0251 22.0371 69.0251 21.6537C69.0251 21.2703 69.1398 20.9417 69.3118 20.6131C69.4838 20.2845 69.7131 20.0654 70.0571 19.9011C70.4011 19.7367 70.745 19.6272 71.1464 19.6272C71.5477 19.6272 71.8916 19.7367 72.2356 19.9011C72.5796 20.0654 72.8089 20.3392 72.9809 20.6131C73.1529 20.8869 73.2676 21.2703 73.2676 21.6537C73.2676 22.0371 73.1529 22.3658 72.9809 22.6944C72.8089 23.023 72.5796 23.2421 72.2356 23.4064C71.8916 23.5707 71.5477 23.6803 71.1464 23.6803C70.745 23.6803 70.3437 23.5707 70.0571 23.4064ZM71.777 22.8587C72.0063 22.7491 72.1783 22.5848 72.2929 22.3658C72.4076 22.1467 72.4649 21.8728 72.4649 21.599C72.4649 21.3251 72.4076 21.0512 72.2929 20.8322C72.1783 20.6131 72.0063 20.4488 71.777 20.3392C71.5477 20.2297 71.3183 20.1749 71.089 20.1749C70.8597 20.1749 70.6304 20.2297 70.4011 20.3392C70.1717 20.4488 69.9998 20.6131 69.8851 20.8322C69.7704 21.0512 69.7131 21.3251 69.7131 21.599C69.7131 21.8728 69.7704 22.1467 69.8851 22.3658C69.9998 22.5848 70.1717 22.7491 70.4011 22.8587C70.6304 22.9682 70.8597 23.023 71.089 23.023C71.3757 23.0778 71.605 23.023 71.777 22.8587Z" fill="#333333"/>
<path d="M74.2422 23.3515C73.9556 23.1324 73.7262 22.9133 73.6116 22.5847L74.2422 22.3108C74.3569 22.5299 74.5289 22.749 74.7008 22.8585C74.8728 22.9681 75.1021 23.0776 75.3315 23.0776C75.6181 23.0776 75.7901 23.0228 75.9621 22.9133C76.1341 22.8038 76.1914 22.6942 76.1914 22.5299C76.1914 22.3656 76.1341 22.256 76.0194 22.1465C75.9048 22.037 75.6755 21.9822 75.3888 21.8727L74.8155 21.7631C74.5289 21.7083 74.2422 21.5988 74.0129 21.3797C73.7836 21.2154 73.6689 20.9963 73.6689 20.6677C73.6689 20.4486 73.7262 20.2295 73.8982 20.0652C74.0702 19.9009 74.2422 19.7914 74.4715 19.6818C74.7008 19.5723 74.9875 19.5723 75.2741 19.5723C75.6181 19.5723 75.9621 19.627 76.1914 19.7913C76.4781 19.9557 76.6501 20.1747 76.822 20.4486L76.2488 20.6677C76.1341 20.5034 76.0194 20.3391 75.8474 20.2295C75.6755 20.12 75.5035 20.12 75.2741 20.12C75.0448 20.12 74.8728 20.1747 74.7008 20.2843C74.5289 20.3938 74.4715 20.5034 74.4715 20.6677C74.4715 20.7772 74.5289 20.8868 74.6435 20.9963C74.7582 21.1059 74.9302 21.1606 75.1595 21.2154L75.7328 21.3797C76.1341 21.4893 76.4207 21.5988 76.6501 21.8179C76.822 22.037 76.9367 22.256 76.9367 22.5299C76.9367 22.749 76.8794 22.9681 76.7074 23.1324C76.5927 23.2967 76.3634 23.461 76.1341 23.5706C75.9048 23.6801 75.6181 23.7349 75.3315 23.7349C74.9302 23.6801 74.5289 23.5706 74.2422 23.3515Z" fill="#333333"/>
<path d="M80.7204 23.2968C80.2618 23.023 79.9178 22.6944 79.6312 22.2562C79.3445 21.818 79.2299 21.3251 79.2299 20.7774C79.2299 20.2297 79.3445 19.7367 79.6312 19.2986C79.9178 18.8604 80.2618 18.5318 80.7204 18.2579C81.1791 17.9841 81.695 17.8745 82.2683 17.8745C82.727 17.8745 83.1283 17.9293 83.4723 18.0936C83.8162 18.2579 84.1602 18.477 84.3895 18.7508L83.9309 19.189C83.7016 18.9152 83.4723 18.7508 83.1856 18.6413C82.899 18.5318 82.6123 18.477 82.2683 18.477C81.867 18.477 81.4657 18.5865 81.1217 18.7508C80.7778 18.9152 80.4911 19.189 80.2618 19.5724C80.0325 19.9558 79.9751 20.3392 79.9751 20.7774C79.9751 21.2155 80.0898 21.5989 80.2618 21.9823C80.4911 22.311 80.7778 22.5848 81.1217 22.8039C81.4657 22.9682 81.867 23.0778 82.2683 23.0778C82.9563 23.0778 83.5869 22.8039 84.0456 22.2562L84.5615 22.6944C84.2749 23.023 83.9882 23.2421 83.5869 23.4064C83.1856 23.5707 82.7843 23.6802 82.2683 23.6802C81.695 23.6802 81.1791 23.5159 80.7204 23.2968Z" fill="#333333"/>
<path d="M85.9948 23.4064C85.7082 23.2421 85.4215 22.9682 85.2495 22.6944C85.0776 22.3658 84.9629 22.0371 84.9629 21.6537C84.9629 21.2703 85.0776 20.9417 85.2495 20.6131C85.4215 20.2845 85.6509 20.0654 85.9948 19.9011C86.3388 19.7367 86.6828 19.6272 87.0841 19.6272C87.4854 19.6272 87.8294 19.7367 88.1734 19.9011C88.5173 20.0654 88.7467 20.3392 88.9187 20.6131C89.0906 20.8869 89.2053 21.2703 89.2053 21.6537C89.2053 22.0371 89.0906 22.3658 88.9187 22.6944C88.7467 23.023 88.5173 23.2421 88.1734 23.4064C87.8294 23.5707 87.4854 23.6803 87.0841 23.6803C86.6828 23.6803 86.2815 23.5707 85.9948 23.4064ZM87.7147 22.8587C87.944 22.7491 88.116 22.5848 88.2307 22.3658C88.3454 22.1467 88.4027 21.8728 88.4027 21.599C88.4027 21.3251 88.3454 21.0512 88.2307 20.8322C88.116 20.6131 87.944 20.4488 87.7147 20.3392C87.4854 20.2297 87.2561 20.1749 87.0268 20.1749C86.7975 20.1749 86.5681 20.2297 86.3388 20.3392C86.1095 20.4488 85.9375 20.6131 85.8228 20.8322C85.7082 21.0512 85.6508 21.3251 85.6508 21.599C85.6508 21.8728 85.7082 22.1467 85.8228 22.3658C85.9375 22.5848 86.1095 22.7491 86.3388 22.8587C86.5681 22.9682 86.7975 23.023 87.0268 23.023C87.3134 23.0778 87.5427 23.023 87.7147 22.8587Z" fill="#333333"/>
<path d="M89.8358 17.9841H90.5243V23.516H89.8358V17.9841Z" fill="#333333"/>
<path d="M91.5558 17.9841H92.2443V23.516H91.5558V17.9841Z" fill="#333333"/>
<path d="M93.9636 23.4062C93.6769 23.2419 93.3903 22.9681 93.2183 22.6942C93.0463 22.4204 92.9316 22.037 92.9316 21.6536C92.9316 21.2702 92.989 20.9415 93.161 20.6129C93.3329 20.2843 93.5623 20.0652 93.8489 19.8461C94.1356 19.6818 94.4795 19.5723 94.8809 19.5723C95.2822 19.5723 95.6261 19.6818 95.9128 19.8461C96.1994 20.0104 96.4288 20.2295 96.6007 20.5581C96.7727 20.8868 96.8301 21.2154 96.8301 21.5988C96.8301 21.6536 96.8301 21.7083 96.8301 21.7631H93.6196C93.6196 22.037 93.6769 22.3108 93.8489 22.4751C93.9636 22.6942 94.1356 22.8038 94.3649 22.9133C94.5942 23.0228 94.7662 23.0776 94.9955 23.0776C95.5115 23.0776 95.9128 22.8585 96.1994 22.3656L96.8301 22.6394C96.6581 22.9681 96.4288 23.1872 96.0848 23.4062C95.7981 23.5706 95.3968 23.6801 94.9955 23.6801C94.5942 23.6801 94.2502 23.5706 93.9636 23.4062ZM96.1421 21.1606C96.1421 20.9963 96.0848 20.832 96.0274 20.7225C95.9701 20.5581 95.7981 20.4486 95.6261 20.3391C95.4542 20.2295 95.2248 20.1747 94.9382 20.1747C94.6515 20.1747 94.3649 20.2843 94.1356 20.4486C93.9062 20.6129 93.7916 20.8868 93.7343 21.2154H96.1421V21.1606Z" fill="#333333"/>
<path d="M98.2634 24.9949C97.9767 24.7758 97.7474 24.502 97.6328 24.2281L98.2634 23.9543C98.3207 24.1734 98.4927 24.3924 98.722 24.502C98.9514 24.6115 99.1807 24.7211 99.4673 24.7211C99.8686 24.7211 100.213 24.6115 100.442 24.3924C100.671 24.1734 100.786 23.8447 100.786 23.4066V23.0231H100.729C100.614 23.2422 100.385 23.4066 100.155 23.5161C99.926 23.6256 99.6393 23.7351 99.3527 23.7351C99.0087 23.7351 98.722 23.6256 98.3781 23.4613C98.0914 23.297 97.8621 23.0231 97.6901 22.7493C97.5181 22.4206 97.4034 22.0921 97.4034 21.7087C97.4034 21.3253 97.5181 20.9966 97.6901 20.668C97.8621 20.3394 98.0914 20.1203 98.3781 19.956C98.6647 19.7917 99.0087 19.6821 99.3527 19.6821C99.6393 19.6821 99.926 19.7368 100.155 19.9012C100.385 20.0107 100.614 20.1751 100.729 20.3942H100.786V19.8464H101.417V23.4066C101.417 23.8447 101.302 24.1734 101.13 24.502C100.958 24.8306 100.729 24.9949 100.442 25.1592C100.155 25.3235 99.8113 25.3783 99.41 25.3783C99.0087 25.3235 98.6074 25.214 98.2634 24.9949ZM100.155 22.9136C100.327 22.804 100.499 22.6398 100.614 22.4207C100.729 22.2016 100.786 21.9277 100.786 21.6538C100.786 21.38 100.729 21.1062 100.614 20.8871C100.499 20.668 100.327 20.5037 100.155 20.3942C99.9833 20.2846 99.754 20.2298 99.5247 20.2298C99.2953 20.2298 99.066 20.2846 98.894 20.3942C98.722 20.5037 98.55 20.668 98.4354 20.8871C98.3207 21.1062 98.2634 21.38 98.2634 21.6538C98.2634 21.9277 98.3207 22.2016 98.4354 22.4207C98.55 22.6398 98.722 22.804 98.894 22.9136C99.066 23.0231 99.2953 23.0779 99.5247 23.0779C99.754 23.0779 99.9833 23.0231 100.155 22.9136Z" fill="#333333"/>
<path d="M103.194 23.4062C102.907 23.2419 102.62 22.9681 102.448 22.6942C102.276 22.4204 102.162 22.037 102.162 21.6536C102.162 21.2702 102.219 20.9415 102.391 20.6129C102.563 20.2843 102.792 20.0652 103.079 19.8461C103.366 19.6818 103.71 19.5723 104.111 19.5723C104.512 19.5723 104.856 19.6818 105.143 19.8461C105.43 20.0104 105.659 20.2295 105.831 20.5581C106.003 20.8868 106.06 21.2154 106.06 21.5988C106.06 21.6536 106.06 21.7083 106.06 21.7631H102.85C102.85 22.037 102.907 22.3108 103.079 22.4751C103.194 22.6942 103.366 22.8038 103.595 22.9133C103.824 23.0228 103.996 23.0776 104.226 23.0776C104.742 23.0776 105.143 22.8585 105.43 22.3656L106.06 22.6394C105.888 22.9681 105.659 23.1872 105.315 23.4062C105.028 23.5706 104.627 23.6801 104.226 23.6801C103.824 23.6801 103.48 23.5706 103.194 23.4062ZM105.372 21.1606C105.372 20.9963 105.315 20.832 105.258 20.7225C105.2 20.5581 105.028 20.4486 104.856 20.3391C104.684 20.2295 104.455 20.1747 104.168 20.1747C103.882 20.1747 103.595 20.2843 103.366 20.4486C103.136 20.6129 103.022 20.8868 102.964 21.2154H105.372V21.1606Z" fill="#333333"/>
<path d="M109.557 23.4064C109.271 23.2421 108.984 22.9682 108.812 22.6944C108.64 22.3658 108.525 22.0371 108.525 21.6537C108.525 21.2703 108.64 20.9417 108.812 20.6131C108.984 20.2845 109.213 20.0654 109.557 19.9011C109.901 19.7367 110.245 19.6272 110.647 19.6272C111.048 19.6272 111.392 19.7367 111.736 19.9011C112.08 20.0654 112.309 20.3392 112.481 20.6131C112.653 20.8869 112.768 21.2703 112.768 21.6537C112.768 22.0371 112.653 22.3658 112.481 22.6944C112.309 23.023 112.08 23.2421 111.736 23.4064C111.392 23.5707 111.048 23.6803 110.647 23.6803C110.245 23.6803 109.844 23.5707 109.557 23.4064ZM111.277 22.8587C111.507 22.7491 111.679 22.5848 111.793 22.3658C111.908 22.1467 111.965 21.8728 111.965 21.599C111.965 21.3251 111.908 21.0512 111.793 20.8322C111.679 20.6131 111.507 20.4488 111.277 20.3392C111.048 20.2297 110.819 20.1749 110.589 20.1749C110.36 20.1749 110.131 20.2297 109.901 20.3392C109.672 20.4488 109.5 20.6131 109.385 20.8322C109.271 21.0512 109.213 21.3251 109.213 21.599C109.213 21.8728 109.271 22.1467 109.385 22.3658C109.5 22.5848 109.672 22.7491 109.901 22.8587C110.131 22.9682 110.36 23.023 110.589 23.023C110.876 23.0778 111.105 23.023 111.277 22.8587Z" fill="#333333"/>
<path d="M113.8 20.2844H113.054V19.682H113.8V19.1342C113.8 18.8604 113.857 18.6961 113.972 18.477C114.086 18.3127 114.258 18.1484 114.43 18.0388C114.602 17.9293 114.832 17.8745 115.118 17.8745C115.233 17.8745 115.348 17.8745 115.462 17.8745C115.577 17.8745 115.634 17.9293 115.749 17.9293V18.5865C115.577 18.477 115.405 18.477 115.176 18.477C115.004 18.477 114.832 18.5318 114.717 18.6413C114.602 18.7508 114.545 18.9152 114.545 19.1342V19.5724H115.577V20.1749H114.545V23.4064H113.857V20.2844H113.8Z" fill="#333333"/>
<path d="M118.386 17.9841H121.769V18.5866H119.074V20.4488H121.482V21.0513H119.074V22.9135H121.769V23.516H118.386V17.9841Z" fill="#333333"/>
<path d="M122.629 19.6821H123.259V20.2298H123.317C123.431 20.0108 123.603 19.8464 123.832 19.7369C124.062 19.6274 124.348 19.5178 124.635 19.5178C125.151 19.5178 125.495 19.6821 125.782 19.956C126.011 20.2298 126.183 20.6132 126.183 21.1062V23.5161H125.495V21.2157C125.495 20.5037 125.151 20.1751 124.463 20.1751C124.234 20.1751 124.062 20.2298 123.89 20.3394C123.718 20.4489 123.603 20.6132 123.488 20.7776C123.374 20.9419 123.374 21.161 123.374 21.38V23.5161H122.686V19.6821H122.629Z" fill="#333333"/>
<path d="M127.616 24.9949C127.33 24.7758 127.1 24.502 126.986 24.2281L127.616 23.9543C127.674 24.1734 127.846 24.3924 128.075 24.502C128.304 24.6663 128.533 24.7211 128.82 24.7211C129.221 24.7211 129.565 24.6115 129.795 24.3924C130.024 24.1734 130.139 23.8447 130.139 23.4066V23.0231C130.024 23.2422 129.795 23.4066 129.565 23.5161C129.336 23.6256 129.049 23.7351 128.763 23.7351C128.419 23.7351 128.132 23.6256 127.788 23.4613C127.502 23.297 127.272 23.0231 127.1 22.7493C126.928 22.4206 126.814 22.0921 126.814 21.7087C126.814 21.3253 126.928 20.9966 127.1 20.668C127.272 20.3394 127.502 20.1203 127.788 19.956C128.075 19.7917 128.419 19.6821 128.763 19.6821C129.049 19.6821 129.336 19.7368 129.565 19.9012C129.795 20.0107 130.024 20.1751 130.139 20.3942H130.196V19.8464H130.827V23.4066C130.827 23.8447 130.712 24.1734 130.54 24.502C130.368 24.8306 130.139 24.9949 129.852 25.1592C129.565 25.3235 129.221 25.3783 128.82 25.3783C128.362 25.3235 127.96 25.214 127.616 24.9949ZM129.508 22.9136C129.68 22.804 129.852 22.6398 129.967 22.4207C130.081 22.2016 130.139 21.9277 130.139 21.6538C130.139 21.38 130.081 21.1062 129.967 20.8871C129.852 20.668 129.68 20.5037 129.508 20.3942C129.336 20.2846 129.107 20.2298 128.877 20.2298C128.648 20.2298 128.419 20.2846 128.247 20.3942C128.075 20.5037 127.903 20.668 127.788 20.8871C127.674 21.1062 127.616 21.38 127.616 21.6538C127.616 21.9277 127.674 22.2016 127.788 22.4207C127.903 22.6398 128.075 22.804 128.247 22.9136C128.419 23.0231 128.648 23.0779 128.877 23.0779C129.107 23.0779 129.279 23.0231 129.508 22.9136Z" fill="#333333"/>
<path d="M131.916 18.7508C131.801 18.6412 131.744 18.5317 131.744 18.4221C131.744 18.3126 131.801 18.2031 131.916 18.0935C132.031 17.984 132.145 17.9292 132.26 17.9292C132.375 17.9292 132.489 17.984 132.604 18.0935C132.719 18.2031 132.776 18.3126 132.776 18.4221C132.776 18.5317 132.719 18.6412 132.661 18.7508C132.547 18.8603 132.432 18.9151 132.317 18.9151C132.088 18.8603 131.973 18.8055 131.916 18.7508ZM131.916 19.6819H132.604V23.5158H131.916V19.6819Z" fill="#333333"/>
<path d="M133.636 19.6821H134.266V20.2298H134.324C134.438 20.0108 134.61 19.8464 134.84 19.7369C135.069 19.6274 135.356 19.5178 135.642 19.5178C136.158 19.5178 136.502 19.6821 136.789 19.956C137.018 20.2298 137.19 20.6132 137.19 21.1062V23.5161H136.502V21.2157C136.502 20.5037 136.158 20.1751 135.47 20.1751C135.241 20.1751 135.069 20.2298 134.897 20.3394C134.725 20.4489 134.61 20.6132 134.496 20.7776C134.381 20.9419 134.381 21.161 134.381 21.38V23.5161H133.693V19.6821H133.636Z" fill="#333333"/>
<path d="M138.91 23.4062C138.624 23.2419 138.337 22.9681 138.165 22.6942C137.993 22.4204 137.878 22.037 137.878 21.6536C137.878 21.2702 137.936 20.9415 138.108 20.6129C138.28 20.2843 138.509 20.0652 138.796 19.8461C139.082 19.6818 139.426 19.5723 139.828 19.5723C140.229 19.5723 140.573 19.6818 140.859 19.8461C141.146 20.0104 141.375 20.2295 141.547 20.5581C141.719 20.8868 141.777 21.2154 141.777 21.5988C141.777 21.6536 141.777 21.7083 141.777 21.7631H138.566C138.566 22.037 138.624 22.3108 138.796 22.4751C138.91 22.6942 139.082 22.8038 139.312 22.9133C139.541 23.0228 139.713 23.0776 139.942 23.0776C140.458 23.0776 140.859 22.8585 141.146 22.3656L141.777 22.6394C141.605 22.9681 141.375 23.1872 141.031 23.4062C140.745 23.5706 140.343 23.6801 139.942 23.6801C139.541 23.6801 139.197 23.5706 138.91 23.4062ZM141.089 21.1606C141.089 20.9963 141.031 20.832 140.974 20.7225C140.917 20.5581 140.745 20.4486 140.573 20.3391C140.401 20.2295 140.171 20.1747 139.885 20.1747C139.598 20.1747 139.312 20.2843 139.082 20.4486C138.853 20.6129 138.738 20.8868 138.681 21.2154H141.089V21.1606Z" fill="#333333"/>
<path d="M143.382 23.4062C143.095 23.2419 142.809 22.9681 142.637 22.6942C142.465 22.4204 142.35 22.037 142.35 21.6536C142.35 21.2702 142.407 20.9415 142.579 20.6129C142.751 20.2843 142.981 20.0652 143.267 19.8461C143.554 19.6818 143.898 19.5723 144.299 19.5723C144.7 19.5723 145.044 19.6818 145.331 19.8461C145.618 20.0104 145.847 20.2295 146.019 20.5581C146.191 20.8868 146.248 21.2154 146.248 21.5988C146.248 21.6536 146.248 21.7083 146.248 21.7631H143.038C143.038 22.037 143.095 22.3108 143.267 22.4751C143.382 22.6942 143.554 22.8038 143.783 22.9133C144.013 23.0228 144.185 23.0776 144.414 23.0776C144.93 23.0776 145.331 22.8585 145.618 22.3656L146.248 22.6394C146.076 22.9681 145.847 23.1872 145.503 23.4062C145.159 23.6253 144.815 23.6801 144.414 23.6801C144.07 23.6801 143.726 23.5706 143.382 23.4062ZM145.618 21.1606C145.618 20.9963 145.56 20.832 145.503 20.7225C145.446 20.5581 145.274 20.4486 145.102 20.3391C144.93 20.2295 144.7 20.1747 144.414 20.1747C144.127 20.1747 143.841 20.2843 143.611 20.4486C143.382 20.6129 143.267 20.8868 143.21 21.2154H145.618V21.1606Z" fill="#333333"/>
<path d="M147.108 19.6821H147.739V20.2846H147.796C147.854 20.0655 148.026 19.9012 148.255 19.7369C148.484 19.5726 148.714 19.5178 148.943 19.5178C149.115 19.5178 149.287 19.5178 149.402 19.5726V20.2846C149.23 20.2298 149.058 20.1751 148.828 20.1751C148.656 20.1751 148.484 20.2298 148.312 20.3394C148.14 20.4489 148.026 20.6132 147.911 20.7776C147.796 20.9419 147.739 21.161 147.739 21.3253V23.4613H147.051V19.6821H147.108Z" fill="#333333"/>
<path d="M150.147 18.7508C150.032 18.6412 149.975 18.5317 149.975 18.4221C149.975 18.3126 150.032 18.2031 150.147 18.0935C150.261 17.984 150.376 17.9292 150.491 17.9292C150.605 17.9292 150.72 17.984 150.835 18.0935C150.949 18.2031 151.007 18.3126 151.007 18.4221C151.007 18.5317 150.949 18.6412 150.892 18.7508C150.835 18.8603 150.663 18.9151 150.548 18.9151C150.319 18.8603 150.204 18.8055 150.147 18.7508ZM150.147 19.6819H150.835V23.5158H150.147V19.6819Z" fill="#333333"/>
<path d="M151.867 19.6821H152.497V20.2298H152.555C152.669 20.0108 152.841 19.8464 153.071 19.7369C153.3 19.6274 153.587 19.5178 153.873 19.5178C154.389 19.5178 154.733 19.6821 155.02 19.956C155.307 20.2298 155.421 20.6132 155.421 21.1062V23.5161H154.733V21.2157C154.733 20.5037 154.389 20.1751 153.701 20.1751C153.472 20.1751 153.3 20.2298 153.128 20.3394C152.956 20.4489 152.841 20.6132 152.727 20.7776C152.612 20.9419 152.612 21.161 152.612 21.38V23.5161H151.924V19.6821H151.867Z" fill="#333333"/>
<path d="M156.912 24.9949C156.625 24.7758 156.396 24.502 156.281 24.2281L156.912 23.9543C156.969 24.1734 157.141 24.3924 157.37 24.502C157.6 24.6115 157.829 24.7211 158.116 24.7211C158.517 24.7211 158.861 24.6115 159.09 24.3924C159.32 24.1734 159.434 23.8447 159.434 23.4066V23.0231H159.377C159.262 23.2422 159.033 23.4066 158.804 23.5161C158.574 23.6256 158.288 23.7351 158.001 23.7351C157.657 23.7351 157.37 23.6256 157.026 23.4613C156.74 23.297 156.51 23.0231 156.338 22.7493C156.166 22.4206 156.052 22.0921 156.052 21.7087C156.052 21.3253 156.166 20.9966 156.338 20.668C156.51 20.3394 156.74 20.1203 157.026 19.956C157.313 19.7917 157.657 19.6821 158.001 19.6821C158.288 19.6821 158.574 19.7368 158.804 19.9012C159.033 20.0107 159.262 20.1751 159.377 20.3942H159.434V19.8464H160.065V23.4066C160.065 23.8447 159.95 24.1734 159.778 24.502C159.606 24.8306 159.377 24.9949 159.09 25.1592C158.804 25.3235 158.46 25.3783 158.058 25.3783C157.6 25.3235 157.198 25.214 156.912 24.9949ZM158.804 22.9136C158.976 22.804 159.148 22.6398 159.262 22.4207C159.377 22.2016 159.434 21.9277 159.434 21.6538C159.434 21.38 159.377 21.1062 159.262 20.8871C159.148 20.668 158.976 20.5037 158.804 20.3942C158.632 20.2846 158.402 20.2298 158.173 20.2298C157.944 20.2298 157.714 20.2846 157.542 20.3942C157.37 20.5037 157.198 20.668 157.084 20.8871C156.969 21.1062 156.912 21.38 156.912 21.6538C156.912 21.9277 156.969 22.2016 157.084 22.4207C157.198 22.6398 157.37 22.804 157.542 22.9136C157.714 23.0231 157.944 23.0779 158.173 23.0779C158.402 23.0779 158.574 23.0231 158.804 22.9136Z" fill="#333333"/>
<path d="M163.505 23.5159C163.275 23.4064 163.103 23.2421 162.931 23.0778C162.817 22.8587 162.759 22.6396 162.759 22.4205C162.759 22.0371 162.931 21.7085 163.218 21.4894C163.562 21.2703 163.963 21.1608 164.479 21.1608C164.709 21.1608 164.938 21.1608 165.167 21.2156C165.339 21.2703 165.511 21.3251 165.626 21.3799V21.1608C165.626 20.9965 165.569 20.8322 165.454 20.6678C165.339 20.5035 165.225 20.394 165.053 20.3392C164.881 20.2845 164.709 20.2297 164.537 20.2297C164.078 20.2297 163.734 20.394 163.505 20.7774L162.931 20.394C163.103 20.1749 163.333 19.9558 163.619 19.8463C163.906 19.7367 164.193 19.6272 164.537 19.6272C165.11 19.6272 165.511 19.7915 165.855 20.0654C166.199 20.3392 166.314 20.7226 166.314 21.2156V23.6255H165.683V23.0778H165.626C165.511 23.2969 165.339 23.4612 165.11 23.5707C164.881 23.6803 164.651 23.7898 164.365 23.7898C164.078 23.7898 163.734 23.6255 163.505 23.5159ZM164.995 22.9135C165.167 22.8039 165.339 22.6396 165.454 22.4753C165.569 22.311 165.626 22.0919 165.626 21.8728C165.339 21.7085 164.995 21.599 164.594 21.599C164.25 21.599 163.963 21.6537 163.791 21.818C163.562 21.9824 163.505 22.1467 163.505 22.3657C163.505 22.5848 163.619 22.7491 163.791 22.8587C163.963 22.9682 164.193 23.0778 164.422 23.0778C164.594 23.0778 164.766 23.023 164.995 22.9135Z" fill="#333333"/>
<path d="M167.231 19.6821H167.862V20.2298H167.919C168.034 20.0108 168.206 19.8464 168.435 19.7369C168.664 19.6274 168.951 19.5178 169.238 19.5178C169.754 19.5178 170.098 19.6821 170.384 19.956C170.671 20.2298 170.786 20.6132 170.786 21.1062V23.5161H170.098V21.2157C170.098 20.5037 169.754 20.1751 169.066 20.1751C168.836 20.1751 168.664 20.2298 168.492 20.3394C168.32 20.4489 168.206 20.6132 168.091 20.7776C167.976 20.9419 167.976 21.161 167.976 21.38V23.5161H167.288V19.6821H167.231Z" fill="#333333"/>
<path d="M172.448 23.4064C172.162 23.2421 171.932 22.9682 171.76 22.6944C171.588 22.3657 171.474 22.0371 171.474 21.6537C171.474 21.2703 171.588 20.9417 171.76 20.6131C171.932 20.2844 172.162 20.0653 172.448 19.901C172.735 19.7367 173.079 19.6271 173.423 19.6271C173.709 19.6271 173.996 19.682 174.283 19.8463C174.512 19.9558 174.741 20.1201 174.856 20.3392H174.913L174.856 19.7915V18.0388H175.544V23.5706H174.856V23.0229H174.799C174.684 23.242 174.512 23.4064 174.225 23.5159C173.996 23.6255 173.709 23.735 173.366 23.735C173.079 23.6802 172.735 23.5707 172.448 23.4064ZM174.168 22.9134C174.397 22.8038 174.512 22.6396 174.627 22.4205C174.741 22.2014 174.799 21.9275 174.799 21.6537C174.799 21.3798 174.741 21.106 174.627 20.8869C174.512 20.6678 174.34 20.5035 174.168 20.394C173.939 20.2844 173.767 20.2297 173.48 20.2297C173.194 20.2297 173.022 20.2844 172.792 20.394C172.563 20.5035 172.448 20.6678 172.334 20.8869C172.219 21.106 172.162 21.3798 172.162 21.6537C172.162 21.9275 172.219 22.2014 172.334 22.4205C172.448 22.6396 172.62 22.8038 172.792 22.9134C173.022 23.0229 173.194 23.0778 173.48 23.0778C173.767 23.0778 173.996 23.0229 174.168 22.9134Z" fill="#333333"/>
<path d="M179.385 18.5866H177.78V17.9841H181.736V18.5866H180.13V23.516H179.442V18.5866H179.385Z" fill="#333333"/>
<path d="M182.538 23.4062C182.252 23.2419 181.965 22.9681 181.793 22.6942C181.621 22.4204 181.506 22.037 181.506 21.6536C181.506 21.2702 181.564 20.9415 181.736 20.6129C181.908 20.2843 182.137 20.0652 182.424 19.8461C182.71 19.6818 183.054 19.5723 183.456 19.5723C183.857 19.5723 184.201 19.6818 184.487 19.8461C184.774 20.0104 185.003 20.2295 185.175 20.5581C185.347 20.8868 185.405 21.2154 185.405 21.5988C185.405 21.6536 185.405 21.7083 185.405 21.7631H182.194C182.194 22.037 182.252 22.3108 182.424 22.4751C182.538 22.6942 182.71 22.8038 182.94 22.9133C183.169 23.0228 183.341 23.0776 183.57 23.0776C184.086 23.0776 184.487 22.8585 184.774 22.3656L185.405 22.6394C185.233 22.9681 185.003 23.1872 184.659 23.4062C184.373 23.5706 183.972 23.6801 183.57 23.6801C183.169 23.6801 182.825 23.5706 182.538 23.4062ZM184.717 21.1606C184.717 20.9963 184.659 20.832 184.602 20.7225C184.545 20.5581 184.373 20.4486 184.201 20.3391C184.029 20.2295 183.8 20.1747 183.513 20.1747C183.226 20.1747 182.94 20.2843 182.71 20.4486C182.481 20.6129 182.366 20.8868 182.309 21.2154H184.717V21.1606Z" fill="#333333"/>
<path d="M187.067 23.4064C186.781 23.2421 186.494 22.9682 186.322 22.6944C186.15 22.3658 186.035 22.0371 186.035 21.6537C186.035 21.2703 186.15 20.9417 186.322 20.6131C186.494 20.2845 186.723 20.0654 187.067 19.9011C187.411 19.7367 187.755 19.6272 188.099 19.6272C188.558 19.6272 188.902 19.7367 189.189 19.9558C189.475 20.1749 189.705 20.394 189.819 20.7226L189.189 20.9965C188.959 20.5035 188.558 20.2297 188.042 20.2297C187.813 20.2297 187.583 20.2845 187.411 20.394C187.182 20.5035 187.067 20.6678 186.895 20.8869C186.781 21.106 186.723 21.3799 186.723 21.6537C186.723 21.9276 186.781 22.2014 186.895 22.4205C187.01 22.6396 187.182 22.8039 187.411 22.9135C187.641 23.023 187.813 23.0778 188.042 23.0778C188.329 23.0778 188.558 23.023 188.787 22.8587C189.017 22.6944 189.131 22.5301 189.246 22.311L189.877 22.5848C189.762 22.9135 189.533 23.1873 189.246 23.3516C188.959 23.5159 188.558 23.6803 188.157 23.6803C187.698 23.6803 187.354 23.5707 187.067 23.4064Z" fill="#333333"/>
<path d="M190.622 17.9841H191.31V19.7368L191.252 20.2845H191.31C191.424 20.0654 191.596 19.9011 191.826 19.7916C192.055 19.682 192.342 19.5725 192.628 19.5725C193.144 19.5725 193.488 19.7368 193.775 20.0107C194.062 20.2845 194.176 20.6679 194.176 21.1061V23.516H193.488V21.2156C193.488 20.8322 193.374 20.6131 193.202 20.4488C193.03 20.2845 192.8 20.175 192.456 20.175C192.227 20.175 192.055 20.2297 191.883 20.3393C191.711 20.4488 191.596 20.6131 191.482 20.8322C191.367 21.0513 191.31 21.2156 191.31 21.4347V23.516H190.622V17.9841Z" fill="#333333"/>
<path d="M195.094 19.6821H195.724V20.2298H195.781C195.896 20.0108 196.068 19.8464 196.297 19.7369C196.527 19.6274 196.813 19.5178 197.1 19.5178C197.616 19.5178 197.96 19.6821 198.247 19.956C198.476 20.2298 198.648 20.6132 198.648 21.1062V23.5161H197.96V21.2157C197.96 20.5037 197.616 20.1751 196.928 20.1751C196.699 20.1751 196.527 20.2298 196.355 20.3394C196.183 20.4489 196.068 20.6132 195.953 20.7776C195.839 20.9419 195.839 21.161 195.839 21.38V23.5161H195.151V19.6821H195.094Z" fill="#333333"/>
<path d="M200.368 23.4064C200.081 23.2421 199.794 22.9682 199.622 22.6944C199.45 22.3658 199.336 22.0371 199.336 21.6537C199.336 21.2703 199.45 20.9417 199.622 20.6131C199.794 20.2845 200.024 20.0654 200.368 19.9011C200.712 19.7367 201.056 19.6272 201.457 19.6272C201.858 19.6272 202.202 19.7367 202.546 19.9011C202.89 20.0654 203.12 20.3392 203.292 20.6131C203.464 20.8869 203.578 21.2703 203.578 21.6537C203.578 22.0371 203.464 22.3658 203.292 22.6944C203.12 23.023 202.89 23.2421 202.546 23.4064C202.202 23.5707 201.858 23.6803 201.457 23.6803C201.056 23.6803 200.654 23.5707 200.368 23.4064ZM202.088 22.8587C202.317 22.7491 202.489 22.5848 202.604 22.3658C202.718 22.1467 202.776 21.8728 202.776 21.599C202.776 21.3251 202.718 21.0512 202.604 20.8322C202.489 20.6131 202.317 20.4488 202.088 20.3392C201.858 20.2297 201.629 20.1749 201.4 20.1749C201.17 20.1749 200.941 20.2297 200.712 20.3392C200.482 20.4488 200.31 20.6131 200.196 20.8322C200.081 21.0512 200.024 21.3251 200.024 21.599C200.024 21.8728 200.081 22.1467 200.196 22.3658C200.31 22.5848 200.482 22.7491 200.712 22.8587C200.941 22.9682 201.17 23.023 201.4 23.023C201.686 23.0778 201.916 23.023 202.088 22.8587Z" fill="#333333"/>
<path d="M204.209 17.9841H204.897V23.516H204.209V17.9841Z" fill="#333333"/>
<path d="M206.674 23.4064C206.387 23.2421 206.101 22.9682 205.929 22.6944C205.757 22.3658 205.642 22.0371 205.642 21.6537C205.642 21.2703 205.757 20.9417 205.929 20.6131C206.101 20.2845 206.33 20.0654 206.674 19.9011C207.018 19.7367 207.362 19.6272 207.763 19.6272C208.165 19.6272 208.509 19.7367 208.853 19.9011C209.197 20.0654 209.426 20.3392 209.598 20.6131C209.77 20.8869 209.885 21.2703 209.885 21.6537C209.885 22.0371 209.77 22.3658 209.598 22.6944C209.426 23.023 209.197 23.2421 208.853 23.4064C208.509 23.5707 208.165 23.6803 207.763 23.6803C207.362 23.6803 206.961 23.5707 206.674 23.4064ZM208.394 22.8587C208.623 22.7491 208.795 22.5848 208.91 22.3658C209.025 22.1467 209.082 21.8728 209.082 21.599C209.082 21.3251 209.025 21.0512 208.91 20.8322C208.795 20.6131 208.623 20.4488 208.394 20.3392C208.165 20.2297 207.935 20.1749 207.706 20.1749C207.477 20.1749 207.247 20.2297 207.018 20.3392C206.789 20.4488 206.617 20.6131 206.502 20.8322C206.387 21.0512 206.33 21.3251 206.33 21.599C206.33 21.8728 206.387 22.1467 206.502 22.3658C206.617 22.5848 206.789 22.7491 207.018 22.8587C207.247 22.9682 207.477 23.023 207.706 23.023C207.935 23.0778 208.165 23.023 208.394 22.8587Z" fill="#333333"/>
<path d="M211.146 24.9949C210.859 24.7758 210.63 24.502 210.515 24.2281L211.146 23.9543C211.203 24.1734 211.375 24.3924 211.604 24.502C211.834 24.6663 212.063 24.7211 212.35 24.7211C212.751 24.7211 213.095 24.6115 213.324 24.3924C213.554 24.1734 213.668 23.8447 213.668 23.4066V23.0231H213.611C213.496 23.2422 213.267 23.4066 213.038 23.5161C212.808 23.6256 212.522 23.7351 212.235 23.7351C211.891 23.7351 211.604 23.6256 211.261 23.4613C210.974 23.297 210.745 23.0231 210.573 22.7493C210.401 22.4206 210.286 22.0921 210.286 21.7087C210.286 21.3253 210.401 20.9966 210.573 20.668C210.745 20.3394 210.974 20.1203 211.261 19.956C211.547 19.7917 211.891 19.6821 212.235 19.6821C212.522 19.6821 212.808 19.7368 213.038 19.9012C213.267 20.0107 213.496 20.1751 213.611 20.3942H213.668V19.8464H214.299V23.4066C214.299 23.8447 214.184 24.1734 214.012 24.502C213.84 24.8306 213.611 24.9949 213.324 25.1592C213.038 25.3235 212.694 25.3783 212.292 25.3783C211.834 25.3235 211.432 25.214 211.146 24.9949ZM212.98 22.9136C213.152 22.804 213.324 22.6398 213.439 22.4207C213.554 22.2016 213.611 21.9277 213.611 21.6538C213.611 21.38 213.554 21.1062 213.439 20.8871C213.324 20.668 213.152 20.5037 212.98 20.3942C212.808 20.2846 212.579 20.2298 212.35 20.2298C212.12 20.2298 211.891 20.2846 211.719 20.3942C211.547 20.5037 211.375 20.668 211.261 20.8871C211.146 21.1062 211.089 21.38 211.089 21.6538C211.089 21.9277 211.146 22.2016 211.261 22.4207C211.375 22.6398 211.547 22.804 211.719 22.9136C211.891 23.0231 212.12 23.0779 212.35 23.0779C212.579 23.0779 212.808 23.0231 212.98 22.9136Z" fill="#333333"/>
<path d="M216.535 23.297L214.872 19.6821H215.617L216.879 22.5302L218.083 19.6821H218.828L216.305 25.214H215.617L216.535 23.297Z" fill="#333333"/>
</g>
<defs>
<clipPath id="clip0_692_6378">
<rect width="219" height="25.1947" fill="white" transform="translate(0 0.402588)"/>
</clipPath>
</defs>
</svg>
