<svg width="226" height="26" viewBox="0 0 226 26" fill="none" xmlns="http://www.w3.org/2000/svg">
<g clip-path="url(#clip0_151_13714)">
<path d="M10.7082 8.70436L3.19458 4.57826C2.83961 4.4087 2.48464 4.29565 2.12966 4.29565C1.41971 4.29565 0.650605 4.63478 0.29563 5.31304C-0.295993 6.27393 0.0589807 7.5174 1.06474 8.08262L8.57835 12.2087C8.93333 12.3783 9.2883 12.4913 9.64327 12.4913C10.3532 12.4913 11.1223 12.1522 11.4773 11.4739C12.0689 10.5131 11.714 9.26958 10.7082 8.70436Z" fill="#4285F4"/>
<path d="M25.6765 4.57837L18.1628 0.452286C17.8079 0.282721 17.4529 0.169678 17.0979 0.169678C16.388 0.169678 15.6189 0.508809 15.2639 1.18707C14.6723 2.14794 15.0272 3.39142 16.033 3.95664L23.5466 8.08273C23.9016 8.25229 24.2566 8.36534 24.6115 8.36534C25.3215 8.36534 26.0906 8.02621 26.4456 7.34795C27.0964 6.38708 26.7414 5.08707 25.6765 4.57837Z" fill="#34A853"/>
<path d="M23.2508 8.59142L19.7602 6.66968L16.033 8.70446C15.0272 9.26968 14.6723 10.5132 15.2639 11.474C15.678 12.1523 16.388 12.4914 17.0979 12.4914C17.4529 12.4914 17.8079 12.3784 18.1628 12.2088L24.1974 8.87403C23.9016 8.87403 23.5466 8.76098 23.2508 8.59142Z" fill="#FBBC04"/>
<path d="M3.49054 4.06964L6.98112 5.99138L10.7083 3.9566C11.7141 3.39138 12.0691 2.1479 11.4775 1.18703C10.8858 0.226164 9.58426 -0.112967 8.5785 0.45225L2.54395 3.73051C2.89892 3.78703 3.19473 3.90008 3.49054 4.06964Z" fill="#EA4335"/>
<path d="M35.2607 10.3434C34.4916 9.94773 33.9 9.32604 33.4267 8.59126C32.9534 7.85648 32.7759 7.00865 32.7759 6.10425C32.7759 5.19993 33.0125 4.40863 33.4267 3.61732C33.9 2.88254 34.4916 2.31732 35.2607 1.86515C36.0298 1.4695 36.8581 1.24341 37.8047 1.24341C38.5146 1.24341 39.1654 1.35645 39.8162 1.58254C40.467 1.80863 40.9403 2.14776 41.3544 2.59993L40.5261 3.39123C40.2303 3.0521 39.8162 2.7695 39.3429 2.54341C38.8696 2.37384 38.3371 2.2608 37.8047 2.2608C37.1539 2.2608 36.5031 2.43036 35.9115 2.71297C35.3199 3.0521 34.8466 3.44776 34.4916 4.0695C34.1366 4.63471 33.9591 5.31297 33.9591 6.04778C33.9591 6.78257 34.1366 7.46083 34.4916 8.02604C34.8466 8.59126 35.3199 9.04338 35.9115 9.38251C36.5031 9.72164 37.1539 9.83474 37.8047 9.83474C38.4555 9.83474 38.9879 9.7217 39.4612 9.55213C39.8754 9.38257 40.2895 9.09996 40.5853 8.76083C40.822 8.53474 40.9994 8.25213 41.1769 7.85648C41.2953 7.51735 41.4136 7.12164 41.4136 6.72604H37.8047V5.70865H42.4785C42.5377 5.93474 42.5377 6.16083 42.5377 6.38686C42.5377 6.95208 42.4193 7.51735 42.2418 8.02604C42.0644 8.59126 41.7686 9.04344 41.3544 9.43909C40.467 10.3434 39.2246 10.8521 37.8047 10.8521C36.8581 10.9652 36.0298 10.7956 35.2607 10.3434Z" fill="black"/>
<path d="M45.0816 10.513C44.5491 10.2304 44.135 9.7783 43.8392 9.26961C43.5434 8.76091 43.425 8.13912 43.425 7.51738C43.425 6.89564 43.5434 6.27396 43.8392 5.76526C44.135 5.25654 44.5491 4.80436 45.0816 4.52175C45.6141 4.23915 46.2057 4.06958 46.8565 4.06958C47.5072 4.06958 48.0989 4.23915 48.6313 4.52175C49.1638 4.80436 49.5779 5.25654 49.8737 5.76526C50.1695 6.27396 50.2879 6.89564 50.2879 7.51738C50.2879 8.13912 50.1695 8.76091 49.8737 9.26961C49.5779 9.7783 49.1638 10.2304 48.6313 10.513C48.0989 10.7956 47.5072 10.9653 46.8565 10.9653C46.2057 10.9653 45.6141 10.8522 45.0816 10.513ZM47.9805 9.6652C48.3355 9.43912 48.6313 9.15651 48.8088 8.81738C49.0455 8.47825 49.1046 8.02607 49.1046 7.51738C49.1046 7.00868 48.9863 6.61309 48.8088 6.21743C48.5722 5.8783 48.3355 5.53915 47.9805 5.36958C47.6256 5.14349 47.2706 5.08697 46.8565 5.08697C46.4423 5.08697 46.0873 5.20001 45.7324 5.36958C45.3774 5.59567 45.0816 5.8783 44.9041 6.21743C44.6675 6.61309 44.6083 7.00868 44.6083 7.51738C44.6083 8.02607 44.7266 8.42173 44.9041 8.81738C45.1408 9.21303 45.3774 9.49564 45.7324 9.6652C46.0873 9.89129 46.4423 9.94781 46.8565 9.94781C47.2706 10.0043 47.6847 9.89129 47.9805 9.6652Z" fill="black"/>
<path d="M52.7728 10.513C52.2403 10.2304 51.8262 9.7783 51.5303 9.26961C51.2345 8.76091 51.1162 8.13912 51.1162 7.51738C51.1162 6.89564 51.2345 6.27396 51.5303 5.76526C51.8262 5.25654 52.2403 4.80436 52.7728 4.52175C53.3052 4.23915 53.8968 4.06958 54.5476 4.06958C55.1984 4.06958 55.79 4.23915 56.3225 4.52175C56.855 4.80436 57.2691 5.25654 57.5649 5.76526C57.8607 6.27396 57.979 6.89564 57.979 7.51738C57.979 8.13912 57.8607 8.76091 57.5649 9.26961C57.2691 9.7783 56.855 10.2304 56.3225 10.513C55.79 10.7956 55.1984 10.9653 54.5476 10.9653C53.8968 10.9653 53.3052 10.8522 52.7728 10.513ZM55.7309 9.6652C56.0858 9.43912 56.3817 9.15651 56.5591 8.81738C56.7958 8.47825 56.855 8.02607 56.855 7.51738C56.855 7.00868 56.7366 6.61309 56.5591 6.21743C56.3225 5.8783 56.0858 5.53915 55.7309 5.36958C55.3759 5.14349 55.0209 5.08697 54.6068 5.08697C54.1926 5.08697 53.8377 5.20001 53.4827 5.36958C53.1277 5.59567 52.8319 5.8783 52.6544 6.21743C52.4178 6.61309 52.3586 7.00868 52.3586 7.51738C52.3586 8.02607 52.4769 8.42173 52.6544 8.81738C52.8911 9.21303 53.1277 9.49564 53.4827 9.6652C53.8377 9.89129 54.1926 9.94781 54.6068 9.94781C54.9618 10.0043 55.3759 9.89129 55.7309 9.6652Z" fill="black"/>
<path d="M60.1682 13.2262C59.6357 12.8306 59.2807 12.4349 59.1032 11.9262L60.1682 11.4741C60.2865 11.8697 60.5231 12.1523 60.8781 12.3784C61.2331 12.6045 61.6472 12.7175 62.1205 12.7175C62.8305 12.7175 63.3629 12.4915 63.7771 12.0958C64.1912 11.7002 64.3687 11.1349 64.3687 10.4567V9.77841H64.3095C64.0729 10.1175 63.7771 10.4002 63.3629 10.5697C62.9488 10.7958 62.4755 10.9088 62.0022 10.9088C61.4106 10.9088 60.8781 10.7393 60.4048 10.4567C59.9315 10.1741 59.5174 9.77841 59.2216 9.21319C58.9257 8.7045 58.8074 8.08276 58.8074 7.46102C58.8074 6.78276 58.9257 6.21754 59.2216 5.70885C59.5174 5.20014 59.8724 4.80448 60.4048 4.46535C60.8781 4.18274 61.4106 4.01318 62.0022 4.01318C62.5347 4.01318 63.008 4.12623 63.3629 4.35231C63.7771 4.5784 64.0729 4.86101 64.3095 5.14362H64.3687V4.18274H65.4928V10.3436C65.4928 11.0784 65.3744 11.6436 65.0786 12.1523C64.7828 12.661 64.3687 13.0002 63.8954 13.2262C63.4221 13.4523 62.8305 13.5654 62.1797 13.5654C61.3514 13.7915 60.6415 13.6219 60.1682 13.2262ZM63.2446 9.66537C63.5996 9.4958 63.8362 9.21319 64.0729 8.81754C64.2504 8.47841 64.3687 8.02624 64.3687 7.51754C64.3687 7.00885 64.2504 6.61319 64.0729 6.21754C63.8954 5.82189 63.5996 5.59579 63.2446 5.36971C62.8896 5.20014 62.5347 5.0871 62.1205 5.0871C61.7064 5.0871 61.3514 5.20014 60.9964 5.36971C60.6415 5.53927 60.4048 5.82189 60.1682 6.21754C59.9907 6.55667 59.8724 7.00885 59.8724 7.51754C59.8724 8.02624 59.9907 8.42189 60.1682 8.81754C60.3456 9.15667 60.6415 9.43928 60.9964 9.66537C61.3514 9.83493 61.7064 9.94798 62.1205 9.94798C62.5938 10.0045 62.9488 9.89146 63.2446 9.66537Z" fill="black"/>
<path d="M67.031 1.46948H68.1551V10.7391H67.031V1.46948Z" fill="black"/>
<path d="M70.9358 10.5132C70.4033 10.2306 70.0483 9.83492 69.7525 9.2697C69.4567 8.76101 69.3384 8.13927 69.3384 7.51753C69.3384 6.89579 69.4567 6.33057 69.7525 5.82188C70.0483 5.31318 70.4033 4.861 70.9358 4.57839C71.4091 4.29579 72.0007 4.12622 72.6515 4.12622C73.3023 4.12622 73.8939 4.23926 74.3672 4.52187C74.8405 4.80448 75.2546 5.20013 75.4913 5.70884C75.7279 6.21753 75.9054 6.78275 75.9054 7.46101C75.9054 7.57405 75.9054 7.6871 75.9054 7.74362H70.5808C70.5808 8.25231 70.6991 8.64797 70.9358 8.9871C71.1724 9.32623 71.4682 9.55231 71.764 9.72188C72.119 9.89144 72.474 9.94797 72.829 9.94797C73.6572 9.94797 74.308 9.55231 74.7813 8.76101L75.7871 9.21318C75.4913 9.72188 75.0771 10.1741 74.6038 10.4567C74.0714 10.7958 73.4797 10.9088 72.7698 10.9088C72.0007 10.9654 71.4091 10.8523 70.9358 10.5132ZM74.6038 6.83927C74.6038 6.55666 74.4855 6.33057 74.3672 6.04797C74.2489 5.76536 74.0122 5.59579 73.7164 5.3697C73.4206 5.20013 73.0064 5.08709 72.5331 5.08709C72.0007 5.08709 71.5866 5.25666 71.2316 5.53926C70.8766 5.8784 70.64 6.27405 70.5216 6.78275H74.6038V6.83927Z" fill="black"/>
<path d="M80.2241 1.46948H83.1822C84.188 1.46948 85.0163 1.63905 85.7854 2.0347C86.5545 2.43035 87.0869 2.99557 87.5011 3.67383C87.9152 4.35209 88.0927 5.19991 88.0927 6.10428C88.0927 7.00862 87.9152 7.79993 87.5011 8.53471C87.0869 9.21297 86.5545 9.77819 85.7854 10.1738C85.0163 10.5695 84.188 10.7391 83.1822 10.7391H80.2241V1.46948ZM83.1822 9.72167C84.3063 9.72167 85.2529 9.38254 85.9037 8.7608C86.5545 8.13906 86.9094 7.23471 86.9094 6.10428C86.9094 4.97382 86.5545 4.06948 85.9037 3.44774C85.2529 2.826 84.3063 2.48687 83.1822 2.48687H81.4074V9.66515H83.1822V9.72167Z" fill="black"/>
<path d="M90.6958 10.5132C90.1633 10.2306 89.8083 9.83492 89.5125 9.2697C89.2167 8.76101 89.0984 8.13927 89.0984 7.51753C89.0984 6.89579 89.2167 6.33057 89.5125 5.82188C89.8083 5.31318 90.1633 4.861 90.6958 4.57839C91.1691 4.29579 91.7607 4.12622 92.4115 4.12622C93.0623 4.12622 93.6539 4.23926 94.1272 4.52187C94.6005 4.80448 95.0146 5.20013 95.2513 5.70884C95.4879 6.21753 95.6654 6.78275 95.6654 7.46101C95.6654 7.57405 95.6654 7.6871 95.6654 7.74362H90.3408C90.3408 8.25231 90.4591 8.64797 90.6958 8.9871C90.9324 9.32623 91.2282 9.55231 91.524 9.72188C91.879 9.89144 92.234 9.94797 92.589 9.94797C93.4172 9.94797 94.068 9.55231 94.5413 8.76101L95.5471 9.21318C95.2513 9.72188 94.8371 10.1741 94.3638 10.4567C93.8905 10.7393 93.2397 10.9088 92.5298 10.9088C91.8198 10.9654 91.2282 10.8523 90.6958 10.5132ZM94.3638 6.83927C94.3638 6.55666 94.2455 6.33057 94.1272 6.04797C94.0089 5.76536 93.7722 5.59579 93.4764 5.3697C93.1806 5.20013 92.7664 5.08709 92.2931 5.08709C91.7607 5.08709 91.3466 5.25666 90.9916 5.53926C90.6366 5.8784 90.4 6.27405 90.2816 6.78275H94.3638V6.83927Z" fill="black"/>
<path d="M95.9021 4.35229H97.1445L99.2152 9.49574L101.286 4.35229H102.528L99.7477 10.7957H98.5644L95.9021 4.35229Z" fill="black"/>
<path d="M104.658 10.5132C104.126 10.2306 103.771 9.83492 103.475 9.2697C103.179 8.76101 103.061 8.13927 103.061 7.51753C103.061 6.89579 103.179 6.33057 103.475 5.82188C103.771 5.31318 104.126 4.861 104.658 4.57839C105.131 4.29579 105.723 4.12622 106.374 4.12622C107.025 4.12622 107.616 4.23926 108.09 4.52187C108.563 4.80448 108.977 5.20013 109.214 5.70884C109.45 6.21753 109.628 6.78275 109.628 7.46101C109.628 7.57405 109.628 7.6871 109.628 7.74362H104.303C104.303 8.25231 104.422 8.64797 104.658 8.9871C104.895 9.32623 105.191 9.55231 105.486 9.72188C105.841 9.89144 106.196 9.94797 106.551 9.94797C107.38 9.94797 108.03 9.55231 108.504 8.76101L109.51 9.21318C109.214 9.72188 108.8 10.1741 108.326 10.4567C107.794 10.7958 107.202 10.9088 106.492 10.9088C105.723 10.9654 105.131 10.8523 104.658 10.5132ZM108.326 6.83927C108.326 6.55666 108.208 6.33057 108.09 6.04797C107.971 5.76536 107.735 5.59579 107.439 5.3697C107.143 5.20013 106.729 5.08709 106.256 5.08709C105.723 5.08709 105.309 5.25666 104.954 5.53926C104.599 5.8784 104.362 6.27405 104.244 6.78275H108.326V6.83927Z" fill="black"/>
<path d="M110.693 1.46948H111.876V10.7391H110.693V1.46948Z" fill="black"/>
<path d="M114.657 10.513C114.124 10.2304 113.71 9.7783 113.414 9.26961C113.118 8.76091 113 8.13912 113 7.51738C113 6.89564 113.118 6.27396 113.414 5.76526C113.71 5.25654 114.124 4.80436 114.657 4.52175C115.189 4.23915 115.781 4.06958 116.431 4.06958C117.082 4.06958 117.674 4.23915 118.206 4.52175C118.739 4.80436 119.153 5.25654 119.449 5.76526C119.744 6.27396 119.863 6.89564 119.863 7.51738C119.863 8.13912 119.744 8.76091 119.449 9.26961C119.153 9.7783 118.739 10.2304 118.206 10.513C117.674 10.7956 117.082 10.9653 116.431 10.9653C115.781 10.9653 115.13 10.8522 114.657 10.513ZM117.555 9.6652C117.91 9.43912 118.206 9.15651 118.384 8.81738C118.62 8.47825 118.68 8.02607 118.68 7.51738C118.68 7.00868 118.561 6.61309 118.384 6.21743C118.147 5.8783 117.91 5.53915 117.555 5.36958C117.201 5.14349 116.846 5.08697 116.431 5.08697C116.017 5.08697 115.662 5.20001 115.307 5.36958C114.952 5.59567 114.657 5.8783 114.479 6.21743C114.242 6.61309 114.183 7.00868 114.183 7.51738C114.183 8.02607 114.302 8.42173 114.479 8.81738C114.716 9.21303 114.952 9.49564 115.307 9.6652C115.662 9.89129 116.017 9.94781 116.431 9.94781C116.846 10.0043 117.201 9.89129 117.555 9.6652Z" fill="black"/>
<path d="M120.928 4.35231H122.052V5.31318H122.111C122.348 4.97405 122.643 4.69144 123.058 4.46535C123.472 4.23926 123.945 4.12622 124.477 4.12622C125.069 4.12622 125.602 4.29579 126.075 4.57839C126.548 4.861 126.962 5.25666 127.258 5.82188C127.554 6.33057 127.672 6.89579 127.672 7.57405C127.672 8.19579 127.554 8.81753 127.258 9.32623C126.962 9.83492 126.607 10.2306 126.075 10.5697C125.602 10.8523 125.069 11.0219 124.477 11.0219C123.945 11.0219 123.472 10.9088 123.058 10.6827C122.643 10.4567 122.348 10.1741 122.111 9.83492H122.052L122.111 10.7393V13.5654H120.987V4.35231H120.928ZM125.365 9.66536C125.72 9.43927 125.957 9.15666 126.193 8.81753C126.371 8.4784 126.489 8.02623 126.489 7.51753C126.489 7.00883 126.371 6.61318 126.193 6.21753C126.016 5.8784 125.72 5.53926 125.365 5.3697C125.01 5.14361 124.655 5.08709 124.241 5.08709C123.827 5.08709 123.472 5.20013 123.117 5.3697C122.762 5.53926 122.525 5.82188 122.288 6.21753C122.111 6.55666 121.993 7.00883 121.993 7.51753C121.993 8.02623 122.111 8.42188 122.288 8.81753C122.466 9.21318 122.762 9.49579 123.117 9.66536C123.472 9.83492 123.827 9.94797 124.241 9.94797C124.655 9.94797 125.01 9.89144 125.365 9.66536Z" fill="black"/>
<path d="M130.334 10.5132C129.802 10.2306 129.447 9.83492 129.151 9.2697C128.855 8.76101 128.737 8.13927 128.737 7.51753C128.737 6.89579 128.855 6.33057 129.151 5.82188C129.447 5.31318 129.802 4.861 130.334 4.57839C130.808 4.29579 131.399 4.12622 132.05 4.12622C132.701 4.12622 133.293 4.23926 133.766 4.52187C134.239 4.80448 134.653 5.20013 134.89 5.70884C135.127 6.21753 135.304 6.78275 135.304 7.46101C135.304 7.57405 135.304 7.6871 135.304 7.74362H129.979C129.979 8.25231 130.098 8.64797 130.334 8.9871C130.571 9.32623 130.867 9.55231 131.163 9.72188C131.518 9.89144 131.873 9.94797 132.228 9.94797C133.056 9.94797 133.707 9.55231 134.18 8.76101L135.186 9.21318C134.89 9.72188 134.476 10.1741 134.002 10.4567C133.47 10.7958 132.878 10.9088 132.168 10.9088C131.399 10.9654 130.808 10.8523 130.334 10.5132ZM134.002 6.83927C134.002 6.55666 133.884 6.33057 133.766 6.04797C133.648 5.76536 133.411 5.59579 133.115 5.3697C132.819 5.20013 132.405 5.08709 131.932 5.08709C131.399 5.08709 130.985 5.25666 130.63 5.53926C130.275 5.8784 130.039 6.27405 129.92 6.78275H134.002V6.83927Z" fill="black"/>
<path d="M136.369 4.35218H137.493V5.4261H137.552C137.671 5.08697 137.967 4.74783 138.321 4.52175C138.736 4.29566 139.091 4.18262 139.505 4.18262C139.801 4.18262 140.037 4.23914 140.274 4.29566V5.48262C140.037 5.36957 139.741 5.31305 139.327 5.31305C139.031 5.31305 138.736 5.4261 138.44 5.59566C138.144 5.76525 137.967 5.99134 137.789 6.33047C137.612 6.61307 137.552 6.9522 137.552 7.29134V10.8522H136.369V4.35218Z" fill="black"/>
<path d="M145.303 10.6827C144.829 10.5131 144.415 10.2305 144.119 9.83485C143.764 9.4392 143.528 8.98702 143.35 8.47833L144.474 8.02615C144.652 8.59137 144.889 9.04354 145.303 9.38267C145.717 9.72181 146.19 9.89137 146.782 9.89137C147.373 9.89137 147.847 9.72181 148.202 9.4392C148.616 9.15659 148.793 8.76094 148.793 8.25224C148.793 7.80007 148.616 7.46094 148.32 7.17833C147.965 6.89572 147.433 6.61311 146.723 6.38702L146.131 6.16094C145.421 5.93485 144.889 5.5957 144.474 5.25657C144.06 4.86092 143.824 4.35223 143.824 3.67397C143.824 3.22179 143.942 2.82614 144.179 2.43048C144.415 2.03483 144.77 1.75223 145.244 1.52614C145.717 1.30006 146.19 1.18701 146.782 1.18701C147.314 1.18701 147.847 1.30006 148.261 1.46962C148.675 1.69571 149.03 1.92179 149.267 2.2044C149.503 2.48701 149.681 2.76961 149.799 3.05222L148.734 3.5044C148.616 3.16527 148.438 2.88266 148.083 2.65658C147.788 2.37397 147.373 2.26092 146.841 2.26092C146.368 2.26092 145.894 2.37397 145.539 2.65658C145.184 2.93919 145.007 3.27832 145.007 3.67397C145.007 4.0131 145.184 4.35223 145.48 4.57832C145.776 4.8044 146.249 5.03049 146.841 5.20005L147.492 5.42614C148.32 5.70876 148.971 6.04789 149.444 6.50007C149.917 6.95224 150.154 7.51746 150.154 8.25224C150.154 8.87398 149.977 9.32615 149.681 9.77833C149.385 10.174 148.971 10.4566 148.438 10.6827C147.965 10.8522 147.433 10.9653 146.9 10.9653C146.249 10.9653 145.776 10.9088 145.303 10.6827Z" fill="black"/>
<path d="M152.757 10.8522C152.52 10.7391 152.343 10.6261 152.165 10.513C151.988 10.3435 151.87 10.1739 151.751 9.94782C151.692 9.72173 151.633 9.43912 151.633 9.15651V5.36955H150.45V4.35216H151.633V2.43042H152.757V4.35216H154.414V5.36955H152.757V8.8739C152.757 9.26956 152.816 9.49564 152.994 9.72173C153.171 9.8913 153.408 10.0043 153.704 10.0043C153.999 10.0043 154.236 9.94782 154.414 9.83477V10.9087C154.295 10.9652 154.118 11.0217 153.999 11.0217C153.881 11.0217 153.704 11.0783 153.467 11.0783C153.23 10.9652 152.994 10.9087 152.757 10.8522Z" fill="black"/>
<path d="M156.248 10.2871C155.834 9.83491 155.597 9.21317 155.597 8.36534V4.29578H156.721V8.13926C156.721 9.32621 157.253 9.89143 158.378 9.89143C158.733 9.89143 159.087 9.77839 159.383 9.60882C159.679 9.38274 159.916 9.15665 160.034 8.81752C160.152 8.47839 160.271 8.13926 160.271 7.80013V4.23926H161.395V10.6827H160.33V9.72187C160.152 10.061 159.857 10.3436 159.442 10.5697C159.028 10.7958 158.614 10.9088 158.141 10.9088C157.313 10.9653 156.662 10.7393 156.248 10.2871Z" fill="black"/>
<path d="M164.176 10.5131C163.702 10.2305 163.288 9.83483 162.992 9.26961C162.696 8.76091 162.578 8.13917 162.578 7.51743C162.578 6.8957 162.696 6.27396 162.992 5.76526C163.288 5.25656 163.643 4.86091 164.176 4.52178C164.649 4.23917 165.181 4.06961 165.773 4.06961C166.305 4.06961 166.779 4.18265 167.193 4.40874C167.607 4.63483 167.903 4.91743 168.139 5.25656H168.199L168.139 4.35222V1.41309H169.263V10.6827H168.199V9.72178H168.139C167.903 10.0609 167.607 10.3435 167.193 10.5696C166.779 10.7957 166.305 10.9087 165.773 10.9087C165.181 10.9653 164.649 10.8522 164.176 10.5131ZM167.074 9.66526C167.429 9.4957 167.666 9.21309 167.903 8.81743C168.08 8.42178 168.199 8.02613 168.199 7.51743C168.199 7.00874 168.08 6.61309 167.903 6.21743C167.725 5.82178 167.429 5.59569 167.074 5.36961C166.719 5.20004 166.365 5.087 165.95 5.087C165.536 5.087 165.181 5.20004 164.826 5.36961C164.471 5.59569 164.235 5.8783 163.998 6.21743C163.821 6.61309 163.702 7.00874 163.702 7.51743C163.702 8.02613 163.821 8.42178 163.998 8.81743C164.176 9.21309 164.471 9.4957 164.826 9.66526C165.181 9.89135 165.536 9.94787 165.95 9.94787C166.365 10.0044 166.719 9.89135 167.074 9.66526Z" fill="black"/>
<path d="M172.044 10.5132C171.511 10.2306 171.156 9.83492 170.861 9.2697C170.565 8.76101 170.447 8.13927 170.447 7.51753C170.447 6.89579 170.565 6.33057 170.861 5.82188C171.156 5.31318 171.511 4.861 172.044 4.57839C172.517 4.29579 173.109 4.12622 173.76 4.12622C174.41 4.12622 175.002 4.23926 175.475 4.52187C175.949 4.80448 176.363 5.20013 176.599 5.70884C176.836 6.21753 177.014 6.78275 177.014 7.46101C177.014 7.57405 177.014 7.6871 177.014 7.74362H171.689C171.689 8.25231 171.807 8.64797 172.044 8.9871C172.281 9.32623 172.576 9.55231 172.872 9.72188C173.227 9.89144 173.582 9.94797 173.937 9.94797C174.765 9.94797 175.416 9.55231 175.889 8.76101L176.895 9.21318C176.599 9.72188 176.185 10.1741 175.712 10.4567C175.18 10.7958 174.588 10.9088 173.878 10.9088C173.109 10.9654 172.517 10.8523 172.044 10.5132ZM175.712 6.83927C175.712 6.55666 175.594 6.33057 175.475 6.04797C175.357 5.76536 175.12 5.59579 174.825 5.3697C174.529 5.20013 174.115 5.08709 173.641 5.08709C173.109 5.08709 172.695 5.25666 172.34 5.53926C171.985 5.8784 171.748 6.27405 171.63 6.78275H175.712V6.83927Z" fill="black"/>
<path d="M178.078 4.35231H179.203V5.31318H179.262C179.439 4.97405 179.735 4.69144 180.149 4.46535C180.563 4.23926 180.977 4.12622 181.451 4.12622C182.279 4.12622 182.871 4.35231 183.344 4.80448C183.758 5.25666 183.995 5.8784 183.995 6.6697V10.7393H182.811V6.83927C182.811 5.70883 182.22 5.08709 181.096 5.08709C180.741 5.08709 180.386 5.20013 180.09 5.3697C179.794 5.59579 179.558 5.82188 179.439 6.16101C179.262 6.50014 179.203 6.83927 179.203 7.1784V10.7393H178.019V4.35231H178.078Z" fill="black"/>
<path d="M186.953 10.8522C186.716 10.7391 186.539 10.6261 186.361 10.513C186.184 10.3435 186.065 10.1739 185.947 9.94782C185.888 9.72173 185.829 9.43912 185.829 9.15651V5.36955H184.646V4.35216H185.829V2.43042H186.953V4.35216H188.609V5.36955H186.953V8.8739C186.953 9.26956 187.012 9.49564 187.189 9.72173C187.367 9.8913 187.604 10.0043 187.899 10.0043C188.195 10.0043 188.432 9.94782 188.609 9.83477V10.9087C188.491 10.9652 188.314 11.0217 188.195 11.0217C188.077 11.0217 187.899 11.0783 187.663 11.0783C187.485 10.9652 187.189 10.9087 186.953 10.8522Z" fill="black"/>
<path d="M194.821 10.3434C194.052 9.94773 193.461 9.32604 192.987 8.59126C192.573 7.85648 192.337 7.00865 192.337 6.10425C192.337 5.19993 192.573 4.40863 192.987 3.61732C193.402 2.88254 194.052 2.31732 194.821 1.86515C195.591 1.4695 196.419 1.24341 197.365 1.24341C198.075 1.24341 198.785 1.35645 199.377 1.63906C199.969 1.92167 200.501 2.2608 200.915 2.76949L200.087 3.5608C199.732 3.16515 199.318 2.82602 198.845 2.59993C198.371 2.37384 197.898 2.31732 197.306 2.31732C196.596 2.31732 195.946 2.48689 195.354 2.76949C194.762 3.10863 194.289 3.50428 193.934 4.12602C193.579 4.69123 193.402 5.36949 193.402 6.10425C193.402 6.83903 193.579 7.51729 193.934 8.08251C194.289 8.64773 194.762 9.09996 195.354 9.43909C195.946 9.77822 196.596 9.89126 197.306 9.89126C198.49 9.89126 199.495 9.43909 200.324 8.47822L201.152 9.26952C200.738 9.77822 200.146 10.1739 199.495 10.4565C198.845 10.7391 198.135 10.9086 197.306 10.9086C196.419 10.9652 195.591 10.7956 194.821 10.3434Z" fill="black"/>
<path d="M202.335 1.46948H203.459V10.7391H202.335V1.46948Z" fill="black"/>
<path d="M205.648 10.2871C205.234 9.83491 204.998 9.21317 204.998 8.36534V4.29578H206.122V8.13926C206.122 9.32621 206.654 9.89143 207.778 9.89143C208.133 9.89143 208.488 9.77839 208.784 9.60882C209.08 9.38274 209.316 9.15665 209.435 8.81752C209.612 8.47839 209.671 8.13926 209.671 7.80013V4.23926H210.795V10.6827H209.731V9.72187H209.671C209.494 10.061 209.198 10.3436 208.784 10.5697C208.37 10.7958 207.956 10.9088 207.482 10.9088C206.713 10.9653 206.062 10.7393 205.648 10.2871Z" fill="black"/>
<path d="M214.523 10.626C214.109 10.3999 213.813 10.1173 213.576 9.77819H213.517V10.7391H212.393V1.46948H213.517V4.40861L213.458 5.31295H213.517C213.754 4.97382 214.049 4.69122 214.464 4.46513C214.878 4.23904 215.351 4.126 215.883 4.126C216.475 4.126 217.007 4.29557 217.481 4.57818C217.954 4.86079 218.368 5.25643 218.664 5.82167C218.96 6.33036 219.078 6.89558 219.078 7.57384C219.078 8.19558 218.96 8.81732 218.664 9.32601C218.368 9.83471 218.013 10.2304 217.481 10.5695C217.007 10.8521 216.475 11.0217 215.883 11.0217C215.41 10.9651 214.937 10.8521 214.523 10.626ZM216.83 9.66514C217.185 9.43906 217.422 9.15645 217.658 8.81732C217.836 8.47819 217.954 8.02601 217.954 7.51732C217.954 7.00862 217.836 6.61297 217.658 6.21732C217.481 5.87819 217.185 5.53905 216.83 5.36948C216.475 5.19992 216.12 5.08687 215.706 5.08687C215.292 5.08687 214.937 5.19992 214.582 5.36948C214.227 5.53905 213.99 5.82167 213.754 6.21732C213.576 6.55645 213.458 7.00862 213.458 7.51732C213.458 8.02601 213.576 8.42167 213.754 8.81732C213.931 9.21297 214.227 9.49558 214.582 9.66514C214.937 9.83471 215.292 9.94775 215.706 9.94775C216.12 10.0043 216.534 9.89123 216.83 9.66514Z" fill="black"/>
<path d="M220.794 10.4566C220.32 10.1174 219.965 9.66526 219.729 9.15657L220.735 8.70439C220.912 9.10004 221.149 9.43912 221.504 9.6652C221.859 9.89129 222.214 10.0044 222.569 10.0044C222.983 10.0044 223.338 9.89135 223.633 9.72178C223.929 9.55222 224.048 9.32613 224.048 9.04352C224.048 8.81743 223.929 8.59135 223.752 8.42178C223.515 8.25222 223.16 8.13912 222.687 7.96955L221.74 7.74352C221.208 7.63048 220.794 7.40439 220.439 7.12178C220.084 6.83917 219.906 6.44352 219.906 5.93483C219.906 5.53915 220.025 5.20001 220.261 4.91741C220.498 4.6348 220.794 4.40871 221.208 4.29567C221.622 4.1261 222.036 4.06958 222.509 4.06958C223.101 4.06958 223.633 4.18262 224.107 4.46523C224.58 4.74784 224.935 5.08697 225.113 5.53914L224.107 5.93483C223.988 5.59567 223.752 5.36958 223.456 5.25654C223.16 5.08697 222.805 5.03045 222.45 5.03045C222.095 5.03045 221.799 5.08697 221.504 5.25654C221.208 5.4261 221.089 5.65219 221.089 5.8783C221.089 6.10439 221.208 6.2739 221.385 6.38694C221.563 6.49999 221.859 6.61309 222.273 6.72613L223.278 6.95216C223.929 7.12173 224.462 7.34781 224.758 7.68694C225.113 8.02607 225.231 8.42178 225.231 8.87396C225.231 9.26961 225.113 9.60874 224.876 9.89135C224.639 10.174 224.343 10.4565 223.929 10.6261C223.515 10.7956 223.042 10.9087 222.569 10.9087C221.859 10.9653 221.267 10.7957 220.794 10.4566Z" fill="black"/>
<path d="M33.6632 18.1436H34.6689L36.5621 22.8349H36.6213L38.5145 18.1436H39.5202V23.8522H38.8103V20.2349L38.8694 19.1609H38.8103L36.8579 23.9088H36.2663L34.314 19.1609H34.2548L34.314 20.2349V23.8522H33.604V18.1436H33.6632Z" fill="#333333"/>
<path d="M41.1768 23.8524C40.9402 23.7394 40.7627 23.5698 40.5852 23.4002C40.4669 23.1741 40.4077 22.9481 40.4077 22.722C40.4077 22.3263 40.5852 21.9872 40.881 21.7611C41.236 21.535 41.6501 21.422 42.1826 21.422C42.4192 21.422 42.6559 21.422 42.8925 21.4785C43.07 21.535 43.2475 21.5915 43.3658 21.6481V21.422C43.3658 21.2524 43.3067 21.0828 43.1883 20.9133C43.07 20.7437 42.9517 20.6307 42.7742 20.5741C42.5967 20.5176 42.4192 20.4611 42.2418 20.4611C41.7685 20.4611 41.4135 20.6307 41.1768 21.0263L40.5852 20.6307C40.7627 20.4046 40.9993 20.1785 41.2951 20.0654C41.591 19.9524 41.8868 19.8394 42.2418 19.8394C42.8334 19.8394 43.2475 20.0089 43.6025 20.2915C43.9575 20.5741 44.0758 20.9698 44.0758 21.4785V23.9654H43.425V23.4002H43.3658C43.2475 23.6263 43.07 23.7959 42.8334 23.9089C42.5967 24.022 42.3601 24.135 42.0643 24.135C41.7093 24.022 41.4135 23.9654 41.1768 23.8524ZM42.6559 23.2307C42.8334 23.1176 43.0109 22.9481 43.1292 22.7785C43.2475 22.6089 43.3067 22.3828 43.3067 22.1567C43.0109 21.9872 42.6559 21.8741 42.2418 21.8741C41.8868 21.8741 41.591 21.9307 41.4135 22.1002C41.1768 22.2698 41.1177 22.4394 41.1177 22.6654C41.1177 22.8915 41.236 23.0611 41.4135 23.1741C41.591 23.2872 41.8276 23.4002 42.0643 23.4002C42.2417 23.4002 42.4784 23.3437 42.6559 23.2307Z" fill="#333333"/>
<path d="M45.0225 19.8956H45.6733V20.5174H45.7325C45.7916 20.2913 45.9691 20.1217 46.2058 19.9522C46.4424 19.7826 46.6791 19.7261 46.9157 19.7261C47.0932 19.7261 47.2707 19.7261 47.389 19.7826V20.5174C47.2115 20.4609 47.0341 20.4043 46.7974 20.4043C46.6199 20.4043 46.4424 20.4609 46.2649 20.5739C46.0875 20.6869 45.9691 20.8565 45.8508 21.0261C45.7325 21.1956 45.6733 21.4217 45.6733 21.5913V23.7956H44.9634V19.8956H45.0225Z" fill="#333333"/>
<path d="M50.1697 18.1436H52.3587C52.6545 18.1436 52.9503 18.2001 53.187 18.3696C53.4236 18.5392 53.6603 18.7088 53.8377 18.9349C54.0152 19.1609 54.0744 19.4436 54.0744 19.7262C54.0744 20.0088 54.0152 20.2349 53.8377 20.4609C53.6603 20.687 53.4828 20.8566 53.2461 20.9131C53.5419 21.0262 53.7786 21.1957 54.0152 21.4218C54.1927 21.6479 54.311 21.9305 54.311 22.2696C54.311 22.6088 54.2519 22.8349 54.0744 23.1175C53.8969 23.3436 53.6603 23.5696 53.4236 23.6827C53.1278 23.7957 52.832 23.9088 52.5362 23.9088H50.288V18.1436H50.1697ZM52.2995 20.6305C52.477 20.6305 52.6545 20.574 52.832 20.5175C53.0095 20.4044 53.1278 20.2914 53.187 20.1783C53.2461 20.0653 53.3053 19.8957 53.3053 19.7262C53.3053 19.5566 53.2461 19.4436 53.187 19.274C53.1278 19.1609 53.0095 18.9914 52.832 18.9349C52.6545 18.8218 52.5362 18.8218 52.2995 18.8218H50.8796V20.6305H52.2995ZM52.477 23.2305C52.6545 23.2305 52.8911 23.174 53.0095 23.0609C53.187 22.9479 53.3053 22.8349 53.3644 22.6653C53.4236 22.4957 53.4828 22.3827 53.4828 22.2131C53.4828 22.0436 53.4236 21.874 53.3644 21.7609C53.3053 21.5914 53.1278 21.4783 53.0095 21.3653C52.8911 21.2522 52.6545 21.2522 52.4178 21.2522H50.8796V23.2305H52.477Z" fill="#333333"/>
<path d="M55.6124 23.8524C55.3757 23.7394 55.1982 23.5698 55.0208 23.4002C54.9024 23.1741 54.8433 22.9481 54.8433 22.722C54.8433 22.3263 55.0208 21.9872 55.3166 21.7611C55.6715 21.535 56.0857 21.422 56.6181 21.422C56.8548 21.422 57.0914 21.422 57.3281 21.4785C57.5056 21.535 57.6831 21.5915 57.8014 21.6481V21.422C57.8014 21.2524 57.7422 21.0828 57.6239 20.9133C57.5056 20.7437 57.3872 20.6307 57.2098 20.5741C57.0323 20.5176 56.8548 20.4611 56.6773 20.4611C56.204 20.4611 55.849 20.6307 55.6124 21.0263L55.0208 20.6307C55.1982 20.4046 55.4349 20.1785 55.7307 20.0654C56.0265 19.9524 56.3223 19.8394 56.6773 19.8394C57.2689 19.8394 57.6831 20.0089 58.038 20.2915C58.393 20.5741 58.5113 20.9698 58.5113 21.4785V23.9654H57.8605V23.4002H57.8014C57.6831 23.6263 57.5056 23.7959 57.2689 23.9089C57.0323 24.022 56.7956 24.135 56.4998 24.135C56.204 24.135 55.849 23.9654 55.6124 23.8524ZM57.0914 23.2307C57.2689 23.1176 57.4464 22.9481 57.5647 22.7785C57.6831 22.6089 57.7422 22.3828 57.7422 22.1567C57.4464 21.9872 57.0914 21.8741 56.6773 21.8741C56.3223 21.8741 56.0265 21.9307 55.849 22.1002C55.6124 22.2698 55.5532 22.4394 55.5532 22.6654C55.5532 22.8915 55.6715 23.0611 55.849 23.1741C56.0265 23.2872 56.2632 23.4002 56.4998 23.4002C56.6773 23.4002 56.9139 23.3437 57.0914 23.2307Z" fill="#333333"/>
<path d="M59.7539 23.6827C59.4581 23.4566 59.2214 23.2305 59.103 22.8914L59.7539 22.6088C59.8722 22.8349 60.0497 23.061 60.2272 23.174C60.4047 23.2871 60.6413 23.4001 60.878 23.4001C61.1738 23.4001 61.3513 23.3436 61.5287 23.2305C61.7062 23.1175 61.7654 23.0045 61.7654 22.8349C61.7654 22.6653 61.7062 22.5523 61.5879 22.4392C61.4696 22.3262 61.2329 22.2697 60.9371 22.1566L60.3455 22.0436C60.0497 21.9871 59.7539 21.874 59.5172 21.6479C59.2806 21.4784 59.1622 21.2523 59.1622 20.9132C59.1622 20.6871 59.2214 20.461 59.3989 20.2914C59.5172 20.1218 59.7539 20.0088 59.9905 19.8958C60.2272 19.7827 60.523 19.7827 60.8188 19.7827C61.1738 19.7827 61.5287 19.8392 61.7654 20.0088C62.0612 20.1784 62.2387 20.4045 62.4162 20.6871L61.7654 20.9697C61.6471 20.8001 61.5287 20.6305 61.3513 20.5175C61.1738 20.4045 60.9963 20.4045 60.7596 20.4045C60.523 20.4045 60.3455 20.461 60.168 20.574C59.9905 20.6871 59.9314 20.8001 59.9314 20.9697C59.9314 21.0827 59.9905 21.1958 60.1088 21.3088C60.2272 21.4218 60.4047 21.4784 60.6413 21.5349L61.2329 21.7045C61.6471 21.8175 61.9429 21.9305 62.1795 22.1566C62.357 22.3827 62.4753 22.6088 62.4753 22.8914C62.4753 23.1175 62.4162 23.3436 62.2387 23.5132C62.1204 23.6827 61.8837 23.8523 61.6471 23.9653C61.4104 24.0784 61.1146 24.1349 60.8188 24.1349C60.4047 24.0218 60.0497 23.9088 59.7539 23.6827Z" fill="#333333"/>
<path d="M64.0727 23.7392C63.7769 23.5697 63.4811 23.2871 63.3036 23.0045C63.1261 22.7218 63.0078 22.3262 63.0078 21.9305C63.0078 21.5349 63.067 21.1958 63.2445 20.8566C63.4219 20.5175 63.6586 20.2914 63.9544 20.0653C64.2502 19.8958 64.6052 19.7827 65.0193 19.7827C65.4335 19.7827 65.7884 19.8958 66.0843 20.0653C66.3801 20.2349 66.6167 20.461 66.7942 20.8001C66.9717 21.1392 67.0309 21.4784 67.0309 21.874C67.0309 21.9305 67.0309 21.9871 67.0309 22.0436H63.7178C63.7178 22.3262 63.7769 22.6088 63.9544 22.7784C64.0727 23.0045 64.2502 23.1175 64.4869 23.2305C64.7235 23.3436 64.901 23.4001 65.1377 23.4001C65.6701 23.4001 66.0843 23.174 66.3801 22.6653L67.0309 22.9479C66.8534 23.2871 66.6167 23.5131 66.2617 23.7392C65.9068 23.9653 65.5518 24.0218 65.1377 24.0218C64.7827 24.0218 64.4277 23.9088 64.0727 23.7392ZM66.3801 21.4218C66.3801 21.2523 66.3209 21.0827 66.2617 20.9697C66.2026 20.8001 66.0251 20.6871 65.8476 20.574C65.6701 20.461 65.4335 20.4045 65.1377 20.4045C64.8418 20.4045 64.546 20.5175 64.3094 20.6871C64.0727 20.8566 63.9544 21.1392 63.8952 21.4784H66.3801V21.4218Z" fill="#333333"/>
<path d="M67.9185 18.1436H68.629V23.8523H67.9185V18.1436Z" fill="#333333"/>
<path d="M69.7524 18.9347C69.6341 18.8217 69.575 18.7087 69.575 18.5956C69.575 18.4826 69.6341 18.3695 69.7524 18.2565C69.8708 18.1434 69.9891 18.0869 70.1074 18.0869C70.2257 18.0869 70.3441 18.1434 70.4624 18.2565C70.5807 18.3695 70.6399 18.4826 70.6399 18.5956C70.6399 18.7087 70.5807 18.8217 70.5216 18.9347C70.4032 19.0478 70.2849 19.1043 70.1666 19.1043C69.9299 19.0478 69.8116 18.9913 69.7524 18.9347ZM69.7524 19.8956H70.4624V23.8521H69.7524V19.8956Z" fill="#333333"/>
<path d="M72.2964 23.7394C72.0006 23.5698 71.7047 23.2872 71.5273 23.0046C71.3498 22.6654 71.2314 22.3263 71.2314 21.9307C71.2314 21.535 71.3498 21.1959 71.5273 20.8567C71.7047 20.5176 71.9414 20.2915 72.2964 20.122C72.6513 19.9524 73.0063 19.8394 73.4205 19.8394C73.8346 19.8394 74.1896 19.9524 74.5445 20.122C74.8995 20.2915 75.1362 20.5741 75.3136 20.8567C75.4911 21.1394 75.6095 21.535 75.6095 21.9307C75.6095 22.3263 75.4911 22.6654 75.3136 23.0046C75.1362 23.3437 74.8995 23.5698 74.5445 23.7394C74.1896 23.9089 73.8346 24.022 73.4205 24.022C73.0063 24.022 72.5922 23.9089 72.2964 23.7394ZM74.0712 23.1741C74.3079 23.0611 74.4854 22.8915 74.6037 22.6654C74.722 22.4394 74.7812 22.1567 74.7812 21.8741C74.7812 21.5915 74.722 21.3089 74.6037 21.0828C74.4854 20.8567 74.3079 20.6872 74.0712 20.5741C73.8346 20.4611 73.5979 20.4046 73.3613 20.4046C73.1246 20.4046 72.888 20.4611 72.6513 20.5741C72.4147 20.6872 72.2372 20.8567 72.1189 21.0828C72.0006 21.3089 71.9414 21.5915 71.9414 21.8741C71.9414 22.1567 72.0006 22.4394 72.1189 22.6654C72.2372 22.8915 72.4147 23.0611 72.6513 23.1741C72.888 23.2872 73.1246 23.3437 73.3613 23.3437C73.6571 23.4002 73.8937 23.3437 74.0712 23.1741Z" fill="#333333"/>
<path d="M76.6151 23.6827C76.3193 23.4566 76.0827 23.2305 75.9644 22.8914L76.6151 22.6088C76.7335 22.8349 76.911 23.061 77.0884 23.174C77.2659 23.2871 77.5026 23.4001 77.7392 23.4001C78.035 23.4001 78.2125 23.3436 78.39 23.2305C78.5675 23.1175 78.6267 23.0045 78.6267 22.8349C78.6267 22.6653 78.5675 22.5523 78.4492 22.4392C78.3309 22.3262 78.0942 22.2697 77.7984 22.1566L77.2068 22.0436C76.911 21.9871 76.6151 21.874 76.3785 21.6479C76.1418 21.4784 76.0235 21.2523 76.0235 20.9131C76.0235 20.6871 76.0827 20.461 76.2602 20.2914C76.4377 20.1218 76.6151 20.0088 76.8518 19.8958C77.0884 19.7827 77.3843 19.7827 77.6801 19.7827C78.035 19.7827 78.39 19.8392 78.6267 20.0088C78.9225 20.1784 79.1 20.4045 79.2775 20.6871L78.6858 20.9131C78.5675 20.7436 78.4492 20.574 78.2717 20.461C78.0942 20.3479 77.9167 20.3479 77.6801 20.3479C77.4434 20.3479 77.2659 20.4045 77.0884 20.5175C76.911 20.6305 76.8518 20.7436 76.8518 20.9131C76.8518 21.0262 76.911 21.1392 77.0293 21.2523C77.1476 21.3653 77.3251 21.4218 77.5617 21.4784L78.1534 21.6479C78.5675 21.761 78.8633 21.874 79.1 22.1001C79.2774 22.3262 79.3958 22.5523 79.3958 22.8349C79.3958 23.061 79.3366 23.2871 79.1591 23.4566C79.0408 23.6262 78.8042 23.7958 78.5675 23.9088C78.3309 24.0218 78.035 24.0784 77.7392 24.0784C77.3251 24.0218 76.911 23.9088 76.6151 23.6827Z" fill="#333333"/>
<path d="M83.3004 23.6262C82.8271 23.3436 82.4722 23.0044 82.1763 22.5523C81.8805 22.1001 81.7622 21.5914 81.7622 21.0262C81.7622 20.461 81.8805 19.9523 82.1763 19.5001C82.4722 19.0479 82.8271 18.7088 83.3004 18.4262C83.7737 18.1436 84.3062 18.0305 84.8978 18.0305C85.3711 18.0305 85.7852 18.087 86.1402 18.2566C86.4952 18.4262 86.8502 18.6523 87.0868 18.9349L86.6135 19.387C86.3769 19.1044 86.1402 18.9349 85.8444 18.8218C85.5486 18.7088 85.2528 18.6523 84.8978 18.6523C84.4837 18.6523 84.0695 18.7653 83.7146 18.9349C83.3596 19.1044 83.0638 19.387 82.8271 19.7827C82.5905 20.1783 82.5313 20.574 82.5313 21.0262C82.5313 21.4783 82.6496 21.874 82.8271 22.2696C83.0638 22.6088 83.3596 22.8914 83.7146 23.1175C84.0695 23.287 84.4837 23.4001 84.8978 23.4001C85.6078 23.4001 86.2585 23.1175 86.7318 22.5523L87.2643 23.0044C86.9685 23.3436 86.6727 23.5696 86.2585 23.7392C85.8444 23.9088 85.4303 24.0218 84.8978 24.0218C84.3062 24.0218 83.7737 23.8523 83.3004 23.6262Z" fill="#333333"/>
<path d="M88.7434 23.7394C88.4476 23.5698 88.1518 23.2872 87.9743 23.0046C87.7968 22.6654 87.6785 22.3263 87.6785 21.9307C87.6785 21.535 87.7968 21.1959 87.9743 20.8567C88.1518 20.5176 88.3884 20.2915 88.7434 20.122C89.0984 19.9524 89.4533 19.8394 89.8675 19.8394C90.2816 19.8394 90.6366 19.9524 90.9916 20.122C91.3465 20.2915 91.5832 20.5741 91.7607 20.8567C91.9382 21.1394 92.0565 21.535 92.0565 21.9307C92.0565 22.3263 91.9382 22.6654 91.7607 23.0046C91.5832 23.3437 91.3465 23.5698 90.9916 23.7394C90.6366 23.9089 90.2816 24.022 89.8675 24.022C89.4533 24.022 89.0392 23.9089 88.7434 23.7394ZM90.5183 23.1741C90.7549 23.0611 90.9324 22.8915 91.0507 22.6654C91.169 22.4394 91.2282 22.1567 91.2282 21.8741C91.2282 21.5915 91.169 21.3089 91.0507 21.0828C90.9324 20.8567 90.7549 20.6872 90.5183 20.5741C90.2816 20.4611 90.045 20.4046 89.8083 20.4046C89.5717 20.4046 89.335 20.4611 89.0984 20.5741C88.8617 20.6872 88.6842 20.8567 88.5659 21.0828C88.4476 21.3089 88.3884 21.5915 88.3884 21.8741C88.3884 22.1567 88.4476 22.4394 88.5659 22.6654C88.6842 22.8915 88.8617 23.0611 89.0984 23.1741C89.335 23.2872 89.5717 23.3437 89.8083 23.3437C90.1041 23.4002 90.3408 23.3437 90.5183 23.1741Z" fill="#333333"/>
<path d="M92.7073 18.1436H93.4178V23.8523H92.7073V18.1436Z" fill="#333333"/>
<path d="M94.4822 18.1436H95.1927V23.8523H94.4822V18.1436Z" fill="#333333"/>
<path d="M96.967 23.7392C96.6712 23.5697 96.3754 23.2871 96.1979 23.0045C96.0204 22.7218 95.9021 22.3262 95.9021 21.9305C95.9021 21.5349 95.9613 21.1958 96.1387 20.8566C96.3162 20.5175 96.5529 20.2914 96.8487 20.0653C97.1445 19.8958 97.4995 19.7827 97.9136 19.7827C98.3278 19.7827 98.6827 19.8958 98.9785 20.0653C99.2743 20.2349 99.511 20.461 99.6885 20.8001C99.866 21.1392 99.9251 21.4784 99.9251 21.874C99.9251 21.9305 99.9251 21.9871 99.9251 22.0436H96.612C96.612 22.3262 96.6712 22.6088 96.8487 22.7784C96.967 23.0045 97.1445 23.1175 97.3812 23.2305C97.6178 23.3436 97.7953 23.4001 98.0319 23.4001C98.5644 23.4001 98.9785 23.174 99.2743 22.6653L99.9251 22.9479C99.7476 23.2871 99.511 23.5131 99.156 23.7392C98.8602 23.9088 98.4461 24.0218 98.0319 24.0218C97.6178 24.0218 97.2628 23.9088 96.967 23.7392ZM99.2152 21.4218C99.2152 21.2523 99.156 21.0827 99.0969 20.9697C99.0377 20.8001 98.8602 20.6871 98.6827 20.574C98.5052 20.461 98.2686 20.4045 97.9728 20.4045C97.677 20.4045 97.3812 20.5175 97.1445 20.6871C96.9079 20.8566 96.7895 21.1392 96.7304 21.4784H99.2152V21.4218Z" fill="#333333"/>
<path d="M101.404 25.3781C101.108 25.152 100.872 24.8694 100.754 24.5868L101.404 24.3042C101.463 24.5303 101.641 24.7564 101.878 24.8694C102.114 24.9825 102.351 25.0955 102.647 25.0955C103.061 25.0955 103.416 24.9824 103.652 24.7563C103.889 24.5303 104.007 24.1912 104.007 23.739V23.3433H103.948C103.83 23.5694 103.593 23.739 103.357 23.852C103.12 23.9651 102.824 24.0781 102.528 24.0781C102.173 24.0781 101.878 23.965 101.523 23.7954C101.227 23.6259 100.99 23.3433 100.813 23.0607C100.635 22.7215 100.517 22.3825 100.517 21.9868C100.517 21.5912 100.635 21.252 100.813 20.9129C100.99 20.5738 101.227 20.3477 101.523 20.1781C101.818 20.0086 102.173 19.8955 102.528 19.8955C102.824 19.8955 103.12 19.952 103.357 20.1215C103.593 20.2346 103.83 20.4042 103.948 20.6303H104.007V20.0651H104.658V23.739C104.658 24.1912 104.54 24.5303 104.362 24.8694C104.185 25.2085 103.948 25.3781 103.652 25.5476C103.357 25.7172 103.002 25.7737 102.588 25.7737C102.173 25.7172 101.759 25.6042 101.404 25.3781ZM103.357 23.2302C103.534 23.1172 103.712 22.9477 103.83 22.7216C103.948 22.4955 104.007 22.2128 104.007 21.9302C104.007 21.6476 103.948 21.3651 103.83 21.139C103.712 20.9129 103.534 20.7433 103.357 20.6303C103.179 20.5172 102.943 20.4607 102.706 20.4607C102.469 20.4607 102.233 20.5172 102.055 20.6303C101.878 20.7433 101.7 20.9129 101.582 21.139C101.463 21.3651 101.404 21.6476 101.404 21.9302C101.404 22.2128 101.463 22.4955 101.582 22.7216C101.7 22.9477 101.878 23.1172 102.055 23.2302C102.233 23.3433 102.469 23.3999 102.706 23.3999C102.943 23.3999 103.179 23.3433 103.357 23.2302Z" fill="#333333"/>
<path d="M106.492 23.7392C106.196 23.5697 105.901 23.2871 105.723 23.0045C105.546 22.7218 105.427 22.3262 105.427 21.9305C105.427 21.5349 105.486 21.1958 105.664 20.8566C105.841 20.5175 106.078 20.2914 106.374 20.0653C106.67 19.8958 107.025 19.7827 107.439 19.7827C107.853 19.7827 108.208 19.8958 108.504 20.0653C108.799 20.2349 109.036 20.461 109.214 20.8001C109.391 21.1392 109.45 21.4784 109.45 21.874C109.45 21.9305 109.45 21.9871 109.45 22.0436H106.137C106.137 22.3262 106.196 22.6088 106.374 22.7784C106.492 23.0045 106.67 23.1175 106.906 23.2305C107.143 23.3436 107.32 23.4001 107.557 23.4001C108.09 23.4001 108.504 23.174 108.799 22.6653L109.45 22.9479C109.273 23.2871 109.036 23.5131 108.681 23.7392C108.385 23.9088 107.971 24.0218 107.557 24.0218C107.143 24.0218 106.788 23.9088 106.492 23.7392ZM108.74 21.4218C108.74 21.2523 108.681 21.0827 108.622 20.9697C108.563 20.8001 108.385 20.6871 108.208 20.574C108.03 20.461 107.794 20.4045 107.498 20.4045C107.202 20.4045 106.906 20.5175 106.67 20.6871C106.433 20.8566 106.315 21.1392 106.256 21.4784H108.74V21.4218Z" fill="#333333"/>
<path d="M113.059 23.7394C112.763 23.5698 112.467 23.2872 112.29 23.0046C112.112 22.6654 111.994 22.3263 111.994 21.9307C111.994 21.535 112.112 21.1959 112.29 20.8567C112.467 20.5176 112.704 20.2915 113.059 20.122C113.414 19.9524 113.769 19.8394 114.183 19.8394C114.597 19.8394 114.952 19.9524 115.307 20.122C115.662 20.2915 115.899 20.5741 116.076 20.8567C116.254 21.1394 116.372 21.535 116.372 21.9307C116.372 22.3263 116.254 22.6654 116.076 23.0046C115.899 23.3437 115.662 23.5698 115.307 23.7394C114.952 23.9089 114.597 24.022 114.183 24.022C113.769 24.022 113.355 23.9089 113.059 23.7394ZM114.834 23.1741C115.071 23.0611 115.248 22.8915 115.366 22.6654C115.485 22.4394 115.544 22.1567 115.544 21.8741C115.544 21.5915 115.485 21.3089 115.366 21.0828C115.248 20.8567 115.071 20.6872 114.834 20.5741C114.597 20.4611 114.361 20.4046 114.124 20.4046C113.887 20.4046 113.651 20.4611 113.414 20.5741C113.177 20.6872 113 20.8567 112.882 21.0828C112.763 21.3089 112.704 21.5915 112.704 21.8741C112.704 22.1567 112.763 22.4394 112.882 22.6654C113 22.8915 113.177 23.0611 113.414 23.1741C113.651 23.2872 113.887 23.3437 114.124 23.3437C114.42 23.4002 114.656 23.3437 114.834 23.1741Z" fill="#333333"/>
<path d="M117.437 20.5175H116.668V19.8957H117.437V19.3305C117.437 19.0479 117.496 18.8783 117.615 18.6523C117.733 18.4827 117.91 18.3131 118.088 18.2001C118.265 18.087 118.502 18.0305 118.798 18.0305C118.916 18.0305 119.034 18.0305 119.153 18.0305C119.271 18.0305 119.33 18.087 119.449 18.087V18.7653C119.271 18.6523 119.094 18.6523 118.857 18.6523C118.679 18.6523 118.502 18.7088 118.384 18.8218C118.265 18.9349 118.206 19.1044 118.206 19.3305V19.7827H119.271V20.4044H118.206V23.7392H117.496V20.5175H117.437Z" fill="#333333"/>
<path d="M122.17 18.1436H125.661V18.7653H122.88V20.687H125.365V21.3088H122.88V23.2305H125.661V23.8523H122.17V18.1436Z" fill="#333333"/>
<path d="M126.548 19.8956H127.199V20.4609H127.258C127.376 20.2348 127.554 20.0652 127.791 19.9522C128.027 19.8391 128.323 19.7261 128.619 19.7261C129.151 19.7261 129.506 19.8956 129.802 20.1782C130.039 20.4609 130.216 20.8565 130.216 21.3652V23.8522H129.506V21.4782C129.506 20.7435 129.151 20.4043 128.441 20.4043C128.205 20.4043 128.027 20.4609 127.85 20.5739C127.672 20.6869 127.554 20.8565 127.436 21.0261C127.317 21.1956 127.317 21.4217 127.317 21.6478V23.8522H126.607V19.8956H126.548Z" fill="#333333"/>
<path d="M131.695 25.3781C131.4 25.152 131.163 24.8694 131.045 24.5868L131.695 24.3042C131.755 24.5303 131.932 24.7564 132.169 24.8694C132.405 25.039 132.642 25.0955 132.938 25.0955C133.352 25.0955 133.707 24.9824 133.944 24.7563C134.18 24.5303 134.299 24.1912 134.299 23.739V23.3433C134.18 23.5694 133.944 23.739 133.707 23.852C133.47 23.9651 133.175 24.0781 132.879 24.0781C132.524 24.0781 132.228 23.965 131.873 23.7954C131.577 23.6259 131.34 23.3433 131.163 23.0607C130.986 22.7215 130.867 22.3825 130.867 21.9868C130.867 21.5912 130.986 21.252 131.163 20.9129C131.34 20.5738 131.577 20.3477 131.873 20.1781C132.169 20.0086 132.524 19.8955 132.879 19.8955C133.175 19.8955 133.47 19.952 133.707 20.1215C133.944 20.2346 134.18 20.4042 134.299 20.6303H134.358V20.0651H135.009V23.739C135.009 24.1912 134.89 24.5303 134.713 24.8694C134.535 25.2085 134.299 25.3781 134.003 25.5476C133.707 25.7172 133.352 25.7737 132.938 25.7737C132.465 25.7172 132.05 25.6042 131.695 25.3781ZM133.648 23.2302C133.825 23.1172 134.003 22.9477 134.121 22.7216C134.239 22.4955 134.299 22.2128 134.299 21.9302C134.299 21.6476 134.239 21.3651 134.121 21.139C134.003 20.9129 133.825 20.7433 133.648 20.6303C133.47 20.5172 133.234 20.4607 132.997 20.4607C132.76 20.4607 132.524 20.5172 132.346 20.6303C132.169 20.7433 131.991 20.9129 131.873 21.139C131.755 21.3651 131.695 21.6476 131.695 21.9302C131.695 22.2128 131.755 22.4955 131.873 22.7216C131.991 22.9477 132.169 23.1172 132.346 23.2302C132.524 23.3433 132.76 23.3999 132.997 23.3999C133.234 23.3999 133.411 23.3433 133.648 23.2302Z" fill="#333333"/>
<path d="M136.133 18.9347C136.014 18.8217 135.955 18.7087 135.955 18.5956C135.955 18.4826 136.014 18.3695 136.133 18.2565C136.251 18.1434 136.369 18.0869 136.488 18.0869C136.606 18.0869 136.724 18.1434 136.843 18.2565C136.961 18.3695 137.02 18.4826 137.02 18.5956C137.02 18.7087 136.961 18.8217 136.902 18.9347C136.783 19.0478 136.665 19.1043 136.547 19.1043C136.31 19.0478 136.192 18.9913 136.133 18.9347ZM136.133 19.8956H136.843V23.8521H136.133V19.8956Z" fill="#333333"/>
<path d="M137.907 19.8956H138.558V20.4609H138.617C138.735 20.2348 138.913 20.0652 139.15 19.9522C139.386 19.8391 139.682 19.7261 139.978 19.7261C140.51 19.7261 140.865 19.8956 141.161 20.1782C141.398 20.4609 141.575 20.8565 141.575 21.3652V23.8522H140.865V21.4782C140.865 20.7435 140.51 20.4043 139.8 20.4043C139.564 20.4043 139.386 20.4609 139.209 20.5739C139.031 20.6869 138.913 20.8565 138.795 21.0261C138.676 21.1956 138.676 21.4217 138.676 21.6478V23.8522H137.966V19.8956H137.907Z" fill="#333333"/>
<path d="M143.35 23.7392C143.055 23.5697 142.759 23.2871 142.581 23.0045C142.404 22.7218 142.285 22.3262 142.285 21.9305C142.285 21.5349 142.345 21.1958 142.522 20.8566C142.7 20.5175 142.936 20.2914 143.232 20.0653C143.528 19.8958 143.883 19.7827 144.297 19.7827C144.711 19.7827 145.066 19.8958 145.362 20.0653C145.658 20.2349 145.894 20.461 146.072 20.8001C146.249 21.1392 146.308 21.4784 146.308 21.874C146.308 21.9305 146.308 21.9871 146.308 22.0436H142.995C142.995 22.3262 143.055 22.6088 143.232 22.7784C143.35 23.0045 143.528 23.1175 143.764 23.2305C144.001 23.3436 144.179 23.4001 144.415 23.4001C144.948 23.4001 145.362 23.174 145.658 22.6653L146.308 22.9479C146.131 23.2871 145.894 23.5131 145.539 23.7392C145.244 23.9088 144.829 24.0218 144.415 24.0218C144.001 24.0218 143.646 23.9088 143.35 23.7392ZM145.598 21.4218C145.598 21.2523 145.539 21.0827 145.48 20.9697C145.421 20.8001 145.244 20.6871 145.066 20.574C144.889 20.461 144.652 20.4045 144.356 20.4045C144.06 20.4045 143.764 20.5175 143.528 20.6871C143.291 20.8566 143.173 21.1392 143.114 21.4784H145.598V21.4218Z" fill="#333333"/>
<path d="M147.965 23.7392C147.669 23.5697 147.373 23.2871 147.196 23.0045C147.018 22.7218 146.9 22.3262 146.9 21.9305C146.9 21.5349 146.959 21.1958 147.137 20.8566C147.314 20.5175 147.551 20.2914 147.846 20.0653C148.142 19.8958 148.497 19.7827 148.911 19.7827C149.326 19.7827 149.681 19.8958 149.976 20.0653C150.272 20.2349 150.509 20.461 150.686 20.8001C150.864 21.1392 150.923 21.4784 150.923 21.874C150.923 21.9305 150.923 21.9871 150.923 22.0436H147.61C147.61 22.3262 147.669 22.6088 147.846 22.7784C147.965 23.0045 148.142 23.1175 148.379 23.2305C148.616 23.3436 148.793 23.4001 149.03 23.4001C149.562 23.4001 149.976 23.174 150.272 22.6653L150.923 22.9479C150.745 23.2871 150.509 23.5131 150.154 23.7392C149.799 23.9653 149.444 24.0218 149.03 24.0218C148.675 24.0218 148.32 23.9088 147.965 23.7392ZM150.272 21.4218C150.272 21.2523 150.213 21.0827 150.154 20.9697C150.095 20.8001 149.917 20.6871 149.74 20.574C149.562 20.461 149.326 20.4045 149.03 20.4045C148.734 20.4045 148.438 20.5175 148.201 20.6871C147.965 20.8566 147.846 21.1392 147.787 21.4784H150.272V21.4218Z" fill="#333333"/>
<path d="M151.811 19.8956H152.461V20.5174H152.521C152.58 20.2913 152.757 20.1217 152.994 19.9522C153.231 19.7826 153.467 19.7261 153.704 19.7261C153.881 19.7261 154.059 19.7261 154.177 19.7826V20.5174C154 20.4609 153.822 20.4043 153.585 20.4043C153.408 20.4043 153.231 20.4609 153.053 20.5739C152.876 20.6869 152.757 20.8565 152.639 21.0261C152.521 21.1956 152.461 21.4217 152.461 21.5913V23.7956H151.751V19.8956H151.811Z" fill="#333333"/>
<path d="M154.946 18.9347C154.828 18.8217 154.769 18.7087 154.769 18.5956C154.769 18.4826 154.828 18.3695 154.946 18.2565C155.064 18.1434 155.183 18.0869 155.301 18.0869C155.419 18.0869 155.538 18.1434 155.656 18.2565C155.774 18.3695 155.833 18.4826 155.833 18.5956C155.833 18.7087 155.774 18.8217 155.715 18.9347C155.656 19.0478 155.479 19.1043 155.36 19.1043C155.124 19.0478 155.005 18.9913 154.946 18.9347ZM154.946 19.8956H155.656V23.8521H154.946V19.8956Z" fill="#333333"/>
<path d="M156.721 19.8956H157.372V20.4609H157.431C157.549 20.2348 157.727 20.0652 157.963 19.9522C158.2 19.8391 158.496 19.7261 158.792 19.7261C159.324 19.7261 159.679 19.8956 159.975 20.1782C160.271 20.4609 160.389 20.8565 160.389 21.3652V23.8522H159.679V21.4782C159.679 20.7435 159.324 20.4043 158.614 20.4043C158.377 20.4043 158.2 20.4609 158.023 20.5739C157.845 20.6869 157.727 20.8565 157.608 21.0261C157.49 21.1956 157.49 21.4217 157.49 21.6478V23.8522H156.78V19.8956H156.721Z" fill="#333333"/>
<path d="M161.927 25.3781C161.631 25.152 161.395 24.8694 161.276 24.5868L161.927 24.3042C161.986 24.5303 162.164 24.7564 162.401 24.8694C162.637 24.9825 162.874 25.0955 163.17 25.0955C163.584 25.0955 163.939 24.9824 164.175 24.7563C164.412 24.5303 164.53 24.1912 164.53 23.739V23.3433H164.471C164.353 23.5694 164.116 23.739 163.88 23.852C163.643 23.9651 163.347 24.0781 163.051 24.0781C162.696 24.0781 162.401 23.965 162.046 23.7954C161.75 23.6259 161.513 23.3433 161.336 23.0607C161.158 22.7215 161.04 22.3825 161.04 21.9868C161.04 21.5912 161.158 21.252 161.336 20.9129C161.513 20.5738 161.75 20.3477 162.046 20.1781C162.341 20.0086 162.696 19.8955 163.051 19.8955C163.347 19.8955 163.643 19.952 163.88 20.1215C164.116 20.2346 164.353 20.4042 164.471 20.6303H164.53V20.0651H165.181V23.739C165.181 24.1912 165.063 24.5303 164.885 24.8694C164.708 25.2085 164.471 25.3781 164.175 25.5476C163.88 25.7172 163.525 25.7737 163.11 25.7737C162.637 25.7172 162.223 25.6042 161.927 25.3781ZM163.88 23.2302C164.057 23.1172 164.235 22.9477 164.353 22.7216C164.471 22.4955 164.53 22.2128 164.53 21.9302C164.53 21.6476 164.471 21.3651 164.353 21.139C164.235 20.9129 164.057 20.7433 163.88 20.6303C163.702 20.5172 163.465 20.4607 163.229 20.4607C162.992 20.4607 162.755 20.5172 162.578 20.6303C162.401 20.7433 162.223 20.9129 162.105 21.139C161.986 21.3651 161.927 21.6476 161.927 21.9302C161.927 22.2128 161.986 22.4955 162.105 22.7216C162.223 22.9477 162.401 23.1172 162.578 23.2302C162.755 23.3433 162.992 23.3999 163.229 23.3999C163.465 23.3999 163.643 23.3433 163.88 23.2302Z" fill="#333333"/>
<path d="M168.731 23.8524C168.494 23.7394 168.317 23.5698 168.139 23.4002C168.021 23.1741 167.962 22.9481 167.962 22.722C167.962 22.3263 168.139 21.9872 168.435 21.7611C168.79 21.535 169.204 21.422 169.737 21.422C169.973 21.422 170.21 21.422 170.447 21.4785C170.624 21.535 170.801 21.5915 170.92 21.6481V21.422C170.92 21.2524 170.861 21.0828 170.742 20.9133C170.624 20.7437 170.506 20.6307 170.328 20.5741C170.151 20.5176 169.973 20.4611 169.796 20.4611C169.322 20.4611 168.967 20.6307 168.731 21.0263L168.139 20.6307C168.317 20.4046 168.553 20.1785 168.849 20.0654C169.145 19.9524 169.441 19.8394 169.796 19.8394C170.387 19.8394 170.801 20.0089 171.156 20.2915C171.511 20.5741 171.63 20.9698 171.63 21.4785V23.9654H170.979V23.4002H170.92C170.801 23.6263 170.624 23.7959 170.387 23.9089C170.151 24.022 169.914 24.135 169.618 24.135C169.322 24.135 168.967 23.9654 168.731 23.8524ZM170.269 23.2307C170.446 23.1176 170.624 22.9481 170.742 22.7785C170.861 22.6089 170.92 22.3828 170.92 22.1567C170.624 21.9872 170.269 21.8741 169.855 21.8741C169.5 21.8741 169.204 21.9307 169.027 22.1002C168.79 22.2698 168.731 22.4394 168.731 22.6654C168.731 22.8915 168.849 23.0611 169.027 23.1741C169.204 23.2872 169.441 23.4002 169.677 23.4002C169.855 23.4002 170.032 23.3437 170.269 23.2307Z" fill="#333333"/>
<path d="M172.576 19.8956H173.227V20.4609H173.286C173.405 20.2348 173.582 20.0652 173.819 19.9522C174.055 19.8391 174.351 19.7261 174.647 19.7261C175.18 19.7261 175.535 19.8956 175.83 20.1782C176.126 20.4609 176.244 20.8565 176.244 21.3652V23.8522H175.535V21.4782C175.535 20.7435 175.18 20.4043 174.47 20.4043C174.233 20.4043 174.055 20.4609 173.878 20.5739C173.7 20.6869 173.582 20.8565 173.464 21.0261C173.346 21.1956 173.346 21.4217 173.346 21.6478V23.8522H172.636V19.8956H172.576Z" fill="#333333"/>
<path d="M177.96 23.7391C177.665 23.5695 177.428 23.2869 177.25 23.0043C177.073 22.6652 176.955 22.326 176.955 21.9303C176.955 21.5347 177.073 21.1956 177.25 20.8565C177.428 20.5173 177.665 20.2912 177.96 20.1216C178.256 19.9521 178.611 19.839 178.966 19.839C179.262 19.839 179.558 19.8956 179.854 20.0652C180.09 20.1782 180.327 20.3478 180.445 20.5739H180.504L180.445 20.0086V18.2H181.155V23.9086H180.445V23.3434H180.386C180.268 23.5695 180.09 23.7391 179.794 23.8521C179.558 23.9652 179.262 24.0782 178.907 24.0782C178.611 24.0216 178.256 23.9086 177.96 23.7391ZM179.735 23.2303C179.972 23.1173 180.09 22.9478 180.209 22.7217C180.327 22.4956 180.386 22.2129 180.386 21.9303C180.386 21.6477 180.327 21.3652 180.209 21.1391C180.09 20.913 179.913 20.7434 179.735 20.6304C179.499 20.5173 179.321 20.4608 179.025 20.4608C178.729 20.4608 178.552 20.5173 178.315 20.6304C178.079 20.7434 177.96 20.913 177.842 21.1391C177.724 21.3652 177.665 21.6477 177.665 21.9303C177.665 22.2129 177.724 22.4956 177.842 22.7217C177.96 22.9478 178.138 23.1173 178.315 23.2303C178.552 23.3434 178.729 23.4 179.025 23.4C179.321 23.4 179.558 23.3434 179.735 23.2303Z" fill="#333333"/>
<path d="M185.119 18.7653H183.462V18.1436H187.545V18.7653H185.888V23.8523H185.178V18.7653H185.119Z" fill="#333333"/>
<path d="M188.373 23.7392C188.077 23.5697 187.781 23.2871 187.604 23.0045C187.426 22.7218 187.308 22.3262 187.308 21.9305C187.308 21.5349 187.367 21.1958 187.545 20.8566C187.722 20.5175 187.959 20.2914 188.254 20.0653C188.55 19.8958 188.905 19.7827 189.319 19.7827C189.734 19.7827 190.088 19.8958 190.384 20.0653C190.68 20.2349 190.917 20.461 191.094 20.8001C191.272 21.1392 191.331 21.4784 191.331 21.874C191.331 21.9305 191.331 21.9871 191.331 22.0436H188.018C188.018 22.3262 188.077 22.6088 188.254 22.7784C188.373 23.0045 188.55 23.1175 188.787 23.2305C189.024 23.3436 189.201 23.4001 189.438 23.4001C189.97 23.4001 190.384 23.174 190.68 22.6653L191.331 22.9479C191.153 23.2871 190.917 23.5131 190.562 23.7392C190.266 23.9088 189.852 24.0218 189.438 24.0218C189.024 24.0218 188.669 23.9088 188.373 23.7392ZM190.621 21.4218C190.621 21.2523 190.562 21.0827 190.503 20.9697C190.443 20.8001 190.266 20.6871 190.088 20.574C189.911 20.461 189.674 20.4045 189.379 20.4045C189.083 20.4045 188.787 20.5175 188.55 20.6871C188.314 20.8566 188.195 21.1392 188.136 21.4784H190.621V21.4218Z" fill="#333333"/>
<path d="M193.047 23.7394C192.751 23.5698 192.455 23.2872 192.278 23.0046C192.1 22.6654 191.982 22.3263 191.982 21.9307C191.982 21.535 192.1 21.1959 192.278 20.8567C192.455 20.5176 192.692 20.2915 193.047 20.122C193.402 19.9524 193.757 19.8394 194.112 19.8394C194.585 19.8394 194.94 19.9524 195.236 20.1785C195.531 20.4046 195.768 20.6307 195.886 20.9698L195.236 21.2524C194.999 20.7437 194.585 20.4611 194.052 20.4611C193.816 20.4611 193.579 20.5176 193.402 20.6307C193.165 20.7437 193.047 20.9133 192.869 21.1394C192.751 21.3654 192.692 21.6481 192.692 21.9307C192.692 22.2133 192.751 22.4959 192.869 22.722C192.987 22.9481 193.165 23.1176 193.402 23.2307C193.638 23.3437 193.816 23.4002 194.052 23.4002C194.348 23.4002 194.585 23.3437 194.821 23.1741C195.058 23.0046 195.176 22.835 195.295 22.6089L195.946 22.8915C195.827 23.2307 195.591 23.5133 195.295 23.6828C194.999 23.8524 194.585 24.022 194.171 24.022C193.697 24.022 193.342 23.9089 193.047 23.7394Z" fill="#333333"/>
<path d="M196.715 18.1436H197.425V19.9523L197.365 20.5175H197.425C197.543 20.2914 197.72 20.1218 197.957 20.0088C198.194 19.8957 198.489 19.7827 198.785 19.7827C199.318 19.7827 199.673 19.9523 199.969 20.2349C200.264 20.5175 200.383 20.9131 200.383 21.3653V23.8523H199.673V21.4783C199.673 21.0827 199.554 20.8566 199.377 20.687C199.199 20.5175 198.963 20.4044 198.608 20.4044C198.371 20.4044 198.194 20.4609 198.016 20.574C197.839 20.687 197.72 20.8566 197.602 21.0827C197.484 21.3088 197.425 21.4783 197.425 21.7044V23.8523H196.715V18.1436Z" fill="#333333"/>
<path d="M201.329 19.8956H201.98V20.4609H202.039C202.158 20.2348 202.335 20.0652 202.572 19.9522C202.808 19.8391 203.104 19.7261 203.4 19.7261C203.932 19.7261 204.287 19.8956 204.583 20.1782C204.82 20.4609 204.997 20.8565 204.997 21.3652V23.8522H204.287V21.4782C204.287 20.7435 203.933 20.4043 203.223 20.4043C202.986 20.4043 202.808 20.4609 202.631 20.5739C202.453 20.6869 202.335 20.8565 202.217 21.0261C202.098 21.1956 202.098 21.4217 202.098 21.6478V23.8522H201.389V19.8956H201.329Z" fill="#333333"/>
<path d="M206.772 23.7394C206.476 23.5698 206.181 23.2872 206.003 23.0046C205.826 22.6654 205.707 22.3263 205.707 21.9307C205.707 21.535 205.826 21.1959 206.003 20.8567C206.181 20.5176 206.417 20.2915 206.772 20.122C207.127 19.9524 207.482 19.8394 207.896 19.8394C208.31 19.8394 208.665 19.9524 209.02 20.122C209.375 20.2915 209.612 20.5741 209.789 20.8567C209.967 21.1394 210.085 21.535 210.085 21.9307C210.085 22.3263 209.967 22.6654 209.789 23.0046C209.612 23.3437 209.375 23.5698 209.02 23.7394C208.665 23.9089 208.31 24.022 207.896 24.022C207.482 24.022 207.068 23.9089 206.772 23.7394ZM208.547 23.1741C208.784 23.0611 208.961 22.8915 209.08 22.6654C209.198 22.4394 209.257 22.1567 209.257 21.8741C209.257 21.5915 209.198 21.3089 209.08 21.0828C208.961 20.8567 208.784 20.6872 208.547 20.5741C208.31 20.4611 208.074 20.4046 207.837 20.4046C207.6 20.4046 207.364 20.4611 207.127 20.5741C206.891 20.6872 206.713 20.8567 206.595 21.0828C206.476 21.3089 206.417 21.5915 206.417 21.8741C206.417 22.1567 206.476 22.4394 206.595 22.6654C206.713 22.8915 206.891 23.0611 207.127 23.1741C207.364 23.2872 207.6 23.3437 207.837 23.3437C208.133 23.4002 208.37 23.3437 208.547 23.1741Z" fill="#333333"/>
<path d="M210.736 18.1436H211.447V23.8523H210.736V18.1436Z" fill="#333333"/>
<path d="M213.28 23.7394C212.984 23.5698 212.688 23.2872 212.511 23.0046C212.333 22.6654 212.215 22.3263 212.215 21.9307C212.215 21.535 212.333 21.1959 212.511 20.8567C212.688 20.5176 212.925 20.2915 213.28 20.122C213.635 19.9524 213.99 19.8394 214.404 19.8394C214.818 19.8394 215.173 19.9524 215.528 20.122C215.883 20.2915 216.12 20.5741 216.297 20.8567C216.475 21.1394 216.593 21.535 216.593 21.9307C216.593 22.3263 216.475 22.6654 216.297 23.0046C216.12 23.3437 215.883 23.5698 215.528 23.7394C215.173 23.9089 214.818 24.022 214.404 24.022C213.99 24.022 213.576 23.9089 213.28 23.7394ZM215.055 23.1741C215.292 23.0611 215.469 22.8915 215.587 22.6654C215.706 22.4394 215.765 22.1567 215.765 21.8741C215.765 21.5915 215.706 21.3089 215.587 21.0828C215.469 20.8567 215.292 20.6872 215.055 20.5741C214.818 20.4611 214.582 20.4046 214.345 20.4046C214.108 20.4046 213.872 20.4611 213.635 20.5741C213.398 20.6872 213.221 20.8567 213.103 21.0828C212.984 21.3089 212.925 21.5915 212.925 21.8741C212.925 22.1567 212.984 22.4394 213.103 22.6654C213.221 22.8915 213.398 23.0611 213.635 23.1741C213.872 23.2872 214.108 23.3437 214.345 23.3437C214.582 23.4002 214.818 23.3437 215.055 23.1741Z" fill="#333333"/>
<path d="M217.895 25.3781C217.599 25.152 217.362 24.8694 217.244 24.5868L217.895 24.3042C217.954 24.5303 218.131 24.7564 218.368 24.8694C218.605 25.039 218.841 25.0955 219.137 25.0955C219.551 25.0955 219.906 24.9824 220.143 24.7563C220.38 24.5303 220.498 24.1912 220.498 23.739V23.3433H220.439C220.32 23.5694 220.084 23.739 219.847 23.852C219.61 23.9651 219.315 24.0781 219.019 24.0781C218.664 24.0781 218.368 23.965 218.013 23.7954C217.717 23.6259 217.481 23.3433 217.303 23.0607C217.126 22.7215 217.007 22.3825 217.007 21.9868C217.007 21.5912 217.126 21.252 217.303 20.9129C217.481 20.5738 217.717 20.3477 218.013 20.1781C218.309 20.0086 218.664 19.8955 219.019 19.8955C219.315 19.8955 219.61 19.952 219.847 20.1215C220.084 20.2346 220.32 20.4042 220.439 20.6303H220.498V20.0651H221.149V23.739C221.149 24.1912 221.03 24.5303 220.853 24.8694C220.675 25.2085 220.439 25.3781 220.143 25.5476C219.847 25.7172 219.492 25.7737 219.078 25.7737C218.605 25.7172 218.191 25.6042 217.895 25.3781ZM219.788 23.2302C219.965 23.1172 220.143 22.9477 220.261 22.7216C220.38 22.4955 220.439 22.2128 220.439 21.9302C220.439 21.6476 220.38 21.3651 220.261 21.139C220.143 20.9129 219.965 20.7433 219.788 20.6303C219.61 20.5172 219.374 20.4607 219.137 20.4607C218.901 20.4607 218.664 20.5172 218.486 20.6303C218.309 20.7433 218.131 20.9129 218.013 21.139C217.895 21.3651 217.836 21.6476 217.836 21.9302C217.836 22.2128 217.895 22.4955 218.013 22.7216C218.131 22.9477 218.309 23.1172 218.486 23.2302C218.664 23.3433 218.901 23.3999 219.137 23.3999C219.374 23.3999 219.61 23.3433 219.788 23.2302Z" fill="#333333"/>
<path d="M223.456 23.6259L221.74 19.8955H222.509L223.811 22.8346L225.053 19.8955H225.822L223.219 25.6042H222.509L223.456 23.6259Z" fill="#333333"/>
</g>
<defs>
<clipPath id="clip0_151_13714">
<rect width="226" height="26" fill="white"/>
</clipPath>
</defs>
</svg>
